<svg width="41" height="40" viewBox="0 0 41 40" fill="none" xmlns="http://www.w3.org/2000/svg">
<path opacity="0.991" fill-rule="evenodd" clip-rule="evenodd" d="M19.849 3.33333C20.283 3.33333 20.717 3.33333 21.1511 3.33333C21.4781 3.4538 21.8036 3.59486 22.1276 3.75651C26.9718 6.66872 31.8329 9.555 36.711 12.4154C36.897 12.5256 37.0489 12.6667 37.1667 12.8385C37.1667 14.0755 37.1667 15.3125 37.1667 16.5495C37.0448 16.7467 36.8712 16.8877 36.6459 16.9727C35.8215 17.0052 34.9968 17.0161 34.1719 17.0052C34.161 21.5191 34.1719 26.033 34.2045 30.5469C35.7579 30.701 36.7453 31.5256 37.1667 33.0208C37.1667 34.0842 37.1667 35.1476 37.1667 36.2109C37.0978 36.2825 37.0435 36.3694 37.0039 36.4713C36.8964 36.5299 36.7987 36.595 36.711 36.6667C25.9037 36.6667 15.0964 36.6667 4.2891 36.6667C4.21747 36.5978 4.13067 36.5435 4.02869 36.5039C3.97013 36.3963 3.90503 36.2987 3.83337 36.2109C3.83337 35.1476 3.83337 34.0842 3.83337 33.0208C4.25427 31.5262 5.24169 30.7016 6.79561 30.5469C6.82817 26.033 6.83902 21.5191 6.82817 17.0052C6.00322 17.0161 5.17858 17.0052 4.35421 16.9727C4.12886 16.8877 3.95525 16.7467 3.83337 16.5495C3.83337 15.3125 3.83337 14.0755 3.83337 12.8385C3.90476 12.7342 3.99156 12.6365 4.09379 12.5456C9.03076 9.63227 13.957 6.70259 18.8724 3.75651C19.1965 3.59486 19.522 3.4538 19.849 3.33333ZM20.3047 7.89062C22.614 8.10548 23.6448 9.36415 23.3972 11.6667C22.8182 13.3077 21.6572 14.0348 19.9141 13.8477C18.5867 13.5185 17.7946 12.683 17.5378 11.3411C17.4716 9.38725 18.3939 8.23707 20.3047 7.89062ZM12.948 17.0052C14.4454 17.0052 15.9427 17.0052 17.4401 17.0052C17.4401 21.5191 17.4401 26.033 17.4401 30.5469C15.9427 30.5469 14.4454 30.5469 12.948 30.5469C12.948 26.033 12.948 21.5191 12.948 17.0052ZM23.5599 17.0052C25.0573 17.0052 26.5547 17.0052 28.0521 17.0052C28.0521 21.5191 28.0521 26.033 28.0521 30.5469C26.5547 30.5469 25.0573 30.5469 23.5599 30.5469C23.5599 26.033 23.5599 21.5191 23.5599 17.0052Z" fill="url(#paint0_linear_33_242)"/>
<defs>
<linearGradient id="paint0_linear_33_242" x1="20.5" y1="3.33333" x2="20.5" y2="36.6667" gradientUnits="userSpaceOnUse">
<stop stop-color="#556AC1"/>
<stop offset="1" stop-color="#41A2DC"/>
</linearGradient>
</defs>
</svg>
