<svg width="17" height="17" viewBox="0 0 17 17" fill="none" xmlns="http://www.w3.org/2000/svg">
<g clip-path="url(#clip0_41_6388)">
<path d="M15.5 1.99819L11.4965 1.99821V1.00171C11.4965 0.725459 11.2727 0.501709 10.9965 0.501709C10.7203 0.501709 10.4965 0.725459 10.4965 1.00171V1.99796H6.4965V1.00171C6.4965 0.725459 6.27275 0.501709 5.9965 0.501709C5.72025 0.501709 5.4965 0.725459 5.4965 1.00171V1.99796H1.5C0.94775 1.99796 0.5 2.44571 0.5 2.99796V15.498C0.5 16.0502 0.94775 16.498 1.5 16.498H15.5C16.0522 16.498 16.5 16.0502 16.5 15.498V2.99796C16.5 2.44594 16.0522 1.99819 15.5 1.99819ZM15.5 15.498H1.5V2.99796H5.4965V3.50171C5.4965 3.77794 5.72025 4.00171 5.9965 4.00171C6.27275 4.00171 6.4965 3.77794 6.4965 3.50171V2.99821H10.4965V3.50196C10.4965 3.77821 10.7203 4.00196 10.9965 4.00196C11.2727 4.00196 11.4965 3.77821 11.4965 3.50196V2.99821H15.5V15.498ZM12 8.49819H13C13.276 8.49819 13.5 8.27419 13.5 7.99819V6.99819C13.5 6.72219 13.276 6.49819 13 6.49819H12C11.724 6.49819 11.5 6.72219 11.5 6.99819V7.99819C11.5 8.27419 11.724 8.49819 12 8.49819ZM12 12.4979H13C13.276 12.4979 13.5 12.2742 13.5 11.9979V10.9979C13.5 10.7219 13.276 10.4979 13 10.4979H12C11.724 10.4979 11.5 10.7219 11.5 10.9979V11.9979C11.5 12.2744 11.724 12.4979 12 12.4979ZM9 10.4979H8C7.724 10.4979 7.5 10.7219 7.5 10.9979V11.9979C7.5 12.2742 7.724 12.4979 8 12.4979H9C9.276 12.4979 9.5 12.2742 9.5 11.9979V10.9979C9.5 10.7222 9.276 10.4979 9 10.4979ZM9 6.49819H8C7.724 6.49819 7.5 6.72219 7.5 6.99819V7.99819C7.5 8.27419 7.724 8.49819 8 8.49819H9C9.276 8.49819 9.5 8.27419 9.5 7.99819V6.99819C9.5 6.72194 9.276 6.49819 9 6.49819ZM5 6.49819H4C3.724 6.49819 3.5 6.72219 3.5 6.99819V7.99819C3.5 8.27419 3.724 8.49819 4 8.49819H5C5.276 8.49819 5.5 8.27419 5.5 7.99819V6.99819C5.5 6.72194 5.276 6.49819 5 6.49819ZM5 10.4979H4C3.724 10.4979 3.5 10.7219 3.5 10.9979V11.9979C3.5 12.2742 3.724 12.4979 4 12.4979H5C5.276 12.4979 5.5 12.2742 5.5 11.9979V10.9979C5.5 10.7222 5.276 10.4979 5 10.4979Z" fill="url(#paint0_linear_41_6388)"/>
</g>
<defs>
<linearGradient id="paint0_linear_41_6388" x1="8.5" y1="0.501709" x2="8.5" y2="16.498" gradientUnits="userSpaceOnUse">
<stop stop-color="#556AC1"/>
<stop offset="1" stop-color="#41A2DC"/>
</linearGradient>
<clipPath id="clip0_41_6388">
<rect width="16" height="16" fill="white" transform="translate(0.5 0.5)"/>
</clipPath>
</defs>
</svg>
