<svg width="28" height="29" viewBox="0 0 28 29" fill="none" xmlns="http://www.w3.org/2000/svg">
<path opacity="0.992" fill-rule="evenodd" clip-rule="evenodd" d="M7.62891 1.62109C12.6419 1.61198 17.655 1.62109 22.668 1.64844C24.392 2.00526 25.3855 3.05343 25.6484 4.79297C25.7024 11.3751 25.6841 17.9558 25.5938 24.5352C25.2032 26.0741 24.2279 26.9947 22.668 27.2969C17.6549 27.3334 12.6419 27.3334 7.62891 27.2969C5.97734 26.9578 4.98387 25.9644 4.64844 24.3164C4.6211 23.3687 4.61198 22.4208 4.62109 21.4727C4.11035 21.4817 3.59994 21.4727 3.08984 21.4453C2.40334 21.1363 2.15725 20.6167 2.35156 19.8867C2.4934 19.5078 2.75772 19.2617 3.14453 19.1484C3.63638 19.1211 4.12857 19.112 4.62109 19.1211C4.62109 17.9727 4.62109 16.8242 4.62109 15.6758C4.165 15.6849 3.70927 15.6758 3.25391 15.6484C2.63773 15.5021 2.3096 15.1101 2.26953 14.4727C2.3096 13.8352 2.63773 13.4432 3.25391 13.2969C3.70927 13.2695 4.165 13.2605 4.62109 13.2695C4.62109 12.1211 4.62109 10.9727 4.62109 9.82422C4.12857 9.8333 3.63638 9.82422 3.14453 9.79688C2.3133 9.41789 2.08544 8.80725 2.46094 7.96484C2.62439 7.74659 2.83403 7.59166 3.08984 7.5C3.59994 7.47266 4.11035 7.46358 4.62109 7.47266C4.61198 6.52454 4.6211 5.57665 4.64844 4.62891C4.99553 2.97845 5.98905 1.97585 7.62891 1.62109ZM14.7383 8.67578C16.0915 8.59933 16.9756 9.20089 17.3906 10.4805C17.5537 11.5053 17.2164 12.3165 16.3789 12.9141C15.1015 13.5585 14.0351 13.3124 13.1797 12.1758C12.5836 10.9816 12.7933 9.95164 13.8086 9.08594C14.1024 8.90038 14.4122 8.76366 14.7383 8.67578ZM12.4414 15.6758C14.2462 15.6666 16.0509 15.6758 17.8555 15.7031C19.0572 15.9843 19.6952 16.7408 19.7695 17.9727C19.6952 19.2045 19.0572 19.961 17.8555 20.2422C16.0508 20.2787 14.2461 20.2787 12.4414 20.2422C11.4583 20.0246 10.8294 19.4322 10.5547 18.4648C10.4168 17.0089 11.0457 16.0792 12.4414 15.6758Z" fill="url(#paint0_linear_1_970)"/>
<defs>
<linearGradient id="paint0_linear_1_970" x1="13.9741" y1="1.61768" x2="13.9741" y2="27.3242" gradientUnits="userSpaceOnUse">
<stop stop-color="#556AC1"/>
<stop offset="1" stop-color="#41A2DC"/>
</linearGradient>
</defs>
</svg>
