<svg width="16" height="17" viewBox="0 0 16 17" fill="none" xmlns="http://www.w3.org/2000/svg">
<path d="M9.33325 3.1665H6.66659C4.15259 3.1665 2.89525 3.1665 2.11459 3.94784C1.55192 4.50984 1.39459 5.31917 1.35059 6.6665H14.6493C14.6053 5.31917 14.4479 4.50984 13.8853 3.94784C13.1046 3.1665 11.8473 3.1665 9.33325 3.1665Z" fill="url(#paint0_linear_84_192)"/>
<path fill-rule="evenodd" clip-rule="evenodd" d="M9.3335 13.8332H6.66683C4.15283 13.8332 2.8955 13.8332 2.11483 13.0518C1.33416 12.2705 1.3335 11.0138 1.3335 8.49984C1.3335 8.20561 1.33394 7.92784 1.33483 7.6665H14.6655C14.6664 7.92784 14.6668 8.20561 14.6668 8.49984C14.6668 11.0138 14.6668 12.2712 13.8855 13.0518C13.1042 13.8325 11.8475 13.8332 9.3335 13.8332ZM10.6968 8.6665C10.9855 8.6665 11.2502 8.6665 11.4648 8.69517C11.7022 8.72717 11.9522 8.80184 12.1582 9.0085C12.3642 9.21517 12.4395 9.4645 12.4715 9.70184C12.5002 9.91717 12.5002 10.1818 12.5002 10.4698V10.5298C12.5002 10.8185 12.5002 11.0832 12.4715 11.2978C12.4395 11.5352 12.3648 11.7852 12.1582 11.9912C11.9515 12.1972 11.7022 12.2725 11.4648 12.3045C11.2495 12.3332 10.9848 12.3332 10.6968 12.3332H10.6368C10.3482 12.3332 10.0835 12.3332 9.86883 12.3045C9.6315 12.2725 9.3815 12.1978 9.1755 11.9912C8.9695 11.7845 8.89416 11.5352 8.86216 11.2978C8.8335 11.0825 8.8335 10.8178 8.8335 10.5298V10.4698C8.8335 10.1812 8.8335 9.9165 8.86216 9.70184C8.89416 9.4645 8.96883 9.2145 9.1755 9.0085C9.38216 8.8025 9.6315 8.72717 9.86883 8.69517C10.0842 8.6665 10.3488 8.6665 10.6368 8.6665H10.6968ZM3.50016 9.49984C3.50016 9.36723 3.55284 9.24005 3.64661 9.14628C3.74038 9.05252 3.86755 8.99984 4.00016 8.99984H5.3335C5.4661 8.99984 5.59328 9.05252 5.68705 9.14628C5.78082 9.24005 5.8335 9.36723 5.8335 9.49984C5.8335 9.63245 5.78082 9.75962 5.68705 9.85339C5.59328 9.94716 5.4661 9.99984 5.3335 9.99984H4.00016C3.86755 9.99984 3.74038 9.94716 3.64661 9.85339C3.55284 9.75962 3.50016 9.63245 3.50016 9.49984ZM3.50016 11.4998C3.50016 11.3672 3.55284 11.2401 3.64661 11.1463C3.74038 11.0525 3.86755 10.9998 4.00016 10.9998H6.66683C6.79944 10.9998 6.92661 11.0525 7.02038 11.1463C7.11415 11.2401 7.16683 11.3672 7.16683 11.4998C7.16683 11.6324 7.11415 11.7596 7.02038 11.8534C6.92661 11.9472 6.79944 11.9998 6.66683 11.9998H4.00016C3.86755 11.9998 3.74038 11.9472 3.64661 11.8534C3.55284 11.7596 3.50016 11.6324 3.50016 11.4998Z" fill="url(#paint1_linear_84_192)"/>
<path d="M9.88216 9.71517L9.88416 9.7145L9.89083 9.71117C9.92679 9.69843 9.96418 9.69014 10.0022 9.6865C10.1422 9.66784 10.3382 9.6665 10.6668 9.6665C10.9955 9.6665 11.1915 9.66784 11.3315 9.6865C11.3719 9.69066 11.4115 9.70008 11.4495 9.7145L11.4515 9.71517L11.4522 9.71717L11.4555 9.72384C11.4615 9.7385 11.4715 9.7705 11.4802 9.83517C11.4988 9.97517 11.5002 10.1712 11.5002 10.4998C11.5002 10.8285 11.4988 11.0245 11.4802 11.1645C11.476 11.2049 11.4666 11.2446 11.4522 11.2825L11.4515 11.2845L11.4495 11.2852L11.4428 11.2885C11.4069 11.3012 11.3695 11.3095 11.3315 11.3132C11.1915 11.3318 10.9955 11.3332 10.6668 11.3332C10.3382 11.3332 10.1422 11.3318 10.0022 11.3132C9.96178 11.309 9.92211 11.2996 9.88416 11.2852L9.88216 11.2845L9.8815 11.2825L9.87816 11.2758C9.86542 11.2399 9.85714 11.2025 9.8535 11.1645C9.83483 11.0245 9.8335 10.8285 9.8335 10.4998C9.8335 10.1712 9.83483 9.97517 9.8535 9.83517C9.85766 9.79479 9.86707 9.75512 9.8815 9.71717L9.88216 9.71517Z" fill="url(#paint2_linear_84_192)"/>
<defs>
<linearGradient id="paint0_linear_84_192" x1="7.99992" y1="3.1665" x2="7.99992" y2="6.6665" gradientUnits="userSpaceOnUse">
<stop stop-color="#556AC1"/>
<stop offset="1" stop-color="#41A2DC"/>
</linearGradient>
<linearGradient id="paint1_linear_84_192" x1="8.00016" y1="7.6665" x2="8.00016" y2="13.8332" gradientUnits="userSpaceOnUse">
<stop stop-color="#556AC1"/>
<stop offset="1" stop-color="#41A2DC"/>
</linearGradient>
<linearGradient id="paint2_linear_84_192" x1="10.6668" y1="9.6665" x2="10.6668" y2="11.3332" gradientUnits="userSpaceOnUse">
<stop stop-color="#556AC1"/>
<stop offset="1" stop-color="#41A2DC"/>
</linearGradient>
</defs>
</svg>
