<svg width="16" height="17" viewBox="0 0 16 17" fill="none" xmlns="http://www.w3.org/2000/svg">
<path d="M8.52267 2.12393C8.36058 2.04213 8.18156 1.99951 8 1.99951C7.81844 1.99951 7.63942 2.04213 7.47733 2.12393L2.30133 4.72927C1.208 5.27927 1.58533 6.94727 2.824 6.94727H4.16667V11.9999H3C2.60218 11.9999 2.22064 12.158 1.93934 12.4393C1.65804 12.7206 1.5 13.1021 1.5 13.4999C1.5 13.8978 1.65804 14.2793 1.93934 14.5606C2.22064 14.8419 2.60218 14.9999 3 14.9999H13C13.3978 14.9999 13.7794 14.8419 14.0607 14.5606C14.342 14.2793 14.5 13.8978 14.5 13.4999C14.5 13.1021 14.342 12.7206 14.0607 12.4393C13.7794 12.158 13.3978 11.9999 13 11.9999H11.8333V6.9466H13.176C14.4147 6.9466 14.7913 5.27927 13.6987 4.72927L8.52267 2.12393ZM5.16667 11.9999V6.9466H7.5V11.9999H5.16667ZM8.5 11.9999V6.9466H10.8333V11.9999H8.5Z" fill="url(#paint0_linear_84_247)"/>
<defs>
<linearGradient id="paint0_linear_84_247" x1="8" y1="1.99951" x2="8" y2="14.9999" gradientUnits="userSpaceOnUse">
<stop stop-color="#556AC1"/>
<stop offset="1" stop-color="#41A2DC"/>
</linearGradient>
</defs>
</svg>
