<svg width="37" height="36" viewBox="0 0 37 36" fill="none" xmlns="http://www.w3.org/2000/svg">
<path opacity="0.995" fill-rule="evenodd" clip-rule="evenodd" d="M22.349 3C22.8959 3 23.4428 3 23.9896 3C26.4302 3.51681 27.9049 5.00119 28.4135 7.45312C28.4427 8.35135 28.4525 9.24978 28.4427 10.1484C30.064 10.1386 31.685 10.1484 33.306 10.1777C33.5512 10.2766 33.727 10.4426 33.8334 10.6758C33.8334 17.4336 33.8334 24.1914 33.8334 30.9492C33.5209 32.0039 32.8373 32.6875 31.7826 33C29.8099 33 27.8373 33 25.8646 33C26.4404 32.2203 26.7431 31.3414 26.7728 30.3633C26.8119 26.2617 26.8119 22.1601 26.7728 18.0586C26.6068 16.4863 25.7377 15.6172 24.1654 15.4512C20.2788 15.4219 16.392 15.4121 12.5053 15.4219C12.4955 13.8397 12.5053 12.2577 12.5346 10.6758C12.6224 10.4316 12.7884 10.2656 13.0326 10.1777C14.6536 10.1484 16.2746 10.1386 17.8959 10.1484C17.8861 9.24978 17.8959 8.35135 17.9252 7.45312C18.4338 5.00119 19.9084 3.51681 22.349 3ZM23.1107 4.75781C24.9784 4.89712 26.1405 5.87368 26.597 7.6875C26.6727 8.50595 26.702 9.32625 26.6849 10.1484C24.3412 10.1484 21.9974 10.1484 19.6537 10.1484C19.6379 9.30685 19.6672 8.46703 19.7416 7.6289C20.2138 5.89623 21.3368 4.93921 23.1107 4.75781Z" fill="url(#paint0_linear_1_784)"/>
<path opacity="0.995" fill-rule="evenodd" clip-rule="evenodd" d="M22.9935 33C17.2904 33 11.5873 33 5.88415 33C4.82896 32.687 4.14536 32.0034 3.83337 30.9492C3.83337 26.5352 3.83337 22.1211 3.83337 17.707C3.93971 17.4739 4.11549 17.3079 4.36072 17.209C11.0795 17.1699 17.7982 17.1699 24.517 17.209C24.7611 17.2969 24.9271 17.4629 25.015 17.707C25.0541 22.1211 25.0541 26.5352 25.015 30.9492C24.7211 32.0146 24.0473 32.6981 22.9935 33ZM9.69275 20.7539C10.1938 20.6578 10.5551 20.8336 10.7767 21.2813C10.8473 21.8838 10.8863 22.4893 10.8939 23.0977C11.4706 25.1966 12.8475 26.1438 15.0248 25.9395C16.558 25.5781 17.5052 24.6309 17.8666 23.0977C17.8742 22.4893 17.9132 21.8838 17.9838 21.2813C18.2932 20.7346 18.7327 20.6077 19.3021 20.9004C19.5731 21.2179 19.6903 21.5889 19.6537 22.0137C19.6361 24.7831 18.3275 26.6191 15.7279 27.5215C12.975 28.0444 10.934 27.0776 9.60486 24.6211C9.17047 23.5444 9.03375 22.4311 9.1947 21.2813C9.29359 21.036 9.45961 20.8603 9.69275 20.7539Z" fill="url(#paint1_linear_1_784)"/>
<defs>
<linearGradient id="paint0_linear_1_784" x1="23.1675" y1="3" x2="23.1675" y2="33" gradientUnits="userSpaceOnUse">
<stop stop-color="#556AC1"/>
<stop offset="1" stop-color="#41A2DC"/>
</linearGradient>
<linearGradient id="paint1_linear_1_784" x1="14.4388" y1="17.1797" x2="14.4388" y2="33" gradientUnits="userSpaceOnUse">
<stop stop-color="#556AC1"/>
<stop offset="1" stop-color="#41A2DC"/>
</linearGradient>
</defs>
</svg>
