<svg width="37" height="36" viewBox="0 0 37 36" fill="none" xmlns="http://www.w3.org/2000/svg">
<path opacity="0.982" fill-rule="evenodd" clip-rule="evenodd" d="M11.4336 4.88672C11.6911 4.91849 11.949 4.95364 12.207 4.99219C18.7695 6.75 25.3321 8.50781 31.8945 10.2656C33.5085 10.5428 34.2468 11.492 34.1094 13.1133C33.0422 17.1242 31.9641 21.132 30.875 25.1367C30.6209 25.6487 30.2458 26.0471 29.75 26.332C29.7466 22.8149 29.6998 19.2993 29.6094 15.7852C29.2063 14.1165 28.1634 13.1204 26.4805 12.7969C20.2461 12.7617 14.0117 12.75 7.77734 12.7617C8.30061 10.5705 8.87485 8.39081 9.5 6.22266C9.92462 5.4541 10.5692 5.00879 11.4336 4.88672Z" fill="url(#paint0_linear_1_768)"/>
<path opacity="0.985" fill-rule="evenodd" clip-rule="evenodd" d="M4.61328 14.168C11.8321 14.1562 19.0508 14.168 26.2695 14.2031C27.3218 14.3649 27.9662 14.9625 28.2031 15.9961C28.25 20.3086 28.25 24.6211 28.2031 28.9336C27.9662 29.9672 27.3218 30.5649 26.2695 30.7266C19.0508 30.7735 11.8321 30.7735 4.61328 30.7266C3.6318 30.5419 3.01071 29.9678 2.75 29.0039C2.70312 24.6211 2.70312 20.2383 2.75 15.8555C3.05373 14.9302 3.67483 14.3677 4.61328 14.168ZM21.207 18.7383C22.3791 18.7265 23.551 18.7383 24.7227 18.7734C25.7891 18.9961 26.4336 19.6406 26.6563 20.707C26.7031 21.3868 26.7031 22.0664 26.6563 22.7461C26.4098 23.9065 25.695 24.551 24.5117 24.6797C23.3139 24.7425 22.1186 24.7191 20.9258 24.6094C20.0003 24.317 19.4496 23.6959 19.2734 22.7461C19.2114 21.9457 19.2348 21.1488 19.3438 20.3555C19.6763 19.4714 20.2974 18.9324 21.207 18.7383ZM4.75391 26.2617C5.90258 26.25 7.05102 26.2617 8.19922 26.2969C8.85545 26.7422 8.85545 27.1875 8.19922 27.6328C7.05079 27.6797 5.90234 27.6797 4.75391 27.6328C4.24186 27.3642 4.1364 26.9774 4.4375 26.4727C4.55363 26.4095 4.6591 26.3391 4.75391 26.2617ZM10.7305 26.2617C11.8792 26.25 13.0276 26.2617 14.1758 26.2969C14.6878 26.5655 14.7933 26.9523 14.4922 27.457C14.3924 27.5245 14.2869 27.5831 14.1758 27.6328C13.0274 27.6797 11.8789 27.6797 10.7305 27.6328C10.0799 27.1763 10.0799 26.7193 10.7305 26.2617ZM16.707 26.2617C17.8791 26.25 19.051 26.2617 20.2227 26.2969C20.6111 26.5021 20.74 26.8185 20.6094 27.2461C20.5273 27.4219 20.3984 27.5508 20.2227 27.6328C19.0508 27.6797 17.8789 27.6797 16.707 27.6328C16.2822 27.3693 16.1767 27.006 16.3906 26.543C16.4889 26.4326 16.5943 26.3388 16.707 26.2617ZM22.7539 26.2617C23.9026 26.25 25.051 26.2617 26.1992 26.2969C26.8554 26.7422 26.8554 27.1875 26.1992 27.6328C25.0508 27.6797 23.9023 27.6797 22.7539 27.6328C22.2419 27.3642 22.1364 26.9774 22.4375 26.4727C22.5537 26.4095 22.6591 26.3391 22.7539 26.2617Z" fill="url(#paint1_linear_1_768)"/>
<path opacity="0.982" fill-rule="evenodd" clip-rule="evenodd" d="M21.1367 20.2148C22.409 20.1816 23.6746 20.2167 24.9336 20.3203C25.0425 20.4057 25.1245 20.5111 25.1797 20.6367C25.2468 21.417 25.2233 22.1905 25.1094 22.957C24.9984 23.0654 24.8694 23.1474 24.7227 23.2031C23.5508 23.25 22.3789 23.25 21.207 23.2031C20.9903 23.1478 20.838 23.019 20.75 22.8164C20.7031 22.0898 20.7031 21.3632 20.75 20.6367C20.8456 20.4593 20.9745 20.3187 21.1367 20.2148Z" fill="url(#paint2_linear_1_768)"/>
<defs>
<linearGradient id="paint0_linear_1_768" x1="20.9514" y1="4.88672" x2="20.9514" y2="26.332" gradientUnits="userSpaceOnUse">
<stop stop-color="#556AC1"/>
<stop offset="1" stop-color="#41A2DC"/>
</linearGradient>
<linearGradient id="paint1_linear_1_768" x1="15.4766" y1="14.1636" x2="15.4766" y2="30.7617" gradientUnits="userSpaceOnUse">
<stop stop-color="#556AC1"/>
<stop offset="1" stop-color="#41A2DC"/>
</linearGradient>
<linearGradient id="paint2_linear_1_768" x1="22.9659" y1="20.2027" x2="22.9659" y2="23.2383" gradientUnits="userSpaceOnUse">
<stop stop-color="#556AC1"/>
<stop offset="1" stop-color="#41A2DC"/>
</linearGradient>
</defs>
</svg>
