<svg width="25" height="24" viewBox="0 0 25 24" fill="none" xmlns="http://www.w3.org/2000/svg">
<path opacity="0.976" fill-rule="evenodd" clip-rule="evenodd" d="M22.5 3.69311C22.5 3.96655 22.5 4.23999 22.5 4.51343C22.4011 4.86761 22.2383 5.19313 22.0117 5.48999C21.5945 5.91374 21.1713 6.33038 20.7422 6.73999C19.7396 5.76343 18.75 4.77384 17.7734 3.77124C18.2506 3.24847 18.7584 2.76019 19.2969 2.30639C20.4202 1.74975 21.3772 1.95157 22.168 2.91186C22.3138 3.1614 22.4245 3.42182 22.5 3.69311Z" fill="url(#paint0_linear_41_6369)"/>
<path opacity="0.981" fill-rule="evenodd" clip-rule="evenodd" d="M16.875 4.63062C17.8873 5.58429 18.8834 6.56085 19.8633 7.5603C19.8893 7.58636 19.8893 7.61237 19.8633 7.63843C17.6562 9.84546 15.4492 12.0525 13.2422 14.2595C12.1743 14.5122 11.1 14.74 10.0195 14.9431C9.75254 14.9105 9.60277 14.7607 9.57031 14.4939C9.7734 13.4132 10.0013 12.339 10.2539 11.2712C12.4688 9.06284 14.6758 6.84933 16.875 4.63062Z" fill="url(#paint1_linear_41_6369)"/>
<path opacity="0.988" fill-rule="evenodd" clip-rule="evenodd" d="M17.3047 21.9744C12.9948 21.9744 8.68488 21.9744 4.375 21.9744C3.3745 21.664 2.74949 20.9999 2.5 19.9822C2.5 15.7895 2.5 11.5967 2.5 7.40405C2.76404 6.27476 3.46717 5.59118 4.60938 5.35327C7.03125 5.32723 9.45312 5.32723 11.875 5.35327C12.3944 5.52573 12.5962 5.8838 12.4805 6.42749C12.3958 6.72046 12.207 6.90925 11.9141 6.9939C9.59637 7.00691 7.27863 7.01995 4.96094 7.03296C4.55951 7.09581 4.3056 7.3237 4.19922 7.71655C4.1605 11.7417 4.17352 15.7651 4.23828 19.7869C4.35735 20.0778 4.57219 20.2535 4.88281 20.3142C8.85418 20.3403 12.8255 20.3403 16.7969 20.3142C17.2078 20.2028 17.4357 19.9359 17.4805 19.5134C17.4935 17.1957 17.5065 14.878 17.5195 12.5603C17.7332 12.0987 18.0913 11.9229 18.5938 12.033C18.9019 12.1212 19.0907 12.323 19.1602 12.6384C19.1862 15.0473 19.1862 17.4561 19.1602 19.865C18.9482 20.9296 18.3297 21.6327 17.3047 21.9744Z" fill="url(#paint2_linear_41_6369)"/>
<defs>
<linearGradient id="paint0_linear_41_6369" x1="20.1367" y1="2" x2="20.1367" y2="6.73999" gradientUnits="userSpaceOnUse">
<stop stop-color="#556AC1"/>
<stop offset="1" stop-color="#41A2DC"/>
</linearGradient>
<linearGradient id="paint1_linear_41_6369" x1="14.7266" y1="4.63062" x2="14.7266" y2="14.9431" gradientUnits="userSpaceOnUse">
<stop stop-color="#556AC1"/>
<stop offset="1" stop-color="#41A2DC"/>
</linearGradient>
<linearGradient id="paint2_linear_41_6369" x1="10.8398" y1="5.33374" x2="10.8398" y2="21.9744" gradientUnits="userSpaceOnUse">
<stop stop-color="#556AC1"/>
<stop offset="1" stop-color="#41A2DC"/>
</linearGradient>
</defs>
</svg>
