<svg width="37" height="36" viewBox="0 0 37 36" fill="none" xmlns="http://www.w3.org/2000/svg">
<path d="M17.6178 7.59323C17.4066 7.63429 17.1192 7.71641 16.9726 7.7692C16.8259 7.81612 13.9283 9.13003 10.5321 10.6844C3.81595 13.7521 3.98606 13.6642 3.67518 14.2976C3.44642 14.7669 3.44055 15.4238 3.66345 15.8931C3.98606 16.5676 3.71037 16.4269 10.4207 19.4887C13.7817 21.0255 16.65 22.3336 16.7966 22.3922C17.5533 22.709 18.7205 22.7911 19.5945 22.5799C19.9582 22.4919 21.6299 21.7529 26.3752 19.5884C33.2907 16.4269 33.0151 16.5735 33.3201 15.9048C33.6955 15.1012 33.4667 14.1569 32.7863 13.6348C32.5869 13.4823 20.8087 8.06835 20.0989 7.79853C19.3423 7.51698 18.392 7.43486 17.6178 7.59323Z" fill="url(#paint0_linear_1_729)"/>
<path d="M30.6863 19.6706L29.7654 20.0871L29.7595 22.8028C29.7595 25.7943 29.7537 25.7591 30.1173 26.07C30.5924 26.463 31.4078 26.2284 31.5779 25.6418C31.6189 25.4952 31.6365 24.3866 31.6248 22.3395L31.6072 19.2541L30.6863 19.6706Z" fill="url(#paint1_linear_1_729)"/>
<path d="M9.12444 23.3777L9.14203 25.7767L9.30041 26.2049C9.61128 27.0555 10.1392 27.73 10.8548 28.1934C11.3006 28.4867 12.7729 29.0674 13.7466 29.3489C15.4417 29.8299 16.6852 30 18.4977 30C20.3337 30 21.6593 29.8123 23.3193 29.3313C24.3164 29.038 25.7418 28.4632 26.17 28.1758C26.8621 27.7183 27.4017 27.0261 27.695 26.2049L27.8475 25.7767L27.871 23.3777C27.8886 21.0842 27.8886 20.9845 27.783 21.0139C27.7243 21.0256 26.2286 21.706 24.4513 22.5213C22.6799 23.3308 21.0669 24.064 20.8733 24.1402C20.1636 24.4218 19.6239 24.5274 18.7323 24.5567C17.8173 24.5919 17.2307 24.5156 16.4975 24.2751C16.2922 24.2048 14.5912 23.454 12.7201 22.5976C10.8489 21.7412 9.27108 21.0256 9.21242 21.008C9.11271 20.9845 9.10684 21.0842 9.12444 23.3777Z" fill="url(#paint2_linear_1_729)"/>
<defs>
<linearGradient id="paint0_linear_1_729" x1="18.4999" y1="22.6968" x2="18.4999" y2="7.51348" gradientUnits="userSpaceOnUse">
<stop stop-color="#556AC1"/>
<stop offset="1" stop-color="#41A2DC"/>
</linearGradient>
<linearGradient id="paint1_linear_1_729" x1="30.6939" y1="26.264" x2="30.6939" y2="19.2541" gradientUnits="userSpaceOnUse">
<stop stop-color="#556AC1"/>
<stop offset="1" stop-color="#41A2DC"/>
</linearGradient>
<linearGradient id="paint2_linear_1_729" x1="18.4982" y1="30" x2="18.4982" y2="21.0055" gradientUnits="userSpaceOnUse">
<stop stop-color="#556AC1"/>
<stop offset="1" stop-color="#41A2DC"/>
</linearGradient>
</defs>
</svg>
