<svg width="37" height="36" viewBox="0 0 37 36" fill="none" xmlns="http://www.w3.org/2000/svg">
<path d="M19.5541 3.03727C19.4835 3.06671 19.3598 3.18449 19.2774 3.29049C19.1537 3.45537 9.53149 20.2913 9.2665 20.8095C9.1075 21.1157 9.13694 21.3395 9.3666 21.5691L9.56682 21.7694H13.7243C16.0091 21.7694 17.8817 21.787 17.8817 21.8165C17.8817 21.84 17.6462 24.1661 17.3517 26.9809C17.0632 29.7957 16.8218 32.216 16.8218 32.3514C16.8218 32.8461 17.3341 33.1641 17.7345 32.9109C17.8758 32.8225 18.9535 30.9499 22.8872 23.9423C26.4734 17.5589 27.869 15.0268 27.8808 14.8678C27.9044 14.6793 27.8749 14.6145 27.6983 14.4379L27.4922 14.2318H23.2758C19.56 14.2318 19.0595 14.22 19.0595 14.1434C19.0595 14.0963 19.3657 11.7291 19.7367 8.88479C20.1077 6.04053 20.4139 3.64381 20.4139 3.55548C20.4139 3.20215 19.8957 2.89005 19.5541 3.03727Z" fill="url(#paint0_linear_1_714)"/>
<defs>
<linearGradient id="paint0_linear_1_714" x1="18.5273" y1="32.9999" x2="18.5273" y2="2.99994" gradientUnits="userSpaceOnUse">
<stop stop-color="#556AC1"/>
<stop offset="1" stop-color="#41A2DC"/>
</linearGradient>
</defs>
</svg>
