<svg width="24" height="22" viewBox="0 0 24 22" fill="none" xmlns="http://www.w3.org/2000/svg">
<path d="M22.88 0.94043H1.12004C0.823002 0.94043 0.538126 1.05843 0.328085 1.26847C0.118044 1.47851 4.46474e-05 1.76339 4.46474e-05 2.06043V16.5604C-0.00127612 16.7083 0.0267185 16.8551 0.0824122 16.9921C0.138106 17.1291 0.220395 17.2538 0.324528 17.3589C0.428662 17.4639 0.552576 17.5473 0.689117 17.6042C0.825657 17.6611 0.972119 17.6904 1.12004 17.6904H3.72004C3.48514 18.9104 2.97937 20.062 2.24004 21.0604C5.50004 21.1104 7.56004 19.8504 8.79004 17.6904H22.88C23.028 17.6904 23.1744 17.6611 23.311 17.6042C23.4475 17.5473 23.5714 17.4639 23.6756 17.3589C23.7797 17.2538 23.862 17.1291 23.9177 16.9921C23.9734 16.8551 24.0014 16.7083 24 16.5604V2.06043C24 1.76339 23.882 1.47851 23.672 1.26847C23.462 1.05843 23.1771 0.94043 22.88 0.94043ZM7.54004 5.56043H6.00004C5.77807 5.56303 5.56592 5.65236 5.40895 5.80933C5.25197 5.9663 5.16264 6.17845 5.16004 6.40043V8.83043H6.75004C6.94896 8.83043 7.13972 8.90945 7.28038 9.0501C7.42103 9.19075 7.50004 9.38152 7.50004 9.58043C7.50004 9.77934 7.42103 9.97011 7.28038 10.1108C7.13972 10.2514 6.94896 10.3304 6.75004 10.3304H5.11004V12.7704C5.11004 12.9693 5.03103 13.1601 4.89038 13.3008C4.74972 13.4414 4.55896 13.5204 4.36004 13.5204C4.16113 13.5204 3.97037 13.4414 3.82971 13.3008C3.68906 13.1601 3.61004 12.9693 3.61004 12.7704V6.40043C3.60997 6.08888 3.67212 5.78046 3.79283 5.49325C3.91354 5.20604 4.09038 4.94582 4.313 4.72787C4.53561 4.50991 4.7995 4.3386 5.0892 4.22399C5.3789 4.10938 5.68857 4.05377 6.00004 4.06043H7.54004C7.73896 4.06043 7.92972 4.13945 8.07037 4.2801C8.21103 4.42075 8.29004 4.61152 8.29004 4.81043C8.29004 5.00934 8.21103 5.20011 8.07037 5.34076C7.92972 5.48141 7.73896 5.56043 7.54004 5.56043ZM14 12.7704C14 12.9693 13.921 13.1601 13.7804 13.3008C13.6397 13.4414 13.449 13.5204 13.25 13.5204C13.0511 13.5204 12.8604 13.4414 12.7197 13.3008C12.5791 13.1601 12.5 12.9693 12.5 12.7704V10.3304H10.84V12.7704C10.84 12.9693 10.761 13.1601 10.6204 13.3008C10.4797 13.4414 10.289 13.5204 10.09 13.5204C9.89113 13.5204 9.70037 13.4414 9.55971 13.3008C9.41906 13.1601 9.34004 12.9693 9.34004 12.7704V6.40043C9.30998 6.07631 9.34788 5.74948 9.4513 5.44083C9.55473 5.13219 9.72141 4.84852 9.9407 4.60795C10.16 4.36739 10.4271 4.17522 10.7248 4.04373C11.0226 3.91224 11.3445 3.84433 11.67 3.84433C11.9956 3.84433 12.3175 3.91224 12.6153 4.04373C12.913 4.17522 13.1801 4.36739 13.3994 4.60795C13.6187 4.84852 13.7854 5.13219 13.8888 5.44083C13.9922 5.74948 14.0301 6.07631 14 6.40043V12.7704ZM20.37 11.1804C20.3647 11.5535 20.2713 11.92 20.0975 12.2502C19.9238 12.5803 19.6745 12.8648 19.37 13.0804L20.12 13.8304C20.2605 13.9711 20.3394 14.1617 20.3394 14.3604C20.3394 14.5592 20.2605 14.7498 20.12 14.8904C19.9794 15.0309 19.7888 15.1098 19.59 15.1098C19.3913 15.1098 19.2007 15.0309 19.06 14.8904L17.66 13.4904C17.1052 13.4089 16.598 13.1309 16.231 12.7069C15.8639 12.2829 15.6613 11.7412 15.66 11.1804V6.40043C15.66 5.77982 15.9066 5.18463 16.3454 4.7458C16.7842 4.30696 17.3794 4.06043 18 4.06043C18.6207 4.06043 19.2158 4.30696 19.6547 4.7458C20.0935 5.18463 20.34 5.77982 20.34 6.40043L20.37 11.1804Z" fill="#121212"/>
</svg>
