<svg width="37" height="36" viewBox="0 0 37 36" fill="none" xmlns="http://www.w3.org/2000/svg">
<path d="M11.0194 7.159C9.2241 7.34087 7.65766 8.39103 6.43149 10.2332C4.91784 12.5037 3.94395 15.3256 3.57433 18.5055C3.46286 19.4794 3.48047 22.0725 3.60367 23.0816C3.81488 24.7713 4.10822 25.6513 4.6597 26.2614C5.33439 26.9948 6.50189 27.2119 7.42298 26.7777C8.23261 26.3964 9.71105 25.1174 11.0663 23.6331C12.4978 22.0666 12.5389 22.0197 12.9319 21.8437L13.2957 21.6736H18.4878H23.68L24.0613 21.8554C24.3723 22.0021 24.5424 22.1429 24.9707 22.6123C27.3292 25.1995 28.5553 26.3084 29.6172 26.7953C29.9869 26.9655 30.0983 26.9889 30.5266 26.9889C32.1224 26.9889 32.9437 25.9916 33.2957 23.639C33.595 21.5973 33.5656 19.2916 33.2077 17.1561C32.5917 13.4483 30.7789 9.81668 28.8018 8.3089C27.7223 7.48754 26.7073 7.1414 25.3814 7.1414C23.9029 7.1414 22.448 7.62248 20.9284 8.61397C20.682 8.77238 20.3066 8.96598 20.0836 9.04225C19.7199 9.16546 19.5967 9.17719 18.4878 9.17719C17.379 9.17719 17.2558 9.16546 16.8921 9.04225C16.6691 8.96598 16.2995 8.77824 16.0707 8.62571C14.7565 7.76915 13.3954 7.25287 12.269 7.1766C11.9933 7.159 11.7058 7.1414 11.6236 7.12966C11.5415 7.1238 11.2716 7.13553 11.0194 7.159ZM25.1467 10.7026C25.8625 11.1191 26.1499 12.0871 25.7745 12.8264C25.5105 13.3368 24.871 13.724 24.2901 13.724C23.7152 13.724 23.105 13.3074 22.841 12.7325C22.7178 12.4685 22.7002 12.357 22.7237 11.9991C22.753 11.5474 22.8469 11.3186 23.1344 10.9959C23.6037 10.4562 24.5072 10.3212 25.1467 10.7026ZM12.5623 11.7175L12.885 11.8231L12.9026 12.8322L12.9143 13.8413H13.8824H14.8504L15.0088 14.1464C15.2259 14.5629 15.2376 15.1262 15.0323 15.6131L14.8973 15.9534H13.8472H12.797V16.9566V17.954L12.5213 18.0831C12.1047 18.2767 11.342 18.2649 10.9959 18.0713L10.7436 17.9246V16.939V15.9534H9.75799H8.77236L8.67849 15.7598C8.43208 15.2435 8.42621 14.604 8.65502 14.0525L8.74302 13.8413H9.76972H10.8023V12.8146C10.8023 12.2514 10.8081 11.7879 10.8199 11.7879C10.8258 11.7879 10.9372 11.7469 11.0663 11.6999C11.389 11.5826 12.1634 11.5943 12.5623 11.7175ZM29.2183 13.1197C30.1277 13.6829 30.2567 14.9267 29.4823 15.6776C29.2124 15.9358 28.7372 16.1294 28.3735 16.1294C27.8044 16.1294 27.1766 15.7305 26.9068 15.1907C26.7542 14.8974 26.7249 14.3283 26.8422 13.9821C27.1649 13.0141 28.35 12.5858 29.2183 13.1197ZM25.0352 15.1203C25.575 15.396 25.8801 15.8713 25.927 16.499C25.9505 16.8569 25.9387 16.9273 25.7627 17.2793C25.4459 17.9246 24.8944 18.2297 24.1493 18.1711C23.2987 18.1007 22.7061 17.426 22.7178 16.5459C22.7237 15.9065 23.0288 15.4254 23.5979 15.1379C23.9381 14.9619 24.0144 14.9502 24.384 14.9736C24.648 14.9854 24.8827 15.044 25.0352 15.1203Z" fill="url(#paint0_linear_1_761)"/>
<defs>
<linearGradient id="paint0_linear_1_761" x1="18.5001" y1="27.0001" x2="18.5001" y2="7.12817" gradientUnits="userSpaceOnUse">
<stop stop-color="#556AC1"/>
<stop offset="1" stop-color="#41A2DC"/>
</linearGradient>
</defs>
</svg>
