<svg width="32" height="33" viewBox="0 0 32 33" fill="none" xmlns="http://www.w3.org/2000/svg">
<path d="M10.6875 3.23956C10.25 3.34894 9.92188 3.53644 9.58854 3.86977C9.25 4.20831 9.04167 4.57811 8.94792 5.03123C8.90625 5.22394 8.89062 6.68748 8.89062 9.77081V14.2396L9.41146 14.2187C10.5104 14.1719 11.776 14.401 12.8698 14.8385C13.9583 15.2708 14.9531 15.9375 15.8281 16.8229L16.3333 17.3333H20.6354C24.8438 17.3333 24.9427 17.3333 25.1406 17.4375C25.375 17.5573 25.5573 17.8541 25.5573 18.1146C25.5573 18.375 25.375 18.6719 25.1406 18.7916C24.9427 18.8958 24.8438 18.8958 21.1406 18.8958H17.3385L17.5365 19.3541C17.8698 20.1302 18.1042 20.9739 18.1927 21.7239L18.2292 22.0208H21.5833C24.8385 22.0208 24.9427 22.026 25.1406 22.125C25.375 22.2448 25.5573 22.5416 25.5573 22.8021C25.5573 23.0625 25.375 23.3594 25.1406 23.4791C24.9427 23.5781 24.8385 23.5833 21.5833 23.5833H18.2344L18.1667 24.0573C17.8698 26.1614 16.6198 28.3125 14.9635 29.5625L14.6042 29.8333H20.8333C25.2188 29.8333 27.1458 29.8177 27.3385 29.776C28.224 29.5885 28.9583 28.8489 29.1458 27.9687C29.1875 27.7708 29.2031 25.1198 29.2031 18.8177V9.93748H26.125H23.0469L22.8385 9.8229C22.7135 9.74998 22.5885 9.62498 22.5312 9.5104C22.4375 9.32811 22.4323 9.15623 22.4323 6.23956V3.16665L16.6927 3.17186C12.2812 3.17706 10.8854 3.19269 10.6875 3.23956ZM25.1406 12.75C25.375 12.8698 25.5573 13.1666 25.5573 13.4271C25.5573 13.6875 25.375 13.9844 25.1406 14.1041C24.9375 14.2083 24.849 14.2083 19.0417 14.2083H13.151L12.9427 14.0937C12.4167 13.7969 12.4115 13.0833 12.9323 12.7708L13.1354 12.6458H19.0365C24.849 12.6458 24.9375 12.6458 25.1406 12.75Z" fill="#999999"/>
<path d="M23.9948 6.00521V8.375H26.375H28.7604L26.3906 6.00521C25.0886 4.70312 24.0156 3.63542 24.0104 3.63542C24 3.63542 23.9948 4.70312 23.9948 6.00521Z" fill="#999999"/>
<path d="M8.94273 15.802C7.26565 16.0104 5.8646 16.6927 4.69794 17.875C3.66148 18.9218 3.06773 20.0364 2.76044 21.5C2.63544 22.1145 2.63544 23.4895 2.76044 24.1041C3.06773 25.5677 3.66669 26.6875 4.69794 27.7291C5.74481 28.7864 6.89065 29.4062 8.36981 29.7135C8.97919 29.8385 10.349 29.8385 10.9844 29.7135C12.3906 29.4323 13.5573 28.8073 14.599 27.776C15.6511 26.7395 16.2761 25.5833 16.5834 24.1041C16.7084 23.4895 16.7084 22.1145 16.5834 21.5C16.3802 20.5364 16.0104 19.6458 15.4792 18.8437C15.1511 18.3489 14.1354 17.3281 13.6511 17.0104C12.8125 16.4531 11.9063 16.0729 11.0156 15.901C10.5938 15.8177 9.30731 15.7552 8.94273 15.802ZM10.0365 19C10.1719 19.0677 10.2813 19.177 10.349 19.3125C10.4427 19.5 10.4531 19.6145 10.4531 20.7708V22.0208H11.1823C11.8125 22.0208 11.9427 22.0364 12.1198 22.125C12.3542 22.2448 12.5365 22.5416 12.5365 22.802C12.5365 23.0625 12.3542 23.3593 12.1198 23.4791C11.9323 23.5729 11.8177 23.5833 10.7084 23.5833C9.55731 23.5833 9.49481 23.5781 9.2969 23.4687C8.89585 23.2448 8.89065 23.1979 8.89065 21.2291C8.89585 19.276 8.90106 19.2552 9.28648 19.0208C9.53648 18.8698 9.76565 18.8645 10.0365 19Z" fill="#999999"/>
</svg>
