<svg width="52" height="53" viewBox="0 0 52 53" fill="none" xmlns="http://www.w3.org/2000/svg">
<rect y="0.0263062" width="52" height="52" rx="26" fill="#F3F5F8"/>
<path opacity="0.992" fill-rule="evenodd" clip-rule="evenodd" d="M19.6289 13.1474C24.6419 13.1383 29.655 13.1474 34.668 13.1747C36.392 13.5316 37.3855 14.5797 37.6484 16.3193C37.7024 22.9014 37.6841 29.4821 37.5938 36.0615C37.2032 37.6004 36.2279 38.521 34.668 38.8232C29.6549 38.8597 24.6419 38.8597 19.6289 38.8232C17.9773 38.4841 16.9839 37.4907 16.6484 35.8427C16.6211 34.895 16.612 33.9471 16.6211 32.999C16.1104 33.008 15.5999 32.999 15.0898 32.9716C14.4033 32.6626 14.1572 32.143 14.3516 31.413C14.4934 31.0341 14.7577 30.7881 15.1445 30.6747C15.6364 30.6474 16.1286 30.6383 16.6211 30.6474C16.6211 29.499 16.6211 28.3505 16.6211 27.2021C16.165 27.2112 15.7093 27.2021 15.2539 27.1747C14.6377 27.0284 14.3096 26.6365 14.2695 25.999C14.3096 25.3615 14.6377 24.9695 15.2539 24.8232C15.7093 24.7958 16.165 24.7868 16.6211 24.7958C16.6211 23.6474 16.6211 22.499 16.6211 21.3505C16.1286 21.3596 15.6364 21.3505 15.1445 21.3232C14.3133 20.9442 14.0854 20.3336 14.4609 19.4912C14.6244 19.2729 14.834 19.118 15.0898 19.0263C15.5999 18.999 16.1104 18.9899 16.6211 18.999C16.612 18.0508 16.6211 17.103 16.6484 16.1552C16.9955 14.5048 17.989 13.5022 19.6289 13.1474ZM26.7383 20.2021C28.0915 20.1256 28.9756 20.7272 29.3906 22.0068C29.5537 23.0316 29.2164 23.8428 28.3789 24.4404C27.1015 25.0848 26.0351 24.8387 25.1797 23.7021C24.5836 22.5079 24.7933 21.4779 25.8086 20.6122C26.1024 20.4267 26.4122 20.29 26.7383 20.2021ZM24.4414 27.2021C26.2462 27.193 28.0509 27.2021 29.8555 27.2294C31.0572 27.5106 31.6952 28.2671 31.7695 29.499C31.6952 30.7309 31.0572 31.4873 29.8555 31.7685C28.0508 31.805 26.2461 31.805 24.4414 31.7685C23.4583 31.5509 22.8294 30.9585 22.5547 29.9911C22.4168 28.5352 23.0457 27.6055 24.4414 27.2021Z" fill="url(#paint0_linear_29_1656)"/>
<defs>
<linearGradient id="paint0_linear_29_1656" x1="25.9741" y1="13.144" x2="25.9741" y2="38.8505" gradientUnits="userSpaceOnUse">
<stop stop-color="#556AC1"/>
<stop offset="1" stop-color="#41A2DC"/>
</linearGradient>
</defs>
</svg>
