<svg width="37" height="36" viewBox="0 0 37 36" fill="none" xmlns="http://www.w3.org/2000/svg">
<path d="M10.7305 4.99919C8.65624 5.28044 6.61718 6.40544 5.52733 7.86091C3.50233 10.5679 2.96796 14.1679 4.13515 17.2969C4.85233 19.2234 5.55546 20.1164 9.1203 23.625C12.9734 27.4148 15.8211 29.5945 17.6844 30.157C18.5492 30.4242 19.0976 30.3469 20.2578 29.7984C21.65 29.1445 23.5133 27.7664 25.7773 25.7203C27.4156 24.2367 31.1141 20.4609 31.5992 19.7789C34.0672 16.3054 34.1516 11.8547 31.8101 8.33904C31.2687 7.53044 30.7484 6.98201 30.0172 6.46872C27.8797 4.957 25.1867 4.53513 22.7047 5.3156C22.1703 5.48435 21.1226 5.96247 20.9117 6.13122C20.8484 6.18747 21.2703 6.6656 22.5289 7.95935C23.4641 8.92263 24.2867 9.8156 24.35 9.93513C24.5047 10.2234 24.5117 10.9054 24.3641 11.2218C24.132 11.707 23.5273 12.0937 23 12.0937C22.4234 12.0937 22.3672 12.0445 19.6601 9.35857C17.8742 7.58669 16.8898 6.6656 16.5101 6.40544C15.6101 5.79372 14.5273 5.33669 13.4023 5.09763C12.7695 4.96404 11.3633 4.90779 10.7305 4.99919ZM19.3016 14.4843C19.4422 14.5828 19.6461 14.7867 19.7516 14.9343C19.9344 15.2015 19.9414 15.2508 19.9625 16.207L19.9836 17.2125L20.9469 17.2406C21.8469 17.2617 21.9312 17.2758 22.2406 17.4586C23.0914 17.9508 23.2391 19.1039 22.55 19.7929C22.1703 20.1656 21.8609 20.25 20.8344 20.25H19.9836L19.9625 21.2625C19.9414 22.2609 19.9414 22.282 19.7305 22.5844C19.0484 23.5547 17.5789 23.414 17.1289 22.3453C17.0516 22.1554 17.0234 21.832 17.0234 21.164V20.25H16.1726C15.1391 20.25 14.8297 20.1656 14.45 19.7929C13.7609 19.1039 13.9086 17.9508 14.7594 17.4586C15.0687 17.2758 15.1531 17.2617 16.0531 17.2406L17.0164 17.2125L17.0375 16.207C17.0586 15.2156 17.0656 15.1945 17.2695 14.8992C17.5859 14.4492 18.0008 14.2593 18.5773 14.2875C18.9289 14.3086 19.1047 14.3578 19.3016 14.4843Z" fill="url(#paint0_linear_1_738)"/>
<defs>
<linearGradient id="paint0_linear_1_738" x1="18.5179" y1="30.3057" x2="18.5179" y2="4.9317" gradientUnits="userSpaceOnUse">
<stop stop-color="#556AC1"/>
<stop offset="1" stop-color="#41A2DC"/>
</linearGradient>
</defs>
</svg>
