<svg width="21" height="21" viewBox="0 0 21 21" fill="none" xmlns="http://www.w3.org/2000/svg">
<path d="M15.194 12.0977C15.274 11.4377 15.334 10.7777 15.334 10.0977C15.334 9.41766 15.274 8.75766 15.194 8.09766H18.574C18.734 8.73766 18.834 9.40766 18.834 10.0977C18.834 10.7877 18.734 11.4577 18.574 12.0977M13.424 17.6577C14.024 16.5477 14.484 15.3477 14.804 14.0977H17.754C16.7852 15.7659 15.2481 17.0297 13.424 17.6577ZM13.174 12.0977H8.49398C8.39398 11.4377 8.33398 10.7777 8.33398 10.0977C8.33398 9.41766 8.39398 8.74766 8.49398 8.09766H13.174C13.264 8.74766 13.334 9.41766 13.334 10.0977C13.334 10.7777 13.264 11.4377 13.174 12.0977ZM10.834 18.0577C10.004 16.8577 9.33398 15.5277 8.92398 14.0977H12.744C12.334 15.5277 11.664 16.8577 10.834 18.0577ZM6.83398 6.09766H3.91398C4.87263 4.42469 6.40864 3.1589 8.23398 2.53766C7.63398 3.64766 7.18398 4.84766 6.83398 6.09766ZM3.91398 14.0977H6.83398C7.18398 15.3477 7.63398 16.5477 8.23398 17.6577C6.41225 17.03 4.87827 15.7658 3.91398 14.0977ZM3.09398 12.0977C2.93398 11.4577 2.83398 10.7877 2.83398 10.0977C2.83398 9.40766 2.93398 8.73766 3.09398 8.09766H6.47398C6.39398 8.75766 6.33398 9.41766 6.33398 10.0977C6.33398 10.7777 6.39398 11.4377 6.47398 12.0977M10.834 2.12766C11.664 3.32766 12.334 4.66766 12.744 6.09766H8.92398C9.33398 4.66766 10.004 3.32766 10.834 2.12766ZM17.754 6.09766H14.804C14.4905 4.85927 14.0271 3.66376 13.424 2.53766C15.264 3.16766 16.794 4.43766 17.754 6.09766ZM10.834 0.0976562C5.30398 0.0976562 0.833984 4.59766 0.833984 10.0977C0.833984 12.7498 1.88755 15.2934 3.76292 17.1687C4.6915 18.0973 5.79389 18.8339 7.00715 19.3365C8.22041 19.839 9.52077 20.0977 10.834 20.0977C13.4861 20.0977 16.0297 19.0441 17.9051 17.1687C19.7804 15.2934 20.834 12.7498 20.834 10.0977C20.834 8.78444 20.5753 7.48408 20.0728 6.27082C19.5702 5.05757 18.8336 3.95517 17.9051 3.02659C16.9765 2.098 15.8741 1.36141 14.6608 0.858861C13.4476 0.356314 12.1472 0.0976563 10.834 0.0976562Z" fill="url(#paint0_linear_46_9634)"/>
<defs>
<linearGradient id="paint0_linear_46_9634" x1="10.834" y1="0.0976562" x2="10.834" y2="20.0977" gradientUnits="userSpaceOnUse">
<stop stop-color="#556AC1"/>
<stop offset="1" stop-color="#41A2DC"/>
</linearGradient>
</defs>
</svg>
