<svg width="37" height="36" viewBox="0 0 37 36" fill="none" xmlns="http://www.w3.org/2000/svg">
<path d="M14.4142 3.84647C12.9715 4.3168 11.7448 4.72992 11.694 4.77441C11.4779 4.95237 11.605 5.16846 12.1834 5.60065C12.4885 5.82946 12.7554 6.03284 12.7808 6.05826C12.838 6.12182 12.266 7.12602 11.7385 7.88871C10.48 9.72551 8.70045 11.4543 6.95263 12.5347C6.16452 13.0241 4.91244 13.6152 4.06713 13.9012C3.21546 14.1809 3.05657 14.3207 3.22818 14.5876C3.31716 14.7211 3.39978 14.7465 3.88917 14.7974C4.80439 14.88 6.66026 14.8482 7.43566 14.7338C10.8042 14.219 13.4672 12.4712 16.0731 9.04545L16.3718 8.65139L16.5752 8.79122C16.6896 8.86749 16.9247 9.03909 17.1027 9.17256C17.4396 9.42679 17.6938 9.47764 17.8273 9.31875C17.8845 9.24883 17.859 8.59419 17.7001 6.22351C17.4777 3.04565 17.4713 2.98845 17.1663 3.00116C17.09 3.00116 15.8506 3.3825 14.4142 3.84647Z" fill="url(#paint0_linear_1_744)"/>
<path d="M25.1999 10.3801C25.0347 10.469 24.8631 10.6152 24.7868 10.7487C24.6597 10.9711 24.6597 11.0474 24.6597 21.6615V32.3518L24.7931 32.5297C24.8631 32.6251 25.0219 32.7713 25.1363 32.8539L25.3524 33.0001L28.4985 32.981C31.5366 32.9619 31.6573 32.9556 31.8226 32.8348C31.9179 32.7649 32.0577 32.5933 32.1276 32.4471C32.2548 32.1929 32.2548 32.0912 32.2548 21.6424V11.0919L32.1149 10.8123C32.0069 10.6025 31.8925 10.4881 31.6827 10.3801C31.4031 10.2402 31.384 10.2402 28.4413 10.2402C25.4986 10.2402 25.4796 10.2402 25.1999 10.3801Z" fill="url(#paint1_linear_1_744)"/>
<path d="M14.7893 16.3418C14.6749 16.4117 14.5287 16.5579 14.4588 16.6723C14.3317 16.8756 14.3317 17.0091 14.3317 24.6042C14.3317 32.1993 14.3317 32.3327 14.4588 32.5361C14.5287 32.6505 14.6749 32.7967 14.7893 32.8666C14.9927 32.9874 15.1198 32.9937 18.0815 32.9937C21.5581 32.9937 21.4691 33.0065 21.7488 32.5107L21.895 32.2628V24.6169C21.895 16.1511 21.9204 16.6977 21.4882 16.3863C21.2912 16.2464 21.2848 16.2464 18.1451 16.2274C15.0944 16.2146 14.9927 16.2146 14.7893 16.3418Z" fill="url(#paint2_linear_1_744)"/>
<path d="M4.60731 22.1954C4.51833 22.2335 4.37851 22.3225 4.30224 22.3988C3.95903 22.7166 3.97174 22.5259 3.97174 27.5723C3.97174 31.9133 3.9781 32.2819 4.08614 32.4789C4.14334 32.5997 4.27681 32.7586 4.37215 32.8285C4.55011 32.962 4.61367 32.962 7.75339 32.962C10.8931 32.962 10.9567 32.962 11.1346 32.8285C11.23 32.7586 11.3634 32.5997 11.427 32.4789C11.5287 32.2756 11.535 31.9387 11.5223 27.4961C11.5033 22.8437 11.5033 22.7229 11.3762 22.5577C11.3062 22.4623 11.1346 22.3225 10.9885 22.2526C10.7406 22.1318 10.6135 22.1255 7.74704 22.1318C5.92295 22.1318 4.70265 22.1573 4.60731 22.1954Z" fill="url(#paint3_linear_1_744)"/>
<defs>
<linearGradient id="paint0_linear_1_744" x1="10.5109" y1="14.8438" x2="10.5109" y2="3.00015" gradientUnits="userSpaceOnUse">
<stop stop-color="#556AC1"/>
<stop offset="1" stop-color="#41A2DC"/>
</linearGradient>
<linearGradient id="paint1_linear_1_744" x1="28.4572" y1="33.0001" x2="28.4572" y2="10.2402" gradientUnits="userSpaceOnUse">
<stop stop-color="#556AC1"/>
<stop offset="1" stop-color="#41A2DC"/>
</linearGradient>
<linearGradient id="paint2_linear_1_744" x1="18.1135" y1="32.9938" x2="18.1135" y2="16.222" gradientUnits="userSpaceOnUse">
<stop stop-color="#556AC1"/>
<stop offset="1" stop-color="#41A2DC"/>
</linearGradient>
<linearGradient id="paint3_linear_1_744" x1="7.74941" y1="32.962" x2="7.74941" y2="22.1302" gradientUnits="userSpaceOnUse">
<stop stop-color="#556AC1"/>
<stop offset="1" stop-color="#41A2DC"/>
</linearGradient>
</defs>
</svg>
