<svg width="37" height="36" viewBox="0 0 37 36" fill="none" xmlns="http://www.w3.org/2000/svg">
<path d="M13.7732 3.07758C12.9464 3.27696 12.1195 3.92202 11.7208 4.6785C11.3103 5.46429 11.3337 4.52016 11.3337 17.996C11.3337 31.466 11.3103 30.5277 11.7208 31.3076C12.1489 32.1286 13.0637 32.7971 13.955 32.9437C14.2365 32.9906 15.9019 33.0082 19.7488 32.9965L25.1438 32.9789L25.525 32.844C26.5747 32.4746 27.4133 31.5363 27.6302 30.4984C27.7241 30.0586 27.7241 5.93343 27.6302 5.49361C27.4133 4.45566 26.6099 3.54671 25.566 3.16554L25.1438 3.01307L19.6315 3.00135C15.0223 2.99548 14.0606 3.00721 13.7732 3.07758ZM22.0417 5.93929C22.2645 6.16213 22.3056 6.44361 22.1531 6.73095C21.9713 7.0828 21.8892 7.09453 19.4321 7.07694L17.2038 7.05934L17.0278 6.88928C16.7112 6.59021 16.7346 6.12108 17.0689 5.85719C17.2096 5.74577 17.3152 5.73991 19.526 5.73991H21.8423L22.0417 5.93929ZM20.2238 27.7657C20.3997 27.8712 20.5757 28.0472 20.6871 28.2231C20.8395 28.4694 20.863 28.5691 20.863 28.8975C20.8571 29.7067 20.3118 30.2521 19.5025 30.2521C18.8809 30.2521 18.4001 29.8826 18.2183 29.2669C17.8781 28.0999 19.1858 27.1206 20.2238 27.7657Z" fill="url(#paint0_linear_56_2083)"/>
<defs>
<linearGradient id="paint0_linear_56_2083" x1="19.517" y1="33" x2="19.517" y2="3.00003" gradientUnits="userSpaceOnUse">
<stop stop-color="#556AC1"/>
<stop offset="1" stop-color="#41A2DC"/>
</linearGradient>
</defs>
</svg>
