<svg width="25" height="25" viewBox="0 0 25 25" fill="none" xmlns="http://www.w3.org/2000/svg">
<path d="M6.5 18.0977L4.2 20.3977C3.88334 20.7143 3.52067 20.7853 3.112 20.6107C2.70333 20.436 2.49933 20.1233 2.5 19.6727V4.09766C2.5 3.54766 2.696 3.07699 3.088 2.68566C3.48 2.29432 3.95067 2.09832 4.5 2.09766H20.5C21.05 2.09766 21.521 2.29366 21.913 2.68566C22.305 3.07766 22.5007 3.54832 22.5 4.09766V16.0977C22.5 16.6477 22.3043 17.1187 21.913 17.5107C21.5217 17.9027 21.0507 18.0983 20.5 18.0977H6.5ZM8.5 11.0977C8.78333 11.0977 9.021 11.0017 9.213 10.8097C9.405 10.6177 9.50067 10.3803 9.5 10.0977C9.49933 9.81499 9.40333 9.57766 9.212 9.38566C9.02067 9.19366 8.78333 9.09766 8.5 9.09766C8.21667 9.09766 7.97933 9.19366 7.788 9.38566C7.59667 9.57766 7.50067 9.81499 7.5 10.0977C7.49933 10.3803 7.59534 10.618 7.788 10.8107C7.98067 11.0033 8.218 11.099 8.5 11.0977ZM12.5 11.0977C12.7833 11.0977 13.021 11.0017 13.213 10.8097C13.405 10.6177 13.5007 10.3803 13.5 10.0977C13.4993 9.81499 13.4033 9.57766 13.212 9.38566C13.0207 9.19366 12.7833 9.09766 12.5 9.09766C12.2167 9.09766 11.9793 9.19366 11.788 9.38566C11.5967 9.57766 11.5007 9.81499 11.5 10.0977C11.4993 10.3803 11.5953 10.618 11.788 10.8107C11.9807 11.0033 12.218 11.099 12.5 11.0977ZM16.5 11.0977C16.7833 11.0977 17.021 11.0017 17.213 10.8097C17.405 10.6177 17.5007 10.3803 17.5 10.0977C17.4993 9.81499 17.4033 9.57766 17.212 9.38566C17.0207 9.19366 16.7833 9.09766 16.5 9.09766C16.2167 9.09766 15.9793 9.19366 15.788 9.38566C15.5967 9.57766 15.5007 9.81499 15.5 10.0977C15.4993 10.3803 15.5953 10.618 15.788 10.8107C15.9807 11.0033 16.218 11.099 16.5 11.0977Z" fill="url(#paint0_linear_46_9628)"/>
<defs>
<linearGradient id="paint0_linear_46_9628" x1="12.5" y1="2.09766" x2="12.5" y2="20.7038" gradientUnits="userSpaceOnUse">
<stop stop-color="#556AC1"/>
<stop offset="1" stop-color="#41A2DC"/>
</linearGradient>
</defs>
</svg>
