<svg width="37" height="36" viewBox="0 0 37 36" fill="none" xmlns="http://www.w3.org/2000/svg">
<path d="M33.5 16.38L29.39 13.995C33.35 10.62 29.375 4.32001 24.62 6.46501L23.315 7.02001L23.15 5.58001C23 3.96001 22.16 2.80501 21.05 2.13001C18.59 0.70051 14.84 1.68001 14.24 5.25001L10.115 2.88001C8.675 2.04001 6.845 2.53501 6.02 3.97501L4.52 6.57001C4.1 7.29001 4.355 8.20501 5.075 8.62501L16.76 15.375L19.01 11.475L21.605 12.975L19.355 16.875L31.04 23.625C31.76 24 32.69 23.79 33.095 23.07L34.595 20.475C35.42 19.035 34.94 17.205 33.5 16.38ZM19.055 7.50001C17.75 7.87501 16.7 6.48001 17.36 5.32501C17.75 4.60501 18.695 4.36501 19.415 4.77001C20.57 5.44501 20.345 7.18501 19.055 7.50001ZM26.84 12C25.55 12.375 24.5 10.98 25.16 9.82501C25.565 9.10501 26.495 8.86501 27.2 9.27001C28.355 9.94501 28.13 11.685 26.84 12ZM31.805 25.32C32.42 25.32 33.005 25.11 33.5 24.75V30C33.5 31.665 32.165 33 30.5 33H6.5C5.70435 33 4.94129 32.6839 4.37868 32.1213C3.81607 31.5587 3.5 30.7957 3.5 30V16.5H15.725L17 17.25V30H20V18.975L30.305 24.915C30.755 25.185 31.25 25.32 31.805 25.32Z" fill="url(#paint0_linear_33_878)"/>
<defs>
<linearGradient id="paint0_linear_33_878" x1="19.2489" y1="1.49847" x2="19.2489" y2="33" gradientUnits="userSpaceOnUse">
<stop stop-color="#556AC1"/>
<stop offset="1" stop-color="#41A2DC"/>
</linearGradient>
</defs>
</svg>
