<svg width="37" height="36" viewBox="0 0 37 36" fill="none" xmlns="http://www.w3.org/2000/svg">
<path d="M16.9058 3.03641C14.0047 3.31812 11.3266 4.38631 8.9775 6.19402C7.83229 7.0744 6.34646 8.7295 5.48902 10.0794C5.11904 10.6605 4.39667 12.1395 4.13827 12.8438C3.8505 13.6303 3.53924 14.8393 3.38654 15.7725C3.20449 16.917 3.20449 19.0886 3.38654 20.2331C3.65082 21.853 4.06779 23.1559 4.77841 24.6056C5.55363 26.1844 6.35821 27.3054 7.65023 28.6025C8.94813 29.8937 10.0698 30.6978 11.6496 31.4725C13.1002 32.1827 14.404 32.5994 16.0249 32.8635C17.1701 33.0455 19.3431 33.0455 20.4883 32.8635C22.1092 32.5994 23.413 32.1827 24.8636 31.4725C26.4434 30.6978 27.5651 29.8937 28.863 28.6025C30.155 27.3054 30.9596 26.1844 31.7348 24.6056C32.2516 23.555 32.51 22.8683 32.7919 21.8119C33.1619 20.4033 33.25 19.6344 33.25 18.0028C33.25 16.3712 33.1619 15.6023 32.7919 14.1937C32.51 13.1373 32.2516 12.4506 31.7348 11.4C30.9596 9.82117 30.155 8.70016 28.863 7.40307C27.5651 6.11185 26.4434 5.30778 24.8636 4.53304C23.4188 3.82287 22.0798 3.40029 20.5177 3.15379C19.6543 3.0188 17.728 2.95424 16.9058 3.03641ZM11.3619 15.7784C12.8301 16.0484 13.6347 17.6037 13.0063 18.9712C12.601 19.8575 11.5909 20.3915 10.616 20.239C9.12432 19.9983 8.27276 18.3726 8.93052 17.0109C9.21829 16.4123 9.91128 15.884 10.5397 15.7725C10.9508 15.7079 10.9743 15.7079 11.3619 15.7784ZM18.7382 15.8019C19.6191 15.9838 20.2827 16.6646 20.4707 17.5685C20.547 17.9558 20.547 18.0497 20.4707 18.4371C20.2827 19.3586 19.6132 20.0277 18.6912 20.2155C18.3036 20.2918 18.2096 20.2918 17.822 20.2155C16.9 20.0277 16.2305 19.3586 16.0425 18.4371C15.9662 18.0497 15.9662 17.9558 16.0425 17.5685C16.2246 16.6822 16.8941 15.9897 17.7457 15.8019C18.2155 15.7021 18.2684 15.7021 18.7382 15.8019ZM26.3083 15.8605C27.3125 16.2186 27.9644 17.322 27.7765 18.3667C27.5063 19.9161 25.8502 20.7202 24.4642 19.9866C23.1839 19.2999 22.8903 17.5391 23.8887 16.4651C24.476 15.8253 25.492 15.573 26.3083 15.8605Z" fill="url(#paint0_linear_1_276)"/>
<defs>
<linearGradient id="paint0_linear_1_276" x1="18.25" y1="33" x2="18.25" y2="3" gradientUnits="userSpaceOnUse">
<stop stop-color="#41A2DC"/>
<stop offset="1" stop-color="#556AC1"/>
</linearGradient>
</defs>
</svg>
