<svg width="37" height="36" viewBox="0 0 37 36" fill="none" xmlns="http://www.w3.org/2000/svg">
<path opacity="0.97" fill-rule="evenodd" clip-rule="evenodd" d="M29.2631 7.52515C30.378 7.39853 31.3057 7.75009 32.0463 8.57983C32.2106 8.81088 32.3277 9.06479 32.3978 9.34155C32.537 9.96159 32.6444 10.5866 32.7201 11.2166C24.8497 11.1684 16.9786 11.1391 9.10681 11.1287C15.8321 9.9221 22.5509 8.72095 29.2631 7.52515Z" fill="url(#paint0_linear_1_720)"/>
<path opacity="0.992" fill-rule="evenodd" clip-rule="evenodd" d="M33.8334 14.4392C33.8334 18.9119 33.8334 23.3846 33.8334 27.8572C33.5444 28.5262 33.0366 28.9265 32.3099 29.0584C23.3256 29.0974 14.3412 29.0974 5.35681 29.0584C4.6301 28.9265 4.12229 28.5262 3.83337 27.8572C3.83337 23.3846 3.83337 18.9119 3.83337 14.4392C4.12229 13.7703 4.6301 13.3699 5.35681 13.2381C14.3412 13.199 23.3256 13.199 32.3099 13.2381C33.0366 13.3699 33.5444 13.7703 33.8334 14.4392ZM11.0404 14.8494C11.724 14.8494 12.4076 14.8494 13.0912 14.8494C13.0912 15.4353 13.0912 16.0213 13.0912 16.6072C12.4076 16.6072 11.724 16.6072 11.0404 16.6072C11.0404 16.0213 11.0404 15.4353 11.0404 14.8494ZM27.7396 16.9588C28.505 17.0504 28.8468 17.4801 28.765 18.2478C28.7225 18.3913 28.6639 18.5281 28.5892 18.658C27.9799 19.199 27.4037 19.7655 26.8607 20.3572C27.3633 21.9714 27.8222 23.5926 28.2377 25.2205C27.9935 25.4646 27.7494 25.7087 27.5052 25.9529C27.4022 25.9997 27.3045 25.9899 27.2123 25.9236C26.4799 24.615 25.7474 23.3064 25.015 21.9978C24.3412 22.6716 23.6674 23.3455 22.9935 24.0193C23.1107 24.5271 23.2279 25.0349 23.3451 25.5427C23.2279 25.6599 23.1107 25.7771 22.9935 25.8943C22.8932 25.9969 22.776 26.036 22.642 26.0115C21.6654 25.0349 20.6889 24.0584 19.7123 23.0818C19.8771 22.8485 20.0725 22.6435 20.2982 22.4666C20.8001 22.6041 21.3078 22.692 21.8217 22.7302C22.4768 22.0849 23.1213 21.4306 23.7552 20.7673C22.4851 20.015 21.1961 19.2924 19.8881 18.5994C19.8218 18.5072 19.812 18.4095 19.8588 18.3064C20.1174 18.0181 20.4006 17.7642 20.7084 17.5447C22.2824 18.0075 23.8546 18.4763 25.4252 18.9509C25.9992 18.3964 26.5558 17.8202 27.0951 17.2224C27.3033 17.0981 27.5181 17.0103 27.7396 16.9588ZM11.0404 18.4822C11.724 18.4822 12.4076 18.4822 13.0912 18.4822C13.0912 19.0681 13.0912 19.6541 13.0912 20.24C12.4076 20.24 11.724 20.24 11.0404 20.24C11.0404 19.6541 11.0404 19.0681 11.0404 18.4822ZM11.0404 22.0564C11.724 22.0564 12.4076 22.0564 13.0912 22.0564C13.0912 22.6423 13.0912 23.2283 13.0912 23.8142C12.4076 23.8142 11.724 23.8142 11.0404 23.8142C11.0404 23.2283 11.0404 22.6423 11.0404 22.0564ZM11.0404 25.6892C11.724 25.6892 12.4076 25.6892 13.0912 25.6892C13.0912 26.2556 13.0912 26.822 13.0912 27.3884C12.4076 27.3884 11.724 27.3884 11.0404 27.3884C11.0404 26.822 11.0404 26.2556 11.0404 25.6892Z" fill="url(#paint1_linear_1_720)"/>
<defs>
<linearGradient id="paint0_linear_1_720" x1="20.9135" y1="7.5" x2="20.9135" y2="11.2166" gradientUnits="userSpaceOnUse">
<stop stop-color="#556AC1"/>
<stop offset="1" stop-color="#41A2DC"/>
</linearGradient>
<linearGradient id="paint1_linear_1_720" x1="18.8334" y1="13.2087" x2="18.8334" y2="29.0877" gradientUnits="userSpaceOnUse">
<stop stop-color="#556AC1"/>
<stop offset="1" stop-color="#41A2DC"/>
</linearGradient>
</defs>
</svg>
