<svg width="35" height="27" viewBox="0 0 35 27" fill="none" xmlns="http://www.w3.org/2000/svg">
<path opacity="0.988" fill-rule="evenodd" clip-rule="evenodd" d="M10.1433 0.673694C13.5303 0.548811 15.7547 2.08961 16.8165 5.29609C17.4911 8.15481 16.7207 10.5311 14.5053 12.425C12.1773 14.0006 9.83351 14.0223 7.47401 12.4901C5.33407 10.737 4.49856 8.49088 4.9675 5.75182C5.63529 2.96803 7.36055 1.27532 10.1433 0.673694Z" fill="white"/>
<path opacity="0.986" fill-rule="evenodd" clip-rule="evenodd" d="M24.1407 1.58515C26.6882 1.46377 28.5002 2.54884 29.5769 4.84036C30.5244 7.44127 29.9927 9.68736 27.9819 11.5786C25.8551 13.0977 23.7284 13.0977 21.6017 11.5786C19.6596 9.78957 19.0845 7.63026 19.8764 5.10077C20.6664 3.15043 22.0878 1.97856 24.1407 1.58515Z" fill="white"/>
<path opacity="0.987" fill-rule="evenodd" clip-rule="evenodd" d="M34.1667 21.7674C34.1667 22.7874 34.1667 23.8074 34.1667 24.8273C30.4341 24.8273 26.7014 24.8273 22.9688 24.8273C22.6744 21.254 21.1552 18.3352 18.4115 16.0708C19.8824 14.7283 21.6185 13.947 23.6198 13.7271C27.6011 13.369 30.6935 14.8339 32.8972 18.1216C33.5492 19.2641 33.9724 20.4794 34.1667 21.7674Z" fill="white"/>
<path opacity="0.992" fill-rule="evenodd" clip-rule="evenodd" d="M0.833374 26.5851C0.833374 25.8256 0.833374 25.0661 0.833374 24.3065C1.48345 20.1729 3.7838 17.406 7.73441 16.0057C10.6491 15.1973 13.4485 15.4794 16.1329 16.8521C19.6845 19.1049 21.3338 22.3492 21.0808 26.5851C14.3316 26.5851 7.58253 26.5851 0.833374 26.5851Z" fill="white"/>
</svg>
