<svg width="25" height="25" viewBox="0 0 25 25" fill="none" xmlns="http://www.w3.org/2000/svg">
<path d="M7.02404 2.54263C8.16704 3.37563 9.05704 4.51263 9.81704 5.60063L10.259 6.24463L10.676 6.85963C10.8846 7.16436 10.9738 7.53518 10.9266 7.90142C10.8794 8.26767 10.6991 8.60375 10.42 8.84563L8.46904 10.2946C8.37478 10.3627 8.30843 10.4627 8.28231 10.576C8.2562 10.6892 8.27209 10.8082 8.32704 10.9106C8.76904 11.7136 9.55504 12.9096 10.455 13.8096C11.355 14.7096 12.608 15.5476 13.467 16.0396C13.5747 16.1001 13.7015 16.117 13.8213 16.0869C13.9411 16.0567 14.0448 15.9819 14.111 15.8776L15.381 13.9446C15.6145 13.6345 15.959 13.4267 16.3422 13.3648C16.7255 13.3029 17.1178 13.3917 17.437 13.6126L18.1 14.0716C19.339 14.9316 20.67 15.9086 21.688 17.2116C21.8495 17.4194 21.9522 17.6668 21.9854 17.9278C22.0187 18.1888 21.9812 18.454 21.877 18.6956C21.04 20.6486 18.922 22.3116 16.719 22.2306L16.419 22.2136L16.186 22.1936L15.928 22.1636L15.647 22.1256L15.342 22.0756L15.182 22.0456L14.846 21.9736L14.67 21.9336L14.304 21.8396L13.919 21.7296L13.517 21.5996C11.671 20.9736 9.32804 19.7436 6.92404 17.3396C4.52004 14.9356 3.29104 12.5936 2.66504 10.7476L2.53504 10.3456L2.42504 9.96063L2.33104 9.59463L2.25304 9.24863C2.23054 9.14026 2.20953 9.03158 2.19004 8.92263L2.14004 8.61763L2.10004 8.33663L2.07104 8.07863L2.05104 7.84563L2.03504 7.54563C1.95404 5.34963 3.63504 3.21663 5.57904 2.38363C5.81301 2.28259 6.06924 2.24413 6.32257 2.272C6.5759 2.29988 6.81763 2.39314 7.02404 2.54263ZM15.159 6.13763L15.275 6.15063C16.0029 6.27902 16.6715 6.63457 17.1849 7.16631C17.6983 7.69804 18.0302 8.37867 18.133 9.11063C18.1697 9.36381 18.1079 9.62141 17.9604 9.83043C17.8129 10.0395 17.591 10.184 17.3401 10.2344C17.0893 10.2847 16.8288 10.237 16.612 10.1011C16.3953 9.96515 16.2389 9.75134 16.175 9.50363L16.152 9.38863C16.1118 9.10173 15.9893 8.83262 15.7995 8.61381C15.6096 8.39501 15.3604 8.23587 15.082 8.15563L14.927 8.12063C14.6759 8.07612 14.4513 7.93736 14.2991 7.73273C14.147 7.5281 14.0787 7.27306 14.1083 7.01977C14.138 6.76648 14.2633 6.53409 14.4586 6.37011C14.6539 6.20613 14.9044 6.12297 15.159 6.13763ZM15.167 3.09763C16.7583 3.09763 18.2845 3.72977 19.4097 4.85499C20.5349 5.98021 21.167 7.50633 21.167 9.09763C21.1668 9.35251 21.0692 9.59766 20.8942 9.783C20.7192 9.96833 20.4801 10.0799 20.2256 10.0948C19.9712 10.1097 19.7207 10.027 19.5252 9.86336C19.3298 9.69977 19.2041 9.46772 19.174 9.21463L19.167 9.09763C19.1669 8.08219 18.7806 7.10479 18.0865 6.36366C17.3923 5.62253 16.4423 5.17314 15.429 5.10663L15.167 5.09763C14.9018 5.09763 14.6475 4.99227 14.4599 4.80473C14.2724 4.6172 14.167 4.36284 14.167 4.09763C14.167 3.83241 14.2724 3.57806 14.4599 3.39052C14.6475 3.20298 14.9018 3.09763 15.167 3.09763Z" fill="url(#paint0_linear_46_9621)"/>
<defs>
<linearGradient id="paint0_linear_46_9621" x1="12.0147" y1="2.26318" x2="12.0147" y2="22.2335" gradientUnits="userSpaceOnUse">
<stop stop-color="#556AC1"/>
<stop offset="1" stop-color="#41A2DC"/>
</linearGradient>
</defs>
</svg>
