<svg width="37" height="36" viewBox="0 0 37 36" fill="none" xmlns="http://www.w3.org/2000/svg">
<path d="M27.4585 3.0015C28.3137 3.00139 29.137 3.32594 29.7621 3.90955C30.3872 4.49316 30.7675 5.29231 30.826 6.1455L30.8335 6.375V29.622C30.8336 30.4772 30.5091 31.3005 29.9254 31.9256C29.3418 32.5507 28.5427 32.931 27.6895 32.9895L27.4585 32.997H10.2085C9.35331 32.9971 8.52996 32.6726 7.90487 32.0889C7.27977 31.5053 6.89953 30.7062 6.841 29.853L6.8335 29.625V6.3765C6.83339 5.52131 7.15794 4.69796 7.74155 4.07287C8.32516 3.44777 9.12431 3.06753 9.9775 3.009L10.2085 3.0015H27.4585ZM19.2055 19.4955H12.4585L12.3055 19.506C12.0351 19.5418 11.7869 19.6747 11.6072 19.8798C11.4274 20.085 11.3283 20.3485 11.3283 20.6212C11.3283 20.894 11.4274 21.1575 11.6072 21.3626C11.7869 21.5678 12.0351 21.7007 12.3055 21.7365L12.4585 21.7455H19.2055L19.3585 21.7365C19.6289 21.7007 19.8771 21.5678 20.0568 21.3626C20.2366 21.1575 20.3357 20.894 20.3357 20.6212C20.3357 20.3485 20.2366 20.085 20.0568 19.8798C19.8771 19.6747 19.6289 19.5418 19.3585 19.506L19.2055 19.4955ZM25.2085 15H12.4585L12.3055 15.009C12.0351 15.0448 11.7869 15.1777 11.6072 15.3828C11.4274 15.588 11.3283 15.8515 11.3283 16.1242C11.3283 16.397 11.4274 16.6605 11.6072 16.8657C11.7869 17.0708 12.0351 17.2037 12.3055 17.2395L12.4585 17.25H25.2085L25.3615 17.2395C25.6319 17.2037 25.8801 17.0708 26.0598 16.8657C26.2396 16.6605 26.3387 16.397 26.3387 16.1242C26.3387 15.8515 26.2396 15.588 26.0598 15.3828C25.8801 15.1777 25.6319 15.0448 25.3615 15.009L25.2085 15ZM25.2085 10.5015H12.4585L12.3055 10.512C12.0362 10.549 11.7895 10.6823 11.6109 10.8872C11.4322 11.0921 11.3338 11.3547 11.3338 11.6265C11.3338 11.8983 11.4322 12.1609 11.6109 12.3658C11.7895 12.5707 12.0362 12.7039 12.3055 12.741L12.4585 12.7515H25.2085L25.3615 12.741C25.6308 12.7039 25.8775 12.5707 26.0561 12.3658C26.2347 12.1609 26.3331 11.8983 26.3331 11.6265C26.3331 11.3547 26.2347 11.0921 26.0561 10.8872C25.8775 10.6823 25.6308 10.549 25.3615 10.512L25.2085 10.5015Z" fill="url(#paint0_linear_33_881)"/>
<defs>
<linearGradient id="paint0_linear_33_881" x1="18.8335" y1="3.0015" x2="18.8335" y2="32.997" gradientUnits="userSpaceOnUse">
<stop stop-color="#556AC1"/>
<stop offset="1" stop-color="#41A2DC"/>
</linearGradient>
</defs>
</svg>
