<svg width="37" height="36" viewBox="0 0 37 36" fill="none" xmlns="http://www.w3.org/2000/svg">
<path d="M11.5905 33C10.9185 33 10.3465 32.764 9.8745 32.292C9.4025 31.82 9.1665 31.2485 9.1665 30.5775V5.4225C9.1665 4.7325 9.398 4.1565 9.861 3.6945C10.324 3.2325 10.9005 3.001 11.5905 3H24.8595C25.5295 3 26.101 3.236 26.574 3.708C27.046 4.18 27.282 4.752 27.282 5.424V10.245C27.655 10.285 27.979 10.44 28.254 10.71C28.529 10.979 28.6665 11.303 28.6665 11.682V14.3355C28.6665 14.7145 28.529 15.0385 28.254 15.3075C27.979 15.5765 27.655 15.7315 27.282 15.7725V30.576C27.282 31.246 27.046 31.8175 26.574 32.2905C26.102 32.7625 25.5305 32.9985 24.8595 32.9985L11.5905 33ZM18.1665 22.962L23.1285 18L22.0665 16.938L18.9165 20.0715V13.038H17.4165V20.0715L14.2665 16.938L13.2045 18L18.1665 22.962Z" fill="url(#paint0_linear_33_884)"/>
<defs>
<linearGradient id="paint0_linear_33_884" x1="18.9165" y1="3" x2="18.9165" y2="33" gradientUnits="userSpaceOnUse">
<stop stop-color="#556AC1"/>
<stop offset="1" stop-color="#41A2DC"/>
</linearGradient>
</defs>
</svg>
