<svg width="32" height="33" viewBox="0 0 32 33" fill="none" xmlns="http://www.w3.org/2000/svg">
<path opacity="0.989" fill-rule="evenodd" clip-rule="evenodd" d="M14.8542 3.16669C15.6181 3.16669 16.3819 3.16669 17.1459 3.16669C22.3702 3.81691 26.0941 6.52524 28.3177 11.2917C28.854 12.6035 29.1926 13.9577 29.3334 15.3542C29.3334 16.1181 29.3334 16.8819 29.3334 17.6459C28.6832 22.8701 25.9749 26.594 21.2084 28.8177C19.8967 29.354 18.5425 29.6925 17.1459 29.8334C16.3819 29.8334 15.6181 29.8334 14.8542 29.8334C9.62986 29.1831 5.90591 26.4748 3.68231 21.7084C3.14603 20.3965 2.80748 19.0424 2.66669 17.6459C2.66669 16.8819 2.66669 16.1181 2.66669 15.3542C3.3168 10.13 6.02513 6.40599 10.7917 4.18231C12.1034 3.64606 13.4575 3.30752 14.8542 3.16669ZM15.5834 7.1771C17.8621 7.1401 19.3986 8.18177 20.1927 10.3021C20.7079 12.7525 19.8485 14.5321 17.6146 15.6406C15.3564 16.3405 13.5595 15.7242 12.224 13.7917C11.1873 11.6872 11.5085 9.82085 13.1875 8.19273C13.8992 7.63692 14.6978 7.29838 15.5834 7.1771ZM12.875 18.1667C14.9584 18.158 17.0417 18.1667 19.125 18.1927C21.1137 18.5494 22.3724 19.7039 22.9011 21.6563C23.2088 22.8346 22.8529 23.746 21.8334 24.3906C18.9637 26.3856 15.8734 26.8197 12.5625 25.6927C11.3129 25.2294 10.2278 24.5263 9.30731 23.5834C8.96387 22.9538 8.89445 22.294 9.09898 21.6042C9.6596 19.6803 10.9183 18.5344 12.875 18.1667Z" fill="#999999"/>
</svg>
