<svg width="16" height="15" viewBox="0 0 16 15" fill="none" xmlns="http://www.w3.org/2000/svg">
<path fill-rule="evenodd" clip-rule="evenodd" d="M2.693 10.5445C3.77633 10.6038 5.51233 10.6668 8 10.6668C10.4877 10.6668 12.2233 10.6038 13.307 10.5445C14.3697 10.4865 15.257 9.7145 15.365 8.61916C15.4373 7.88583 15.5 6.85783 15.5 5.50016C15.5 4.1425 15.4373 3.1145 15.365 2.38116C15.257 1.2855 14.3697 0.513829 13.307 0.455829C12.2237 0.396496 10.4877 0.333496 8 0.333496C5.51233 0.333496 3.77667 0.396496 2.693 0.455829C1.63033 0.513829 0.743 1.28583 0.635 2.38116C0.562667 3.1145 0.5 4.1425 0.5 5.50016C0.5 6.85783 0.562667 7.88583 0.635 8.61916C0.743 9.71483 1.63033 10.4865 2.693 10.5445ZM8 2.3185C8.13261 2.3185 8.25979 2.37117 8.35355 2.46494C8.44732 2.55871 8.5 2.68589 8.5 2.8185V3.12416C8.72943 3.16536 8.95327 3.23315 9.167 3.32616C9.33167 3.39816 9.49333 3.48183 9.63667 3.59083C9.85133 3.75483 9.89467 4.0775 9.73033 4.29216C9.65017 4.3969 9.53187 4.46573 9.4012 4.48365C9.27052 4.50157 9.13806 4.46713 9.03267 4.38783C8.74033 4.17516 8.35933 4.0805 8 4.0805C7.76033 4.0805 7.527 4.15516 7.36467 4.26583C7.19833 4.37883 7.16667 4.48116 7.16667 4.5325C7.16667 4.65283 7.21867 4.7175 7.32233 4.77383C7.52767 4.8855 7.76933 4.93183 8.00133 4.97616L8.13567 5.0025C8.44233 5.06483 8.839 5.1455 9.15567 5.31783C9.57633 5.54683 9.83333 5.9545 9.83333 6.4375C9.83333 6.93016 9.53167 7.30416 9.198 7.53083C8.98558 7.67279 8.74904 7.77479 8.5 7.83183V8.15183C8.5 8.28444 8.44732 8.41161 8.35355 8.50538C8.25979 8.59915 8.13261 8.65183 8 8.65183C7.86739 8.65183 7.74022 8.59915 7.64645 8.50538C7.55268 8.41161 7.5 8.28444 7.5 8.15183V7.84583C7.10333 7.7755 6.686 7.62583 6.36267 7.37883C6.25702 7.29865 6.18756 7.17978 6.16955 7.04838C6.15155 6.91698 6.18648 6.78381 6.26667 6.67816C6.34685 6.57252 6.46572 6.50305 6.59712 6.48505C6.72852 6.46705 6.86169 6.50198 6.96733 6.58216C7.25667 6.7925 7.64867 6.88983 8 6.88983C8.23867 6.88983 8.473 6.81483 8.63533 6.70416C8.80167 6.59116 8.83333 6.48883 8.83333 6.4375C8.83333 6.31716 8.78133 6.2525 8.67767 6.19616C8.47233 6.0845 8.231 6.03816 7.999 5.99383L7.86433 5.9675C7.558 5.90516 7.161 5.8245 6.84433 5.65216C6.42367 5.42316 6.16667 5.0155 6.16667 4.5325C6.16667 4.03983 6.46833 3.66583 6.802 3.43916C7.01442 3.29721 7.25096 3.1952 7.5 3.13816V2.8185C7.5 2.68589 7.55268 2.55871 7.64645 2.46494C7.74022 2.37117 7.86739 2.3185 8 2.3185ZM12.3333 4.8185C12.1565 4.8185 11.987 4.88873 11.8619 5.01376C11.7369 5.13878 11.6667 5.30835 11.6667 5.48516C11.6667 5.66197 11.7369 5.83154 11.8619 5.95657C11.987 6.08159 12.1565 6.15183 12.3333 6.15183H12.6667C12.8435 6.15183 13.013 6.08159 13.1381 5.95657C13.2631 5.83154 13.3333 5.66197 13.3333 5.48516C13.3333 5.30835 13.2631 5.13878 13.1381 5.01376C13.013 4.88873 12.8435 4.8185 12.6667 4.8185H12.3333ZM2.66667 5.48516C2.66667 5.30835 2.7369 5.13878 2.86193 5.01376C2.98695 4.88873 3.15652 4.8185 3.33333 4.8185H3.66667C3.84348 4.8185 4.01305 4.88873 4.13807 5.01376C4.2631 5.13878 4.33333 5.30835 4.33333 5.48516C4.33333 5.66197 4.2631 5.83154 4.13807 5.95657C4.01305 6.08159 3.84348 6.15183 3.66667 6.15183H3.33333C3.15652 6.15183 2.98695 6.08159 2.86193 5.95657C2.7369 5.83154 2.66667 5.66197 2.66667 5.48516ZM3.87833 13.7252C3.90556 13.6654 3.94429 13.6116 3.99231 13.5668C4.04033 13.522 4.0967 13.4871 4.1582 13.4642C4.21971 13.4412 4.28514 13.4305 4.35076 13.4328C4.41639 13.4351 4.48092 13.4503 4.54067 13.4775C4.67467 13.5385 4.82633 13.5768 4.99067 13.5852C5.69567 13.6208 6.68733 13.6522 8 13.6522C9.31267 13.6522 10.3047 13.6208 11.0097 13.5852C11.174 13.5768 11.3253 13.5385 11.4597 13.4775C11.58 13.4249 11.7161 13.4217 11.8388 13.4687C11.9614 13.5156 12.0606 13.6089 12.115 13.7284C12.1694 13.8479 12.1746 13.984 12.1295 14.1073C12.0845 14.2307 11.9927 14.3313 11.874 14.3875C11.6176 14.5037 11.3415 14.5705 11.0603 14.5842C10.337 14.6208 9.32867 14.6522 8.00033 14.6522C6.67167 14.6522 5.663 14.6205 4.94033 14.5838C4.65905 14.5703 4.38286 14.5037 4.12633 14.3875C4.06655 14.3603 4.01271 14.3216 3.96789 14.2736C3.92308 14.2256 3.88815 14.1692 3.86512 14.1077C3.84209 14.0462 3.83141 13.9808 3.83367 13.9151C3.83594 13.8495 3.85112 13.7849 3.87833 13.7252ZM2.414 11.5062C2.48617 11.395 2.59953 11.317 2.72917 11.2894C2.8588 11.2618 2.99411 11.2867 3.10533 11.3588C3.28721 11.475 3.4964 11.5415 3.712 11.5515C4.63167 11.6018 6.03833 11.6515 8 11.6515C9.96167 11.6515 11.3683 11.6018 12.288 11.5515C12.5036 11.5415 12.7128 11.475 12.8947 11.3588C13.0059 11.2886 13.1404 11.265 13.2689 11.2932C13.3974 11.3214 13.5096 11.3992 13.5812 11.5096C13.6528 11.62 13.6779 11.7541 13.6513 11.883C13.6246 12.0118 13.5482 12.1249 13.4387 12.1978C13.1104 12.409 12.7325 12.5305 12.3427 12.5502C11.4037 12.6015 9.97867 12.6518 8 12.6518C6.02133 12.6518 4.59667 12.6015 3.65733 12.5502C3.26749 12.5305 2.8896 12.409 2.56133 12.1978C2.50624 12.1621 2.45872 12.1159 2.4215 12.0618C2.38428 12.0076 2.35808 11.9467 2.3444 11.8825C2.33071 11.8183 2.32982 11.752 2.34176 11.6874C2.3537 11.6228 2.37825 11.5613 2.414 11.5062Z" fill="url(#paint0_linear_84_238)"/>
<defs>
<linearGradient id="paint0_linear_84_238" x1="8" y1="0.333496" x2="8" y2="14.6522" gradientUnits="userSpaceOnUse">
<stop stop-color="#556AC1"/>
<stop offset="1" stop-color="#41A2DC"/>
</linearGradient>
</defs>
</svg>
