<svg width="37" height="36" viewBox="0 0 37 36" fill="none" xmlns="http://www.w3.org/2000/svg">
<path d="M17.3399 3.9164C11.736 4.40156 6.89849 8.17734 5.15474 13.4367C4.66255 14.9133 4.50083 15.8555 4.45864 17.4797C4.43052 18.3656 4.45161 19.1461 4.50083 19.5891C5.12661 24.9187 8.50161 29.2711 13.4727 31.1836C18.1274 32.9695 23.3024 32.1609 27.275 29.018C32.5133 24.8766 34.1165 17.6414 31.1211 11.6719C28.9415 7.33359 24.7086 4.42968 19.843 3.9375C19.161 3.87421 17.9797 3.86015 17.3399 3.9164ZM18.9571 11.032C19.2805 11.1797 19.5125 11.4117 19.618 11.693C19.6743 11.8266 19.6954 13.4367 19.6954 16.6078V21.3328L20.743 20.2992C22.0649 18.9984 22.3321 18.8719 22.986 19.2656C23.443 19.5469 23.6329 20.2008 23.3938 20.6578C23.3375 20.7633 22.3461 21.7687 21.186 22.9008C18.8586 25.1578 18.7883 25.207 18.2047 25.0383C17.9516 24.9609 17.586 24.6305 15.9055 22.9641C14.8086 21.8812 13.8243 20.8617 13.7118 20.7141C13.1282 19.9266 13.8524 18.8367 14.8297 19.0195C15.0336 19.0547 15.2868 19.2727 16.1938 20.1656L17.3047 21.2625V16.5727C17.3047 13.4297 17.3258 11.8266 17.3821 11.693C17.5297 11.2922 18.0852 10.8984 18.5 10.8984C18.5985 10.8984 18.8024 10.9617 18.9571 11.032Z" fill="url(#paint0_linear_1_692)"/>
<defs>
<linearGradient id="paint0_linear_1_692" x1="18.5328" y1="32.1165" x2="18.5328" y2="3.88116" gradientUnits="userSpaceOnUse">
<stop stop-color="#556AC1"/>
<stop offset="1" stop-color="#41A2DC"/>
</linearGradient>
</defs>
</svg>
