<svg width="12" height="15" viewBox="0 0 12 15" fill="none" xmlns="http://www.w3.org/2000/svg">
<path d="M11.5 11.9155V14.4999C11.5 14.6325 11.4473 14.7597 11.3536 14.8535C11.2598 14.9472 11.1326 14.9999 11 14.9999C10.8674 14.9999 10.7402 14.9472 10.6464 14.8535C10.5527 14.7597 10.5 14.6325 10.5 14.4999V11.9155C10.4977 11.2738 10.3633 10.6393 10.1052 10.0517C9.84719 9.4641 9.47097 8.93587 9 8.4999V12.1468C8.99991 12.2544 8.96511 12.3591 8.90077 12.4453C8.83643 12.5316 8.74598 12.5948 8.64287 12.6255C8.53975 12.6563 8.42947 12.6529 8.3284 12.616C8.22733 12.5791 8.14088 12.5105 8.08187 12.4205L7.41438 11.4012C7.40938 11.3937 7.40437 11.3855 7.4 11.3774C7.30195 11.2043 7.13914 11.0772 6.94739 11.0241C6.75563 10.971 6.55064 10.9962 6.3775 11.0943C6.20436 11.1923 6.07727 11.3551 6.02417 11.5469C5.97107 11.7386 5.99633 11.9436 6.09437 12.1168L7.4775 14.2287C7.5501 14.3396 7.57565 14.4749 7.54851 14.6047C7.52138 14.7345 7.44379 14.8482 7.33281 14.9208C7.22184 14.9934 7.08656 15.019 6.95675 14.9919C6.82694 14.9647 6.71323 14.8871 6.64062 14.7762L5.24938 12.6512L5.23438 12.6274C5.21063 12.5862 5.18875 12.5443 5.16875 12.5024H0.5C0.367392 12.5024 0.240215 12.4497 0.146447 12.356C0.0526785 12.2622 0 12.135 0 12.0024V5.49991C0 5.23469 0.105357 4.98033 0.292893 4.7928C0.48043 4.60526 0.734784 4.49991 1 4.49991H4V7.49991C4 7.63251 4.05268 7.75969 4.14645 7.85346C4.24021 7.94723 4.36739 7.9999 4.5 7.9999C4.63261 7.9999 4.75979 7.94723 4.85355 7.85346C4.94732 7.75969 5 7.63251 5 7.49991V4.49991H8C8.26522 4.49991 8.51957 4.60526 8.70711 4.7928C8.89464 4.98033 9 5.23469 9 5.49991V7.22616C9.76744 7.74476 10.3964 8.44314 10.8322 9.26048C11.2679 10.0778 11.4972 10.9893 11.5 11.9155ZM5 1.70678L6.14625 2.85366C6.24007 2.94748 6.36732 3.00018 6.5 3.00018C6.63268 3.00018 6.75993 2.94748 6.85375 2.85366C6.94757 2.75983 7.00028 2.63259 7.00028 2.49991C7.00028 2.36722 6.94757 2.23998 6.85375 2.14616L4.85375 0.146155C4.80731 0.0996668 4.75217 0.0627873 4.69147 0.0376252C4.63077 0.012463 4.56571 -0.000488281 4.5 -0.000488281C4.43429 -0.000488281 4.36923 0.012463 4.30853 0.0376252C4.24783 0.0627873 4.19269 0.0996668 4.14625 0.146155L2.14625 2.14616C2.05243 2.23998 1.99972 2.36722 1.99972 2.49991C1.99972 2.63259 2.05243 2.75983 2.14625 2.85366C2.24007 2.94748 2.36732 3.00018 2.5 3.00018C2.63268 3.00018 2.75993 2.94748 2.85375 2.85366L4 1.70678V4.49991H5V1.70678Z" fill="url(#paint0_linear_84_228)"/>
<defs>
<linearGradient id="paint0_linear_84_228" x1="5.75" y1="-0.000488281" x2="5.75" y2="15.0024" gradientUnits="userSpaceOnUse">
<stop stop-color="#556AC1"/>
<stop offset="1" stop-color="#41A2DC"/>
</linearGradient>
</defs>
</svg>
