<svg width="37" height="36" viewBox="0 0 37 36" fill="none" xmlns="http://www.w3.org/2000/svg">
<path opacity="0.97" fill-rule="evenodd" clip-rule="evenodd" d="M8.33984 5.94141C9.91786 5.9137 10.5155 6.66371 10.1328 8.19141C6.56343 12.6328 5.64937 17.5782 7.39062 23.0274C8.01232 24.7172 8.90297 26.2406 10.0625 27.5977C10.5102 28.5614 10.2876 29.3231 9.39453 29.8828C8.66946 30.1345 8.04839 29.9822 7.53124 29.4258C3.95957 24.8651 2.74082 19.7323 3.87499 14.0274C4.53545 11.1009 5.83624 8.51105 7.77734 6.25782C7.96008 6.13161 8.1476 6.02614 8.33984 5.94141Z" fill="url(#paint0_linear_1_793)"/>
<path opacity="0.97" fill-rule="evenodd" clip-rule="evenodd" d="M27.8165 5.9414C28.4896 5.84145 29.0404 6.05239 29.4688 6.57421C33.3239 11.6001 34.402 17.1782 32.7032 23.3086C31.9572 25.7278 30.7501 27.8724 29.0821 29.7422C28.4346 30.0838 27.8018 30.0604 27.1836 29.6719C26.5607 29.0186 26.4788 28.3037 26.9375 27.5273C29.8372 23.9451 30.9153 19.8669 30.1719 15.293C29.8843 13.6799 29.3452 12.1565 28.5547 10.7226C27.973 9.78946 27.3636 8.8754 26.7266 7.98046C26.5038 6.97232 26.8671 6.29263 27.8165 5.9414Z" fill="url(#paint1_linear_1_793)"/>
<path opacity="0.968" fill-rule="evenodd" clip-rule="evenodd" d="M24.3008 11.7773C24.9739 11.6774 25.5247 11.8883 25.9531 12.4102C27.5759 15.2678 27.9041 18.2678 26.9375 21.4102C26.7002 22.0987 26.3956 22.755 26.0234 23.3789C25.3718 24.0858 24.6335 24.1913 23.8086 23.6953C23.2522 23.1782 23.0998 22.5571 23.3515 21.832C24.8403 19.11 24.7934 16.4147 23.2109 13.7461C23.0462 12.7857 23.4095 12.1295 24.3008 11.7773Z" fill="url(#paint2_linear_1_793)"/>
<path opacity="0.968" fill-rule="evenodd" clip-rule="evenodd" d="M11.8554 11.918C13.2704 11.9381 13.8446 12.6413 13.5781 14.0273C12.1067 16.7096 12.1301 19.3814 13.6484 22.043C13.8226 23.2042 13.3304 23.8605 12.1718 24.0117C11.5965 23.9704 11.1512 23.7125 10.8359 23.2383C9.25049 20.2392 9.03955 17.1455 10.2031 13.957C10.433 13.2738 10.7963 12.6761 11.2929 12.1641C11.4798 12.0601 11.6673 11.9781 11.8554 11.918Z" fill="url(#paint3_linear_1_793)"/>
<path opacity="0.971" fill-rule="evenodd" clip-rule="evenodd" d="M17.9024 14.9414C20.3498 14.8927 21.5333 16.088 21.4532 18.5274C20.9514 20.3201 19.7679 21.1287 17.9024 20.9532C16.1096 20.4514 15.301 19.2678 15.4766 17.4024C15.7823 16.0772 16.5909 15.2569 17.9024 14.9414Z" fill="url(#paint4_linear_1_793)"/>
<defs>
<linearGradient id="paint0_linear_1_793" x1="6.87587" y1="5.94067" x2="6.87587" y2="30.0004" gradientUnits="userSpaceOnUse">
<stop stop-color="#556AC1"/>
<stop offset="1" stop-color="#41A2DC"/>
</linearGradient>
<linearGradient id="paint1_linear_1_793" x1="30.0641" y1="5.9173" x2="30.0641" y2="29.982" gradientUnits="userSpaceOnUse">
<stop stop-color="#556AC1"/>
<stop offset="1" stop-color="#41A2DC"/>
</linearGradient>
<linearGradient id="paint2_linear_1_793" x1="25.3255" y1="11.7532" x2="25.3255" y2="24.0021" gradientUnits="userSpaceOnUse">
<stop stop-color="#556AC1"/>
<stop offset="1" stop-color="#41A2DC"/>
</linearGradient>
<linearGradient id="paint3_linear_1_793" x1="11.5734" y1="11.918" x2="11.5734" y2="24.0117" gradientUnits="userSpaceOnUse">
<stop stop-color="#556AC1"/>
<stop offset="1" stop-color="#41A2DC"/>
</linearGradient>
<linearGradient id="paint4_linear_1_793" x1="18.4551" y1="14.94" x2="18.4551" y2="20.9766" gradientUnits="userSpaceOnUse">
<stop stop-color="#556AC1"/>
<stop offset="1" stop-color="#41A2DC"/>
</linearGradient>
</defs>
</svg>
