<svg width="32" height="33" viewBox="0 0 32 33" fill="none" xmlns="http://www.w3.org/2000/svg">
<path d="M1.66669 15.5667C1.66669 7.74867 8.13335 1.5 16 1.5C23.8667 1.5 30.3334 7.74867 30.3334 15.5667V21.2253C30.3334 21.3476 30.3274 21.4682 30.3154 21.5873C30.3274 21.6673 30.3334 21.7493 30.3334 21.8333C30.3334 23.1467 30.1714 24.578 30.0134 25.6713C29.7654 27.3827 28.7527 29.08 26.8987 29.814C24.9034 30.6047 21.4387 31.5 16 31.5C15.558 31.5 15.1341 31.3244 14.8215 31.0118C14.5089 30.6993 14.3334 30.2754 14.3334 29.8333C14.3334 29.3913 14.5089 28.9674 14.8215 28.6548C15.1341 28.3423 15.558 28.1667 16 28.1667C21.0687 28.1667 24.11 27.3333 25.6714 26.7153C26.1794 26.514 26.598 25.9973 26.714 25.194C26.7287 25.0922 26.7431 24.9887 26.7574 24.8833C25.82 25.092 24.7374 25.2933 23.6607 25.406C22.246 25.5547 20.8667 24.702 20.6087 23.166C20.458 22.2727 20.3334 20.984 20.3334 19.166C20.3334 17.3493 20.458 16.0613 20.6087 15.1673C20.8667 13.6313 22.246 12.7787 23.6607 12.9273C24.2287 12.9867 24.7987 13.0707 25.3474 13.1673C24.262 9.16467 20.522 6.16667 16 6.16667C11.478 6.16667 7.73869 9.16467 6.65269 13.1673C7.21198 13.0679 7.77454 12.9879 8.33935 12.9273C9.75402 12.7787 11.1334 13.6313 11.392 15.1673C11.542 16.0607 11.6667 17.3493 11.6667 19.1667C11.6667 20.984 11.542 22.272 11.392 23.166C11.1334 24.702 9.75402 25.5547 8.33935 25.406C6.87402 25.2527 5.39935 24.936 4.29269 24.6593C2.69269 24.2587 1.66669 22.808 1.66669 21.226V15.5667Z" fill="#999999"/>
</svg>
