<svg width="60" height="26" viewBox="0 0 60 26" fill="none" xmlns="http://www.w3.org/2000/svg">
<g clip-path="url(#clip0_29_1706)">
<path d="M14.3333 7.75992C14.7223 7.82088 14.8006 7.7396 14.8529 7.37093C14.9806 6.51169 15.2361 5.67566 15.6105 4.89189C16.1214 3.84686 16.9284 2.69733 18.0664 1.92517C19.213 1.18494 20.4757 0.642106 21.7994 0.319888C22.6935 0.122494 23.6108 0.0615341 24.5223 0.139911C26.1595 0.287957 27.0652 0.755317 27.521 1.35911C27.6719 1.55941 27.7619 1.80035 27.7822 2.0529C27.7967 2.35479 27.6661 2.74668 27.2307 3.12986C26.7982 3.51594 25.9128 3.97168 24.6907 4.38099C23.4221 4.8019 21.6891 5.24894 19.959 5.64663C18.9575 5.87306 17.9677 6.15754 16.9981 6.49717C15.8544 6.88615 15.5089 8.02407 16.2201 8.37242C17.0213 8.7643 17.7674 9.25489 18.4466 9.82965C19.5352 10.6947 20.5309 11.673 21.4134 12.747C22.4903 14.062 24.2523 16.5701 24.8823 19.0056C25.5848 21.6791 25.1464 24.2133 23.634 24.9216C22.1507 25.6183 20.1738 24.6139 18.7863 23.1712C17.4684 21.8097 16.5453 20.1987 15.6744 17.7254C14.9226 15.586 14.6207 12.5003 14.6207 10.8805C14.6207 10.3406 14.6207 10.2273 14.6352 9.73966C14.6845 9.31585 13.5408 8.9617 12.3129 9.75418C10.9137 10.6541 9.54646 12.2826 8.73657 13.2318C8.38532 13.6469 7.90635 14.2536 7.40125 14.8893C6.73359 15.7254 5.99917 16.5962 5.32861 17.0839C4.32422 17.8009 2.70152 18.1115 1.5607 17.3045C0.927875 16.8546 0.588241 16.0011 0.588241 15.1332C0.579532 14.5352 0.733384 13.9459 1.03528 13.4263C1.42426 12.7586 2.03967 12.0416 3.03535 11.2201C4.34744 10.2012 5.79887 9.3739 7.34319 8.7643C9.84836 7.75701 12.5451 7.4406 14.3333 7.75992Z" fill="#01ACFA"/>
<path d="M29.5678 15.2185C28.7347 15.2185 28.4241 14.7309 28.4241 14.0748V9.86856H27.5794C27.501 9.86856 27.501 9.73503 27.501 9.62472C27.501 9.51442 27.501 9.36927 27.5794 9.36927H28.4241V7.91494C28.4241 7.84818 28.6128 7.84818 28.7231 7.84818C28.8334 7.84818 29.0221 7.84818 29.0221 7.91494V9.36927H30.3313C30.398 9.36927 30.398 9.49119 30.398 9.62472C30.398 9.75826 30.398 9.86856 30.3313 9.86856H29.0221V14.0516C29.0221 14.5189 29.2224 14.696 29.7101 14.696H30.3197C30.398 14.696 30.4183 14.7192 30.4183 14.9399C30.4183 15.1837 30.3951 15.2185 30.3197 15.2185H29.5678Z" fill="black"/>
<path d="M31.8436 12.5106V13.0883C31.8436 14.1536 32.4097 14.8096 33.5534 14.8096C34.4184 14.8096 34.9409 14.5774 35.3735 14.3423C35.4635 14.2987 35.7392 14.7748 35.6289 14.8416C35.0629 15.1638 34.3633 15.3525 33.5766 15.3525C32.1107 15.3525 31.2456 14.531 31.2456 13.1318V11.3001C31.2456 9.94736 32.2006 9.07941 33.4547 9.07941C34.8074 9.07941 35.7305 9.94446 35.7305 11.422V12.5106H31.8436ZM35.1267 11.3698C35.1267 10.1825 34.3604 9.60482 33.4518 9.60482C32.5751 9.60482 31.8436 10.1825 31.8436 11.3349V12.0229H35.1296V11.3698H35.1267Z" fill="black"/>
<path d="M38.2126 15.2182C37.3911 15.2182 37.0688 14.7305 37.0688 14.0745V6.97118C37.0688 6.90442 37.2575 6.90442 37.3678 6.90442C37.4782 6.90442 37.6668 6.90442 37.6668 6.97118V14.0513C37.6668 14.5186 37.8787 14.7073 38.3664 14.7073H38.6654C38.7438 14.7073 38.7641 14.7305 38.7641 14.9511C38.7641 15.195 38.7409 15.2182 38.6654 15.2182H38.2126Z" fill="black"/>
<path d="M40.0789 12.5106V13.0883C40.0789 14.1536 40.645 14.8096 41.7887 14.8096C42.6538 14.8096 43.1763 14.5774 43.6088 14.3423C43.6988 14.2987 43.9746 14.7748 43.8643 14.8416C43.2982 15.1638 42.5986 15.3525 41.812 15.3525C40.346 15.3525 39.481 14.531 39.481 13.1318V11.3001C39.481 9.94736 40.436 9.07941 41.69 9.07941C43.0428 9.07941 43.9659 9.94446 43.9659 11.422V12.5106H40.0789ZM43.3621 11.3698C43.3621 10.1825 42.5957 9.60482 41.6871 9.60482C40.8105 9.60482 40.0789 10.1825 40.0789 11.3349V12.0229H43.365V11.3698H43.3621Z" fill="black"/>
<path d="M49.2896 15.2656C49.1792 15.2656 48.9906 15.2656 48.9906 15.1989V11.1233C48.9906 10.1363 48.558 9.68054 47.8352 9.68054C47.0689 9.68054 46.3577 10.3366 45.9251 10.9694V15.1989C45.9251 15.2656 45.7365 15.2656 45.6261 15.2656C45.5158 15.2656 45.3271 15.2656 45.3271 15.1989V9.22769C45.3271 9.16093 45.5158 9.16093 45.6261 9.16093C45.7365 9.16093 45.9135 9.16093 45.9135 9.22769V10.3047C46.3896 9.62829 47.124 9.08255 48.0123 9.08255C48.9789 9.08255 49.5885 9.80536 49.5885 10.8591V15.1989C49.5885 15.2656 49.3999 15.2656 49.2896 15.2656Z" fill="black"/>
<path d="M50.8662 13.1901V11.2481C50.8662 9.8489 51.7109 9.08255 53.174 9.08255C54.6515 9.08255 55.505 9.8489 55.505 11.2481V13.1901C55.505 14.5777 54.6515 15.3556 53.174 15.3556C51.7109 15.3527 50.8662 14.5777 50.8662 13.1901ZM53.174 9.62538C52.1086 9.62538 51.4642 10.0811 51.4642 11.3468V13.0885C51.4642 14.3425 52.1086 14.8186 53.174 14.8186C54.2509 14.8186 54.9041 14.3629 54.9041 13.0885V11.3468C54.907 10.0927 54.2509 9.62538 53.174 9.62538Z" fill="black"/>
<path d="M58.9679 9.80221C58.4803 9.80221 58.068 10.2463 57.4584 11.1782V15.1986C57.4584 15.2654 57.2698 15.2654 57.1595 15.2654C57.0491 15.2654 56.8721 15.2654 56.8721 15.1986V9.22744C56.8721 9.16067 57.0491 9.16068 57.1595 9.16068C57.2698 9.16068 57.4381 9.16067 57.4381 9.22744V10.5715C58.1029 9.56127 58.4599 9.1839 59.1247 9.1839H59.3453C59.4121 9.1839 59.4121 9.39581 59.4121 9.50612C59.4121 9.61642 59.3888 9.80511 59.3221 9.80511H58.9679V9.80221Z" fill="black"/>
</g>
<defs>
<clipPath id="clip0_29_1706">
<rect width="58.8235" height="25.043" fill="white" transform="translate(0.588379 0.102478)"/>
</clipPath>
</defs>
</svg>
