<svg width="37" height="36" viewBox="0 0 37 36" fill="none" xmlns="http://www.w3.org/2000/svg">
<path d="M18.7291 3.63516C18.3776 3.70547 7.01506 8.02969 6.62131 8.24063C5.85491 8.64844 5.13772 9.50625 4.80022 10.4273C4.6385 10.8633 4.63147 10.8703 4.61741 15.1875C4.59631 18.5695 4.61741 19.5469 4.68069 19.6875C4.72991 19.7859 4.89866 19.9266 5.04631 19.9969C5.28538 20.1164 5.36272 20.1234 5.60881 20.0461C7.85881 19.3922 10.0033 19.5891 11.8385 20.6156C13.294 21.4383 14.5807 22.8727 15.1854 24.3633C15.5932 25.3547 15.7198 25.9453 15.7549 27.0422C15.7971 28.1813 15.7057 28.7719 15.3119 29.918C15.0166 30.7969 15.0096 31.0078 15.2768 31.3031L15.4807 31.5352H21.1338C26.3862 31.5352 26.808 31.5281 27.2299 31.4086C29.3815 30.7969 30.8721 29.1234 31.1674 26.9648C31.3151 25.9102 31.2377 25.4953 30.7948 25.0594C30.4221 24.6797 30.1479 24.6094 29.0651 24.6094C27.7502 24.6094 27.0401 24.3773 26.3932 23.7375C25.7533 23.1117 25.5213 22.5211 25.5635 21.6C25.5916 20.8406 25.8026 20.3484 26.3299 19.793C27.019 19.0688 27.708 18.8508 29.3323 18.8438C30.0565 18.8438 30.2393 18.8227 30.4713 18.7031C31.076 18.3938 31.2869 17.8313 31.2237 16.7063C31.1322 15.2297 30.6682 14.182 29.6627 13.1836C28.9455 12.4664 28.4885 12.1711 27.6096 11.8547L26.9908 11.6367L24.4455 11.6156L21.9002 11.5945L21.8791 8.59219L21.858 5.58984L21.626 5.11875C21.3377 4.52813 20.7823 4.00781 20.2198 3.79688C19.819 3.64922 19.0666 3.56484 18.7291 3.63516ZM19.608 5.87109L19.7838 6.03984V8.82422V11.6016H14.5315C8.94866 11.6016 8.86428 11.6086 7.96428 11.9461C7.75334 12.0305 7.39475 12.2063 7.16975 12.3398C6.94475 12.4734 6.74084 12.5859 6.72678 12.5859C6.70569 12.5859 6.70569 12.2625 6.71975 11.8617C6.75491 11.018 6.87444 10.7156 7.36663 10.2938C7.62678 10.0617 8.07678 9.87188 10.3338 9.0211C11.8033 8.46563 14.3768 7.49531 16.0573 6.8625C17.7377 6.22266 19.1862 5.70234 19.2776 5.70234C19.369 5.69531 19.5166 5.77266 19.608 5.87109ZM21.2463 16.6641C21.3729 16.7414 21.5346 16.9031 21.6119 17.0297C21.8932 17.4938 21.7244 18.1266 21.2463 18.4219C21.0213 18.5555 20.8807 18.5625 17.1541 18.5625H13.294L12.9916 18.2531C12.6963 17.9648 12.6823 17.9297 12.6823 17.543C12.6823 17.1562 12.6963 17.1211 12.9916 16.8328L13.294 16.5234H17.1541C20.8807 16.5234 21.0213 16.5305 21.2463 16.6641Z" fill="url(#paint0_linear_1_677)"/>
<path d="M28.0666 20.3906C27.4619 20.5735 27.0822 21.0375 27.04 21.6422C27.0119 22.1555 27.2158 22.5844 27.6447 22.8867L27.9541 23.0977L29.29 23.1188C30.2393 23.1328 30.6963 23.1188 30.8439 23.0555C31.1533 22.9219 31.2447 22.6266 31.2447 21.7266C31.2447 20.3977 31.1393 20.3203 29.4025 20.3274C28.7697 20.3274 28.1721 20.3555 28.0666 20.3906Z" fill="url(#paint1_linear_1_677)"/>
<path d="M7.30337 21.8039C5.67915 22.057 4.29399 22.943 3.39399 24.3141C2.41665 25.8047 2.23384 27.7102 2.9018 29.4328C3.50649 30.9938 5.01821 32.3297 6.68462 32.7797C7.45102 32.9836 8.70259 32.9836 9.48305 32.7727C11.487 32.2453 13.0479 30.6563 13.526 28.6735C13.7159 27.8719 13.7159 26.7258 13.526 25.9735C13.0198 24.0117 11.4448 22.4297 9.49712 21.9375C8.83618 21.7758 7.8729 21.7125 7.30337 21.8039ZM8.60415 24.3422C9.04712 24.6516 9.13149 24.8274 9.15259 25.6008L9.18071 26.2969H9.75727C10.7135 26.2969 11.2268 26.6766 11.2268 27.4008C11.2268 27.7524 11.0791 27.9985 10.7135 28.2445C10.5166 28.3852 10.3901 28.4063 9.82759 28.4063H9.16665V28.9828C9.16665 29.686 9.00493 30.0938 8.6604 30.3047C8.17524 30.6 7.50024 30.4242 7.1979 29.9391C7.0854 29.7492 7.05727 29.5805 7.05727 29.0531V28.4063H6.36118C5.76352 28.4063 5.64399 28.3852 5.44009 28.2445C4.8143 27.8227 4.80024 27 5.40493 26.536C5.64399 26.3531 5.72837 26.332 6.36118 26.311L7.05727 26.2828V25.6008C7.05727 25.0524 7.0854 24.8836 7.1979 24.6938C7.50024 24.2016 8.15415 24.0399 8.60415 24.3422Z" fill="url(#paint2_linear_1_677)"/>
<defs>
<linearGradient id="paint0_linear_1_677" x1="17.9226" y1="31.5352" x2="17.9226" y2="3.60999" gradientUnits="userSpaceOnUse">
<stop stop-color="#556AC1"/>
<stop offset="1" stop-color="#41A2DC"/>
</linearGradient>
<linearGradient id="paint1_linear_1_677" x1="29.1411" y1="23.1237" x2="29.1411" y2="20.327" gradientUnits="userSpaceOnUse">
<stop stop-color="#556AC1"/>
<stop offset="1" stop-color="#41A2DC"/>
</linearGradient>
<linearGradient id="paint2_linear_1_677" x1="8.08671" y1="32.9318" x2="8.08671" y2="21.7618" gradientUnits="userSpaceOnUse">
<stop stop-color="#556AC1"/>
<stop offset="1" stop-color="#41A2DC"/>
</linearGradient>
</defs>
</svg>
