<svg width="32" height="33" viewBox="0 0 32 33" fill="none" xmlns="http://www.w3.org/2000/svg">
<path d="M14.2813 3.59375C9.96876 4.1625 6.26876 6.8 4.35001 10.6687C3.48126 12.4187 3.08126 14.025 3.01876 16.0312C2.97501 17.3375 3.08751 18.3938 3.38126 19.5625C5.06251 26.25 11.7313 30.4562 18.4813 29.0937C23.8188 28.0125 27.8813 23.725 28.7188 18.2812C28.8625 17.35 28.8688 15.525 28.725 14.5937C27.925 9.36875 24.1813 5.1875 19.1563 3.90625C17.625 3.5125 15.7813 3.4 14.2813 3.59375ZM13.1438 9.2125C13.575 9.3875 13.8125 9.8625 13.7188 10.3562C13.6875 10.5437 13.5438 10.7312 13.0125 11.2625L12.3563 11.9375L17.3 11.95C22.1813 11.9688 22.2438 11.9688 22.4125 12.1C22.7438 12.3438 22.8438 12.5437 22.8438 12.9375C22.8438 13.3312 22.7438 13.5312 22.4125 13.775C22.2438 13.9062 22.1813 13.9062 17.3 13.925L12.3563 13.9375L13.0125 14.6125C13.725 15.3312 13.8125 15.5 13.7188 15.9812C13.6625 16.2937 13.2875 16.6625 12.975 16.7188C12.4563 16.8188 12.3438 16.7375 10.6438 15.0437C8.40626 12.8062 8.41251 13.075 10.5813 10.8813C12.35 9.1 12.5625 8.9625 13.1438 9.2125ZM19.6625 16.3062C20.075 16.6062 22.7375 19.3313 22.8063 19.5188C22.9063 19.7875 22.8875 20.1062 22.7563 20.3625C22.6 20.6562 19.7125 23.5312 19.4813 23.6187C18.6875 23.9187 17.9063 23.25 18.1188 22.4562C18.1688 22.2812 18.35 22.05 18.8125 21.5937C19.1563 21.25 19.4375 20.95 19.4375 20.925C19.4375 20.8938 17.2438 20.875 14.5625 20.875C9.15626 20.875 9.48126 20.9 9.14376 20.4625C9.00626 20.2812 8.97501 20.1687 8.97501 19.9C8.97501 19.525 9.09376 19.3125 9.43751 19.075L9.64376 18.9375H14.5375C17.2313 18.9375 19.4375 18.9187 19.4375 18.8875C19.4375 18.8625 19.1813 18.5875 18.8688 18.2812C18.0125 17.4375 17.875 16.975 18.3313 16.4562C18.5688 16.1875 18.6938 16.1312 19.1 16.1312C19.3563 16.125 19.4688 16.1625 19.6625 16.3062Z" fill="url(#paint0_linear_98_1509)"/>
<defs>
<linearGradient id="paint0_linear_98_1509" x1="15.9197" y1="29.3497" x2="15.9197" y2="3.50101" gradientUnits="userSpaceOnUse">
<stop stop-color="#41A2DC"/>
<stop offset="1" stop-color="#556AC1"/>
</linearGradient>
</defs>
</svg>
