<svg width="26" height="27" viewBox="0 0 26 27" fill="none" xmlns="http://www.w3.org/2000/svg">
<path d="M11.2814 0.59363C6.96889 1.16238 3.26889 3.79988 1.35014 7.66863C0.481386 9.41863 0.0813856 11.0249 0.0188857 13.0311C-0.0248643 14.3374 0.0876357 15.3936 0.381386 16.5624C2.06264 23.2499 8.73139 27.4561 15.4814 26.0936C20.8189 25.0124 24.8814 20.7249 25.7189 15.2811C25.8626 14.3499 25.8689 12.5249 25.7251 11.5936C24.9251 6.36863 21.1814 2.18738 16.1564 0.906128C14.6251 0.512379 12.7814 0.399879 11.2814 0.59363ZM10.1439 6.21238C10.5751 6.38738 10.8126 6.86238 10.7189 7.35613C10.6876 7.54363 10.5439 7.73113 10.0126 8.26238L9.35639 8.93738L14.3001 8.94988C19.1814 8.96863 19.2439 8.96863 19.4126 9.09988C19.7439 9.34363 19.8439 9.54363 19.8439 9.93738C19.8439 10.3311 19.7439 10.5311 19.4126 10.7749C19.2439 10.9061 19.1814 10.9061 14.3001 10.9249L9.35639 10.9374L10.0126 11.6124C10.7251 12.3311 10.8126 12.4999 10.7189 12.9811C10.6626 13.2936 10.2876 13.6624 9.97514 13.7186C9.45639 13.8186 9.34389 13.7374 7.64389 12.0436C5.40639 9.80613 5.41264 10.0749 7.58139 7.88113C9.35014 6.09988 9.56264 5.96238 10.1439 6.21238ZM16.6626 13.3061C17.0751 13.6061 19.7376 16.3311 19.8064 16.5186C19.9064 16.7874 19.8876 17.1061 19.7564 17.3624C19.6001 17.6561 16.7126 20.5311 16.4814 20.6186C15.6876 20.9186 14.9064 20.2499 15.1189 19.4561C15.1689 19.2811 15.3501 19.0499 15.8126 18.5936C16.1564 18.2499 16.4376 17.9499 16.4376 17.9249C16.4376 17.8936 14.2439 17.8749 11.5626 17.8749C6.15639 17.8749 6.48139 17.8999 6.14389 17.4624C6.00639 17.2811 5.97514 17.1686 5.97514 16.8999C5.97514 16.5249 6.09389 16.3124 6.43764 16.0749L6.64389 15.9374H11.5376C14.2314 15.9374 16.4376 15.9186 16.4376 15.8874C16.4376 15.8624 16.1814 15.5874 15.8689 15.2811C15.0126 14.4374 14.8751 13.9749 15.3314 13.4561C15.5689 13.1874 15.6939 13.1311 16.1001 13.1311C16.3564 13.1249 16.4689 13.1624 16.6626 13.3061Z" fill="#999999"/>
</svg>
