<svg width="60" height="20" viewBox="0 0 60 20" fill="none" xmlns="http://www.w3.org/2000/svg">
<g clip-path="url(#clip0_29_1676)">
<path fill-rule="evenodd" clip-rule="evenodd" d="M6.1499 6.77344H9.54165V13.6824C9.53844 16.0766 12.197 16.4272 13.1993 14.5308L13.2003 6.77344H16.4179V17.0913L13.5032 17.0757L13.5241 15.6773C10.9368 18.576 6.62425 17.4123 6.1499 15.1928V6.77344Z" fill="#1E4900"/>
<path fill-rule="evenodd" clip-rule="evenodd" d="M25.8795 1.70779H37.6435C38.0267 1.74799 38.2213 1.9774 38.2266 2.39601V4.15567C38.224 4.54372 38.0428 4.7474 37.674 4.75919H25.7021C25.3559 4.75973 25.1286 4.51264 25.1099 4.18193V2.42227C25.1522 2.04654 25.3645 1.78015 25.8795 1.70779Z" fill="#103200"/>
<path fill-rule="evenodd" clip-rule="evenodd" d="M5.83105 6.47342H9.22281V13.3818C9.21959 15.7761 11.8781 16.1272 12.8804 14.2303L12.8815 6.47342H16.0996V16.7912L13.1843 16.7757L13.2052 15.3768C10.618 18.2759 6.30594 17.1123 5.83105 14.8928V6.47342Z" fill="#AAE300"/>
<path fill-rule="evenodd" clip-rule="evenodd" d="M18.0463 8.65265C17.7821 3.65293 19.8178 0.0548196 23.9074 0.634762L23.9235 3.4589C22.3734 2.63991 20.5789 2.6249 20.096 3.17911C19.3777 4.24038 21.236 5.69023 20.9305 7.11918C22.9646 6.06007 26.262 5.80761 28.4322 6.35218L27.4197 6.57569C25.4275 6.02255 22.9383 6.77454 20.9728 8.10112L21.1449 17.0329L17.8502 16.9385L17.8475 10.2306L16.0996 11.6923V10.0237L18.0463 8.65265Z" fill="#F78200"/>
<path fill-rule="evenodd" clip-rule="evenodd" d="M24.5841 7.11936C27.0395 5.81422 29.899 6.13528 31.4646 7.79417C32.334 8.50436 33.7179 11.1162 32.9348 13.6713C32.0751 16.4858 29.3346 17.5267 27.1499 17.2989C24.7679 17.0893 23.3074 16.0999 22.3774 14.3038C21.1897 11.7353 21.4319 8.82489 24.5841 7.11936Z" fill="#F78200"/>
<path fill-rule="evenodd" clip-rule="evenodd" d="M44.0644 16.8492H40.9353V9.94085C40.9068 7.86389 37.4213 7.10224 37.015 10.2919L37.0145 16.8492H33.7964V6.53141L36.9362 6.54696L36.9153 8.15171C39.5025 5.25307 43.59 6.56679 44.0644 8.78633V16.8492Z" fill="#F78200"/>
<mask id="mask0_29_1676" style="mask-type:luminance" maskUnits="userSpaceOnUse" x="52" y="4" width="8" height="16">
<path d="M52.1807 4.04373H59.4117V19.1919H52.1807V4.04373Z" fill="white"/>
</mask>
<g mask="url(#mask0_29_1676)">
<path fill-rule="evenodd" clip-rule="evenodd" d="M52.3115 4.1777H59.4198V19.1844H52.3115C55.7285 17.9532 59.2607 14.9554 59.2773 11.7003C59.3325 8.66877 55.5489 5.45872 52.3115 4.1777Z" fill="#F78200"/>
</g>
<mask id="mask1_29_1676" style="mask-type:luminance" maskUnits="userSpaceOnUse" x="0" y="4" width="8" height="16">
<path d="M0.587891 4.04373H7.72301V19.1919H0.587891V4.04373Z" fill="white"/>
</mask>
<g mask="url(#mask1_29_1676)">
<path fill-rule="evenodd" clip-rule="evenodd" d="M7.70597 4.1777H0.597656V19.1844H7.70597C4.28903 17.9532 0.756846 14.9554 0.739694 11.7003C0.685023 8.66877 4.46805 5.45872 7.70597 4.1777Z" fill="#F78200"/>
</g>
<path fill-rule="evenodd" clip-rule="evenodd" d="M45.8241 8.19225C47.5071 6.08634 50.5349 5.83014 52.4355 6.71613C53.9979 7.54531 55.0292 9.62603 54.9365 11.7764L48.0811 11.7405C48.0018 15.7095 51.333 17.0661 53.9829 15.114C54.4155 14.7496 54.6899 14.9334 54.476 15.3381C54.3276 15.6227 54.0387 16.1657 53.9872 16.2182C51.5838 17.883 47.4229 17.3277 45.8493 15.2427C44.5045 13.58 44.3067 10.1599 45.8241 8.19225Z" fill="#F78200"/>
<path fill-rule="evenodd" clip-rule="evenodd" d="M25.7516 1.55154H37.5161C37.8993 1.59174 38.0933 1.82115 38.0992 2.23976V3.99942C38.1303 4.41642 37.9465 4.61741 37.5461 4.60294H25.5747C25.2285 4.60348 25.0007 4.35639 24.9819 4.02568V2.26602C25.0248 1.89029 25.2371 1.6239 25.7516 1.55154Z" fill="#A7E401"/>
<path fill-rule="evenodd" clip-rule="evenodd" d="M26.3802 1.97342H27.8863C28.2144 1.97556 28.3837 2.10259 28.4137 2.34968V2.7297C28.2513 2.72649 28.1152 2.74578 28.1109 2.48529V2.44402C28.1125 2.40543 28.0938 2.38667 28.0562 2.3872C27.3664 2.38667 26.6761 2.38613 25.9862 2.3856C25.9487 2.38667 25.9353 2.40543 25.9342 2.44295L25.9353 3.87029C25.9412 3.91049 25.968 3.92228 26.0045 3.92014H28.0702C28.0927 3.9196 28.0997 3.90888 28.1002 3.89334L28.0964 3.59372C28.0986 3.5637 28.0825 3.54816 28.0477 3.54602L27.1295 3.5487C27.1075 3.54763 27.0968 3.53691 27.0973 3.51654V3.23943C27.1022 3.1928 27.1193 3.18154 27.1686 3.18047L28.3762 3.18101C28.3982 3.18047 28.4105 3.19334 28.4137 3.21799V3.93461C28.4148 4.18599 28.291 4.33607 27.9839 4.33821H26.065C25.7252 4.30605 25.5355 4.06378 25.5789 3.73469V2.61018C25.5789 2.09777 25.9053 1.97342 26.3802 1.97342Z" fill="white"/>
<path fill-rule="evenodd" clip-rule="evenodd" d="M31.9262 3.32358V3.70145C31.9262 4.21386 31.5997 4.33821 31.1249 4.33821H29.6187C29.2907 4.33607 29.1213 4.20904 29.0913 3.96248V3.58246C29.2532 3.58514 29.3899 3.56585 29.3941 3.82634V3.86815C29.3925 3.90674 29.4108 3.9255 29.4488 3.92443C30.1386 3.92496 30.829 3.92603 31.5188 3.92657C31.5563 3.9255 31.5697 3.9062 31.5708 3.86922L31.5703 3.39272C31.5724 3.33966 31.5376 3.31983 31.4861 3.32197L29.2537 3.31393C29.1551 3.29946 29.1063 3.24372 29.0913 3.15957V2.61018C29.0913 2.09777 29.4177 1.97342 29.8926 1.97342H31.3988C31.7268 1.97556 31.8962 2.10259 31.9262 2.34968V2.7297C31.7643 2.72649 31.6276 2.74578 31.6233 2.48529V2.44402C31.6249 2.40543 31.6067 2.38613 31.5687 2.3872C30.8788 2.38667 30.1885 2.38613 29.4987 2.3856C29.4611 2.38667 29.4477 2.40543 29.4467 2.44295V2.95428L31.8007 2.95482C31.8651 2.95375 31.9181 2.96983 31.9256 3.04379L31.9262 3.32358Z" fill="white"/>
<path fill-rule="evenodd" clip-rule="evenodd" d="M32.5479 4.32428V2.61018C32.5479 2.09777 32.8743 1.97342 33.3492 1.97342H35.8394C36.1674 1.97556 36.3368 2.10259 36.3668 2.34968V4.31141L36.0629 4.3082L36.064 2.48529V2.44402C36.0656 2.40543 36.0473 2.38613 36.0093 2.3872L34.635 2.38667V4.32428H34.2796V2.38667H34.501L32.9552 2.3856C32.9177 2.38667 32.9043 2.40543 32.9032 2.44295V4.32374L32.5479 4.32428Z" fill="white"/>
<path fill-rule="evenodd" clip-rule="evenodd" d="M33.3452 3.21205H33.7906V2.76718H33.3452V3.21205Z" fill="white"/>
<path fill-rule="evenodd" clip-rule="evenodd" d="M33.3452 4.20322H33.7906V3.75781H33.3452V4.20322Z" fill="white"/>
<path fill-rule="evenodd" clip-rule="evenodd" d="M35.0796 4.20322H35.525V3.75781H35.0796V4.20322Z" fill="white"/>
<path fill-rule="evenodd" clip-rule="evenodd" d="M37.0366 2.47822H37.482V2.03281H37.0366V2.47822Z" fill="white"/>
<path fill-rule="evenodd" clip-rule="evenodd" d="M24.8748 8.65525C25.0886 7.61757 26.39 7.09819 27.3189 7.4348C28.7425 7.98044 30.6828 12.4656 30.3028 14.9033C30.1055 16.0391 28.6283 16.6019 27.7112 16.0428C25.667 14.7634 24.5382 10.573 24.8748 8.65525Z" fill="white"/>
<path fill-rule="evenodd" clip-rule="evenodd" d="M50.6786 7.20513C51.4971 7.40934 51.9119 8.64855 51.8701 10.7604L48.1251 10.7695C48.1117 8.21922 49.1071 6.87013 50.6786 7.20513Z" fill="white"/>
</g>
<defs>
<clipPath id="clip0_29_1676">
<rect width="58.8235" height="19.1276" fill="white" transform="translate(0.588379 0.0601501)"/>
</clipPath>
</defs>
</svg>
