<svg width="37" height="36" viewBox="0 0 37 36" fill="none" xmlns="http://www.w3.org/2000/svg">
<path d="M17.9949 3.12316C17.8601 3.1935 17.6549 3.35176 17.5494 3.48072C17.2973 3.7738 14.5013 7.95902 13.4169 9.67063C9.45443 15.925 7.67249 19.8406 7.66663 22.326C7.66663 23.85 8.09453 25.6612 8.77448 27.0211C10.9843 31.4174 15.7909 33.7621 20.5799 32.7773C23.7745 32.1149 26.5177 29.993 28.0124 27.0211C28.8976 25.2626 29.3137 22.8887 29.0265 21.224C28.5986 18.7328 26.8167 15.0809 23.4169 9.74097C22.1508 7.75387 19.4075 3.65071 19.1906 3.4221C18.9679 3.18177 18.6279 3.00006 18.411 3.00006C18.3231 3.00006 18.1355 3.05868 17.9949 3.12316ZM26.6056 21.4701C27.1273 21.6284 27.4732 22.1149 27.479 22.6952C27.479 24.0962 26.7932 26.1009 25.8143 27.5252C24.9702 28.7621 23.1883 30.2451 22.4321 30.3506C21.6232 30.4619 20.9081 29.741 20.9843 28.9027C21.0312 28.4631 21.2364 28.2052 21.9456 27.7304C23.6572 26.5815 24.6596 24.9403 24.8999 22.8769C24.9351 22.5721 24.9996 22.238 25.0464 22.1384C25.3278 21.5581 25.9667 21.2826 26.6056 21.4701Z" fill="url(#paint0_linear_1_778)"/>
<defs>
<linearGradient id="paint0_linear_1_778" x1="18.3916" y1="33.0001" x2="18.3916" y2="3.00006" gradientUnits="userSpaceOnUse">
<stop stop-color="#556AC1"/>
<stop offset="1" stop-color="#41A2DC"/>
</linearGradient>
</defs>
</svg>
