<svg width="37" height="36" viewBox="0 0 37 36" fill="none" xmlns="http://www.w3.org/2000/svg">
<path d="M17.813 5.96445C14.0943 6.19908 10.4928 7.54229 7.51894 9.79468C6.2989 10.7214 4.40432 12.528 4.08758 13.0677C3.86469 13.4607 3.7767 13.9768 3.87055 14.4168C3.9644 14.886 4.09931 15.1441 4.41605 15.4608C4.95568 16.0063 5.82379 16.194 6.53939 15.9301C6.8444 15.8128 7.02037 15.6661 7.99405 14.7218C9.24342 13.5135 9.77719 13.0618 10.7098 12.4401C12.5105 11.2435 14.3934 10.5044 16.634 10.1173C17.6547 9.94132 19.7545 9.89439 20.8279 10.0293C22.5583 10.2463 24.1479 10.7214 25.667 11.4664C27.2859 12.2641 28.3769 13.0559 29.8433 14.4813C30.8698 15.4784 31.1044 15.6075 31.8552 15.6075C32.2717 15.6075 32.4066 15.584 32.6764 15.455C33.6794 14.9798 34.1135 13.795 33.6442 12.7803C33.3744 12.1878 31.6499 10.5572 30.1366 9.47207C27.2273 7.38392 23.878 6.20494 20.1534 5.95859C19.1738 5.89407 18.904 5.89407 17.813 5.96445Z" fill="url(#paint0_linear_1_753)"/>
<path d="M17.5432 13.3259C15.5723 13.625 13.7892 14.3758 12.1937 15.5841C11.443 16.1589 9.66568 17.9479 9.47798 18.3233C8.92662 19.4437 9.36067 20.7282 10.4869 21.303C10.7977 21.4555 10.8799 21.4731 11.4136 21.4731C12.2876 21.4731 12.4225 21.391 13.7012 20.1593C15.0561 18.8512 15.8421 18.3292 17.0035 17.9597C19.1796 17.2734 21.5669 17.6605 23.3501 18.9803C23.5906 19.1621 24.1302 19.6372 24.5525 20.0361C25.5086 20.9452 25.8371 21.1212 26.5468 21.1212C26.8049 21.1212 27.1216 21.086 27.2565 21.0508C27.8314 20.8749 28.3945 20.3235 28.6291 19.7017C28.8168 19.209 28.7757 18.4876 28.5411 18.0183C28.2185 17.379 26.7932 16.0182 25.5497 15.1618C24.1302 14.1822 22.3295 13.5136 20.5346 13.2907C19.8425 13.2085 18.2118 13.2261 17.5432 13.3259Z" fill="url(#paint1_linear_1_753)"/>
<path d="M18.1415 21.5904C16.9215 21.8544 15.8774 22.8574 15.5196 24.1009C15.4023 24.5115 15.3847 25.3444 15.4903 25.7843C15.6662 26.5468 16.1707 27.3328 16.7631 27.7727C17.4787 28.3006 18.0711 28.5001 18.9568 28.5001C20.2531 28.4942 21.4321 27.761 22.0245 26.5879C22.4116 25.8254 22.5055 24.9866 22.2943 24.1771C22.1242 23.5143 21.8661 23.0627 21.3558 22.5524C20.4936 21.6843 19.3263 21.3323 18.1415 21.5904Z" fill="url(#paint2_linear_1_753)"/>
<defs>
<linearGradient id="paint0_linear_1_753" x1="18.8334" y1="16.0482" x2="18.8334" y2="5.91091" gradientUnits="userSpaceOnUse">
<stop stop-color="#556AC1"/>
<stop offset="1" stop-color="#41A2DC"/>
</linearGradient>
<linearGradient id="paint1_linear_1_753" x1="18.9934" y1="21.4731" x2="18.9934" y2="13.2386" gradientUnits="userSpaceOnUse">
<stop stop-color="#556AC1"/>
<stop offset="1" stop-color="#41A2DC"/>
</linearGradient>
<linearGradient id="paint2_linear_1_753" x1="18.9124" y1="28.5001" x2="18.9124" y2="21.5076" gradientUnits="userSpaceOnUse">
<stop stop-color="#556AC1"/>
<stop offset="1" stop-color="#41A2DC"/>
</linearGradient>
</defs>
</svg>
