<svg width="37" height="36" viewBox="0 0 37 36" fill="none" xmlns="http://www.w3.org/2000/svg">
<path d="M6.80392 3.45234C5.89689 3.62812 4.92657 4.38047 4.51173 5.23125C4.37814 5.50547 4.23048 5.89922 4.19532 6.11016C4.10392 6.61641 4.10392 13.6406 4.19532 14.1398C4.31486 14.7656 4.63829 15.3633 5.13048 15.8484C5.87579 16.5938 6.62111 16.875 7.90782 16.875H8.62501V14.0766V11.2781L8.31564 11.1937C7.32423 10.9336 7.23282 9.49219 8.18204 9.09844C8.51954 8.95078 28.9805 8.95078 29.318 9.09844C30.2672 9.49219 30.1758 10.9336 29.1844 11.1937L28.875 11.2781V14.0766V16.875H29.5711C30.4711 16.875 30.907 16.7906 31.5188 16.4883C32.3977 16.0594 33.1219 15.1102 33.3047 14.1398C33.3961 13.6336 33.3961 6.61641 33.3047 6.11016C33.1219 5.13984 32.3977 4.19062 31.5188 3.76172C31.2445 3.62812 30.8508 3.48047 30.6399 3.44531C30.1688 3.36094 7.25392 3.36094 6.80392 3.45234Z" fill="url(#paint0_linear_1_270)"/>
<path d="M10.875 20.3836C10.875 26.2969 10.9031 29.6438 10.9453 29.8898C11.1211 30.8109 11.8664 31.8164 12.6891 32.2313C13.4555 32.618 13.5258 32.625 18.7219 32.625C21.6187 32.625 23.6648 32.5969 23.8898 32.5547C25.1695 32.3156 26.3086 31.1766 26.5547 29.8898C26.5969 29.6438 26.625 26.2969 26.625 20.3836V11.25H18.75H10.875V20.3836ZM19.3687 15.9398C19.4672 16.0102 19.6148 16.1648 19.6922 16.2703C19.8328 16.4531 19.8398 16.5586 19.8609 19.2445L19.882 22.0289L20.7469 21.1781C21.5273 20.4117 21.6398 20.3273 21.9281 20.2852C22.5469 20.1938 23.1023 20.5945 23.2219 21.2203C23.3203 21.7195 23.1516 21.9305 21.1617 23.9203C19.1297 25.9453 19.1086 25.9523 18.4828 25.8398C18.2578 25.8047 17.9555 25.5305 16.275 23.85C14.1727 21.7477 14.1656 21.7336 14.2852 21.1148C14.3484 20.7703 14.7703 20.3484 15.1148 20.2852C15.6703 20.1797 15.8391 20.2711 16.7672 21.1852L17.625 22.0359V19.357C17.625 17.6273 17.6531 16.6008 17.7023 16.4742C17.8008 16.2141 18.0328 15.968 18.293 15.8484C18.5742 15.7148 19.1297 15.7641 19.3687 15.9398Z" fill="url(#paint1_linear_1_270)"/>
<defs>
<linearGradient id="paint0_linear_1_270" x1="18.75" y1="16.875" x2="18.75" y2="3.38288" gradientUnits="userSpaceOnUse">
<stop stop-color="#41A2DC"/>
<stop offset="1" stop-color="#556AC1"/>
</linearGradient>
<linearGradient id="paint1_linear_1_270" x1="18.75" y1="32.625" x2="18.75" y2="11.25" gradientUnits="userSpaceOnUse">
<stop stop-color="#41A2DC"/>
<stop offset="1" stop-color="#556AC1"/>
</linearGradient>
</defs>
</svg>
