<svg width="60" height="19" viewBox="0 0 60 19" fill="none" xmlns="http://www.w3.org/2000/svg">
<path fill-rule="evenodd" clip-rule="evenodd" d="M0.949366 2.30971H6.80107L0.588379 10.7524V11.7838H10.1028V9.97275H3.70914L9.76968 1.49453L9.778 1.49229V1.483L9.78025 1.4798L9.778 1.48076V0.439117H0.949366V2.30971Z" fill="#95BF0A"/>
<path fill-rule="evenodd" clip-rule="evenodd" d="M25.5449 2.53041H28.8172C30.0183 2.51759 31.0148 3.0445 30.9229 4.67551V11.7838H33.0504V4.401C33.0667 1.51151 31.142 0.441039 29.0587 0.439117H23.314V11.7838H25.5449V2.53041Z" fill="#95BF0A"/>
<path fill-rule="evenodd" clip-rule="evenodd" d="M33.9229 6.13789C33.9229 9.38709 36.8582 12.0364 40.4571 12.0364C41.8146 12.0364 43.0776 11.6594 44.1243 11.0152L44.141 11.0056V6.37235H41.9975V9.87908C41.5673 10.0056 41.109 10.0738 40.6333 10.0738C38.19 10.0738 36.197 8.27498 36.197 6.06966C36.197 3.86339 38.19 2.06454 40.6333 2.06454C41.6307 2.06454 42.5526 2.36435 43.2951 2.86915L44.141 1.27082C43.091 0.620592 41.822 0.239105 40.4571 0.239105C36.8582 0.239105 33.9229 2.88869 33.9229 6.13789Z" fill="#95BF0A"/>
<path fill-rule="evenodd" clip-rule="evenodd" d="M49.9048 5.59397L48.6098 5.60422L49.9048 3.4021V5.59397ZM51.1691 0.445343H50.4961L46.3975 6.9194H49.9048V8.29576H51.1691V6.9194H52.0355V5.59397H51.1691V0.445343Z" fill="#DD0380"/>
<mask id="mask0_29_2173" style="mask-type:luminance" maskUnits="userSpaceOnUse" x="52" y="0" width="8" height="9">
<path d="M52.4912 0.326599H59.4118V8.44447H52.4912V0.326599Z" fill="white"/>
</mask>
<g mask="url(#mask0_29_2173)">
<path fill-rule="evenodd" clip-rule="evenodd" d="M56.5923 3.70673V5.03217H58.183V6.53089C57.945 6.70738 57.69 6.83838 57.4184 6.92358C57.1465 7.00879 56.8678 7.05075 56.5824 7.05075C56.2086 7.05075 55.8585 6.98156 55.5321 6.84158C55.206 6.70257 54.9203 6.51039 54.6756 6.26567C54.4309 6.02128 54.239 5.73556 54.0997 5.40917C53.9604 5.0831 53.8905 4.7362 53.8905 4.36945C53.8905 4.00238 53.9604 3.65581 54.0997 3.32941C54.239 3.00302 54.4309 2.71762 54.6756 2.47291C54.9203 2.2282 55.206 2.03633 55.5321 1.897C55.8585 1.75766 56.2086 1.68784 56.5824 1.68784C56.929 1.68784 57.2637 1.75254 57.5866 1.88162C57.9094 2.01071 58.1964 2.19424 58.4482 2.43223L59.3963 1.48412C59.009 1.11673 58.5754 0.835178 58.0962 0.637868C57.617 0.440879 57.1125 0.342224 56.5824 0.342224C56.0247 0.342224 55.5017 0.447605 55.0123 0.658047C54.5228 0.86913 54.0946 1.15613 53.7275 1.51967C53.3604 1.88322 53.0715 2.30987 52.8607 2.79962C52.6503 3.28841 52.5449 3.81212 52.5449 4.36945C52.5449 4.92679 52.6503 5.45017 52.8607 5.9396C53.0715 6.42871 53.3604 6.85536 53.7275 7.21891C54.0946 7.58278 54.5228 7.86977 55.0123 8.08053C55.5017 8.2913 56.0247 8.39668 56.5824 8.39668C57.1125 8.39668 57.617 8.29802 58.0962 8.10103C58.5754 7.90405 59.009 7.62153 59.3963 7.25478L59.4168 7.1936V3.70673H56.5923Z" fill="#DD0380"/>
</g>
<path fill-rule="evenodd" clip-rule="evenodd" d="M22.3114 6.14942C22.3114 2.89478 19.656 0.239105 16.401 0.239105C13.1461 0.239105 10.4907 2.89478 10.4907 6.14942C10.4907 9.24071 12.886 11.7894 15.9148 12.0386V9.95435C14.0247 9.71509 12.5622 8.10458 12.5622 6.14942C12.5622 4.0293 14.2809 2.31118 16.401 2.31118C18.5212 2.31118 20.2399 4.0293 20.2399 6.14942C20.2399 8.10458 18.7774 9.71509 16.8873 9.95435V12.0386C19.9161 11.7894 22.3114 9.24071 22.3114 6.14942Z" fill="#95BF0A"/>
<path fill-rule="evenodd" clip-rule="evenodd" d="M24.4977 17.6584L24.9323 16.6594L25.367 17.6584H24.4977ZM23.3135 18.8612H23.9704L24.234 18.26H25.6306L25.8942 18.8612H26.5511L24.9323 15.161L23.3135 18.8612Z" fill="#DD0380"/>
<path fill-rule="evenodd" clip-rule="evenodd" d="M31.144 17.4826L29.0024 15.161V18.8612H29.604V16.6869L31.7452 19.0088V15.2994H31.144V17.4826Z" fill="#DD0380"/>
<path fill-rule="evenodd" clip-rule="evenodd" d="M32.6699 18.8603H34.89V18.2591H33.2711V17.3799H34.7052V16.7786H33.2711V15.9H34.89V15.2985H32.6699V18.8603Z" fill="#DD0380"/>
<path fill-rule="evenodd" clip-rule="evenodd" d="M38.419 17.5006L38.0725 16.7002L38.6827 15.2985H38.026L37.7438 15.9506L37.4572 15.2985H36.8005L37.4155 16.7002L37.0638 17.5006L36.1019 15.2985H35.4453L37.0638 18.9987L37.7438 17.4494L38.419 18.9987L40.0379 15.2985H39.3813L38.419 17.5006Z" fill="#DD0380"/>
<path fill-rule="evenodd" clip-rule="evenodd" d="M44.6123 17.5397C44.5504 17.6829 44.4665 17.8081 44.3602 17.9141C44.2538 18.0205 44.1289 18.105 43.9854 18.1665C43.8422 18.2283 43.6888 18.2591 43.5255 18.2591H43.0905V15.9H43.5255C43.6888 15.9 43.8422 15.9308 43.9854 15.9923C44.1289 16.0541 44.2538 16.138 44.3602 16.2444C44.4665 16.351 44.5504 16.4756 44.6123 16.6191C44.6738 16.7626 44.7048 16.916 44.7048 17.0794C44.7048 17.2428 44.6738 17.3962 44.6123 17.5397ZM44.7855 15.8193C44.6238 15.6572 44.4348 15.5298 44.2189 15.4375C44.0034 15.3449 43.7718 15.2985 43.5255 15.2985H42.4893V18.8603H43.5255C43.7718 18.8603 44.0034 18.8139 44.2189 18.7213C44.4348 18.6287 44.6238 18.5016 44.7855 18.3398C44.9476 18.1777 45.0748 17.9891 45.1673 17.7732C45.2596 17.5573 45.306 17.3264 45.306 17.0794C45.306 16.8328 45.2596 16.6018 45.1673 16.3856C45.0748 16.1697 44.9476 15.9807 44.7855 15.8193Z" fill="#DD0380"/>
<path fill-rule="evenodd" clip-rule="evenodd" d="M47.4935 16.7786H46.6933V15.9H47.4935C47.5518 15.9 47.6081 15.9119 47.6623 15.9346C47.7161 15.9577 47.7632 15.9894 47.8032 16.0294C47.8432 16.0695 47.8749 16.1169 47.898 16.1704C47.9211 16.2245 47.9326 16.2809 47.9326 16.3395C47.9326 16.401 47.9211 16.4583 47.898 16.5105C47.8749 16.5627 47.8432 16.6092 47.8032 16.6495C47.7632 16.6893 47.7161 16.7213 47.6623 16.744C47.6081 16.7671 47.5518 16.7786 47.4935 16.7786ZM48.0783 17.1998C48.1725 17.1348 48.2532 17.0586 48.3211 16.9708C48.389 16.8827 48.4416 16.785 48.4784 16.6771C48.5156 16.5692 48.5341 16.4564 48.5341 16.3395C48.5341 16.1973 48.5069 16.0634 48.4531 15.9369C48.399 15.8103 48.3243 15.6998 48.2286 15.6044C48.1331 15.5086 48.0223 15.4337 47.8958 15.3795C47.7692 15.3257 47.635 15.2985 47.4935 15.2985H46.0918V18.8603H46.6933V17.3799H47.1232L47.8634 18.8603H48.5572L47.766 17.3433C47.8804 17.3126 47.9842 17.2645 48.0783 17.1998Z" fill="#DD0380"/>
<path fill-rule="evenodd" clip-rule="evenodd" d="M49.3433 18.8603H51.5633V18.2591H49.9445V17.3799H51.3785V16.7786H49.9445V15.9H51.5633V15.2985H49.3433V18.8603Z" fill="#DD0380"/>
<path fill-rule="evenodd" clip-rule="evenodd" d="M53.3028 17.6584L53.7375 16.6594L54.1721 17.6584H53.3028ZM52.1187 18.8612H52.7753L53.0389 18.26H54.4358L54.6994 18.8612H55.3563L53.7375 15.161L52.1187 18.8612Z" fill="#DD0380"/>
<mask id="mask1_29_2173" style="mask-type:luminance" maskUnits="userSpaceOnUse" x="56" y="15" width="4" height="4">
<path d="M56.0166 15.0852H59.4112V18.9391H56.0166V15.0852Z" fill="white"/>
</mask>
<g mask="url(#mask1_29_2173)">
<path fill-rule="evenodd" clip-rule="evenodd" d="M56.0269 15.161V18.8612H56.6284V16.997L57.7222 18.4169L58.8161 16.997V18.8612H59.4173V15.161L57.7222 17.4781L56.0269 15.161Z" fill="#DD0380"/>
</g>
</svg>
