<svg width="14" height="15" viewBox="0 0 14 15" fill="none" xmlns="http://www.w3.org/2000/svg">
<path d="M10.1111 0H3.88889C1.16667 0 0 1.5 0 3.75V11.25C0 13.5 1.16667 15 3.88889 15H10.1111C12.8333 15 14 13.5 14 11.25V3.75C14 1.5 12.8333 0 10.1111 0ZM3.88889 7.6875H7C7.31889 7.6875 7.58333 7.9425 7.58333 8.25C7.58333 8.5575 7.31889 8.8125 7 8.8125H3.88889C3.57 8.8125 3.30556 8.5575 3.30556 8.25C3.30556 7.9425 3.57 7.6875 3.88889 7.6875ZM10.1111 11.8125H3.88889C3.57 11.8125 3.30556 11.5575 3.30556 11.25C3.30556 10.9425 3.57 10.6875 3.88889 10.6875H10.1111C10.43 10.6875 10.6944 10.9425 10.6944 11.25C10.6944 11.5575 10.43 11.8125 10.1111 11.8125ZM12.0556 5.4375H10.5C9.31778 5.4375 8.36111 4.515 8.36111 3.375V1.875C8.36111 1.5675 8.62556 1.3125 8.94444 1.3125C9.26333 1.3125 9.52778 1.5675 9.52778 1.875V3.375C9.52778 3.8925 9.96333 4.3125 10.5 4.3125H12.0556C12.3744 4.3125 12.6389 4.5675 12.6389 4.875C12.6389 5.1825 12.3744 5.4375 12.0556 5.4375Z" fill="#00A2FF"/>
</svg>
