<svg width="27" height="27" viewBox="0 0 27 27" fill="none" xmlns="http://www.w3.org/2000/svg">
<path d="M9.68432 11.6947C9.45543 11.063 8.80637 10.7142 8.20814 10.7142H7.76946C7.25633 10.7142 6.81464 11.0507 6.66955 11.536C6.65252 11.593 6.63758 11.6388 6.62356 11.6761C6.3199 11.7033 6.08188 11.9585 6.08188 12.2692V20.6573C6.08188 20.9681 6.3199 21.2232 6.62356 21.2504C6.63758 21.2878 6.65252 21.3336 6.66955 21.3905C6.81464 21.8758 7.25633 22.2124 7.76946 22.2124H8.22226C8.86485 22.2124 9.43867 21.8219 9.6781 21.2333C9.98083 21.16 10.2056 20.8872 10.2056 20.5619V12.3646C10.2056 12.0416 9.9839 11.7703 9.68432 11.6947ZM6.77212 11.6724C6.77148 11.6724 6.77084 11.6724 6.7702 11.6724C6.77088 11.6724 6.77157 11.6724 6.77225 11.6724L6.77212 11.6724ZM14.7468 11.6947C14.518 11.063 13.8689 10.7142 13.2707 10.7142H12.832C12.3189 10.7142 11.8772 11.0507 11.7321 11.536C11.715 11.593 11.7001 11.6388 11.6861 11.6761C11.3824 11.7033 11.1444 11.9584 11.1444 12.2692V20.6573C11.1444 20.9681 11.3824 21.2232 11.6861 21.2504C11.7001 21.2878 11.715 21.3336 11.7321 21.3905C11.8772 21.8758 12.3189 22.2124 12.832 22.2124H13.2848C13.9274 22.2124 14.5012 21.8219 14.7406 21.2333C15.0433 21.16 15.2682 20.8872 15.2682 20.5619V12.3646C15.2682 12.0416 15.0464 11.7703 14.7468 11.6947ZM11.8347 11.6724C11.834 11.6724 11.8334 11.6724 11.8327 11.6724C11.8334 11.6724 11.8341 11.6724 11.8348 11.6724L11.8347 11.6724ZM20.3307 12.3646C20.3307 12.0416 20.109 11.7703 19.8094 11.6947C19.5805 11.063 18.9314 10.7142 18.3332 10.7142H17.8945C17.3814 10.7142 16.9397 11.0507 16.7946 11.536C16.7776 11.593 16.7626 11.6388 16.7486 11.6762C16.4452 11.7034 16.2074 11.9584 16.2074 12.269V20.6576C16.2074 20.9681 16.4452 21.2231 16.7487 21.2504C16.7627 21.2879 16.7778 21.3338 16.7949 21.3909C16.9401 21.8762 17.3819 22.2124 17.8948 22.2124H18.3473C18.9899 22.2124 19.5637 21.8219 19.8032 21.2333C20.1059 21.16 20.3307 20.8872 20.3307 20.5619V12.3646ZM16.8972 11.6724C16.8965 11.6724 16.8959 11.6724 16.8953 11.6724C16.8959 11.6724 16.8966 11.6724 16.8973 11.6724L16.8972 11.6724Z" fill="url(#paint0_linear_1096_3926)" stroke="white"/>
<path fill-rule="evenodd" clip-rule="evenodd" d="M1.00107 22.5159C1.00107 21.9615 1.22131 21.4298 1.61333 21.0378C2.00535 20.6457 2.53704 20.4255 3.09145 20.4255H23.9952C24.5496 20.4255 25.0813 20.6457 25.4733 21.0378C25.8653 21.4298 26.0855 21.9615 26.0855 22.5159V23.9096C26.0855 24.464 25.8653 24.9957 25.4733 25.3877C25.0813 25.7798 24.5496 26 23.9952 26H3.09145C2.53704 26 2.00535 25.7798 1.61333 25.3877C1.22131 24.9957 1.00107 24.464 1.00107 23.9096V22.5159ZM13.1906 1.02998C13.424 0.990007 13.6626 0.990007 13.8961 1.02998C14.0732 1.06029 14.241 1.11934 14.4322 1.18676C14.4448 1.19198 14.4584 1.19616 14.4709 1.20087L24.2262 4.64371L24.304 4.67141C24.6719 4.80049 24.9938 4.91389 25.2551 5.11143C25.6001 5.37219 25.8557 5.73353 25.9868 6.14564C26.0861 6.45763 26.0861 6.79888 26.0861 7.18926L26.0855 7.27183V9.29949C26.0855 9.60469 26.0855 9.86912 26.0704 10.087C26.0547 10.317 26.0207 10.5469 25.9267 10.7737C25.8216 11.0274 25.6676 11.2578 25.4735 11.452C25.2794 11.6461 25.0489 11.8001 24.7953 11.9051C24.5679 11.9992 24.338 12.0337 24.1086 12.0494C23.8901 12.064 23.6262 12.064 23.3205 12.064H3.76611C3.4604 12.064 3.19649 12.064 2.97804 12.0494C2.7481 12.0337 2.51816 11.9992 2.29136 11.9051C2.03771 11.8001 1.80724 11.6461 1.61311 11.452C1.41898 11.2578 1.26499 11.0274 1.15994 10.7737C1.06587 10.5464 1.03138 10.3165 1.01571 10.087C1.0025 9.82475 0.997621 9.5621 1.00107 9.29949V7.18926C1.00055 6.79941 1.00003 6.45763 1.09932 6.14564C1.23025 5.73334 1.48588 5.37181 1.83095 5.11091C2.09225 4.91389 2.41469 4.80049 2.78259 4.67141L2.86098 4.64371L12.6157 1.20087L12.6544 1.18728C12.8456 1.11934 13.0134 1.06029 13.1906 1.02998Z" fill="url(#paint1_linear_1096_3926)"/>
<path d="M3.09145 21.8193C2.70682 21.8193 2.39483 22.1312 2.39483 22.5159V23.9096C2.39483 24.2943 2.70682 24.6062 3.09145 24.6062M23.9952 24.6062C24.3798 24.6062 24.6918 24.2943 24.6918 23.9096V22.5159M1.00107 22.5159C1.00107 21.9615 1.22131 21.4298 1.61333 21.0378C2.00535 20.6457 2.53704 20.4255 3.09145 20.4255H23.9952C24.5496 20.4255 25.0813 20.6457 25.4733 21.0378C25.8653 21.4298 26.0855 21.9615 26.0855 22.5159V23.9096C26.0855 24.464 25.8653 24.9957 25.4733 25.3877C25.0813 25.7798 24.5496 26 23.9952 26H3.09145C2.53704 26 2.00535 25.7798 1.61333 25.3877C1.22131 24.9957 1.00107 24.464 1.00107 23.9096V22.5159ZM14.2353 2.47059C14.1904 2.47843 13.3306 2.42635 13.0798 2.51467L3.324 5.95855C2.83276 6.13153 2.73608 6.17439 2.67076 6.22351C2.55579 6.31078 2.4706 6.43098 2.42671 6.56842C2.40214 6.64681 2.39431 6.75133 2.39431 7.27235V9.27702C2.39431 9.61148 2.39431 9.82679 2.4058 9.99193C2.41626 10.1508 2.43507 10.2114 2.44761 10.2407C2.51764 10.411 2.65351 10.5469 2.82388 10.6175C2.85314 10.6295 2.91376 10.6483 3.07263 10.6593C3.23777 10.6697 3.4536 10.6708 3.78754 10.6708H23.298C23.6325 10.6708 23.8478 10.6703 24.0129 10.6588C24.1718 10.6483 24.2324 10.6295 24.2612 10.6175C24.4321 10.5469 24.5679 10.411 24.6385 10.2402C24.6505 10.2114 24.6688 10.1513 24.6803 9.99193C24.6907 9.82679 24.6913 9.61096 24.6913 9.27702V7.27183C24.6913 6.75133 24.6834 6.64576 24.6589 6.5679C24.6152 6.43043 24.5299 6.30992 24.4148 6.22299C24.3495 6.17386 24.2528 6.13101 23.7616 5.95803L14.2353 2.47059ZM13.1906 1.02998C13.424 0.990007 13.6626 0.990007 13.8961 1.02998C14.0732 1.06029 14.241 1.11934 14.4322 1.18676C14.4448 1.19198 14.4584 1.19616 14.4709 1.20087L24.2262 4.64371L24.304 4.67141C24.6719 4.80049 24.9938 4.91389 25.2551 5.11143C25.6001 5.37219 25.8557 5.73353 25.9868 6.14564C26.0861 6.45763 26.0861 6.79888 26.0861 7.18926L26.0855 7.27183V9.29949C26.0855 9.60469 26.0855 9.86912 26.0704 10.087C26.0547 10.317 26.0207 10.5469 25.9267 10.7737C25.8216 11.0274 25.6676 11.2578 25.4735 11.452C25.2794 11.6461 25.0489 11.8001 24.7953 11.9051C24.5679 11.9992 24.338 12.0337 24.1086 12.0494C23.8901 12.064 23.6262 12.064 23.3205 12.064H3.76611C3.4604 12.064 3.19649 12.064 2.97804 12.0494C2.7481 12.0337 2.51816 11.9992 2.29136 11.9051C2.03771 11.8001 1.80724 11.6461 1.61311 11.452C1.41898 11.2578 1.26499 11.0274 1.15994 10.7737C1.06587 10.5464 1.03138 10.3165 1.01571 10.087C1.0025 9.82475 0.997621 9.5621 1.00107 9.29949V7.18926C1.00055 6.79941 1.00003 6.45763 1.09932 6.14564C1.23025 5.73334 1.48588 5.37181 1.83095 5.11091C2.09225 4.91389 2.41469 4.80049 2.78259 4.67141L2.86098 4.64371L12.6157 1.20087L12.6544 1.18728C12.8456 1.11934 13.0134 1.06029 13.1906 1.02998Z" stroke="white" stroke-width="0.6"/>
<defs>
<linearGradient id="paint0_linear_1096_3926" x1="11.1502" y1="3.92964" x2="14.8106" y2="26.1846" gradientUnits="userSpaceOnUse">
<stop stop-color="#40A3DD"/>
<stop offset="1" stop-color="#506CC2"/>
</linearGradient>
<linearGradient id="paint1_linear_1096_3926" x1="13.543" y1="1" x2="13.543" y2="26" gradientUnits="userSpaceOnUse">
<stop stop-color="#40A2DC"/>
<stop offset="1" stop-color="#536FC4"/>
</linearGradient>
</defs>
</svg>
