<svg width="15" height="16" viewBox="0 0 15 16" fill="none" xmlns="http://www.w3.org/2000/svg">
<path d="M7.61738 0C8.37908 0.388571 9.14 0.778337 9.90209 1.16571C11.4462 1.95082 12.9907 2.73473 14.5352 3.51904C14.5785 3.54133 14.6219 3.56363 14.6953 3.60145C9.89271 3.60145 5.12214 3.60145 0.322266 3.60145C0.380467 3.56801 0.415232 3.54531 0.45195 3.5266C2.75618 2.3581 5.06042 1.19 7.36426 0.0214988C7.37208 0.0175176 7.37676 0.0075644 7.38301 0C7.46114 0 7.53926 0 7.61738 0Z" fill="#9C9FA2"/>
<path d="M0.000390615 14.7207C0.198823 14.3875 0.393349 14.0515 0.596859 13.7214C0.701544 13.5518 0.862867 13.4941 1.06052 13.4941C5.35376 13.4969 9.64662 13.4969 13.9399 13.4941C14.1371 13.4941 14.2988 13.5518 14.4035 13.721C14.6074 14.0511 14.8016 14.3867 14.9996 14.7203C14.9996 14.7999 14.9996 14.8796 14.9996 14.9592C14.9305 15.1077 14.8226 15.2168 14.6773 15.2876C9.89231 15.2876 5.10729 15.2876 0.322257 15.2876C0.176558 15.2172 0.0691388 15.1077 0 14.9592C0.000390615 14.88 0.000390615 14.8003 0.000390615 14.7207Z" fill="#9C9FA2"/>
<path d="M0.000427246 4.50879C5.00029 4.50879 10.0002 4.50879 15 4.50879C15 4.5287 15 4.5486 15 4.56851C14.8371 5.06179 14.6012 5.51445 14.2707 5.91338C14.2141 5.98185 14.1555 6.04834 14.0981 6.11602C13.9891 6.24462 13.8528 6.30314 13.6852 6.30155C13.3341 6.29797 12.9825 6.30035 12.6313 6.30035C8.88378 6.30035 5.13623 6.29916 1.38867 6.30354C1.1586 6.30394 0.989854 6.22829 0.842201 6.05113C0.482055 5.61876 0.177376 5.15654 0.025036 4.60354C0.0215204 4.5904 0.00863015 4.58005 0.000427246 4.56851C0.000427246 4.5486 0.000427246 4.5287 0.000427246 4.50879Z" fill="#9C9FA2"/>
<path d="M0.000427246 14.9596C0.069566 15.1081 0.176985 15.2176 0.322684 15.288C0.215265 15.288 0.107846 15.288 0.000427246 15.288C0.000427246 15.1786 0.000427246 15.0691 0.000427246 14.9596Z" fill="white"/>
<path d="M14.6777 15.288C14.823 15.2172 14.9309 15.1081 15 14.9596C15 15.0691 15 15.1786 15 15.288C14.8926 15.288 14.7852 15.288 14.6777 15.288Z" fill="white"/>
<path d="M4.41787 7.20685C4.41787 9.00638 4.41787 10.7952 4.41787 12.5923C3.53508 12.5923 2.65815 12.5923 1.7699 12.5923C1.7699 10.8027 1.7699 9.00996 1.7699 7.20685C2.64566 7.20685 3.52571 7.20685 4.41787 7.20685Z" fill="#9C9FA2"/>
<path d="M10.5864 7.20288C11.4739 7.20288 12.3504 7.20288 13.2348 7.20288C13.2348 8.99883 13.2348 10.788 13.2348 12.5887C12.3571 12.5887 11.4766 12.5887 10.5864 12.5887C10.5864 10.7996 10.5864 9.00719 10.5864 7.20288Z" fill="#9C9FA2"/>
<path d="M6.18854 12.5904C6.18854 10.79 6.18854 9.00124 6.18854 7.2041C7.06195 7.2041 7.92872 7.2041 8.80721 7.2041C8.80721 8.99448 8.80721 10.7872 8.80721 12.5904C7.94044 12.5904 7.06976 12.5904 6.18854 12.5904Z" fill="#9C9FA2"/>
</svg>
