<svg width="19" height="21" viewBox="0 0 19 21" fill="none" xmlns="http://www.w3.org/2000/svg">
<path d="M9.23083 0C7.29572 0 5.43986 0.75427 4.07153 2.09688C2.7032 3.43949 1.93447 5.26046 1.93447 7.1592V12.7434L0.319547 15.1298C0.12598 15.4226 0.0161873 15.7611 0.00165674 16.1098C-0.0128738 16.4586 0.0683924 16.8048 0.236951 17.1121C0.40551 17.4195 0.655165 17.6767 0.959791 17.857C1.26442 18.0372 1.61281 18.1338 1.96852 18.1366H16.4931C16.8511 18.1355 17.2022 18.0393 17.509 17.8583C17.8158 17.6774 18.0671 17.4183 18.2361 17.1087C18.4051 16.799 18.4856 16.4503 18.4691 16.0994C18.4525 15.7485 18.3396 15.4085 18.1421 15.1154L16.5272 12.7434V7.1592C16.5272 5.26046 15.7585 3.43949 14.3901 2.09688C13.0218 0.75427 11.1659 0 9.23083 0Z" fill="white"/>
<path d="M9.23097 21C9.83394 20.9994 10.4219 20.8155 10.914 20.4736C11.4062 20.1318 11.7783 19.6487 11.9793 19.0909H6.48267C6.68366 19.6487 7.05579 20.1318 7.54792 20.4736C8.04004 20.8155 8.628 20.9994 9.23097 21V21Z" fill="white"/>
</svg>
