<svg width="20" height="22" viewBox="0 0 20 22" fill="none" xmlns="http://www.w3.org/2000/svg">
<path fill-rule="evenodd" clip-rule="evenodd" d="M9.89734 4.69C10.3116 4.69 10.6473 5.02579 10.6473 5.44V8.77C10.6473 9.18422 10.3116 9.52 9.89734 9.52C9.48313 9.52 9.14734 9.18422 9.14734 8.77V5.44C9.14734 5.02579 9.48313 4.69 9.89734 4.69Z" fill="#00A2FF"/>
<path d="M9.91736 1C6.23736 1 3.25736 3.98 3.25736 7.66V9.76C3.25736 10.44 2.97736 11.46 2.62736 12.04L1.35736 14.16C0.577359 15.47 1.11736 16.93 2.55736 17.41C7.33736 19 12.5074 19 17.2874 17.41C18.6374 16.96 19.2174 15.38 18.4874 14.16L17.2174 12.04C16.8674 11.46 16.5874 10.43 16.5874 9.76V7.66C16.5774 4 13.5774 1 9.91736 1Z" stroke="#00A2FF" stroke-width="1.5" stroke-miterlimit="10" stroke-linecap="round"/>
<path fill-rule="evenodd" clip-rule="evenodd" d="M7.31738 17.82C7.31738 18.5201 7.61038 19.1723 8.07771 19.6397C8.54504 20.107 9.1973 20.4 9.89738 20.4C11.3132 20.4 12.4774 19.2358 12.4774 17.82H13.9774C13.9774 20.0642 12.1416 21.9 9.89738 21.9C8.77746 21.9 7.74972 21.433 7.01705 20.7003C6.28438 19.9677 5.81738 18.9399 5.81738 17.82H7.31738Z" fill="#00A2FF"/>
</svg>
