<svg width="58" height="58" viewBox="0 0 58 58" fill="none" xmlns="http://www.w3.org/2000/svg">
<circle cx="29" cy="29" r="29" fill="#FF7272" fill-opacity="0.14"/>
<path d="M22.4846 24.4262H27.3649C27.5574 24.4262 27.742 24.3498 27.8781 24.2136C28.0143 24.0775 28.0907 23.8929 28.0907 23.7004C28.0907 23.5079 28.0143 23.3233 27.8781 23.1872C27.742 23.0511 27.5574 22.9746 27.3649 22.9746H22.4846C22.2921 22.9746 22.1075 23.0511 21.9714 23.1872C21.8353 23.3233 21.7588 23.5079 21.7588 23.7004C21.7588 23.8929 21.8353 24.0775 21.9714 24.2136C22.1075 24.3498 22.2921 24.4262 22.4846 24.4262Z" fill="#EE6464"/>
<path d="M31.9402 27.9819H22.4846C22.2921 27.9819 22.1075 28.0584 21.9714 28.1945C21.8353 28.3306 21.7588 28.5152 21.7588 28.7077C21.7588 28.9002 21.8353 29.0848 21.9714 29.221C22.1075 29.3571 22.2921 29.4335 22.4846 29.4335H31.9402C32.1327 29.4335 32.3173 29.3571 32.4534 29.221C32.5895 29.0848 32.666 28.9002 32.666 28.7077C32.666 28.5152 32.5895 28.3306 32.4534 28.1945C32.3173 28.0584 32.1327 27.9819 31.9402 27.9819ZM31.9402 32.9174H22.4846C22.2921 32.9174 22.1075 32.9939 21.9714 33.13C21.8353 33.2661 21.7588 33.4507 21.7588 33.6432C21.7588 33.8357 21.8353 34.0203 21.9714 34.1564C22.1075 34.2926 22.2921 34.369 22.4846 34.369H31.9402C32.1327 34.369 32.3173 34.2926 32.4534 34.1564C32.5895 34.0203 32.666 33.8357 32.666 33.6432C32.666 33.4507 32.5895 33.2661 32.4534 33.13C32.3173 32.9939 32.1327 32.9174 31.9402 32.9174Z" fill="#EE6464"/>
<path d="M39.9851 13.0001H23.5903C23.1958 12.9975 22.8047 13.0728 22.4394 13.2216C22.0741 13.3705 21.7418 13.5899 21.4615 13.8674C21.1811 14.1449 20.9583 14.475 20.8058 14.8388C20.6533 15.2026 20.574 15.5929 20.5726 15.9873V17.4275H19.0149C18.2151 17.43 17.4488 17.7492 16.8838 18.3154C16.3187 18.8815 16.001 19.6484 16 20.4482V44.5146C16.0001 44.7299 16.063 44.9405 16.1809 45.1206C16.2989 45.3007 16.4668 45.4425 16.6641 45.5287C16.8614 45.6149 17.0796 45.6416 17.2919 45.6057C17.5042 45.5698 17.7014 45.4728 17.8594 45.3265L20.1663 43.1999L22.9651 45.6959C23.1688 45.8782 23.4327 45.9788 23.7061 45.9784C23.9794 45.978 24.243 45.8767 24.4462 45.6939L27.2123 43.1987L29.9806 45.6955C30.1837 45.8775 30.4467 45.9783 30.7195 45.9785C30.9922 45.9786 31.2554 45.8781 31.4586 45.6963L34.2582 43.1995L36.5605 45.3218C36.7183 45.4693 36.9156 45.5676 37.1284 45.6045C37.3412 45.6414 37.5601 45.6154 37.7584 45.5297C37.9566 45.444 38.1255 45.3023 38.2443 45.122C38.3632 44.9416 38.4268 44.7305 38.4274 44.5146V39.0725L38.8367 38.7019L41.1368 40.8231C41.2943 40.9705 41.4915 41.0688 41.7041 41.1056C41.9167 41.1425 42.1355 41.1164 42.3335 41.0306C42.5315 40.9447 42.7 40.8029 42.8185 40.6225C42.9369 40.4421 43 40.231 43 40.0152V15.9873C42.9989 15.593 42.9199 15.2028 42.7677 14.8391C42.6154 14.4754 42.3929 14.1453 42.1128 13.8677C41.8327 13.5902 41.5005 13.3707 41.1354 13.2218C40.7703 13.0729 40.3794 12.9975 39.9851 13.0001ZM36.9758 43.7269L35.0152 41.9215C34.813 41.7339 34.548 41.6286 34.2722 41.6265C33.9964 41.6243 33.7297 41.7254 33.5247 41.9099L30.7219 44.409L27.9566 41.915C27.754 41.7276 27.4883 41.6235 27.2123 41.6235C26.9364 41.6235 26.6706 41.7276 26.4681 41.915L23.7032 44.409L20.9027 41.9115C20.6977 41.7264 20.4308 41.6248 20.1545 41.6267C19.8783 41.6286 19.6129 41.7339 19.4104 41.9218L17.4516 43.7269V20.4482C17.4521 20.0332 17.6168 19.6353 17.9097 19.3413C18.2026 19.0473 18.5999 18.8812 19.0149 18.8791H35.4097C35.825 18.881 36.2227 19.0471 36.516 19.341C36.8094 19.635 36.9747 20.0329 36.9758 20.4482V43.7269ZM41.5484 39.2278L39.5912 37.4224C39.4366 37.2815 39.2455 37.1869 39.0397 37.1495C38.8338 37.1122 38.6216 37.1336 38.4274 37.2113V20.4482C38.4259 19.6481 38.1075 18.8811 37.542 18.315C36.9765 17.749 36.2099 17.4298 35.4097 17.4275H22.0242V15.9873C22.0254 15.7834 22.067 15.5818 22.1465 15.3941C22.226 15.2063 22.3419 15.0362 22.4875 14.8934C22.633 14.7506 22.8054 14.6381 22.9947 14.5623C23.184 14.4865 23.3864 14.4489 23.5903 14.4517H39.9851C40.1888 14.449 40.391 14.4866 40.5801 14.5625C40.7692 14.6383 40.9414 14.7509 41.0868 14.8937C41.2321 15.0365 41.3478 15.2066 41.427 15.3943C41.5062 15.582 41.5475 15.7836 41.5484 15.9873V39.2278Z" fill="#EE6464"/>
</svg>
