<svg width="156" height="156" viewBox="0 0 156 156" fill="none" xmlns="http://www.w3.org/2000/svg">
<g filter="url(#filter0_d_3643_2184)">
<rect x="18" y="18" width="120" height="120" rx="5" fill="white"/>
</g>
<path d="M70.6335 111.716C71.0815 111.796 71.4615 112.032 71.7735 112.424C72.0855 112.816 72.2415 113.26 72.2415 113.756C72.2415 114.18 72.1295 114.564 71.9055 114.908C71.6895 115.244 71.3735 115.512 70.9575 115.712C70.5415 115.904 70.0575 116 69.5055 116H66.1695V107.66H69.3495C69.9175 107.66 70.4055 107.756 70.8135 107.948C71.2215 108.14 71.5295 108.4 71.7375 108.728C71.9455 109.048 72.0495 109.408 72.0495 109.808C72.0495 110.288 71.9215 110.688 71.6655 111.008C71.4095 111.328 71.0655 111.564 70.6335 111.716ZM67.5375 111.164H69.2295C69.6775 111.164 70.0255 111.064 70.2735 110.864C70.5295 110.656 70.6575 110.36 70.6575 109.976C70.6575 109.6 70.5295 109.308 70.2735 109.1C70.0255 108.884 69.6775 108.776 69.2295 108.776H67.5375V111.164ZM69.3855 114.884C69.8495 114.884 70.2135 114.772 70.4775 114.548C70.7415 114.324 70.8735 114.012 70.8735 113.612C70.8735 113.204 70.7335 112.88 70.4535 112.64C70.1735 112.4 69.8015 112.28 69.3375 112.28H67.5375V114.884H69.3855ZM74.4241 108.512C74.1761 108.512 73.9681 108.428 73.8001 108.26C73.6321 108.092 73.5481 107.884 73.5481 107.636C73.5481 107.388 73.6321 107.18 73.8001 107.012C73.9681 106.844 74.1761 106.76 74.4241 106.76C74.6641 106.76 74.8681 106.844 75.0361 107.012C75.2041 107.18 75.2881 107.388 75.2881 107.636C75.2881 107.884 75.2041 108.092 75.0361 108.26C74.8681 108.428 74.6641 108.512 74.4241 108.512ZM75.0961 109.388V116H73.7281V109.388H75.0961ZM78.2602 107.12V116H76.8922V107.12H78.2602ZM81.4243 107.12V116H80.0563V107.12H81.4243ZM85.6203 116.108C85.1003 116.108 84.6323 116.016 84.2163 115.832C83.8083 115.64 83.4843 115.384 83.2443 115.064C83.0043 114.736 82.8763 114.372 82.8603 113.972H84.2763C84.3003 114.252 84.4323 114.488 84.6723 114.68C84.9203 114.864 85.2283 114.956 85.5963 114.956C85.9803 114.956 86.2763 114.884 86.4843 114.74C86.7003 114.588 86.8083 114.396 86.8083 114.164C86.8083 113.916 86.6883 113.732 86.4483 113.612C86.2163 113.492 85.8443 113.36 85.3323 113.216C84.8363 113.08 84.4323 112.948 84.1203 112.82C83.8083 112.692 83.5363 112.496 83.3043 112.232C83.0803 111.968 82.9683 111.62 82.9683 111.188C82.9683 110.836 83.0723 110.516 83.2803 110.228C83.4883 109.932 83.7843 109.7 84.1683 109.532C84.5603 109.364 85.0083 109.28 85.5123 109.28C86.2643 109.28 86.8683 109.472 87.3243 109.856C87.7883 110.232 88.0363 110.748 88.0683 111.404H86.7003C86.6763 111.108 86.5563 110.872 86.3403 110.696C86.1243 110.52 85.8323 110.432 85.4643 110.432C85.1043 110.432 84.8283 110.5 84.6363 110.636C84.4443 110.772 84.3483 110.952 84.3483 111.176C84.3483 111.352 84.4123 111.5 84.5403 111.62C84.6683 111.74 84.8243 111.836 85.0083 111.908C85.1923 111.972 85.4643 112.056 85.8243 112.16C86.3043 112.288 86.6963 112.42 87.0003 112.556C87.3123 112.684 87.5803 112.876 87.8043 113.132C88.0283 113.388 88.1443 113.728 88.1523 114.152C88.1523 114.528 88.0483 114.864 87.8403 115.16C87.6323 115.456 87.3363 115.688 86.9523 115.856C86.5763 116.024 86.1323 116.108 85.6203 116.108Z" fill="#2F2F2F"/>
<circle cx="78" cy="64" r="29" fill="#FF7272" fill-opacity="0.14"/>
<path d="M71.4846 59.426H76.3649C76.5574 59.426 76.742 59.3495 76.8781 59.2134C77.0143 59.0773 77.0907 58.8927 77.0907 58.7002C77.0907 58.5077 77.0143 58.3231 76.8781 58.1869C76.742 58.0508 76.5574 57.9744 76.3649 57.9744H71.4846C71.2921 57.9744 71.1075 58.0508 70.9714 58.1869C70.8353 58.3231 70.7588 58.5077 70.7588 58.7002C70.7588 58.8927 70.8353 59.0773 70.9714 59.2134C71.1075 59.3495 71.2921 59.426 71.4846 59.426Z" fill="#EE6464"/>
<path d="M80.9402 62.9822H71.4846C71.2921 62.9822 71.1075 63.0586 70.9714 63.1948C70.8353 63.3309 70.7588 63.5155 70.7588 63.708C70.7588 63.9005 70.8353 64.0851 70.9714 64.2212C71.1075 64.3573 71.2921 64.4338 71.4846 64.4338H80.9402C81.1327 64.4338 81.3173 64.3573 81.4534 64.2212C81.5895 64.0851 81.666 63.9005 81.666 63.708C81.666 63.5155 81.5895 63.3309 81.4534 63.1948C81.3173 63.0586 81.1327 62.9822 80.9402 62.9822ZM80.9402 67.9177H71.4846C71.2921 67.9177 71.1075 67.9941 70.9714 68.1302C70.8353 68.2664 70.7588 68.451 70.7588 68.6435C70.7588 68.836 70.8353 69.0206 70.9714 69.1567C71.1075 69.2928 71.2921 69.3693 71.4846 69.3693H80.9402C81.1327 69.3693 81.3173 69.2928 81.4534 69.1567C81.5895 69.0206 81.666 68.836 81.666 68.6435C81.666 68.451 81.5895 68.2664 81.4534 68.1302C81.3173 67.9941 81.1327 67.9177 80.9402 67.9177Z" fill="#EE6464"/>
<path d="M88.9851 48.0001H72.5903C72.1958 47.9975 71.8047 48.0728 71.4394 48.2216C71.0741 48.3705 70.7418 48.5899 70.4615 48.8674C70.1811 49.1449 69.9583 49.475 69.8058 49.8388C69.6533 50.2026 69.574 50.5929 69.5726 50.9873V52.4275H68.0149C67.2151 52.43 66.4488 52.7492 65.8838 53.3154C65.3187 53.8815 65.001 54.6484 65 55.4482V79.5146C65.0001 79.7299 65.063 79.9405 65.1809 80.1206C65.2989 80.3007 65.4668 80.4425 65.6641 80.5287C65.8614 80.6149 66.0796 80.6416 66.2919 80.6057C66.5042 80.5698 66.7014 80.4728 66.8594 80.3265L69.1663 78.1999L71.9651 80.6959C72.1688 80.8782 72.4327 80.9788 72.7061 80.9784C72.9794 80.978 73.243 80.8767 73.4462 80.6939L76.2123 78.1987L78.9806 80.6955C79.1837 80.8775 79.4467 80.9783 79.7195 80.9785C79.9922 80.9786 80.2554 80.8781 80.4586 80.6963L83.2582 78.1995L85.5605 80.3218C85.7183 80.4693 85.9156 80.5676 86.1284 80.6045C86.3412 80.6414 86.5601 80.6154 86.7584 80.5297C86.9566 80.444 87.1255 80.3023 87.2443 80.122C87.3632 79.9416 87.4268 79.7305 87.4274 79.5146V74.0725L87.8367 73.7019L90.1368 75.8231C90.2943 75.9705 90.4915 76.0688 90.7041 76.1056C90.9167 76.1425 91.1355 76.1164 91.3335 76.0306C91.5315 75.9447 91.7 75.8029 91.8185 75.6225C91.9369 75.4421 92 75.231 92 75.0152V50.9873C91.9989 50.593 91.9199 50.2028 91.7677 49.8391C91.6154 49.4754 91.3929 49.1453 91.1128 48.8677C90.8327 48.5902 90.5005 48.3707 90.1354 48.2218C89.7703 48.0729 89.3794 47.9975 88.9851 48.0001ZM85.9758 78.7269L84.0152 76.9215C83.813 76.7339 83.548 76.6286 83.2722 76.6265C82.9964 76.6243 82.7297 76.7254 82.5247 76.9099L79.7219 79.409L76.9566 76.915C76.754 76.7276 76.4883 76.6235 76.2123 76.6235C75.9364 76.6235 75.6706 76.7276 75.4681 76.915L72.7032 79.409L69.9027 76.9115C69.6977 76.7264 69.4308 76.6248 69.1545 76.6267C68.8783 76.6286 68.6129 76.7339 68.4104 76.9218L66.4516 78.7269V55.4482C66.4521 55.0332 66.6168 54.6353 66.9097 54.3413C67.2026 54.0473 67.5999 53.8812 68.0149 53.8791H84.4097C84.825 53.881 85.2227 54.0471 85.516 54.341C85.8094 54.635 85.9747 55.0329 85.9758 55.4482V78.7269ZM90.5484 74.2278L88.5912 72.4224C88.4366 72.2815 88.2455 72.1869 88.0397 72.1495C87.8338 72.1122 87.6216 72.1336 87.4274 72.2113V55.4482C87.4259 54.6481 87.1075 53.8811 86.542 53.315C85.9765 52.749 85.2099 52.4298 84.4097 52.4275H71.0242V50.9873C71.0254 50.7834 71.067 50.5818 71.1465 50.3941C71.226 50.2063 71.3419 50.0362 71.4875 49.8934C71.633 49.7506 71.8054 49.6381 71.9947 49.5623C72.184 49.4865 72.3864 49.4489 72.5903 49.4517H88.9851C89.1888 49.449 89.391 49.4866 89.5801 49.5625C89.7692 49.6383 89.9414 49.7509 90.0868 49.8937C90.2321 50.0365 90.3478 50.2066 90.427 50.3943C90.5062 50.582 90.5475 50.7836 90.5484 50.9873V74.2278Z" fill="#EE6464"/>
<defs>
<filter id="filter0_d_3643_2184" x="0.9" y="0.9" width="154.2" height="154.2" filterUnits="userSpaceOnUse" color-interpolation-filters="sRGB">
<feFlood flood-opacity="0" result="BackgroundImageFix"/>
<feColorMatrix in="SourceAlpha" type="matrix" values="0 0 0 0 0 0 0 0 0 0 0 0 0 0 0 0 0 0 127 0" result="hardAlpha"/>
<feMorphology radius="0.1" operator="dilate" in="SourceAlpha" result="effect1_dropShadow_3643_2184"/>
<feOffset/>
<feGaussianBlur stdDeviation="8.5"/>
<feComposite in2="hardAlpha" operator="out"/>
<feColorMatrix type="matrix" values="0 0 0 0 0.768627 0 0 0 0 0.768627 0 0 0 0 0.768627 0 0 0 0.63 0"/>
<feBlend mode="normal" in2="BackgroundImageFix" result="effect1_dropShadow_3643_2184"/>
<feBlend mode="normal" in="SourceGraphic" in2="effect1_dropShadow_3643_2184" result="shape"/>
</filter>
</defs>
</svg>
