<svg width="11" height="13" viewBox="0 0 11 13" fill="none" xmlns="http://www.w3.org/2000/svg">
<path d="M9.05433 1.60553C9.00487 1.60566 8.9563 1.59219 8.91366 1.56653C7.74022 0.92303 6.72568 0.650031 5.5094 0.650031C4.2992 0.650031 3.15008 0.95553 2.10488 1.56653C1.95707 1.65211 1.7749 1.59253 1.68923 1.43545C1.65099 1.35963 1.64236 1.27174 1.6651 1.18965C1.68784 1.10755 1.74024 1.0374 1.81165 0.993447C2.93892 0.338567 4.21345 -0.00384012 5.5094 3.24878e-05C6.81108 3.24878e-05 7.94804 0.305532 9.19499 0.98803C9.26774 1.029 9.32192 1.09755 9.34589 1.17897C9.36986 1.26039 9.36173 1.34819 9.32323 1.42353C9.30008 1.47702 9.26245 1.5226 9.21479 1.55485C9.16713 1.58711 9.11144 1.6047 9.05433 1.60553ZM0.307959 5.01802C0.244453 5.01756 0.182616 4.99714 0.130805 4.95952C0.0633962 4.90821 0.0180615 4.8321 0.00435029 4.74723C-0.00936094 4.66235 0.00962164 4.57534 0.0572996 4.50452C0.66253 3.59452 1.43222 2.87953 2.34946 2.37903C4.26853 1.32711 6.72568 1.31953 8.65084 2.37253C9.56781 2.87303 10.3378 3.58152 10.943 4.48502C10.9905 4.55591 11.0093 4.64286 10.9956 4.72767C10.9819 4.81249 10.9367 4.88858 10.8695 4.94002C10.8369 4.965 10.7996 4.98285 10.7599 4.99248C10.7203 5.0021 10.6792 5.0033 10.6391 4.99599C10.599 4.98868 10.5608 4.97301 10.5268 4.94997C10.4929 4.92693 10.4639 4.89699 10.4417 4.86202C9.89171 4.04302 9.19499 3.39952 8.36977 2.95103C6.61569 1.99553 4.37245 1.99553 2.62444 2.95753C1.79314 3.41252 1.09642 4.06252 0.546455 4.88044C0.52274 4.92348 0.48798 4.95905 0.445941 4.9833C0.403901 5.00755 0.356184 5.01956 0.307959 5.01802ZM4.12787 12.8646C4.08747 12.865 4.04747 12.8565 4.01056 12.8397C3.97366 12.8228 3.94071 12.7981 3.91396 12.7671C3.38224 12.2005 3.09403 11.8354 2.68552 11.05C2.26247 10.2505 2.0438 9.27551 2.0438 8.22901C2.0438 6.29852 3.59614 4.72552 5.50332 4.72552C7.4105 4.72552 8.9639 6.29852 8.9639 8.22901C8.9651 8.27088 8.95809 8.31258 8.94327 8.35162C8.92846 8.39067 8.90615 8.42627 8.87766 8.45632C8.84917 8.48638 8.81508 8.51027 8.77742 8.52658C8.73975 8.5429 8.69927 8.5513 8.65837 8.5513C8.61748 8.5513 8.577 8.5429 8.53933 8.52658C8.50166 8.51027 8.46758 8.48638 8.43909 8.45632C8.4106 8.42627 8.38829 8.39067 8.37347 8.35162C8.35866 8.31258 8.35165 8.27088 8.35285 8.22901C8.35285 6.65602 7.07523 5.37552 5.50464 5.37552C3.93406 5.37552 2.65511 6.65602 2.65511 8.22901C2.65511 9.16501 2.85051 10.0295 3.22333 10.7315C3.61465 11.479 3.88435 11.7975 4.3542 12.3045C4.40992 12.3676 4.44078 12.4496 4.44078 12.5347C4.44078 12.6198 4.40992 12.7018 4.3542 12.7649C4.29421 12.8269 4.21307 12.8626 4.12787 12.8646ZM8.51044 11.6621C7.78305 11.6621 7.14133 11.4671 6.61569 11.0836C6.16785 10.7621 5.802 10.335 5.54892 9.83845C5.29584 9.34187 5.16295 8.79027 5.16144 8.2301C5.15973 8.18789 5.16636 8.14576 5.18095 8.10624C5.19554 8.06672 5.21778 8.03064 5.24633 8.00015C5.27488 7.96966 5.30915 7.9454 5.34709 7.92883C5.38503 7.91226 5.42585 7.90372 5.4671 7.90372C5.50834 7.90372 5.54916 7.91226 5.5871 7.92883C5.62504 7.9454 5.65931 7.96966 5.68786 8.00015C5.71642 8.03064 5.73865 8.06672 5.75324 8.10624C5.76783 8.14576 5.77447 8.18789 5.77275 8.2301C5.77378 8.6851 5.88212 9.13311 6.08854 9.536C6.29497 9.9389 6.59338 10.2847 6.95836 10.5441C7.39225 10.8561 7.89965 11.0045 8.51097 11.0045C8.72387 11.0006 8.93611 10.9789 9.14555 10.9395C9.31054 10.907 9.46945 11.024 9.49985 11.206C9.51534 11.29 9.49768 11.3769 9.45075 11.4475C9.40381 11.5182 9.33142 11.5669 9.24946 11.583C9.00599 11.6323 8.7586 11.6584 8.51044 11.661V11.6621ZM7.28173 13C7.25489 12.9989 7.22826 12.9945 7.20241 12.987C6.23044 12.701 5.59481 12.3175 4.9285 11.622C4.07261 10.7185 3.60222 9.51601 3.60222 8.22901C3.60222 7.17601 4.44569 6.31802 5.48455 6.31802C6.52341 6.31802 7.36713 7.17601 7.36713 8.22901C7.36713 8.92451 7.93561 9.49001 8.63841 9.49001C9.34121 9.49001 9.90969 8.92451 9.90969 8.22901C9.90969 5.77852 7.92319 3.78952 5.47847 3.78952C3.74262 3.78952 2.15353 4.81652 1.43857 6.40902C1.2006 6.93552 1.07792 7.55301 1.07792 8.22901C1.07792 8.73601 1.12049 9.53551 1.48722 10.5755C1.54856 10.7445 1.46898 10.933 1.31007 10.9915C1.2723 11.0062 1.23202 11.013 1.19164 11.0114C1.15126 11.0098 1.11161 10.9998 1.07509 10.9821C1.03856 10.9644 1.00591 10.9393 0.979083 10.9083C0.952262 10.8774 0.931827 10.8412 0.919006 10.8019C0.624103 9.97773 0.473028 9.10682 0.472685 8.22901C0.472685 7.44901 0.61335 6.73943 0.888335 6.12302C1.70139 4.30844 3.50439 3.13302 5.47847 3.13302C8.25951 3.13302 10.521 5.41452 10.521 8.22251C10.521 9.27551 9.67754 10.1335 8.63841 10.1335C7.59929 10.1335 6.75582 9.27551 6.75582 8.22251C6.75609 7.52701 6.18761 6.96043 5.48481 6.96043C4.78201 6.96043 4.21354 7.52593 4.21354 8.22143C4.21354 9.33184 4.61702 10.3729 5.35657 11.1529C5.93827 11.7639 6.49353 12.1008 7.35524 12.3554C7.52023 12.4009 7.61198 12.5829 7.56914 12.7519C7.5558 12.8205 7.52008 12.8824 7.46786 12.9275C7.41563 12.9726 7.35 12.9982 7.28173 13Z" fill="#4CA1D6"/>
</svg>
