<svg width="12" height="9" viewBox="0 0 12 9" fill="none" xmlns="http://www.w3.org/2000/svg">
<path d="M7.875 4.875C7.875 5.37228 7.67746 5.84919 7.32583 6.20083C6.97419 6.55246 6.49728 6.75 6 6.75C5.50272 6.75 5.02581 6.55246 4.67417 6.20083C4.32254 5.84919 4.125 5.37228 4.125 4.875C4.125 4.37772 4.32254 3.90081 4.67417 3.54917C5.02581 3.19754 5.50272 3 6 3C6.49728 3 6.97419 3.19754 7.32583 3.54917C7.67746 3.90081 7.875 4.37772 7.875 4.875V4.875Z" fill="#0383D3"/>
<path d="M1.5 1.5C1.10218 1.5 0.720644 1.65804 0.43934 1.93934C0.158035 2.22064 0 2.60218 0 3L0 7.5C0 7.89782 0.158035 8.27936 0.43934 8.56066C0.720644 8.84196 1.10218 9 1.5 9H10.5C10.8978 9 11.2794 8.84196 11.5607 8.56066C11.842 8.27936 12 7.89782 12 7.5V3C12 2.60218 11.842 2.22064 11.5607 1.93934C11.2794 1.65804 10.8978 1.5 10.5 1.5H9.621C9.22321 1.49992 8.84174 1.34182 8.5605 1.0605L7.9395 0.4395C7.65826 0.158176 7.27679 8.49561e-05 6.879 0H5.121C4.72321 8.49561e-05 4.34174 0.158176 4.0605 0.4395L3.4395 1.0605C3.15826 1.34182 2.77679 1.49992 2.379 1.5H1.5ZM1.875 3C1.77554 3 1.68016 2.96049 1.60984 2.89016C1.53951 2.81984 1.5 2.72446 1.5 2.625C1.5 2.52554 1.53951 2.43016 1.60984 2.35984C1.68016 2.28951 1.77554 2.25 1.875 2.25C1.97446 2.25 2.06984 2.28951 2.14016 2.35984C2.21049 2.43016 2.25 2.52554 2.25 2.625C2.25 2.72446 2.21049 2.81984 2.14016 2.89016C2.06984 2.96049 1.97446 3 1.875 3ZM8.625 4.875C8.625 5.57119 8.34844 6.23887 7.85616 6.73116C7.36387 7.22344 6.69619 7.5 6 7.5C5.30381 7.5 4.63613 7.22344 4.14384 6.73116C3.65156 6.23887 3.375 5.57119 3.375 4.875C3.375 4.17881 3.65156 3.51113 4.14384 3.01884C4.63613 2.52656 5.30381 2.25 6 2.25C6.69619 2.25 7.36387 2.52656 7.85616 3.01884C8.34844 3.51113 8.625 4.17881 8.625 4.875V4.875Z" fill="#0383D3"/>
</svg>
