<svg width="25" height="25" viewBox="0 0 25 25" fill="none" xmlns="http://www.w3.org/2000/svg">
<circle cx="12.2757" cy="12.2757" r="12.2757" fill="#EC0B8D"/>
<path d="M14.5775 13.3493C14.5775 13.9597 14.335 14.5452 13.9034 14.9768C13.4717 15.4085 12.8863 15.651 12.2758 15.651C11.6654 15.651 11.0799 15.4085 10.6483 14.9768C10.2166 14.5452 9.97412 13.9597 9.97412 13.3493C9.97412 12.7389 10.2166 12.1534 10.6483 11.7218C11.0799 11.2901 11.6654 11.0476 12.2758 11.0476C12.8863 11.0476 13.4717 11.2901 13.9034 11.7218C14.335 12.1534 14.5775 12.7389 14.5775 13.3493Z" fill="white"/>
<path d="M6.75175 9.20683C6.2634 9.20683 5.79504 9.40083 5.44972 9.74615C5.1044 10.0915 4.9104 10.5598 4.9104 11.0482V16.5723C4.9104 17.0606 5.1044 17.529 5.44972 17.8743C5.79504 18.2196 6.2634 18.4136 6.75175 18.4136H17.7999C18.2882 18.4136 18.7566 18.2196 19.1019 17.8743C19.4472 17.529 19.6412 17.0606 19.6412 16.5723V11.0482C19.6412 10.5598 19.4472 10.0915 19.1019 9.74615C18.7566 9.40083 18.2882 9.20683 17.7999 9.20683H16.7208C16.2325 9.20673 15.7643 9.01266 15.419 8.66732L14.6567 7.905C14.3115 7.55965 13.8432 7.36558 13.3549 7.36548H11.1968C10.7085 7.36558 10.2402 7.55965 9.89495 7.905L9.13263 8.66732C8.78739 9.01266 8.31911 9.20673 7.83079 9.20683H6.75175ZM7.21209 11.0482C7.09 11.0482 6.97292 10.9997 6.88659 10.9134C6.80025 10.827 6.75175 10.7099 6.75175 10.5878C6.75175 10.4658 6.80025 10.3487 6.88659 10.2623C6.97292 10.176 7.09 10.1275 7.21209 10.1275C7.33418 10.1275 7.45127 10.176 7.5376 10.2623C7.62393 10.3487 7.67243 10.4658 7.67243 10.5878C7.67243 10.7099 7.62393 10.827 7.5376 10.9134C7.45127 10.9997 7.33418 11.0482 7.21209 11.0482ZM15.4982 13.3499C15.4982 14.2045 15.1587 15.0241 14.5544 15.6284C13.9501 16.2328 13.1304 16.5723 12.2758 16.5723C11.4212 16.5723 10.6016 16.2328 9.99726 15.6284C9.39295 15.0241 9.05345 14.2045 9.05345 13.3499C9.05345 12.4953 9.39295 11.6756 9.99726 11.0713C10.6016 10.467 11.4212 10.1275 12.2758 10.1275C13.1304 10.1275 13.9501 10.467 14.5544 11.0713C15.1587 11.6756 15.4982 12.4953 15.4982 13.3499Z" fill="white"/>
</svg>
