<svg width="18" height="18" viewBox="0 0 18 18" fill="none" xmlns="http://www.w3.org/2000/svg">
<path fill-rule="evenodd" clip-rule="evenodd" d="M4.5 4.5C2.01477 6.98523 2.01477 11.0148 4.5 13.5C6.98523 15.9852 11.0148 15.9852 13.5 13.5C15.9852 11.0148 15.9852 6.98523 13.5 4.5C11.0148 2.01477 6.98523 2.01477 4.5 4.5ZM11.0455 10.2273C11.154 10.3358 11.2149 10.4829 11.2149 10.6364C11.2149 10.7898 11.154 10.937 11.0455 11.0455C10.937 11.154 10.7898 11.2149 10.6364 11.2149C10.4829 11.2149 10.3358 11.154 10.2273 11.0455L9 9.81818L7.77273 11.0455C7.66423 11.154 7.51708 11.2149 7.36364 11.2149C7.2102 11.2149 7.06304 11.154 6.95455 11.0455C6.84605 10.937 6.78509 10.7898 6.78509 10.6364C6.78509 10.4829 6.84605 10.3358 6.95455 10.2273L8.18182 9L6.95455 7.77273C6.84605 7.66423 6.78509 7.51708 6.78509 7.36364C6.78509 7.2102 6.84605 7.06304 6.95455 6.95455C7.06304 6.84605 7.2102 6.78509 7.36364 6.78509C7.51708 6.78509 7.66423 6.84605 7.77273 6.95455L9 8.18182L10.2273 6.95455C10.3358 6.84605 10.4829 6.78509 10.6364 6.78509C10.7898 6.78509 10.937 6.84605 11.0455 6.95455C11.154 7.06304 11.2149 7.2102 11.2149 7.36364C11.2149 7.51707 11.154 7.66423 11.0455 7.77273L9.81818 9L11.0455 10.2273Z" fill="#EC0B8D"/>
</svg>
