<svg width="17" height="14" viewBox="0 0 17 14" fill="none" xmlns="http://www.w3.org/2000/svg">
<path d="M1.94682 14C0.826131 14 0.132045 13.2345 0.0237005 12.4758C0.0203147 12.4489 0.0101573 12.4254 0 12.4053V3.01487C0.00677156 2.98465 0.0169289 2.95779 0.0237005 2.92758C0.0440152 2.85036 0.0609441 2.7765 0.0846445 2.706C0.325035 1.94053 1.01235 1.44365 1.83509 1.44029C2.25832 1.43693 2.7154 1.43693 3.27405 1.43693C3.62279 1.43693 3.97491 1.43693 4.32364 1.43693C4.67238 1.43693 5.0245 1.43693 5.37324 1.43693H5.7863V1.26906C5.7863 1.23885 5.7863 1.20863 5.7863 1.18177C5.7863 1.12806 5.7863 1.08106 5.7863 1.03405C5.81 0.463309 6.27047 0.0134293 6.83251 0.00671463C7.37423 0.00335731 7.93289 0 8.48815 0C9.03665 0 9.59869 0.00335731 10.1607 0.00671463C10.7228 0.0100719 11.1832 0.459952 11.2103 1.0307C11.2137 1.07434 11.2103 1.11799 11.2103 1.1717C11.2103 1.20192 11.2103 1.23213 11.2103 1.26906V1.43693H11.5861C11.9417 1.43693 12.3039 1.44029 12.6527 1.44029C13.0014 1.44365 13.3637 1.44365 13.7226 1.44365C14.2508 1.44365 14.6875 1.44029 15.0938 1.43022C15.1074 1.43022 15.1209 1.43022 15.1344 1.43022C15.6355 1.43022 16.1028 1.62158 16.4515 1.97074C16.8104 2.32662 17.0034 2.81007 17 3.3271C16.9865 5.39185 16.9899 7.48681 16.9932 9.51799C16.9932 10.3808 16.9966 11.2436 16.9966 12.1031C16.9966 13.2144 16.2111 13.9933 15.087 13.9933H14.4945C13.384 13.9933 12.2768 13.9933 11.1663 13.9933C10.0558 13.9933 8.94862 13.9933 7.83808 13.9933C5.48497 13.9933 3.67019 13.9966 1.9536 14H1.94682ZM3.3587 2.17554C2.86437 2.17554 2.37343 2.17554 1.87911 2.17554C1.1918 2.1789 0.744872 2.62542 0.744872 3.31367C0.744872 6.2446 0.744872 9.17554 0.744872 12.1065C0.744872 12.8149 1.1918 13.2547 1.90619 13.2547C4.07648 13.2547 6.24677 13.2547 8.42044 13.2547C10.6449 13.2547 12.866 13.2547 15.0904 13.2547C15.8048 13.2547 16.2518 12.8149 16.2518 12.1065C16.2518 9.18225 16.2518 6.25468 16.2518 3.33046C16.2518 2.62206 15.8082 2.1789 15.0972 2.1789C14.6266 2.1789 14.1526 2.1789 13.6819 2.1789C13.1097 2.1789 12.5409 2.1789 11.9687 2.1789H11.576C11.532 2.1789 11.4846 2.18225 11.4439 2.18561C11.4236 2.18561 11.4033 2.18897 11.383 2.18897L11.2306 2.19568L11.2205 2.41727C11.2171 2.47098 11.2171 2.51463 11.2137 2.56163C11.19 3.1458 10.7363 3.59233 10.1641 3.59904C9.63932 3.60576 9.09421 3.60911 8.54233 3.60911C7.99383 3.60911 7.42163 3.60576 6.83589 3.59904C6.32464 3.59233 5.89126 3.22302 5.79646 2.71942C5.78291 2.64556 5.77953 2.56835 5.77614 2.4777C5.77276 2.4307 5.77276 2.38369 5.76937 2.32998L5.75921 2.17218C5.75921 2.1789 3.70404 2.17554 3.3587 2.17554ZM9.37184 2.86715C9.59192 2.86715 9.81538 2.86715 10.0355 2.86715C10.3503 2.86715 10.4655 2.753 10.4688 2.44748C10.4722 1.99424 10.4688 1.57122 10.4688 1.15492C10.4688 0.866187 10.3402 0.741966 10.0456 0.741966C9.52759 0.741966 9.00618 0.741966 8.48815 0.741966C7.9769 0.741966 7.46226 0.741966 6.95101 0.741966C6.64967 0.741966 6.52779 0.866187 6.52779 1.1717C6.52779 1.56115 6.52779 1.9741 6.52779 2.4307C6.52779 2.75636 6.6429 2.86715 6.9781 2.86715C7.18801 2.86715 7.39793 2.86715 7.60785 2.86715H8.48477H9.37184Z" fill="#9C9FA2"/>
<path d="M2.53598 11.8446C2.35992 11.8446 2.19401 11.7069 2.17708 11.5525C2.10937 10.8609 2.2448 10.3472 2.61046 9.93763C2.9829 9.52468 3.43998 9.31989 4.00879 9.31317C4.14761 9.31317 4.29658 9.30981 4.47941 9.30981C4.60807 9.30981 4.73335 9.30981 4.86201 9.30981C4.93311 9.30981 5.00421 9.30981 5.07531 9.30981V9.32996H5.2446C5.40373 9.32996 5.56286 9.3266 5.71522 9.32324C5.86758 9.31989 6.02672 9.31653 6.17908 9.31653C6.39238 9.31653 6.56844 9.32324 6.73096 9.33667C7.6011 9.40718 8.29857 10.1592 8.32566 11.0422C8.32905 11.1966 8.32905 11.3343 8.32566 11.4686C8.31889 11.6801 8.15976 11.8412 7.95661 11.8412C7.75346 11.8412 7.59095 11.6801 7.58417 11.4719C7.58079 11.4081 7.58079 11.3443 7.58417 11.2772C7.58417 11.2336 7.58417 11.1866 7.58417 11.1429C7.5774 10.5252 7.14064 10.0686 6.54135 10.0585C6.10459 10.0484 5.67121 10.0451 5.24799 10.0451C4.80783 10.0451 4.37107 10.0484 3.94785 10.0585C3.35534 10.0719 2.92196 10.5252 2.91518 11.1362C2.91518 11.1832 2.91518 11.2268 2.91518 11.2738C2.91518 11.3511 2.91518 11.4249 2.9118 11.4988C2.90164 11.6868 2.74589 11.8379 2.55629 11.8479C2.54613 11.8446 2.53936 11.8446 2.53598 11.8446Z" fill="#9C9FA2"/>
<path d="M5.24791 8.26233C4.81115 8.26233 4.40147 8.09446 4.09336 7.78559C3.78526 7.47672 3.61597 7.07048 3.61597 6.63739C3.61935 5.75106 4.3473 5.02588 5.24114 5.01917H5.25468C6.14853 5.01917 6.87647 5.7477 6.87986 6.64075C6.87986 7.07384 6.71057 7.48343 6.40246 7.79231C6.09097 8.09111 5.68129 8.26233 5.24791 8.26233ZM5.23775 5.75442C4.7502 5.76113 4.35745 6.16065 4.35745 6.64746C4.36084 7.13092 4.76036 7.52372 5.24453 7.52372H5.2513C5.73885 7.52036 6.13499 7.12084 6.1316 6.63403C6.12822 6.15058 5.73208 5.75777 5.24791 5.75777L5.23775 5.75442Z" fill="#9C9FA2"/>
<path d="M12.4326 6.11361C11.7893 6.11361 11.146 6.11361 10.4993 6.11361C10.2961 6.11361 10.137 5.98267 10.1167 5.79802C10.093 5.59323 10.2047 5.43207 10.3943 5.38843C10.4383 5.37836 10.4925 5.37836 10.5568 5.375C10.9123 5.375 11.2712 5.375 11.6267 5.375H12.4833H13.6074C13.8681 5.375 14.1322 5.375 14.3929 5.375C14.5317 5.375 14.6502 5.41864 14.7281 5.49586C14.7924 5.55965 14.8263 5.64694 14.8263 5.74766C14.8263 5.96924 14.6536 6.11361 14.3895 6.11361H14.2202C13.6243 6.11361 13.0284 6.11361 12.4326 6.11361Z" fill="#9C9FA2"/>
<path d="M13.6345 8.97414C13.4212 8.97414 13.2079 8.97414 12.9946 8.97414C12.8219 8.97414 12.3851 8.97414 12.3851 8.97414C12.2159 8.97414 12.0432 8.97414 11.8739 8.97414C11.7046 8.97414 11.5319 8.97414 11.3626 8.97414C11.0173 8.97414 10.7397 8.97414 10.4857 8.97079C10.3198 8.97079 10.1844 8.87343 10.1336 8.71899C10.0828 8.56791 10.1302 8.4034 10.2487 8.32954C10.3334 8.27582 10.4383 8.23889 10.5162 8.23889C11.2001 8.23553 11.9111 8.23218 12.6932 8.23218C13.2316 8.23218 13.8004 8.23218 14.4369 8.23554C14.5554 8.23554 14.657 8.27582 14.7315 8.34968C14.7992 8.41683 14.8364 8.51083 14.8331 8.6082C14.8297 8.82307 14.6672 8.96743 14.4268 8.97079C14.1559 8.97414 13.8952 8.97414 13.6345 8.97414Z" fill="#9C9FA2"/>
<path d="M12.1922 11.8446C11.6065 11.8446 11.0343 11.8446 10.4858 11.8412C10.2996 11.8412 10.1439 11.7136 10.1168 11.5391C10.0897 11.3477 10.1845 11.1832 10.3538 11.1295C10.4181 11.1093 10.4994 11.1093 10.5705 11.106C10.8989 11.106 11.2273 11.106 11.5591 11.106H12.2938H12.4631C12.6527 11.106 12.8423 11.106 13.0319 11.106C13.2215 11.106 13.4111 11.106 13.6007 11.106C13.9359 11.106 14.2068 11.106 14.4573 11.1093C14.6334 11.1093 14.7654 11.2134 14.8128 11.388C14.8569 11.5424 14.7858 11.7103 14.6469 11.7841C14.5826 11.8211 14.5115 11.8412 14.4573 11.8412C13.6481 11.8446 12.91 11.8446 12.1922 11.8446Z" fill="#9C9FA2"/>
</svg>
