<svg width="19" height="21" viewBox="0 0 19 21" fill="none" xmlns="http://www.w3.org/2000/svg">
<path fill-rule="evenodd" clip-rule="evenodd" d="M11.9327 13H14.5262C14.8125 13 15.0448 12.776 15.0448 12.5C15.0448 12.224 14.8125 12 14.5262 12H11.9327C11.6464 12 11.4141 12.224 11.4141 12.5C11.4141 12.776 11.6464 13 11.9327 13ZM11.9327 11H14.0075C14.2938 11 14.5262 10.776 14.5262 10.5C14.5262 10.224 14.2938 10 14.0075 10H11.9327C11.6464 10 11.4141 10.224 11.4141 10.5C11.4141 10.776 11.6464 11 11.9327 11Z" fill="#00A2FF"/>
<path d="M7.05176 12.4199C7.5418 12.3735 8.0341 12.3735 8.52414 12.4199C8.79099 12.4382 9.05658 12.4774 9.31922 12.5374C9.88756 12.6726 10.2586 12.8932 10.4176 13.2491C10.537 13.5269 10.537 13.8575 10.4176 14.1352C10.2586 14.4911 9.90228 14.726 9.31333 14.847C9.0509 14.9092 8.78525 14.9496 8.51825 14.968C8.27089 15 8.02353 15 7.77323 15H7.59763C7.41459 15 7.23186 14.9786 7.04882 14.9786C6.78181 14.9625 6.5161 14.9233 6.25373 14.8612C5.6854 14.7331 5.31436 14.5053 5.15534 14.1495C5.09395 14.0116 5.06159 13.8576 5.06107 13.7011C5.05983 13.5436 5.09121 13.3882 5.1524 13.2491C5.30847 12.8932 5.67951 12.6619 6.25373 12.5374C6.51726 12.4766 6.78387 12.4373 7.05176 12.4199ZM7.78501 7C8.7722 7 9.57247 7.96713 9.57247 9.16014C9.57247 10.3532 8.7722 11.3203 7.78501 11.3203C6.79782 11.3203 5.99754 10.3532 5.99754 9.16014C5.99754 7.96713 6.79782 7 7.78501 7Z" fill="#00A2FF"/>
</svg>
