<svg width="298" height="258" viewBox="0 0 298 258" fill="none" xmlns="http://www.w3.org/2000/svg">
<path d="M289.634 53.643C285.599 46.7894 279.101 41.3895 271.595 38.749C268.361 37.6215 264.474 37.0875 261.833 39.2533C259.193 41.4192 260.112 46.9674 263.524 46.8784C252.992 39.5797 240.293 35.4556 227.476 35.1293C224.272 35.0403 220.622 35.3963 218.605 37.8885C216.558 40.3808 218.279 45.3059 221.423 44.7422C211.751 38.5413 198.993 40.4401 188.164 44.2971C185.019 45.4246 181.904 46.6707 178.788 47.9168C175.376 49.2816 176.385 54.3551 180.064 54.3254L289.634 53.643ZM14.39 18.277C10.3549 19.2561 6.26054 15.9035 7.12095 13.0849C7.98137 10.2663 11.8977 8.33776 15.8438 7.18065C24.7743 4.56974 35.3663 4.59941 44.2671 7.26966C42.1903 6.20156 42.3683 3.94668 44.0001 2.61156C45.6616 1.27643 48.3022 0.68304 50.8537 0.356676C63.0182 -1.18614 76.3398 2.3742 83.4901 9.13884C81.1463 7.47735 82.422 4.5104 85.2406 3.26428C88.0592 2.01817 91.7976 2.01817 95.1502 2.43354C109.57 4.15437 121.793 9.40586 124.553 19.0188L14.39 18.277Z" fill="#CCE9FF"/>
<path d="M7.83301 243.172C19.4338 220.86 32.1916 199.142 46.0473 178.166C51.6251 169.71 57.9151 160.928 67.2906 157.041C75.509 153.629 85.1219 154.638 93.2217 158.376C101.292 162.115 107.997 168.375 113.545 175.347C118.322 181.311 123.425 188.491 131.05 189.114C139.18 189.796 145.618 182.676 150.632 176.208C167.099 154.994 183.565 133.751 200.032 112.537C205.491 105.505 212.226 97.821 221.097 97.8507C229.049 97.8803 235.487 104.17 240.442 110.401C269.518 146.865 280.851 193.95 291.384 239.344L7.83301 243.172Z" fill="#F7F7F7"/>
<path d="M276.757 200.893C288.489 200.893 298 191.382 298 179.65C298 167.917 288.489 158.406 276.757 158.406C265.024 158.406 255.513 167.917 255.513 179.65C255.513 191.382 265.024 200.893 276.757 200.893Z" fill="#CCEEFF"/>
<path d="M276.639 238.276C276.312 238.217 276.104 237.92 276.104 237.594V186.177C276.104 185.821 276.372 185.494 276.728 185.494C277.113 185.465 277.41 185.761 277.41 186.147V237.653C277.41 238.039 277.054 238.365 276.639 238.276Z" fill="#B6EAFF"/>
<path d="M276.757 190.449C276.579 190.449 276.43 190.39 276.282 190.271C276.015 190.004 276.015 189.589 276.282 189.351L282.097 183.536C282.364 183.269 282.779 183.269 283.017 183.536C283.284 183.803 283.284 184.219 283.017 184.456L277.231 190.271C277.083 190.39 276.935 190.449 276.757 190.449ZM276.757 195.849C276.579 195.849 276.43 195.79 276.282 195.671C276.015 195.404 276.015 194.989 276.282 194.751L282.097 188.936C282.364 188.669 282.779 188.669 283.017 188.936C283.284 189.203 283.284 189.618 283.017 189.856L277.231 195.671C277.083 195.79 276.935 195.849 276.757 195.849Z" fill="#B6EAFF"/>
<path d="M32.9034 203.445C51.0755 203.445 65.8069 188.713 65.8069 170.541C65.8069 152.369 51.0755 137.638 32.9034 137.638C14.7314 137.638 0 152.369 0 170.541C0 188.713 14.7314 203.445 32.9034 203.445Z" fill="#B0E1FF"/>
<path d="M32.9034 235.547C32.488 235.547 32.1616 235.22 32.1616 234.805V170.541C32.1616 170.126 32.488 169.799 32.9034 169.799C33.3187 169.799 33.6451 170.126 33.6451 170.541V234.775C33.6748 235.191 33.3187 235.547 32.9034 235.547Z" fill="#CCEEFF"/>
<path d="M32.9038 188.313C32.7258 188.313 32.5181 188.254 32.3698 188.105L23.1722 178.908C22.8755 178.611 22.8755 178.136 23.1722 177.84C23.4689 177.543 23.9436 177.543 24.2403 177.84L33.4379 187.067C33.7346 187.364 33.7346 187.838 33.4379 188.135C33.2895 188.254 33.1115 188.313 32.9038 188.313ZM32.9038 196.887C32.7258 196.887 32.5181 196.828 32.3698 196.68L23.1722 187.482C22.8755 187.186 22.8755 186.711 23.1722 186.414C23.4689 186.117 23.9436 186.117 24.2403 186.414L33.4379 195.612C33.7346 195.908 33.7346 196.383 33.4379 196.68C33.2895 196.798 33.1115 196.887 32.9038 196.887Z" fill="#CCEEFF"/>
<path d="M13.3217 232.045H285.895C290.197 232.045 293.668 235.517 293.668 239.819V249.55C293.668 253.852 290.197 257.324 285.895 257.324H13.3217C9.01967 257.324 5.54834 253.852 5.54834 249.55V239.819C5.54834 235.546 9.01967 232.045 13.3217 232.045Z" fill="#F2F2F2"/>
<path d="M198.073 101.144C223.078 101.144 243.349 80.8734 243.349 55.8684C243.349 30.8633 223.078 10.5928 198.073 10.5928C173.068 10.5928 152.798 30.8633 152.798 55.8684C152.798 80.8734 173.068 101.144 198.073 101.144Z" stroke="#FFBE55" stroke-miterlimit="10"/>
<path d="M191.012 108.205C200.358 112.774 197.628 121.527 197.628 121.527C197.628 121.527 192.406 129.063 183.031 124.494C173.685 119.925 163.746 104.971 163.746 104.971C163.746 104.971 181.666 103.636 191.012 108.205Z" fill="#2A94F4"/>
<path d="M191.012 108.205C200.358 112.774 197.628 121.527 197.628 121.527L163.746 104.971C163.746 104.971 181.666 103.636 191.012 108.205Z" fill="#CCE9FF"/>
<path d="M205.906 157.19C196.56 161.759 199.29 170.511 199.29 170.511C199.29 170.511 204.512 178.047 213.887 173.478C223.233 168.909 233.173 153.956 233.173 153.956C233.173 153.956 215.282 152.62 205.906 157.19Z" fill="#2A94F4"/>
<path d="M205.906 157.19C196.56 161.759 199.29 170.511 199.29 170.511L233.172 153.956C233.172 153.956 215.281 152.62 205.906 157.19ZM227.535 235.072C215.637 249.936 197.628 243.172 197.628 243.172C197.628 243.172 187.066 227.091 198.963 212.197C210.861 197.303 244.001 185.168 244.001 185.168C244.001 185.168 239.432 220.178 227.535 235.072Z" fill="#CCE9FF"/>
<path d="M227.535 235.072C215.638 249.936 197.628 243.172 197.628 243.172L244.002 185.168C244.002 185.168 239.433 220.178 227.535 235.072Z" fill="#2A94F4"/>
<path d="M168.82 235.072C180.717 249.936 198.726 243.172 198.726 243.172C198.726 243.172 209.289 227.091 197.391 212.197C185.494 197.332 152.353 185.168 152.353 185.168C152.353 185.168 156.922 220.178 168.82 235.072Z" fill="#CCE9FF"/>
<path d="M168.82 235.072C180.717 249.936 198.726 243.172 198.726 243.172L152.353 185.168C152.353 185.168 156.922 220.178 168.82 235.072Z" fill="#2A94F4"/>
<path d="M138.913 118.085L130.397 120.815L129.151 120.221L126.748 117.848L126.985 113.961L131.703 113.842L138.913 118.085Z" fill="#FCD2B1"/>
<path d="M110.549 68.2402C110.549 68.2402 107.641 101.826 131.673 113.842C130.694 114.999 126.659 116.839 126.659 116.839C126.659 116.839 103.131 102.568 103.962 86.7243C104.793 70.8808 110.549 68.2402 110.549 68.2402Z" fill="#1D87D6"/>
<path d="M65.0064 221.365C65.0064 221.365 68.1513 235.903 70.4655 242.46C70.7326 243.231 69.7535 243.854 69.1897 243.291C65.303 239.463 59.9032 231.719 58.123 229.939C55.8978 227.714 52.4858 223.56 52.4858 223.56L60.6449 216.38L66.0151 219.08L65.0064 221.365Z" fill="#0B4870"/>
<path d="M94.2006 232.045C94.2006 232.045 107.166 239.285 113.634 241.925C114.406 242.252 114.228 243.379 113.397 243.438C107.967 243.824 98.5621 242.756 96.0698 242.904C92.9545 243.112 87.5547 242.904 87.5547 242.904V232.045L93.1325 229.791L94.2006 232.045Z" fill="#083751"/>
<path d="M107.344 106.307C107.344 106.307 106.098 171.194 105.386 172.648C104.674 174.072 94.2006 232.075 94.2006 232.075H87.5547C87.5547 232.075 88.7415 171.461 91.3524 169.206C91.3524 163.865 89.5425 106.841 94.616 102.776C102.033 102.331 107.344 106.307 107.344 106.307Z" fill="#083751"/>
<path d="M84.8544 100.046C75.2711 107.107 73.3426 140.1 83.1039 165.586C76.7249 177.038 57.6475 222.462 57.6475 222.462L63.2847 225.844C63.2847 225.844 102.181 172.35 100.698 166.832C99.2144 161.313 102.033 102.301 102.033 102.301L84.8544 100.046Z" fill="#0B4870"/>
<path d="M112.358 60.7936C112.566 61.5947 112.833 62.3957 113.159 63.1672C115.236 68.0923 118.084 78.2689 117.876 79.9601C117.639 81.7996 111.141 88.0598 109.421 92.8366C107.7 97.6134 107.403 106.307 107.403 106.307L84.9136 100.046C84.9136 100.046 91.1738 84.6182 91.4112 77.6459C91.6485 70.6735 94.0518 56.2542 102.923 54.8004C109.688 53.6729 111.764 58.5387 112.358 60.7936Z" fill="#2A94F4"/>
<path d="M119.212 31.3615C119.628 30.3231 119.479 29.1363 118.827 28.2165C115.444 23.6178 109.362 21.0365 103.725 22.0453C97.4645 23.1727 92.213 28.5726 91.2636 34.8625C90.9076 37.2954 91.1153 39.7876 90.6109 42.1909C90.0175 45.0095 88.3857 47.6204 86.1011 49.3709C83.2529 51.5664 79.5739 52.3971 76.3992 54.118C73.1949 55.8685 70.5543 58.4794 68.2995 61.3573C66.0446 64.2353 64.0864 67.4692 63.4633 71.0889C62.8403 74.7086 63.7304 78.714 66.4303 81.1765C68.1511 82.749 70.3763 83.5501 72.5719 84.2918C76.9629 85.7753 81.5617 87.1104 86.1605 86.606C90.7592 86.1017 95.4173 83.3721 96.8415 78.9513C98.8293 72.7207 93.9339 66.1638 94.824 59.6958C95.447 55.3048 98.6513 51.6851 102.212 49.0445C105.772 46.4039 109.807 44.3864 113.189 41.5381C115.711 39.4316 118.114 34.0318 119.212 31.3615Z" fill="#0B4870"/>
<path d="M113.13 49.9941C112.003 52.3083 110.964 58.3905 111.943 60.9718C112.833 63.5233 112.507 63.9387 112.507 63.9387L102.627 55.8389L104.912 44.7129L113.13 49.9941Z" fill="#FCD2B1"/>
<path d="M121.17 40.648C121.17 46.3742 119.686 52.2191 114.939 52.2191C110.192 52.2191 103.961 46.3742 103.961 40.648C103.961 34.9218 107.818 30.2637 112.566 30.2637C117.313 30.2637 121.17 34.9218 121.17 40.648Z" fill="#FFE3CA"/>
<path d="M120.666 29.2254C122.357 29.077 123.515 30.8868 122.684 32.3406C121.052 35.2779 118.144 38.2152 111.38 37.3845C108.294 36.9988 103.369 37.3845 103.072 39.4613L100.699 33.8241C100.699 33.8241 101.292 30.2638 101.886 30.2638H108.353L120.666 29.2254Z" fill="#0B4870"/>
<path d="M107.819 36.791C106.929 38.5712 106.454 41.7458 105.267 42.3392C103.784 41.4788 101.944 36.9987 102.063 37.0284C102.182 37.0581 103.665 36.168 103.962 36.168C104.259 36.168 107.819 36.791 107.819 36.791Z" fill="#0B4870"/>
<path d="M105.594 45.1863C106.431 44.8101 106.619 43.4147 106.015 42.0696C105.41 40.7244 104.242 39.9389 103.405 40.315C102.568 40.6912 102.379 42.0866 102.984 43.4317C103.588 44.7769 104.757 45.5624 105.594 45.1863Z" fill="#FFE3CA"/>
<path d="M104.822 47.0563C105.674 47.0563 106.365 46.3656 106.365 45.5135C106.365 44.6614 105.674 43.9707 104.822 43.9707C103.97 43.9707 103.279 44.6614 103.279 45.5135C103.279 46.3656 103.97 47.0563 104.822 47.0563Z" fill="#FFBE55"/>
<path d="M129.121 152.146L110.697 135.857C110.044 135.294 109.985 134.285 110.548 133.632L121.971 119.539C122.535 118.886 123.544 118.827 124.196 119.391L143.778 136.688C144.431 137.252 144.49 138.26 143.927 138.913L131.347 151.997C130.753 152.65 129.774 152.709 129.121 152.146Z" fill="#2A94F4"/>
<path d="M147.25 157.397L130.397 149.594L134.759 144.55L148.644 153.777L148.852 153.926L147.25 157.397ZM140.485 120.34C142.562 122.12 143.244 125.413 142.384 129.627L140.841 137.252L123.662 122.387L131.258 119.747C135.174 118.352 138.438 118.56 140.485 120.34ZM141.464 119.213C139.091 117.165 135.352 116.72 130.753 118.322L120.755 121.823L141.82 140.011L143.867 129.894C144.846 124.998 143.867 121.289 141.464 119.213Z" fill="#2A94F4"/>
<path d="M147.249 157.398C146.181 155.41 147.279 154.342 148.644 153.778L148.851 153.926L147.249 157.398Z" fill="#2286D1"/>
<path d="M97.8497 62.9002C97.4343 76.3702 102.894 110.905 113.129 124.524C114.88 123.604 116.779 122.566 116.779 122.566C116.779 122.566 103.724 92.54 107.908 67.321C108.353 64.2057 107.908 61.9805 106.958 60.4377C104.466 56.2543 97.9981 58.0641 97.8497 62.9002Z" fill="#49B0FC"/>
<path d="M113.13 124.553C113.13 124.553 116.067 130.635 116.779 131.288C117.462 131.941 122.505 134.641 123.93 135.175C125.354 135.679 122.001 132.623 122.001 132.623C122.001 132.623 124.612 134.285 125.828 134.937C126.006 135.026 126.155 134.819 126.036 134.67C125.116 133.573 122.861 131.792 122.861 131.792C122.861 131.792 126.392 133.899 127.965 134.73C128.143 134.819 128.291 134.611 128.172 134.463C127.045 133.395 124.493 131.407 124.048 131.169C125.917 131.97 127.253 132.742 128.083 133.127C128.202 133.187 128.291 133.038 128.202 132.949C126.57 131.466 119.627 126.541 119.271 126.452C117.847 126.125 116.512 122.743 116.512 122.743L113.13 124.553Z" fill="#FCD2B1"/>
<path d="M130.397 120.815L129.151 120.221L129.003 120.014C129.003 120.014 132.356 116.602 133.216 116.216C133.78 115.979 136.153 116.898 137.666 117.521C138.111 117.699 138.082 118.352 137.607 118.501L130.397 120.815Z" fill="#FFE4D2"/>
<path d="M197.213 80.4644H198.934V243.528H197.213V80.4644Z" fill="#2A94F4"/>
<path d="M165.971 14.6574C162.322 14.6574 159.384 17.6244 159.384 21.244C159.384 17.5947 156.418 14.6574 152.798 14.6574C156.447 14.6574 159.384 11.6905 159.384 8.0708C159.355 11.6905 162.322 14.6574 165.971 14.6574Z" fill="#FFBE55"/>
<path d="M169.116 14.6572C163.716 14.6572 159.355 19.0187 159.355 24.4185C159.355 19.0187 154.994 14.6572 149.594 14.6572C154.994 14.6572 159.355 10.2958 159.355 4.896C159.355 10.2958 163.746 14.6572 169.116 14.6572Z" stroke="#FFBE55" stroke-miterlimit="10"/>
<path d="M252.339 68.2406C250.232 68.2406 248.512 69.9614 248.512 72.0382C248.512 69.9317 246.791 68.2406 244.714 68.2406C246.82 68.2406 248.512 66.5197 248.512 64.4429C248.512 66.5197 250.232 68.2406 252.339 68.2406Z" fill="#FFBE55"/>
<path d="M254.149 68.2407C251.034 68.2407 248.512 70.7626 248.512 73.8779C248.512 70.7626 245.99 68.2407 242.875 68.2407C245.99 68.2407 248.512 65.7188 248.512 62.6035C248.512 65.7188 251.034 68.2407 254.149 68.2407Z" stroke="#FFBE55" stroke-width="0.75" stroke-miterlimit="10"/>
<path d="M151.136 155.587L192.347 174.962M148.852 159.385L175.554 210.357M157.218 164.37L192.347 210.357M165.348 167.722L193.296 188.847" stroke="#CCE9FF" stroke-miterlimit="10" stroke-dasharray="12 12"/>
<path d="M191.428 85.9829H204.571V92.5399C204.571 96.1595 201.634 99.0968 198.014 99.0968C194.395 99.0968 191.457 96.1595 191.457 92.5399V85.9829H191.428Z" fill="#0E538C"/>
<path d="M198.074 92.7175C218.425 92.7175 234.923 76.2194 234.923 55.868C234.923 35.5166 218.425 19.0186 198.074 19.0186C177.722 19.0186 161.224 35.5166 161.224 55.868C161.224 76.2194 177.722 92.7175 198.074 92.7175Z" fill="#FFBE55"/>
<path d="M198.074 83.5202C213.346 83.5202 225.726 71.14 225.726 55.8682C225.726 40.5965 213.346 28.2163 198.074 28.2163C182.802 28.2163 170.422 40.5965 170.422 55.8682C170.422 71.14 182.802 83.5202 198.074 83.5202Z" stroke="#F7F7F7" stroke-miterlimit="10"/>
<path d="M199.438 44.1491C201.93 44.6238 203.414 46.493 203.414 49.46V49.9347L199.972 50.261V49.727C199.972 48.0655 199.379 47.2941 198.073 47.2941C197.005 47.2941 196.263 47.9468 196.263 49.2819V49.727C196.263 51.0324 196.975 52.1302 199.29 54.2367C202.464 57.174 203.562 59.0729 203.562 61.6244V62.1882C203.562 65.1551 201.96 66.965 199.438 67.41V69.8726H196.619V67.41C194.127 66.8759 192.555 65.0068 192.555 62.0992V60.764L195.996 60.4377V61.8618C195.996 63.5233 196.679 64.2947 198.073 64.2947C199.112 64.2947 200.031 63.642 200.031 62.3068V61.8025C200.031 60.497 199.319 59.3992 197.005 57.2927C193.83 54.3554 192.733 52.4566 192.733 49.905V49.4006C192.733 46.4633 194.187 44.6535 196.649 44.1788V42.0723H199.468V44.1491H199.438Z" fill="#F7F7F7"/>
</svg>
