<svg width="21" height="18" viewBox="0 0 21 18" fill="none" xmlns="http://www.w3.org/2000/svg">
<path d="M5.49475 9.28439C6.52079 9.28439 7.526 9.28439 8.526 9.28439C8.526 8.86349 8.526 8.458 8.526 8.04224C7.51038 8.04224 6.51038 8.04224 5.49475 8.04224C5.49475 8.46313 5.49475 8.87376 5.49475 9.28439Z" fill="white"/>
<path d="M13.4635 9.28951C14.4843 9.28951 15.4895 9.28951 16.4948 9.28951C16.4948 8.86861 16.4948 8.45799 16.4948 8.05249C15.4739 8.05249 14.4739 8.05249 13.4635 8.05249C13.4635 8.46825 13.4635 8.86861 13.4635 9.28951Z" fill="white"/>
<path d="M8.52083 12.169C8.52083 11.7481 8.52083 11.3324 8.52083 10.932C7.5 10.932 6.49479 10.932 5.5 10.932C5.5 11.3529 5.5 11.7635 5.5 12.169C6.51562 12.169 7.51562 12.169 8.52083 12.169Z" fill="white"/>
<path d="M13.4688 12.169C14.4844 12.169 15.4896 12.169 16.5 12.169C16.5 11.7481 16.5 11.3426 16.5 10.9269C15.4844 10.9269 14.4792 10.9269 13.4688 10.9269C13.4687 11.3426 13.4688 11.7533 13.4688 12.169Z" fill="white"/>
<path d="M5.49475 6.40998C6.52079 6.40998 7.52079 6.40998 8.52079 6.40998C8.52079 5.98908 8.52079 5.58359 8.52079 5.18323C7.50517 5.18323 6.49996 5.18323 5.49475 5.18323C5.49475 5.59899 5.49475 5.99935 5.49475 6.40998Z" fill="white"/>
<path d="M5.49475 15.0331C6.52079 15.0331 7.52079 15.0331 8.52079 15.0331C8.52079 14.6123 8.52079 14.2068 8.52079 13.8064C7.50517 13.8064 6.49996 13.8064 5.49475 13.8064C5.49475 14.2222 5.49475 14.6225 5.49475 15.0331Z" fill="white"/>
<path d="M13.4739 13.7961C13.4739 14.2119 13.4739 14.6225 13.4739 15.0332C14.4895 15.0332 15.4895 15.0332 16.4999 15.0332C16.4999 14.6123 16.4999 14.2068 16.4999 13.7961C15.4843 13.7961 14.4895 13.7961 13.4739 13.7961Z" fill="white"/>
<path d="M18.3698 14.5096C18.3698 14.9049 18.3698 15.2898 18.3698 15.6697C18.7968 15.6697 19.2083 15.6697 19.625 15.6697C19.625 15.2744 19.625 14.8946 19.625 14.5096C19.2031 14.5096 18.7968 14.5096 18.3698 14.5096Z" fill="white"/>
<path d="M0.999959 16.727C1.44788 16.727 1.89579 16.727 2.35933 16.727C2.35933 16.6295 2.35933 16.5474 2.35933 16.4652C2.35933 12.282 2.35933 8.09868 2.35933 3.9154C2.35933 3.38159 2.48433 3.2276 3.00517 3.08902C5.57288 2.40635 8.14059 1.73908 10.7031 1.03587C11.2604 0.881889 11.6979 1.21039 11.6718 1.76987C11.6406 2.45767 11.6614 3.15061 11.6614 3.85894C11.2343 3.85894 10.8229 3.85894 10.3854 3.85894C10.3854 3.40212 10.3854 2.93503 10.3854 2.44228C10.0989 2.51414 9.8385 2.58086 9.57809 2.64759C7.66142 3.16088 5.73954 3.66903 3.82288 4.17718C3.68225 4.21311 3.64058 4.26957 3.64058 4.41329C3.64579 8.45284 3.64579 12.4975 3.64579 16.5371C3.64579 16.5935 3.64579 16.65 3.64579 16.7219C5.89059 16.7219 8.11975 16.7219 10.3802 16.7219C10.3802 16.6449 10.3802 16.5628 10.3802 16.4858C10.3802 12.9646 10.3802 9.44349 10.3802 5.92235C10.3802 5.37827 10.6093 5.14729 11.1614 5.14729C13.75 5.14729 16.3437 5.14216 18.9323 5.14216C19.3802 5.14216 19.6354 5.38853 19.6354 5.82996C19.6354 8.27833 19.6354 10.7318 19.6354 13.1802C19.6354 13.2367 19.6302 13.2931 19.625 13.3599C19.2031 13.3599 18.7916 13.3599 18.3541 13.3599C18.3541 11.0398 18.3541 8.73515 18.3541 6.4151C16.1145 6.4151 13.901 6.4151 11.6718 6.4151C11.6718 9.84898 11.6718 13.2777 11.6718 16.7167C11.7031 16.7219 11.7395 16.7321 11.776 16.7321C14.8489 16.7321 17.9218 16.7321 20.9948 16.7321C20.9948 17.153 20.9948 17.5791 20.9948 17.9999C14.3281 17.9999 7.66142 17.9999 0.994751 17.9999C0.999959 17.5739 0.999959 17.153 0.999959 16.727Z" fill="#9C9FA2"/>
<path d="M5.49475 9.28439C5.49475 8.86863 5.49475 8.46313 5.49475 8.04224C6.50517 8.04224 7.51038 8.04224 8.526 8.04224C8.526 8.45286 8.526 8.86349 8.526 9.28439C7.526 9.28439 6.52079 9.28439 5.49475 9.28439Z" fill="#9C9FA2"/>
<path d="M13.4635 9.28951C13.4635 8.86861 13.4635 8.46825 13.4635 8.05249C14.4687 8.05249 15.4739 8.05249 16.4948 8.05249C16.4948 8.45799 16.4948 8.86861 16.4948 9.28951C15.4895 9.28951 14.4895 9.28951 13.4635 9.28951Z" fill="#9C9FA2"/>
<path d="M8.52083 12.169C7.51562 12.169 6.51562 12.169 5.5 12.169C5.5 11.7584 5.5 11.3529 5.5 10.932C6.49479 10.932 7.5 10.932 8.52083 10.932C8.52083 11.3324 8.52083 11.7481 8.52083 12.169Z" fill="#9C9FA2"/>
<path d="M13.4688 12.169C13.4688 11.7533 13.4688 11.3478 13.4688 10.9269C14.4792 10.9269 15.4844 10.9269 16.5 10.9269C16.5 11.3426 16.5 11.7481 16.5 12.169C15.4896 12.169 14.4844 12.169 13.4688 12.169Z" fill="#9C9FA2"/>
<path d="M5.49475 6.40998C5.49475 5.99935 5.49475 5.59899 5.49475 5.18323C6.49996 5.18323 7.50517 5.18323 8.52079 5.18323C8.52079 5.58359 8.52079 5.98908 8.52079 6.40998C7.52079 6.40998 6.52079 6.40998 5.49475 6.40998Z" fill="#9C9FA2"/>
<path d="M5.49475 15.0331C5.49475 14.6225 5.49475 14.2222 5.49475 13.8064C6.49996 13.8064 7.50517 13.8064 8.52079 13.8064C8.52079 14.2068 8.52079 14.6123 8.52079 15.0331C7.52079 15.0331 6.52079 15.0331 5.49475 15.0331Z" fill="#9C9FA2"/>
<path d="M13.4739 13.7961C14.4843 13.7961 15.4843 13.7961 16.4999 13.7961C16.4999 14.2119 16.4999 14.6174 16.4999 15.0332C15.4947 15.0332 14.4895 15.0332 13.4739 15.0332C13.4739 14.6225 13.4739 14.2119 13.4739 13.7961Z" fill="#9C9FA2"/>
<path d="M18.3698 14.5096C18.7968 14.5096 19.2031 14.5096 19.625 14.5096C19.625 14.8997 19.625 15.2796 19.625 15.6697C19.2083 15.6697 18.7968 15.6697 18.3698 15.6697C18.3698 15.2847 18.3698 14.9049 18.3698 14.5096Z" fill="#9C9FA2"/>
</svg>
