<svg width="85" height="82" viewBox="0 0 85 82" fill="none" xmlns="http://www.w3.org/2000/svg">
<g filter="url(#filter0_d_2118_281)">
<rect x="4" y="1" width="76.1143" height="74" rx="12" fill="#F4F4F4"/>
</g>
<path d="M20.0115 42.4687C20.2521 42.0562 20.6073 41.9302 21.0771 41.9302C35.0333 41.9416 48.9781 41.9416 62.9344 41.9302C63.4156 41.9302 63.7708 42.0562 64 42.4687C64 45.2416 64 48.026 64 50.7989C63.7823 51.2114 63.45 51.3489 62.9802 51.3489C48.9896 51.3375 35.0104 51.3375 21.0198 51.3489C20.55 51.3489 20.2177 51.2114 20 50.7989C20.0115 48.026 20.0115 45.2416 20.0115 42.4687ZM34.7927 46.6395C35.2396 46.3416 35.6521 46.0781 36.0417 45.8031C36.5229 45.4708 36.6375 45.0354 36.374 44.6343C36.1104 44.2333 35.6521 44.1875 35.1708 44.4968C34.85 44.7031 34.5406 44.9093 34.1625 45.1614C34.1625 44.8291 34.174 44.5885 34.1625 44.3479C34.1396 43.8323 33.8187 43.5 33.3719 43.5C32.925 43.5 32.6042 43.8323 32.5812 44.3479C32.5698 44.6 32.5812 44.8406 32.5812 45.0927C32.501 45.0927 32.4896 45.0927 32.4781 45.0927C32.1687 44.8864 31.8594 44.6802 31.55 44.4854C31.0917 44.1989 30.6333 44.2562 30.3812 44.6458C30.1177 45.0354 30.2323 45.4823 30.6792 45.7916C31.0917 46.0781 31.5042 46.3531 31.974 46.6625C31.5271 46.9604 31.1146 47.2354 30.7021 47.5104C30.2437 47.8198 30.1177 48.2552 30.3698 48.6448C30.6333 49.0573 31.0917 49.126 31.5729 48.8166C31.8937 48.6104 32.2031 48.3927 32.5698 48.152C32.6729 48.8166 32.3635 49.7448 33.3719 49.7677C34.426 49.7906 34.0937 48.8281 34.2312 48.1635C34.5865 48.3927 34.8958 48.6104 35.2281 48.8166C35.6979 49.1145 36.1333 49.0573 36.3969 48.6677C36.6719 48.2666 36.5573 47.8312 36.0875 47.4989C35.6521 47.2125 35.2396 46.9375 34.7927 46.6395ZM49.8146 48.1406C49.9521 48.8052 49.6083 49.7562 50.6625 49.7448C51.6708 49.7218 51.3615 48.8052 51.4646 48.1979C51.5104 48.1979 51.5448 48.1864 51.5677 48.1979C51.8542 48.3812 52.1406 48.576 52.4271 48.7593C52.9427 49.0916 53.401 49.0343 53.6646 48.6218C53.9167 48.2208 53.7906 47.7854 53.2979 47.4531C52.8969 47.1781 52.4958 46.9145 52.0604 46.6281C52.301 46.4562 52.5073 46.3302 52.7021 46.1927C52.9198 46.0552 53.1375 45.9177 53.3437 45.7687C53.7792 45.4593 53.8937 45.001 53.6417 44.6229C53.3781 44.2333 52.9312 44.176 52.4729 44.4625C52.1406 44.6687 51.8198 44.8979 51.4302 45.15C51.4302 44.8291 51.4417 44.5885 51.4302 44.3479C51.4073 43.8323 51.0979 43.5 50.651 43.5C50.2042 43.5 49.8833 43.8208 49.8604 44.3364C49.849 44.5885 49.8604 44.8291 49.8604 45.1614C49.4594 44.8864 49.15 44.6573 48.8177 44.4739C48.6115 44.3708 48.325 44.2448 48.1531 44.3135C47.9125 44.4166 47.6604 44.6573 47.5573 44.8979C47.4198 45.2073 47.6031 45.5166 47.8781 45.7114C48.3135 46.0208 48.7604 46.3073 49.2302 46.6281C48.7719 46.926 48.3708 47.201 47.9698 47.476C47.4885 47.8083 47.374 48.2437 47.649 48.6448C47.9125 49.0343 48.3594 49.0916 48.8177 48.7937C49.15 48.5989 49.4594 48.3812 49.8146 48.1406ZM23.3115 46.6395C22.8531 46.9375 22.4521 47.2125 22.051 47.4875C21.5698 47.8083 21.4552 48.2552 21.7302 48.6562C22.0052 49.0573 22.4406 49.1031 22.9333 48.7823C23.2542 48.576 23.5635 48.3583 23.9531 48.1062C23.9531 48.4385 23.9531 48.6791 23.9531 48.9198C23.9646 49.4468 24.2625 49.7677 24.7094 49.7791C25.1792 49.7906 25.5 49.4468 25.5115 48.9198C25.5229 48.6791 25.5115 48.427 25.5115 48.1177C25.901 48.3812 26.2104 48.5875 26.5198 48.7937C27.0125 49.1145 27.4594 49.0573 27.7229 48.6562C27.9865 48.2666 27.849 47.8083 27.3906 47.4875C26.9896 47.2125 26.5885 46.9489 26.1417 46.651C26.6 46.3531 27.0125 46.0781 27.425 45.7916C27.8604 45.4937 27.9865 45.0239 27.7344 44.6458C27.4708 44.2562 27.024 44.1875 26.5656 44.4739C26.2333 44.6916 25.9125 44.9093 25.5115 45.1729C25.5115 44.8291 25.5229 44.5656 25.5115 44.2906C25.4885 43.8208 25.1562 43.5 24.7208 43.5C24.2854 43.5 23.976 43.8323 23.9531 44.3135C23.9417 44.5771 23.9531 44.8406 23.9531 45.1729C23.5292 44.8979 23.2083 44.6687 22.8646 44.4625C22.4292 44.1875 21.9823 44.2562 21.7302 44.6343C21.4552 45.0239 21.5583 45.4708 22.0052 45.7802C22.4177 46.0552 22.8417 46.3187 23.3115 46.6395ZM43.4323 46.6395C43.6729 46.4791 43.8792 46.3416 44.074 46.2041C44.2917 46.0666 44.5094 45.9291 44.7156 45.7802C45.151 45.4708 45.2656 45.0125 45.0021 44.6343C44.7385 44.2448 44.2917 44.1875 43.8333 44.4854C43.501 44.7031 43.1802 44.9208 42.7792 45.1843C42.7792 44.8406 42.7906 44.5885 42.7792 44.3364C42.7562 43.8437 42.4354 43.5 41.9771 43.5114C41.5417 43.5229 41.2323 43.8552 41.2208 44.3364C41.2094 44.6 41.2208 44.852 41.2208 45.1843C40.9802 45.0239 40.8312 44.9208 40.6708 44.8177C40.499 44.7031 40.3385 44.5885 40.1667 44.4854C39.7083 44.1989 39.2615 44.2562 38.9979 44.6458C38.7344 45.0239 38.849 45.4823 39.2844 45.7916C39.6969 46.0781 40.1094 46.3531 40.5677 46.6625C40.1323 46.9489 39.7312 47.2239 39.3302 47.4875C38.849 47.8083 38.7229 48.2552 38.975 48.6448C39.25 49.0687 39.6854 49.1145 40.2125 48.7823C40.5333 48.576 40.8427 48.3698 41.2094 48.1291C41.2094 48.4843 41.1979 48.7364 41.2094 49C41.2323 49.4812 41.5417 49.7906 41.9885 49.7906C42.424 49.7906 42.7448 49.4698 42.7677 48.9885C42.7792 48.725 42.7677 48.4614 42.7677 48.1177C43.1687 48.3812 43.4781 48.5989 43.799 48.8052C44.2802 49.1145 44.7385 49.0458 45.0021 48.6448C45.2427 48.2552 45.1281 47.8083 44.6812 47.4989C44.3031 47.2125 43.8906 46.9489 43.4323 46.6395ZM59.2677 49.7791C60.024 49.7791 60.7802 49.7791 61.5365 49.7791C62.075 49.7791 62.4187 49.4583 62.4187 49C62.4187 48.5416 62.0635 48.2208 61.525 48.2208C60.024 48.2208 58.5229 48.2208 57.0219 48.2208C56.4719 48.2208 56.1396 48.5187 56.151 49C56.151 49.4812 56.4833 49.7677 57.0333 49.7791C57.7896 49.7791 58.5344 49.7791 59.2677 49.7791Z" fill="#00A2FF"/>
<path d="M55.8416 60C46.6176 60 37.3937 60 28.1697 60C28.0666 59.9542 27.9749 59.9083 27.8718 59.8625C26.9322 59.4958 26.3479 58.7969 26.3135 57.8C26.2562 56.2073 26.302 54.6261 26.302 53.0334C26.302 53.0104 26.3364 52.9875 26.3479 52.9646C36.7979 52.9646 47.2364 52.9646 57.7093 52.9646C57.7093 54.6261 57.7437 56.2531 57.6979 57.8802C57.6749 58.6136 57.2739 59.2094 56.6437 59.6104C56.3916 59.7708 56.1051 59.8625 55.8416 60Z" fill="#00A2FF"/>
<path d="M42.9509 16C43.8675 16.1948 44.8071 16.3323 45.7009 16.6073C50.3873 18.0854 53.7102 22.5885 53.7675 27.4927C53.7904 28.8792 53.7675 30.2656 53.7675 31.6865C52.7363 31.6865 51.7279 31.6865 50.6623 31.6865C50.6509 31.526 50.6394 31.3656 50.6394 31.2052C50.6279 29.8187 50.6623 28.4208 50.5821 27.0458C50.3644 23.2302 47.2248 19.8385 43.4436 19.2771C38.5279 18.5323 34.1852 21.6604 33.4634 26.5875C33.2571 28.0198 33.3717 29.4979 33.3488 30.9646C33.3488 31.2052 33.3488 31.4458 33.3488 31.7094C32.2946 31.7094 31.2863 31.7094 30.2779 31.7094C30.255 31.6865 30.2321 31.6635 30.2321 31.6406C30.2665 29.3948 30.0259 27.149 30.5644 24.926C31.7102 20.2281 35.8811 16.5729 40.6821 16.0917C40.8082 16.0802 40.9342 16.0458 41.0602 16.0115C41.6904 16 42.3207 16 42.9509 16Z" fill="#00A2FF"/>
<path d="M26.3137 40.3031C26.3022 40.1771 26.2907 40.0511 26.2907 39.925C26.2907 38.5386 26.2793 37.1521 26.2907 35.7542C26.3022 34.276 27.2991 33.2792 28.7772 33.2792C37.6001 33.2792 46.4116 33.2792 55.2345 33.2792C56.7126 33.2792 57.7095 34.2875 57.7209 35.7656C57.7324 37.2667 57.7209 38.7677 57.7209 40.3146C47.248 40.3031 36.798 40.3031 26.3137 40.3031ZM29.4418 36.4302C29.9689 36.4302 30.4616 36.4417 30.9428 36.4302C31.4584 36.4073 31.7793 36.0979 31.7907 35.6511C31.7907 35.1927 31.4814 34.8719 30.9657 34.8604C30.2209 34.8375 29.4762 34.8375 28.7314 34.8604C28.1699 34.8719 27.8834 35.1698 27.872 35.7198C27.8605 36.4531 27.8605 37.175 27.872 37.9083C27.8834 38.4583 28.1928 38.7792 28.6741 38.7792C29.1439 38.7677 29.4418 38.4354 29.4532 37.8854C29.4532 37.4271 29.4418 36.9688 29.4418 36.4302Z" fill="#00A2FF"/>
<defs>
<filter id="filter0_d_2118_281" x="0" y="0" width="84.1143" height="82" filterUnits="userSpaceOnUse" color-interpolation-filters="sRGB">
<feFlood flood-opacity="0" result="BackgroundImageFix"/>
<feColorMatrix in="SourceAlpha" type="matrix" values="0 0 0 0 0 0 0 0 0 0 0 0 0 0 0 0 0 0 127 0" result="hardAlpha"/>
<feMorphology radius="1" operator="erode" in="SourceAlpha" result="effect1_dropShadow_2118_281"/>
<feOffset dy="3"/>
<feGaussianBlur stdDeviation="2.5"/>
<feComposite in2="hardAlpha" operator="out"/>
<feColorMatrix type="matrix" values="0 0 0 0 0 0 0 0 0 0 0 0 0 0 0 0 0 0 0.25 0"/>
<feBlend mode="normal" in2="BackgroundImageFix" result="effect1_dropShadow_2118_281"/>
<feBlend mode="normal" in="SourceGraphic" in2="effect1_dropShadow_2118_281" result="shape"/>
</filter>
</defs>
</svg>
