<svg width="14" height="10" viewBox="0 0 14 10" fill="none" xmlns="http://www.w3.org/2000/svg">
<path d="M13.8001 7.82113C13.7498 7.88221 13.757 7.96125 13.7354 8.0331C13.5091 8.84868 12.7941 9.40557 11.9426 9.41994C11.7629 9.42353 11.5833 9.41994 11.4037 9.41994C11.1126 9.41635 10.9438 9.25107 10.9438 8.96006C10.9438 7.58041 10.951 6.20435 10.9402 4.8247C10.9258 2.89895 9.47789 1.22828 7.57729 0.919295C5.48266 0.581569 3.52816 1.84625 2.98564 3.89416C2.89223 4.24267 2.8563 4.59836 2.8563 4.96123C2.8599 6.27621 2.8563 7.59119 2.8563 8.90976C2.8563 9.24389 2.7557 9.3876 2.42157 9.42353C1.4012 9.5385 0.513775 9.17922 0.125749 8.20915C0.0754495 8.0834 0.043114 7.95047 0 7.82113C0 7.24627 0 6.67142 0 6.09657C0.0502997 6.0786 0.0359283 6.0283 0.043114 5.99238C0.244313 5.20554 0.747309 4.72051 1.53773 4.54806C1.68863 4.51572 1.84672 4.51572 2.00121 4.50135C2.17366 2.11212 4.1605 0.157614 6.57848 0.0103081C7.70303 -0.0579558 8.74136 0.211507 9.66831 0.858217C10.9366 1.74205 11.6336 2.9708 11.7989 4.51213C11.8528 4.51213 11.8959 4.51213 11.939 4.51213C12.7869 4.53009 13.5055 5.08698 13.7318 5.90255C13.7534 5.978 13.7462 6.06064 13.7965 6.12531C13.8001 6.68938 13.8001 7.25705 13.8001 7.82113Z" fill="#00A2FF"/>
</svg>
