<svg width="45" height="44" viewBox="0 0 45 44" fill="none" xmlns="http://www.w3.org/2000/svg">
<g filter="url(#filter0_d_1506_601)">
<rect x="4.11426" y="1.38409" width="37.5363" height="36.7543" rx="3.91003" fill="#F4F4F4"/>
</g>
<g clip-path="url(#clip0_1506_601)">
<path d="M33.0485 16.7302C33.0485 19.9213 33.0485 23.1178 33.0485 26.3089C33.0432 26.3197 33.0273 26.3306 33.0273 26.3415C32.7573 27.4451 32.106 27.9724 30.9941 27.9724C28.262 27.9724 25.5298 27.9724 22.7977 27.9724C20.0973 27.9724 17.3969 27.9724 14.7019 27.9724C14.1618 27.9724 13.6906 27.8093 13.2934 27.4233C12.9705 27.1189 12.8116 26.7275 12.7163 26.3089C12.7163 23.1178 12.7163 19.9213 12.7163 16.7302C12.7481 16.741 12.7798 16.7519 12.8063 16.7682C15.5543 18.6492 18.2971 20.5247 21.0398 22.4056C22.2682 23.2483 23.4913 23.2483 24.725 22.4056C27.1818 20.7258 29.6333 19.046 32.0848 17.3662C32.4025 17.1542 32.7255 16.9422 33.0485 16.7302Z" fill="#00A2FF"/>
<path d="M12.7163 14.5285C12.7163 14.3545 12.7163 14.1751 12.7163 14.0011C12.7481 13.887 12.7798 13.7674 12.8169 13.6532C13.0869 12.8215 13.7912 12.3322 14.7125 12.3322C20.1556 12.3322 25.6039 12.3322 31.047 12.3322C31.1053 12.3322 31.1688 12.3322 31.2271 12.3377C32.0372 12.3811 32.699 12.8867 32.9479 13.6532C32.985 13.7674 33.0114 13.887 33.0485 14.0011C33.0485 14.1751 33.0485 14.3545 33.0485 14.5285C32.9214 15.0667 32.662 15.5124 32.2013 15.8277C29.4586 17.6978 26.7212 19.5788 23.9784 21.4488C23.2477 21.949 22.5012 21.9381 21.7705 21.438C19.0331 19.5625 16.3009 17.6924 13.5688 15.8223C13.1346 15.5233 12.8487 15.1265 12.7481 14.5991C12.7428 14.572 12.7269 14.5502 12.7163 14.5285Z" fill="#00A2FF"/>
</g>
<defs>
<filter id="filter0_d_1506_601" x="0.98623" y="0.602087" width="43.7924" height="43.0104" filterUnits="userSpaceOnUse" color-interpolation-filters="sRGB">
<feFlood flood-opacity="0" result="BackgroundImageFix"/>
<feColorMatrix in="SourceAlpha" type="matrix" values="0 0 0 0 0 0 0 0 0 0 0 0 0 0 0 0 0 0 127 0" result="hardAlpha"/>
<feMorphology radius="0.782007" operator="erode" in="SourceAlpha" result="effect1_dropShadow_1506_601"/>
<feOffset dy="2.34602"/>
<feGaussianBlur stdDeviation="1.95502"/>
<feComposite in2="hardAlpha" operator="out"/>
<feColorMatrix type="matrix" values="0 0 0 0 0 0 0 0 0 0 0 0 0 0 0 0 0 0 0.25 0"/>
<feBlend mode="normal" in2="BackgroundImageFix" result="effect1_dropShadow_1506_601"/>
<feBlend mode="normal" in="SourceGraphic" in2="effect1_dropShadow_1506_601" result="shape"/>
</filter>
<clipPath id="clip0_1506_601">
<rect width="20.3322" height="15.6401" fill="white" transform="translate(12.7163 12.3322)"/>
</clipPath>
</defs>
</svg>
