<svg width="13" height="13" viewBox="0 0 13 13" fill="none" xmlns="http://www.w3.org/2000/svg">
<path d="M0.507324 6.5C0.507324 2.90977 3.1485 0 6.40732 0C9.66615 0 12.3073 2.90977 12.3073 6.5C12.3073 10.0902 9.66615 13 6.40732 13C3.1485 13 0.507324 10.0902 0.507324 6.5ZM9.07615 5.37773C9.32736 5.10098 9.32736 4.64902 9.07615 4.37227C8.82494 4.09551 8.41471 4.09551 8.1635 4.37227L6.6885 5.99726C6.14255 6.59873 5.19709 6.59873 4.65115 5.99727C4.39994 5.72051 3.98971 5.72051 3.7385 5.99727C3.48729 6.27402 3.48729 6.72598 3.7385 7.00273L5.2135 8.62773C5.46471 8.90449 5.87494 8.90449 6.12615 8.62773L9.07615 5.37773Z" fill="#00A2FF"/>
</svg>
