<svg width="24" height="24" viewBox="0 0 24 24" fill="none" xmlns="http://www.w3.org/2000/svg">
<path fill-rule="evenodd" clip-rule="evenodd" d="M6 6C2.68636 9.31364 2.68636 14.6864 6 18C9.31364 21.3136 14.6864 21.3136 18 18C21.3136 14.6864 21.3136 9.31364 18 6C14.6864 2.68636 9.31364 2.68636 6 6ZM14.7273 13.6364C14.8719 13.781 14.9532 13.9772 14.9532 14.1818C14.9532 14.3864 14.8719 14.5826 14.7273 14.7273C14.5826 14.8719 14.3864 14.9532 14.1818 14.9532C13.9772 14.9532 13.781 14.8719 13.6364 14.7273L12 13.0909L10.3636 14.7273C10.219 14.8719 10.0228 14.9532 9.81818 14.9532C9.6136 14.9532 9.41739 14.8719 9.27273 14.7273C9.12806 14.5826 9.04679 14.3864 9.04679 14.1818C9.04679 13.9772 9.12806 13.781 9.27273 13.6364L10.9091 12L9.27273 10.3636C9.12806 10.219 9.04679 10.0228 9.04679 9.81818C9.04679 9.6136 9.12806 9.41739 9.27273 9.27273C9.41739 9.12806 9.6136 9.04679 9.81818 9.04679C10.0228 9.04679 10.219 9.12806 10.3636 9.27273L12 10.9091L13.6364 9.27273C13.781 9.12806 13.9772 9.04679 14.1818 9.04679C14.3864 9.04679 14.5826 9.12806 14.7273 9.27273C14.8719 9.41739 14.9532 9.6136 14.9532 9.81818C14.9532 10.0228 14.8719 10.219 14.7273 10.3636L13.0909 12L14.7273 13.6364Z" fill="#C4C4C4" fill-opacity="0.32"/>
</svg>
