<svg width="18" height="17" viewBox="0 0 18 17" fill="none" xmlns="http://www.w3.org/2000/svg">
<path d="M16.2851 0H1.76808C0.810917 0 0.0531616 0.753823 0.0531616 1.67661V3.87309H18V1.67661C18 0.753823 17.2289 0 16.2851 0Z" fill="#FCFCFC"/>
<path d="M2.69867 9.1628H1.92762C0.864106 9.1628 0 8.318 0 7.27824V5.19873H2.69867V9.1628Z" fill="#FCFCFC"/>
<path d="M15.3013 9.1628H16.0724C17.1359 9.1628 18 8.318 18 7.27824V5.19873H15.3013V9.1628V9.1628Z" fill="#FCFCFC"/>
<path d="M3.935 5.19873V15.3104C3.935 16.2461 4.70605 17 5.66321 17H12.3767C13.3338 17 14.1049 16.2461 14.1049 15.3104V5.19873H3.935ZM9.71786 13.7117C9.62481 13.7377 9.54504 13.7507 9.45199 13.7767V14.0237C9.45199 14.1536 9.45199 14.2836 9.45199 14.4006C9.45199 14.4785 9.43869 14.5305 9.37222 14.5695H8.7607C8.68094 14.5305 8.66764 14.4785 8.66764 14.4006C8.66764 14.2056 8.66764 14.0107 8.66764 13.8157C8.66764 13.7767 8.65435 13.7507 8.61447 13.7507C8.13589 13.6727 7.69718 13.4778 7.32495 13.1659C7.15213 13.0359 7.15213 12.9969 7.28507 12.8279C7.37813 12.698 7.48448 12.581 7.57754 12.451C7.6573 12.3341 7.72377 12.2951 7.87001 12.412C8.13588 12.633 8.42835 12.7889 8.77399 12.8539C9.05317 12.9059 9.33234 12.9059 9.58493 12.763C9.99704 12.529 10.0103 12.0351 9.58493 11.8012C9.33234 11.6712 9.06646 11.5542 8.80058 11.4503C8.48153 11.3203 8.14918 11.1773 7.87001 10.9824C7.13884 10.4495 7.13884 9.47472 7.71048 8.92885C7.96306 8.68191 8.26882 8.52595 8.61447 8.44797C8.64106 8.44797 8.66764 8.43497 8.70752 8.42197V8.09705C8.70752 7.99307 8.70752 7.8761 8.70752 7.75913C8.70752 7.68115 8.73411 7.62916 8.80058 7.59017H9.4121C9.47857 7.62916 9.49187 7.69414 9.49187 7.75913C9.49187 7.94109 9.49187 8.13604 9.49187 8.318V8.38298C9.58493 8.39598 9.67798 8.40898 9.77104 8.43497C10.0901 8.51295 10.3959 8.62992 10.6484 8.83787C10.675 8.85087 10.6883 8.87687 10.7149 8.88986C10.7814 8.95485 10.7947 8.99384 10.7415 9.07182C10.6484 9.24078 10.5421 9.42274 10.449 9.5917C10.3826 9.69567 10.3161 9.70867 10.2097 9.63069C10.0502 9.50072 9.87739 9.39674 9.67798 9.33176C9.34563 9.21479 9.02658 9.18879 8.69423 9.30576C8.42835 9.40974 8.28212 9.60469 8.29541 9.86463C8.30871 9.9946 8.36188 10.0986 8.46823 10.1766C8.58788 10.2805 8.72082 10.3715 8.86705 10.4235C9.11964 10.5275 9.37222 10.6185 9.62481 10.7224C9.91727 10.8394 10.1964 10.9694 10.449 11.1773C10.7681 11.4373 10.901 11.7752 10.901 12.1781C10.8744 12.9709 10.356 13.5298 9.71786 13.7117Z" fill="#FCFCFC"/>
</svg>
