<svg width="6" height="22" viewBox="0 0 6 22" fill="none" xmlns="http://www.w3.org/2000/svg">
<path fill-rule="evenodd" clip-rule="evenodd" d="M2.99998 17.6667C3.9204 17.6667 4.66665 18.4129 4.66665 19.3333C4.66665 20.2538 3.9204 21 2.99998 21C2.07955 21 1.33331 20.2538 1.33331 19.3333C1.33331 18.4129 2.07955 17.6667 2.99998 17.6667ZM2.99998 9.33333C3.9204 9.33333 4.66665 10.0795 4.66665 11C4.66665 11.9204 3.9204 12.6667 2.99998 12.6667C2.07955 12.6667 1.33331 11.9204 1.33331 11C1.33331 10.0795 2.07955 9.33333 2.99998 9.33333ZM2.99998 1C3.9204 1 4.66665 1.74618 4.66665 2.66662C4.66665 3.58715 3.9204 4.33333 2.99998 4.33333C2.07955 4.33333 1.33331 3.58715 1.33331 2.66662C1.33331 1.74618 2.07955 1 2.99998 1Z" stroke="#00A2FF" stroke-width="2" stroke-linecap="round" stroke-linejoin="round"/>
</svg>
