<svg width="21" height="30" viewBox="0 0 21 30" fill="none" xmlns="http://www.w3.org/2000/svg">
<path fill-rule="evenodd" clip-rule="evenodd" d="M18.9458 5.24153C18.8061 5.24581 18.6715 5.29465 18.5618 5.38113C18.452 5.46761 18.3729 5.58706 18.3361 5.72185C18.1733 6.2896 17.8303 6.78899 17.3589 7.1448C16.8875 7.50061 16.5911 7.49904 16.0005 7.49994C16.0005 8.49994 14.9737 9.85403 14.5005 9.49994C14.0273 9.14584 14.1662 9.56727 14.0005 8.99994C13.9789 8.91473 14.0538 9.56986 14.0005 9.49994C13.9472 9.43002 13.5769 9.04339 13.5005 8.99994C13.4241 8.95648 13.0005 10.9513 13.0005 8.49994C12.9132 8.4899 12.5848 8.47495 12.5005 8.49994C12.5682 8.44393 12.4162 8.52492 12.5005 8.49994C12.4327 8.55595 12.5409 8.92186 12.5005 8.99994C12.4601 9.07802 13.007 8.91228 13.0005 8.99994C12.9939 9.0876 11.9717 8.41672 12 8.49994C12.2467 9.33692 12.6055 7.67338 13.3044 8.1958C14.0033 8.71821 14.8525 9.0003 15.7251 8.99994C17.5149 8.99994 19.0933 7.80409 19.5907 6.08344C19.6208 5.98426 19.6269 5.87946 19.6084 5.77747C19.5899 5.67547 19.5473 5.57928 19.4843 5.49699C19.4213 5.41469 19.3396 5.34859 19.2459 5.30416C19.1523 5.25972 19.0494 5.2383 18.9458 5.24153Z" fill="url(#paint0_linear_1060_2789)"/>
<path d="M17.7046 2.45288C17.5715 2.45247 17.4415 2.49284 17.3319 2.56842C17.2223 2.644 17.1385 2.75126 17.0916 2.87583C17.0447 3.00041 17.0371 3.13626 17.0696 3.26532C17.1022 3.39437 17.1734 3.51048 17.2738 3.59791L18.3365 4.52476C18.4554 4.6287 18.608 4.68604 18.766 4.68604C18.9239 4.68604 19.0765 4.6287 19.1955 4.52476L20.2542 3.60317C20.3544 3.51588 20.4256 3.40002 20.4582 3.27121C20.4909 3.14241 20.4834 3.00666 20.4369 2.88221C20.3903 2.75775 20.3069 2.65058 20.1977 2.5748C20.0886 2.49902 19.9589 2.45826 19.826 2.45814H17.7046V2.45288Z" fill="url(#paint1_linear_1060_2789)"/>
<path fill-rule="evenodd" clip-rule="evenodd" d="M12.5142 3.76112C12.6531 3.7561 12.7866 3.70689 12.8956 3.62073C13.0045 3.53456 13.0831 3.41584 13.12 3.28192C13.2818 2.71296 13.6243 2.21208 14.0959 1.85498C14.5674 1.49789 15.1424 1.30395 15.7339 1.30247C16.3254 1.301 16.9014 1.49211 17.3747 1.84686C17.848 2.2016 18.1931 2.7007 18.3577 3.26885C18.3792 3.35391 18.4177 3.43375 18.4708 3.50359C18.5239 3.57344 18.5906 3.63188 18.6668 3.67539C18.743 3.71889 18.8271 3.74659 18.9143 3.75682C19.0014 3.76705 19.0898 3.75966 19.174 3.73499C19.2582 3.71032 19.3365 3.66888 19.4044 3.61324C19.4722 3.55759 19.5281 3.48891 19.5688 3.41116C19.6095 3.33341 19.6341 3.24827 19.6411 3.1608C19.6481 3.07334 19.6374 2.98524 19.6096 2.902C19.3633 2.06451 18.8525 1.32932 18.1536 0.806217C17.4547 0.283111 16.6053 0.00031472 15.7323 0C13.9412 0 12.3641 1.19585 11.8654 2.9165C11.8347 3.01606 11.8283 3.12152 11.8467 3.22407C11.8651 3.32662 11.9077 3.4233 11.9711 3.50598C12.0345 3.58867 12.1168 3.6549 12.211 3.69929C12.3053 3.74369 12.4088 3.76492 12.5129 3.76112H12.5142Z" fill="url(#paint2_linear_1060_2789)"/>
<path d="M8.37928 28.1379C8.89347 28.1379 9.31031 27.7211 9.31031 27.2069C9.31031 26.6927 8.89347 26.2759 8.37928 26.2759C7.86508 26.2759 7.44824 26.6927 7.44824 27.2069C7.44824 27.7211 7.86508 28.1379 8.37928 28.1379Z" fill="url(#paint3_linear_1060_2789)"/>
<path d="M3.19825 3C1.43419 3 0 4.41463 0 6.15679V26.8415C0 28.5836 1.43419 30 3.19825 30H13.5621C15.3262 30 16.7586 28.5836 16.7586 26.8415V6.15854C16.7586 4.41638 15.3244 3.00174 13.5604 3.00174H3.20001L3.19825 3ZM3.19825 3.87108H13.5621C14.8376 3.87108 15.8766 4.89547 15.8766 6.15679V23.9059H0.882033V6.15679C0.882033 4.89373 1.92107 3.87108 3.19825 3.87108ZM6.58702 6.52091V7.39199H10.1434V6.52091H6.58702ZM0.882033 24.777H15.8766V26.8449C15.8766 28.1063 14.8393 29.1324 13.5621 29.1324H3.19649C2.58264 29.1315 1.99422 28.8901 1.56033 28.4613C1.12644 28.0325 0.882499 27.4512 0.882033 26.8449V24.777Z" fill="url(#paint4_linear_1060_2789)"/>
<path d="M0.873047 8H15.8907L15.9996 24H0.999611L0.873047 23.8723V16V8Z" fill="url(#paint5_linear_1060_2789)"/>
<defs>
<linearGradient id="paint0_linear_1060_2789" x1="15.7159" y1="5.23883" x2="15.7159" y2="8.99993" gradientUnits="userSpaceOnUse">
<stop stop-color="#37B9E9"/>
<stop offset="1" stop-color="#5F4DB3"/>
</linearGradient>
<linearGradient id="paint1_linear_1060_2789" x1="18.764" y1="2.45288" x2="18.764" y2="4.68604" gradientUnits="userSpaceOnUse">
<stop stop-color="#37B9E9"/>
<stop offset="1" stop-color="#5F4DB3"/>
</linearGradient>
<linearGradient id="paint2_linear_1060_2789" x1="15.7398" y1="0" x2="15.7398" y2="3.76156" gradientUnits="userSpaceOnUse">
<stop stop-color="#37B9E9"/>
<stop offset="1" stop-color="#5F4DB3"/>
</linearGradient>
<linearGradient id="paint3_linear_1060_2789" x1="8.37928" y1="26.2759" x2="8.37928" y2="28.1379" gradientUnits="userSpaceOnUse">
<stop stop-color="#0896CA"/>
<stop offset="1" stop-color="#5754BA"/>
</linearGradient>
<linearGradient id="paint4_linear_1060_2789" x1="8.37931" y1="3" x2="8.37931" y2="30" gradientUnits="userSpaceOnUse">
<stop stop-color="#0896CA"/>
<stop offset="1" stop-color="#5754BA"/>
</linearGradient>
<linearGradient id="paint5_linear_1060_2789" x1="7.5" y1="8" x2="7.5" y2="24" gradientUnits="userSpaceOnUse">
<stop stop-color="#3CACE1"/>
<stop offset="1" stop-color="#5B59B9"/>
</linearGradient>
</defs>
</svg>
