<?xml version="1.0" encoding="utf-8"?>
<!-- Generator: Adobe Illustrator 18.0.0, SVG Export Plug-In . SVG Version: 6.00 Build 0)  -->
<!DOCTYPE svg PUBLIC "-//W3C//DTD SVG 1.1//EN" "http://www.w3.org/Graphics/SVG/1.1/DTD/svg11.dtd">
<svg version="1.1" id="Layer_1" xmlns="http://www.w3.org/2000/svg" xmlns:xlink="http://www.w3.org/1999/xlink" x="0px" y="0px"
	 viewBox="0 0 297 64.2" enable-background="new 0 0 297 64.2" xml:space="preserve">
<g>
	<path fill="#FFFFFF" d="M41.5,13.6l-26.2,17c1.6,2.2,4,3.7,6.7,4.2c2.6,0.4,5.2-0.2,7.4-1.6c1.5-0.9,2.8-2.2,3.5-3.8
		c0.8-1.6,1.1-3.3,0.8-5.1l9.8-6.3c1.2,4,1.1,8.3-0.4,12.2c-1.7,4.2-4.7,7.8-8.6,10.2c-3.2,2.1-6.9,3.4-10.8,3.7
		c-3.7,0.3-7.4-0.5-10.7-2.3c-3.6-1.9-6.6-4.7-8.7-8.1c-2.3-3.3-3.8-7.1-4.2-11.1c-0.3-3.6,0.5-7.2,2.2-10.4
		c1.9-3.4,4.6-6.3,7.9-8.3c3.2-2.1,6.8-3.4,10.6-3.8c3.6-0.3,7.2,0.5,10.4,2.2c3.4,1.9,6.2,4.5,8.2,7.7
		C40.2,11.1,40.9,12.3,41.5,13.6z M28.4,13.6c-0.7-1.1-1.6-2-2.6-2.7c-1.1-0.7-2.3-1.2-3.6-1.3c-2.6-0.3-5.2,0.4-7.4,1.8
		c-2.1,1.3-3.7,3.3-4.4,5.6c-0.6,2.5-0.3,5.1,0.9,7.4L28.4,13.6z"/>
	<path fill="#FFFFFF" d="M61.3,34.6h19.1v8.8H49v-8.6L67.7,9.9H49.1V1.1h31.1v8.7L61.3,34.6z"/>
	<path fill="#FFFFFF" d="M148.2,1.1l-12.6,42.3H124l-7.8-29.5l-7.8,29.5H96.6L83.9,1.1h11l7.6,32.2l8.1-32.2h11.6l8.1,32.1l7.5-32.1
		H148.2z"/>
	<path fill="#FFFFFF" d="M153,10.7c1.6-3.1,4-5.8,7-7.6c3-1.8,6.5-2.8,10-2.7c2.9-0.1,5.8,0.6,8.4,1.9c2.3,1.2,4.2,2.8,5.8,4.8V1.1
		h10.9v42.3h-10.9v-6.2c-1.5,2-3.5,3.7-5.8,4.8c-2.6,1.3-5.5,2-8.5,2c-3.5,0-6.9-0.9-9.8-2.8c-3-1.9-5.5-4.6-7.1-7.8
		c-1.7-3.6-2.6-7.5-2.5-11.5C150.5,18.1,151.3,14.2,153,10.7z M182.5,15.6c-1-1.8-2.4-3.3-4.2-4.3c-1.3-0.8-2.7-1.2-4.2-1.4
		c-1.5-0.2-3-0.1-4.4,0.3c-1.4,0.4-2.8,1.1-3.9,2c-1.2,0.9-2.1,2.1-2.8,3.4c-1.1,2-1.7,4.3-1.6,6.6c0,2.3,0.5,4.6,1.6,6.7
		c1,1.8,2.4,3.3,4.3,4.4c1.7,1,3.6,1.5,5.5,1.5c2,0,3.9-0.5,5.7-1.5c1.8-1,3.2-2.5,4.2-4.3c1.1-2.1,1.6-4.4,1.5-6.7
		c0.1-2.3-0.4-4.6-1.5-6.7H182.5z"/>
	<path fill="#FFFFFF" d="M230.9,2.3c2.3,1.1,4.3,2.8,5.7,4.8v-6h10.9v42.6c0,3.6-0.8,7.2-2.5,10.5c-1.6,3.1-4.1,5.6-7.2,7.3
		c-3.6,1.9-7.6,2.8-11.6,2.7c-5.3,0.2-10.5-1.2-14.9-4.1c-1.9-1.3-3.5-3-4.7-5c-1.2-2-1.8-4.2-2-6.5h10.8c0.6,2,1.9,3.6,3.7,4.6
		c2.1,1.2,4.5,1.8,6.9,1.7c1.4,0.1,2.8-0.2,4.1-0.6c1.3-0.5,2.5-1.2,3.6-2.2c1-1.1,1.8-2.5,2.3-3.9c0.5-1.4,0.7-3,0.6-4.5v-6.5
		c-1.5,2.1-3.5,3.8-5.8,5c-2.6,1.3-5.5,2-8.4,2c-3.5,0-6.9-0.9-9.8-2.8c-3.1-1.9-5.5-4.6-7.1-7.8c-1.7-3.6-2.6-7.5-2.5-11.5
		c-0.1-3.9,0.7-7.8,2.5-11.4c1.6-3.1,4-5.8,7.1-7.6c3-1.8,6.4-2.7,9.8-2.7C225.4,0.3,228.3,1,230.9,2.3z M235.1,15.6
		c-1-1.8-2.4-3.3-4.2-4.3c-1.3-0.8-2.7-1.2-4.2-1.4c-1.5-0.2-3-0.1-4.4,0.3c-1.4,0.4-2.8,1.1-3.9,2c-1.2,0.9-2.1,2.1-2.8,3.4
		c-1.1,2-1.7,4.3-1.7,6.6c0,2.3,0.5,4.6,1.6,6.7c1,1.8,2.4,3.3,4.2,4.4c1.7,1,3.6,1.5,5.5,1.5c2,0,3.9-0.5,5.7-1.5
		c1.8-1,3.2-2.5,4.2-4.3c1.1-2.1,1.6-4.4,1.5-6.7C236.7,19.9,236.2,17.6,235.1,15.6z"/>
	<path fill="#FFFFFF" d="M296.8,25.5h-31.3c0.1,2.8,1.3,5.4,3.3,7.3c1.9,1.7,4.4,2.7,7,2.6c1.8,0.1,3.6-0.3,5.1-1.2
		c1.5-0.9,2.8-2.3,3.5-3.9h11.7c-1.2,4-3.7,7.5-7.1,10c-3.7,2.7-8.3,4.1-12.9,4c-3.9,0.1-7.7-0.9-11.1-2.7c-3.3-1.8-5.9-4.4-7.7-7.7
		c-1.9-3.5-2.8-7.5-2.8-11.5c-0.1-4,0.8-8,2.7-11.5c1.7-3.2,4.4-5.9,7.6-7.6c3.4-1.7,7.2-2.6,11.1-2.6s7.6,0.9,11.1,2.6
		c3.1,1.7,5.7,4.3,7.4,7.4c1.8,3.4,2.8,7.1,2.7,11C297,22.8,297,24.2,296.8,25.5z M285.9,18.2c0-1.3-0.2-2.5-0.8-3.6
		c-0.5-1.1-1.3-2.2-2.3-3c-2-1.6-4.6-2.5-7.2-2.4c-2.5-0.1-4.9,0.8-6.8,2.4c-1.9,1.8-3.1,4.1-3.4,6.7L285.9,18.2z"/>
</g>
</svg>
