<svg width="46" height="46" viewBox="0 0 46 46" fill="none" xmlns="http://www.w3.org/2000/svg">
<path d="M45.9998 45.1911C45.9998 45.6675 45.6011 46.0341 45.1661 45.9974C44.5861 45.9608 44.0061 45.8508 43.5349 45.4843C39.04 41.8558 34.5814 37.6775 30.0503 34.0491C30.7028 33.426 31.4277 32.693 32.1165 32.1065C35.6689 28.9179 39.4388 25.9491 42.8099 22.5772C44.0786 21.4777 44.7673 20.8179 45.9636 20.0116V45.1911H45.9998Z" fill="#00A2FF"/>
<path d="M42.8462 15.6134C44.1149 16.3464 45.1661 17.3727 45.9998 18.5822C45.9998 19.0586 45.9998 19.5351 45.9998 20.0482C44.9124 20.8912 44.1874 21.441 42.8462 22.6138C42.8462 20.2681 42.8462 17.9224 42.8462 15.6134Z" fill="#0093E8"/>
<path d="M42.8462 15.6135C42.8462 17.9225 42.8462 20.2682 42.8462 22.5772C39.4388 25.9492 35.7052 28.8813 32.1528 32.1066C31.5003 32.693 30.7391 33.426 30.0866 34.0491C28.0929 32.9862 26.5342 31.227 24.758 29.8342C23.5256 28.8813 22.5106 28.8446 21.2419 29.8342C19.4657 31.227 17.8345 32.8396 15.8045 33.9025C15.2246 33.3894 14.6808 32.8396 14.1008 32.3265C10.476 29.0279 6.59733 26.0225 3.11743 22.5772C3.11743 20.2682 3.11743 17.9225 3.11743 15.6135C3.11743 11.2886 3.15368 7.00041 3.15368 2.67555C3.18993 0.329862 3.47992 0 5.72735 0C17.2183 0 28.7454 0 40.2363 0C42.4837 0 42.7737 0.329862 42.81 2.67555C42.81 7.00041 42.8462 11.2886 42.8462 15.6135ZM23.0543 3.26197C16.8195 3.26197 11.8534 8.24655 11.8534 14.5139C11.8534 20.5981 17.037 25.8026 23.0181 25.7659C29.0354 25.7292 34.1465 20.5614 34.1465 14.4773C34.1102 8.31986 29.1441 3.26197 23.0543 3.26197Z" fill="#EC0B8D"/>
<path d="M3.11741 22.5772C6.5973 26.0224 10.4759 29.0278 14.1008 32.3265C14.6808 32.8396 15.2245 33.3893 15.8045 33.9025C11.6359 37.5676 7.21353 40.9762 2.86366 44.3847C2.28368 44.8246 1.7037 45.2277 1.41371 45.9241C0.398738 45.411 0 44.5314 0 43.3952C0.0362489 35.5884 0.0362489 27.8183 0.0724978 20.0116C1.12372 20.8179 1.95744 21.7342 3.11741 22.5772Z" fill="#00A2FF"/>
<path d="M3.11757 22.5772C1.8851 21.8075 1.23262 21.1111 0.0364112 20.0482C-0.25358 17.6292 1.59511 16.7496 3.11757 15.6134C3.11757 17.9224 3.11757 20.2315 3.11757 22.5772Z" fill="#0093E8"/>
<path d="M23.0542 3.26196C29.144 3.26196 34.1101 8.31985 34.1101 14.4773C34.1101 20.5614 28.999 25.7292 22.9817 25.7659C17.0006 25.8025 11.8533 20.5981 11.8533 14.5139C11.8533 8.2832 16.8194 3.26196 23.0542 3.26196ZM30.1227 11.2153C30.1227 10.7388 29.869 10.2624 29.3252 10.0058C28.5278 9.60265 27.839 9.7859 27.2228 10.409C25.8453 11.8384 24.4316 13.2311 23.0542 14.6239C20.988 16.713 20.988 16.713 18.5593 14.9904C17.7981 14.4406 17.0006 14.3307 16.3119 15.1004C15.6232 15.87 15.8044 16.6397 16.4931 17.3361C17.3994 18.2157 18.2693 19.132 19.1393 20.0116C20.118 21.0379 21.0967 21.0012 22.0755 20.0116C24.5041 17.5193 26.9691 15.0637 29.434 12.5714C29.7965 12.2415 30.0865 11.8384 30.1227 11.2153Z" fill="white"/>
<path d="M30.1228 11.2154C30.0866 11.8751 29.7966 12.2416 29.4341 12.5715C27.0054 15.0638 24.5405 17.5194 22.0756 20.0117C21.0969 21.0013 20.1181 21.0379 19.1394 20.0117C18.2694 19.0954 17.3632 18.2158 16.4933 17.3362C15.7683 16.6398 15.6233 15.8701 16.312 15.1004C17.0007 14.3307 17.762 14.4407 18.5594 14.9905C20.9881 16.7497 20.9881 16.7497 23.0543 14.624C24.4318 13.2312 25.8455 11.8018 27.2229 10.409C27.8392 9.78598 28.5641 9.60272 29.3254 10.0059C29.8691 10.2624 30.1228 10.7389 30.1228 11.2154Z" fill="#EC0B8D"/>
<path d="M1.37744 45.924C1.66743 45.2277 2.28366 44.8245 2.8274 44.3847C7.21351 40.9395 11.5996 37.5675 15.7683 33.9024C17.7982 32.8395 19.4294 31.2269 21.2056 29.8341C22.4743 28.8445 23.453 28.8812 24.7217 29.8341C25.9179 30.7504 27.0417 31.7766 28.2379 32.6929C30.7028 34.5255 33.204 36.358 35.5964 38.3006C38.0251 40.2431 40.4538 42.1856 42.8462 44.1281C43.3899 44.5679 43.8974 45.0078 44.4049 45.5209L44.8399 45.9973C30.1591 45.9973 16.5657 45.9607 1.88493 45.9607H1.37744V45.924Z" fill="#0093E8"/>
</svg>
