<svg width="17" height="13" viewBox="0 0 17 13" fill="none" xmlns="http://www.w3.org/2000/svg">
<path d="M17 1.28328C17 4.42911 17 7.57494 17 10.7208C16.9911 10.7291 16.9823 10.7333 16.9779 10.7416C16.7388 11.6041 16.1898 11.9999 15.2469 11.9999C11.0943 11.9999 6.93724 11.9999 2.78464 11.9999C2.38177 11.9999 1.97891 12.0041 1.57161 11.9999C0.889844 11.9916 0.292187 11.5749 0.0796875 10.9708C0.0486979 10.8874 0.0265625 10.8041 0 10.7208C0 7.57494 0 4.42911 0 1.28328C0.00885417 1.27494 0.0177083 1.27078 0.0221354 1.25828C0.256771 0.40411 0.810156 -5.69663e-05 1.75312 -5.69663e-05C5.82604 -5.69663e-05 9.89453 -5.69663e-05 13.9674 -5.69663e-05C14.4589 -5.69663e-05 14.9503 -0.00422363 15.4461 0.0041097C16.1234 0.0166097 16.7211 0.44161 16.9247 1.04994C16.9513 1.12494 16.9734 1.20411 17 1.28328ZM15.9375 2.09994C15.8667 2.15828 15.8224 2.19161 15.7826 2.22494C13.4937 4.09161 11.2094 5.95411 8.92057 7.82077C8.61953 8.06661 8.3849 8.06661 8.08385 7.82077C5.7862 5.94994 3.48854 4.07494 1.19531 2.20411C1.1599 2.17494 1.12005 2.14994 1.0625 2.10828C1.0625 2.19161 1.0625 2.24578 1.0625 2.29994C1.0625 4.99161 1.0625 7.68328 1.0625 10.3749C1.0625 10.8208 1.24844 10.9958 1.72656 10.9958C6.24219 10.9958 10.7578 10.9958 15.2734 10.9958C15.7516 10.9958 15.9375 10.8208 15.9375 10.3749C15.9375 7.68328 15.9375 4.99161 15.9375 2.29994C15.9375 2.24578 15.9375 2.19161 15.9375 2.09994ZM1.42995 1.02078C1.42552 1.03328 1.42109 1.04578 1.41667 1.05828C3.77187 2.98328 6.13151 4.90828 8.5 6.83744C10.8729 4.90411 13.2326 2.97911 15.5878 1.05411C15.5833 1.04161 15.5789 1.02911 15.5701 1.01661C10.8596 1.02078 6.14479 1.02078 1.42995 1.02078Z" fill="#9C9FA2"/>
</svg>
