<svg width="19" height="18" viewBox="0 0 19 18" fill="none" xmlns="http://www.w3.org/2000/svg">
<path d="M9.57029 10.1165C9.57029 10.5982 9.57029 11.0646 9.57029 11.554C9.52426 11.554 9.47055 11.554 9.41684 11.554C8.09714 11.554 6.76978 11.5387 5.45008 11.5617C3.90788 11.5923 2.65724 12.7622 2.50379 14.2915C2.46543 14.7044 2.45008 15.1326 2.50379 15.5532C2.57285 16.1267 3.08691 16.5472 3.66236 16.5472C6.20968 16.5549 8.74932 16.5549 11.2966 16.5472C11.7647 16.5472 12.1099 16.3025 12.3324 15.8973C12.3631 15.8437 12.3861 15.7902 12.4092 15.752C12.8542 15.9279 13.2992 16.1037 13.7519 16.2796C13.514 16.8837 13.115 17.3425 12.5473 17.656C12.1253 17.893 11.6726 17.9924 11.1892 17.9924C8.71096 17.9924 6.23269 17.9924 3.75443 17.9924C2.29663 17.9924 1.16875 16.9984 1.03065 15.5532C0.946247 14.6356 1.00763 13.718 1.39126 12.8616C2.14318 11.164 3.47054 10.2235 5.31965 10.1241C6.67771 10.0476 8.05111 10.1088 9.41684 10.1012C9.47822 10.1088 9.53193 10.1165 9.57029 10.1165Z" fill="#C1C3C5"/>
<path d="M18.2787 8.64059C18.2096 8.75529 18.1559 8.89293 18.0638 8.99233C17.9027 9.17585 17.8337 9.35937 17.9871 9.58112C18.0408 9.65758 18.0792 9.75699 18.0869 9.84875C18.1099 10.0858 18.248 10.1699 18.4628 10.1928C18.5472 10.2005 18.6239 10.2311 18.7083 10.254C18.9155 10.3228 18.9999 10.4605 18.9922 10.7357C18.9846 11.011 19.0766 11.3245 18.7083 11.4545C18.5702 11.5004 18.4245 11.5157 18.2864 11.5692C18.225 11.5922 18.1559 11.661 18.1252 11.7222C18.0332 11.9286 17.9641 12.1504 17.872 12.3568C17.826 12.4562 17.826 12.5174 17.895 12.6015C17.9718 12.6933 18.0332 12.8003 18.1022 12.8997C18.2326 13.1062 18.2326 13.2591 18.0792 13.4426C17.9871 13.5497 17.895 13.6491 17.803 13.7485C17.6572 13.9014 17.4807 13.9549 17.3119 13.8326C16.9897 13.6032 16.7135 13.6185 16.3989 13.8479C16.2147 13.9779 15.9692 14.0391 15.7467 14.1079C15.6239 14.1461 15.5626 14.1996 15.5472 14.322C15.5319 14.4137 15.5012 14.5055 15.4782 14.6049C15.4705 14.6278 15.4628 14.6508 15.4551 14.6737C15.3708 14.9261 15.248 14.9872 14.803 14.9872C14.4347 14.9872 14.2966 14.9184 14.2275 14.6737C14.1892 14.5437 14.1738 14.3985 14.1278 14.2761C14.1048 14.2226 14.0511 14.1538 13.9897 14.1385C13.5984 14.0314 13.2301 13.8632 12.8925 13.6338C12.8388 13.6032 12.7467 13.6032 12.6853 13.6261C12.5549 13.672 12.4398 13.7485 12.3094 13.802C12.1252 13.8861 11.9718 13.8479 11.8337 13.7026C11.7339 13.5956 11.6342 13.4732 11.5421 13.3585C11.4193 13.1979 11.3887 13.0144 11.5268 12.8768C11.8183 12.5786 11.803 12.3033 11.6495 11.9363C11.5421 11.6763 11.427 11.5463 11.1508 11.4928C10.7672 11.4239 10.6981 11.3092 10.6981 10.9269C10.6981 10.9193 10.6981 10.9116 10.6981 10.9116C10.6981 10.3458 10.7288 10.3075 11.2812 10.1928C11.4577 10.1546 11.5651 10.0934 11.6035 9.89463C11.6342 9.71876 11.7109 9.55053 11.7953 9.38995C11.8644 9.25996 11.8413 9.17585 11.7646 9.0688C11.381 8.52589 11.381 8.5106 11.8337 8.02122C12.0408 7.79182 12.1943 7.75359 12.4552 7.92181C12.7237 8.09769 12.9385 8.10533 13.2147 7.91417C13.4296 7.76124 13.7058 7.69242 13.959 7.60066C14.0664 7.56243 14.1201 7.51655 14.1355 7.4095C14.1508 7.31009 14.1815 7.21069 14.2045 7.11128C14.2199 7.0654 14.2275 7.01187 14.2429 6.97364C14.4117 6.62955 14.7339 6.7366 15.0101 6.72895C15.2403 6.72131 15.4091 6.82071 15.4321 7.01952C15.4705 7.45538 15.7083 7.63125 16.1073 7.7383C16.3375 7.79947 16.5523 7.9524 16.7595 8.08239C16.8592 8.14357 16.9283 8.15121 17.0204 8.09769C17.1355 8.02887 17.2582 7.97534 17.3733 7.92181C17.5421 7.84535 17.6956 7.87594 17.826 8.00593C17.9411 8.12827 18.0562 8.25826 18.1559 8.38825C18.2173 8.44178 18.2326 8.53354 18.2787 8.64059ZM16.7211 10.8581C16.7211 9.81816 15.8848 8.99233 14.8413 8.99233C13.8055 8.99233 12.9692 9.83345 12.9769 10.8734C12.9846 11.898 13.8132 12.7239 14.849 12.7315C15.8925 12.7315 16.7288 11.898 16.7211 10.8581Z" fill="#C1C3C5"/>
<path d="M3.55491 3.80807C3.49353 1.55233 5.39635 0.206538 6.94622 0.0306671C8.4654 -0.137557 9.70837 0.382409 10.6828 1.55233C11.2889 2.2864 11.4884 3.15046 11.4117 4.0757C11.2966 5.5209 10.6828 6.75964 9.69302 7.80722C8.41169 9.16066 6.55491 9.15301 5.26591 7.78428C4.3452 6.80552 3.7544 5.65853 3.57793 4.32039C3.57026 4.28215 3.56259 4.23627 3.56259 4.19804C3.55491 4.0604 3.55491 3.93041 3.55491 3.80807ZM4.99737 3.81571C5.00504 4.87858 5.64954 6.22438 6.50888 6.97374C7.10734 7.50135 7.95133 7.47841 8.53445 6.90492C9.34775 6.10203 9.85415 5.13092 9.96156 3.98394C10.0153 3.44103 9.9232 2.91342 9.56259 2.46992C8.90274 1.67468 8.05875 1.32294 7.03062 1.48351C5.84136 1.65938 4.98202 2.65344 4.99737 3.81571Z" fill="#C1C3C5"/>
</svg>
