<svg width="156" height="156" viewBox="0 0 156 156" fill="none" xmlns="http://www.w3.org/2000/svg">
<g filter="url(#filter0_d_3643_2194)">
<rect x="18" y="18" width="120" height="120" rx="5" fill="white"/>
</g>
<path d="M52.5785 108.764V111.212H55.4585V112.328H52.5785V114.884H55.8185V116H51.2105V107.648H55.8185V108.764H52.5785ZM58.8235 114.812H62.6995V116H57.2035V114.932L61.0675 108.848H57.2035V107.66H62.6995V108.728L58.8235 114.812ZM72.2201 107.66V108.776H68.6801V111.236H71.4401V112.352H68.6801V116H67.3121V107.66H72.2201ZM74.8559 110.348C75.0559 110.012 75.3199 109.752 75.6479 109.568C75.9839 109.376 76.3799 109.28 76.8359 109.28V110.696H76.4879C75.9519 110.696 75.5439 110.832 75.2639 111.104C74.9919 111.376 74.8559 111.848 74.8559 112.52V116H73.4879V109.388H74.8559V110.348ZM78.7894 108.512C78.5414 108.512 78.3334 108.428 78.1654 108.26C77.9974 108.092 77.9134 107.884 77.9134 107.636C77.9134 107.388 77.9974 107.18 78.1654 107.012C78.3334 106.844 78.5414 106.76 78.7894 106.76C79.0294 106.76 79.2334 106.844 79.4014 107.012C79.5694 107.18 79.6534 107.388 79.6534 107.636C79.6534 107.884 79.5694 108.092 79.4014 108.26C79.2334 108.428 79.0294 108.512 78.7894 108.512ZM79.4614 109.388V116H78.0934V109.388H79.4614ZM87.3174 112.532C87.3174 112.78 87.3014 113.004 87.2694 113.204H82.2174C82.2574 113.732 82.4534 114.156 82.8054 114.476C83.1574 114.796 83.5894 114.956 84.1014 114.956C84.8374 114.956 85.3574 114.648 85.6614 114.032H87.1374C86.9374 114.64 86.5734 115.14 86.0454 115.532C85.5254 115.916 84.8774 116.108 84.1014 116.108C83.4694 116.108 82.9014 115.968 82.3974 115.688C81.9014 115.4 81.5094 115 81.2214 114.488C80.9414 113.968 80.8014 113.368 80.8014 112.688C80.8014 112.008 80.9374 111.412 81.2094 110.9C81.4894 110.38 81.8774 109.98 82.3734 109.7C82.8774 109.42 83.4534 109.28 84.1014 109.28C84.7254 109.28 85.2814 109.416 85.7694 109.688C86.2574 109.96 86.6374 110.344 86.9094 110.84C87.1814 111.328 87.3174 111.892 87.3174 112.532ZM85.8894 112.1C85.8814 111.596 85.7014 111.192 85.3494 110.888C84.9974 110.584 84.5614 110.432 84.0414 110.432C83.5694 110.432 83.1654 110.584 82.8294 110.888C82.4934 111.184 82.2934 111.588 82.2294 112.1H85.8894ZM91.9997 109.28C92.5197 109.28 92.9837 109.388 93.3917 109.604C93.8077 109.82 94.1317 110.14 94.3637 110.564C94.5957 110.988 94.7117 111.5 94.7117 112.1V116H93.3557V112.304C93.3557 111.712 93.2077 111.26 92.9117 110.948C92.6157 110.628 92.2117 110.468 91.6997 110.468C91.1877 110.468 90.7797 110.628 90.4757 110.948C90.1797 111.26 90.0317 111.712 90.0317 112.304V116H88.6637V109.388H90.0317V110.144C90.2557 109.872 90.5397 109.66 90.8837 109.508C91.2357 109.356 91.6077 109.28 91.9997 109.28ZM96.0006 112.664C96.0006 112 96.1366 111.412 96.4086 110.9C96.6886 110.388 97.0646 109.992 97.5366 109.712C98.0166 109.424 98.5486 109.28 99.1326 109.28C99.5646 109.28 99.9886 109.376 100.405 109.568C100.829 109.752 101.165 110 101.413 110.312V107.12H102.793V116H101.413V115.004C101.189 115.324 100.877 115.588 100.477 115.796C100.085 116.004 99.6326 116.108 99.1206 116.108C98.5446 116.108 98.0166 115.964 97.5366 115.676C97.0646 115.38 96.6886 114.972 96.4086 114.452C96.1366 113.924 96.0006 113.328 96.0006 112.664ZM101.413 112.688C101.413 112.232 101.317 111.836 101.125 111.5C100.941 111.164 100.697 110.908 100.393 110.732C100.089 110.556 99.7606 110.468 99.4086 110.468C99.0566 110.468 98.7286 110.556 98.4246 110.732C98.1206 110.9 97.8726 111.152 97.6806 111.488C97.4966 111.816 97.4046 112.208 97.4046 112.664C97.4046 113.12 97.4966 113.52 97.6806 113.864C97.8726 114.208 98.1206 114.472 98.4246 114.656C98.7366 114.832 99.0646 114.92 99.4086 114.92C99.7606 114.92 100.089 114.832 100.393 114.656C100.697 114.48 100.941 114.224 101.125 113.888C101.317 113.544 101.413 113.144 101.413 112.688Z" fill="#2F2F2F"/>
<circle cx="78" cy="64" r="29" fill="url(#paint0_linear_3643_2194)" fill-opacity="0.14"/>
<path d="M79.2736 65.5053H64.5147C64.63 66.8368 65.0335 67.8789 65.783 68.5737C66.5325 69.2684 67.4549 69.6158 68.5503 69.6158C70.1646 69.6158 71.3176 68.9211 71.9518 67.5316H78.9277C78.5818 68.9211 77.9476 70.1947 77.0252 71.3526C76.1027 72.4526 74.9497 73.3789 73.5084 74.0158C72.1247 74.6526 70.5681 75 68.7809 75C66.7054 75 64.8029 74.5368 63.1887 73.6684C61.5744 72.8 60.3061 71.4684 59.3836 69.8474C58.4612 68.1684 58 66.2579 58 64C58 61.8 58.4612 59.8316 59.3836 58.1526C60.3061 56.4737 61.5744 55.2 63.1887 54.3316C64.8029 53.4632 66.7054 53 68.7809 53C70.8564 53 72.7013 53.4632 74.2579 54.3316C75.8721 55.2 77.1405 56.4158 78.0052 58.0368C78.9277 59.6579 79.3889 61.5105 79.3889 63.6526C79.3889 64.1737 79.3312 64.8105 79.2736 65.5053ZM72.7013 61.8579C72.7013 60.7579 72.2977 59.8316 71.5482 59.1947C70.7987 58.5579 69.8187 58.2105 68.6656 58.2105C67.5702 58.2105 66.6478 58.5579 65.8983 59.1947C65.1488 59.8316 64.6876 60.7579 64.5147 61.9158H72.7013V61.8579Z" fill="url(#paint1_linear_3643_2194)"/>
<path d="M86.6901 69.2654H95.8887V74.3888H79.3887V69.4834L88.2423 59.2911H79.4462V54.2222H95.7162V59.1276L86.6901 69.2654Z" fill="url(#paint2_linear_3643_2194)"/>
<defs>
<filter id="filter0_d_3643_2194" x="0.9" y="0.9" width="154.2" height="154.2" filterUnits="userSpaceOnUse" color-interpolation-filters="sRGB">
<feFlood flood-opacity="0" result="BackgroundImageFix"/>
<feColorMatrix in="SourceAlpha" type="matrix" values="0 0 0 0 0 0 0 0 0 0 0 0 0 0 0 0 0 0 127 0" result="hardAlpha"/>
<feMorphology radius="0.1" operator="dilate" in="SourceAlpha" result="effect1_dropShadow_3643_2194"/>
<feOffset/>
<feGaussianBlur stdDeviation="8.5"/>
<feComposite in2="hardAlpha" operator="out"/>
<feColorMatrix type="matrix" values="0 0 0 0 0.768627 0 0 0 0 0.768627 0 0 0 0 0.768627 0 0 0 0.63 0"/>
<feBlend mode="normal" in2="BackgroundImageFix" result="effect1_dropShadow_3643_2194"/>
<feBlend mode="normal" in="SourceGraphic" in2="effect1_dropShadow_3643_2194" result="shape"/>
</filter>
<linearGradient id="paint0_linear_3643_2194" x1="78" y1="35" x2="85.1994" y2="92.0565" gradientUnits="userSpaceOnUse">
<stop stop-color="#00ACE4"/>
<stop offset="1" stop-color="#0081AC"/>
</linearGradient>
<linearGradient id="paint1_linear_3643_2194" x1="68.6944" y1="53" x2="71.5007" y2="74.6225" gradientUnits="userSpaceOnUse">
<stop stop-color="#00ACE4"/>
<stop offset="1" stop-color="#0081AC"/>
</linearGradient>
<linearGradient id="paint2_linear_3643_2194" x1="87.6387" y1="54.2222" x2="90.6747" y2="73.9084" gradientUnits="userSpaceOnUse">
<stop stop-color="#00ACE4"/>
<stop offset="1" stop-color="#0081AC"/>
</linearGradient>
</defs>
</svg>
