<svg width="58" height="58" viewBox="0 0 58 58" fill="none" xmlns="http://www.w3.org/2000/svg">
<circle cx="29" cy="29" r="29" fill="url(#paint0_linear_3662_2325)" fill-opacity="0.14"/>
<path d="M30.2736 30.5053H15.5147C15.63 31.8368 16.0335 32.8789 16.783 33.5737C17.5325 34.2684 18.4549 34.6158 19.5503 34.6158C21.1646 34.6158 22.3176 33.9211 22.9518 32.5316H29.9277C29.5818 33.9211 28.9476 35.1947 28.0252 36.3526C27.1027 37.4526 25.9497 38.3789 24.5084 39.0158C23.1247 39.6526 21.5681 40 19.7809 40C17.7054 40 15.8029 39.5368 14.1887 38.6684C12.5744 37.8 11.3061 36.4684 10.3836 34.8474C9.46122 33.1684 9 31.2579 9 29C9 26.8 9.46122 24.8316 10.3836 23.1526C11.3061 21.4737 12.5744 20.2 14.1887 19.3316C15.8029 18.4632 17.7054 18 19.7809 18C21.8564 18 23.7013 18.4632 25.2579 19.3316C26.8721 20.2 28.1405 21.4158 29.0052 23.0368C29.9277 24.6579 30.3889 26.5105 30.3889 28.6526C30.3889 29.1737 30.3312 29.8105 30.2736 30.5053ZM23.7013 26.8579C23.7013 25.7579 23.2977 24.8316 22.5482 24.1947C21.7987 23.5579 20.8187 23.2105 19.6656 23.2105C18.5702 23.2105 17.6478 23.5579 16.8983 24.1947C16.1488 24.8316 15.6876 25.7579 15.5147 26.9158H23.7013V26.8579Z" fill="url(#paint1_linear_3662_2325)"/>
<path d="M37.6901 34.2654H46.8887V39.3888H30.3887V34.4834L39.2423 24.2911H30.4462V19.2222H46.7162V24.1276L37.6901 34.2654Z" fill="url(#paint2_linear_3662_2325)"/>
<defs>
<linearGradient id="paint0_linear_3662_2325" x1="29" y1="-4.78674e-07" x2="36.1994" y2="57.0565" gradientUnits="userSpaceOnUse">
<stop stop-color="#00ACE4"/>
<stop offset="1" stop-color="#0081AC"/>
</linearGradient>
<linearGradient id="paint1_linear_3662_2325" x1="19.6944" y1="18" x2="22.5007" y2="39.6225" gradientUnits="userSpaceOnUse">
<stop stop-color="#00ACE4"/>
<stop offset="1" stop-color="#0081AC"/>
</linearGradient>
<linearGradient id="paint2_linear_3662_2325" x1="38.6387" y1="19.2222" x2="41.6747" y2="38.9084" gradientUnits="userSpaceOnUse">
<stop stop-color="#00ACE4"/>
<stop offset="1" stop-color="#0081AC"/>
</linearGradient>
</defs>
</svg>
