<svg width="29" height="34" viewBox="0 0 29 34" fill="none" xmlns="http://www.w3.org/2000/svg">
<path d="M15.2223 0.962407C15.2069 0.966505 15.1922 0.971373 15.1792 0.976052C15.1791 0.976082 15.179 0.976112 15.1789 0.976142L6.50542 4.03476L6.39712 4.06948L6.39669 4.06962C6.1932 4.13588 6.00548 4.19683 5.83804 4.22411C5.66996 4.25149 5.54099 4.24149 5.44574 4.18496L5.44578 4.18489L5.44207 4.18289L2.65073 2.68145L2.65071 2.68143C2.50382 2.60247 2.33134 2.58443 2.1711 2.63118C2.01084 2.67792 1.87557 2.78577 1.79536 2.93142C1.71512 3.07711 1.6967 3.24847 1.74429 3.40769C1.79186 3.56688 1.90136 3.70051 2.04829 3.7795C2.04829 3.7795 2.0483 3.7795 2.0483 3.7795L4.81786 5.26866C5.50339 5.67488 6.23156 5.43857 6.77689 5.2616L6.79017 5.25729L6.79018 5.25732L6.79254 5.25649L15.5767 2.16176C15.649 2.14529 15.7242 2.14577 15.7964 2.16317C15.8701 2.18097 15.9383 2.21592 15.9954 2.26501L15.9954 2.26505L15.998 2.26713L25.605 9.99019C25.6051 9.99021 25.6051 9.99023 25.6051 9.99025C25.83 10.1716 25.9762 10.4306 26.0144 10.7143C26.0524 10.9977 25.9799 11.2848 25.8113 11.5174C25.7273 11.6268 25.6217 11.7182 25.5007 11.7861C25.3793 11.8542 25.2452 11.8971 25.1063 11.9123C24.9675 11.9274 24.8271 11.9144 24.6935 11.874C24.56 11.8337 24.4363 11.7668 24.33 11.6777L24.3298 11.6775L19.7136 7.8314L19.5591 7.70264L19.5497 7.90357C19.532 8.28499 19.4404 8.65955 19.28 9.00702L19.2479 9.07667L19.3068 9.12576L23.5168 12.6331C23.9275 12.9786 24.449 13.1682 24.988 13.1682H24.9883H24.9883L25.2336 13.1553C25.2336 13.1553 25.2337 13.1553 25.2337 13.1553C25.5427 13.1233 25.8419 13.0293 26.113 12.879C26.3841 12.7288 26.6215 12.5254 26.8104 12.2812L26.8115 12.2797C27.177 11.7892 27.339 11.179 27.2641 10.5741C27.1893 9.96915 26.8833 9.41565 26.4091 9.02671L26.4084 9.02609L16.8026 1.30413C16.8024 1.30392 16.8021 1.30372 16.8019 1.30351C16.5865 1.12382 16.3301 0.998879 16.055 0.939441C15.7797 0.879972 15.4939 0.887854 15.2223 0.962407ZM15.2223 0.962407C15.2225 0.962362 15.2227 0.962317 15.2228 0.962271L15.2483 1.05897L15.2218 0.962548C15.222 0.962501 15.2222 0.962454 15.2223 0.962407Z" fill="white" stroke="white" stroke-width="0.2"/>
<path d="M1.21807 9.25665L1.21808 9.25663C1.07508 9.17541 0.969724 9.04099 0.924406 8.88289C0.879066 8.72473 0.897365 8.55502 0.975406 8.41021C1.05345 8.26539 1.18506 8.15696 1.34204 8.10833C1.49903 8.0597 1.66876 8.07478 1.81476 8.15032L1.81651 8.15123L1.8165 8.15124L6.50768 10.6971L6.5753 10.7161L6.57562 10.7162L6.6043 10.7241L6.60478 10.7242C6.63932 10.7338 6.67084 10.7423 6.70134 10.75L6.70239 10.7502L6.70239 10.7502L6.73566 10.759C6.73582 10.759 6.73598 10.7591 6.73614 10.7591C6.76231 10.7657 6.78854 10.772 6.81482 10.7781L6.81543 10.7783L6.84788 10.786C6.86899 10.7907 6.89015 10.7952 6.91136 10.7994L6.91181 10.7995L6.94342 10.8059C6.96142 10.8093 6.9779 10.812 6.99555 10.8148C6.99566 10.8149 6.99578 10.8149 6.99589 10.8149L7.0232 10.8191C7.03859 10.8212 7.05402 10.8229 7.06948 10.8243L7.07026 10.8244L7.09058 10.8264C7.10575 10.8275 7.11957 10.8279 7.13301 10.8279H7.13687L7.13687 10.828L7.14793 10.8284C7.16114 10.8282 7.1729 10.8277 7.18368 10.8269L15.4072 8.08398C15.4073 8.08393 15.4075 8.08389 15.4076 8.08385C15.4296 8.07633 15.452 8.07017 15.4748 8.06541M1.21807 9.25665L15.4955 8.16324M1.21807 9.25665L1.21977 9.25757L5.97272 11.8371L5.9804 11.8413L5.98227 11.8419M1.21807 9.25665L5.98227 11.8419M15.4748 8.06541C15.4749 8.06539 15.475 8.06537 15.4751 8.06535L15.4955 8.16324M15.4748 8.06541C15.4747 8.06544 15.4746 8.06546 15.4745 8.06548L15.4955 8.16324M15.4748 8.06541C15.8611 7.98225 16.2184 7.78007 16.4783 7.52532C16.7396 7.26914 16.8926 6.97002 16.8926 6.69564V6.69547C16.893 6.51421 16.8546 6.33499 16.7803 6.16982C16.7059 6.00465 16.5973 5.85736 16.4616 5.7378L16.4612 5.73743C16.3345 5.6246 16.1858 5.53958 16.0245 5.48779C15.8662 5.43696 15.6992 5.41925 15.5339 5.43572M15.4955 8.16324C16.3068 7.98872 16.9926 7.31627 16.9926 6.69564C16.993 6.50018 16.9517 6.30691 16.8715 6.12877C16.7913 5.95064 16.6741 5.79175 16.5277 5.66277C16.3906 5.54067 16.2297 5.44864 16.0551 5.39258C15.8805 5.33653 15.6962 5.31768 15.5139 5.33725M15.5339 5.43572L15.5432 5.43288L15.5139 5.33725M15.5339 5.43572L10.4534 6.9888L10.4522 6.98914C10.2937 7.03559 10.1233 7.01746 9.97806 6.93872C9.83281 6.85998 9.72445 6.72702 9.67637 6.56876C9.6283 6.41051 9.64435 6.23963 9.72106 6.09314C9.79778 5.94665 9.92904 5.83631 10.0864 5.78617L10.0876 5.78582L15.2219 4.21622C15.222 4.2162 15.2221 4.21619 15.2221 4.21617L15.2222 4.21615L15.2514 4.31178M15.5339 5.43572C15.5308 5.43603 15.5277 5.43635 15.5246 5.43668L15.5139 5.33725M15.5139 5.33725L10.4241 6.89317C10.2909 6.9322 10.1478 6.91697 10.0257 6.8508C9.90365 6.78463 9.8125 6.67284 9.77206 6.53969C9.73161 6.40654 9.74511 6.26276 9.80965 6.13954C9.87418 6.01631 9.98454 5.92358 10.1168 5.88145L15.2514 4.31178M7.13301 10.9279L7.14672 10.9284C7.16701 10.9282 7.18599 10.9274 7.20418 10.9255L15.4396 8.17858L7.13301 10.9279ZM7.13301 10.9279C7.11693 10.9279 7.10033 10.9274 7.08214 10.926L7.06052 10.9239M7.13301 10.9279L7.06052 10.9239M7.06052 10.9239C7.04326 10.9224 7.02604 10.9204 7.00886 10.9181L6.97987 10.9136C6.96195 10.9107 6.94402 10.9078 6.92425 10.9041L6.89183 10.8975M7.06052 10.9239L6.89183 10.8975M6.89183 10.8975C6.86964 10.8931 6.8475 10.8884 6.82541 10.8835L6.7922 10.8755M6.89183 10.8975L6.7922 10.8755M6.7922 10.8755C6.76516 10.8693 6.73819 10.8627 6.71128 10.856L6.67701 10.847M6.7922 10.8755L6.67701 10.847M6.67701 10.847C6.64538 10.839 6.61296 10.8303 6.5779 10.8205M6.67701 10.847L6.5779 10.8205M6.5779 10.8205L6.54891 10.8126L6.46983 10.7904L1.7688 8.23914C1.64612 8.17566 1.50352 8.16299 1.37163 8.20385C1.23974 8.24471 1.12908 8.33583 1.06344 8.45765C0.997789 8.57946 0.982385 8.72225 1.02053 8.85534C1.05868 8.98842 1.14734 9.10145 1.26747 9.16967L6.02042 11.7492M6.5779 10.8205L6.02042 11.7492M6.02042 11.7492L6.022 11.7497M6.02042 11.7492L7.14039 11.9869M7.14039 11.9869C6.79483 11.9692 6.45335 11.9038 6.12559 11.7926C6.08964 11.782 6.05492 11.7677 6.022 11.7497M7.14039 11.9869C7.23073 11.987 7.32092 11.9796 7.41004 11.9647M7.14039 11.9869L7.41004 11.9647M6.022 11.7497L6.01744 11.7581L5.97415 11.8376C5.97685 11.839 5.97955 11.8405 5.98227 11.8419M6.022 11.7497L5.99027 11.8446L5.98869 11.844L5.98227 11.8419M5.98227 11.8419C6.01838 11.8609 6.05625 11.8763 6.09536 11.8879C6.43126 12.0017 6.78118 12.0687 7.13528 12.0868L7.13527 12.0869L7.14033 12.0869C7.23619 12.087 7.33189 12.0791 7.42646 12.0634L7.42669 12.0633C7.45911 12.0579 7.49106 12.0499 7.52226 12.0395L7.52234 12.0395L15.7731 9.28725C16.3582 9.15359 16.9483 8.83119 17.3937 8.38246C17.8405 7.93223 18.147 7.34882 18.147 6.69574C18.147 6.69571 18.147 6.69567 18.147 6.69564H18.047M5.98227 11.8419L15.2514 4.31178M18.047 6.69564C18.0473 6.34952 17.9739 6.00733 17.8317 5.69197C17.6895 5.37661 17.4818 5.09537 17.2225 4.86709C16.9668 4.64223 16.6663 4.47471 16.3409 4.37576C16.0155 4.2768 15.6728 4.24868 15.3358 4.29327C15.3072 4.29709 15.279 4.30328 15.2514 4.31178M18.047 6.69564C18.047 7.93662 16.8825 8.93327 15.7462 9.19083M18.047 6.69564L15.7462 9.19083M7.41004 11.9647C7.4374 11.9601 7.46436 11.9534 7.49069 11.9446M7.41004 11.9647L7.49069 11.9446M7.49069 11.9446L15.7462 9.19083M7.49069 11.9446L15.7462 9.19083M3.58967 25.6367L3.5889 25.6361C3.11816 25.2439 2.81526 24.6863 2.74104 24.0772C2.66682 23.4682 2.82744 22.8536 3.19008 22.3594L3.19118 22.3579L3.1912 22.3579C3.37811 22.1128 3.61272 21.9084 3.88081 21.757C4.1489 21.6056 4.44487 21.5104 4.75076 21.4772C5.05665 21.444 5.36607 21.4735 5.66025 21.5639C5.95443 21.6543 6.22721 21.8037 6.46206 22.003L10.6413 25.5384L10.6991 25.5873L10.6678 25.6561C10.5085 26.0065 10.4175 26.3843 10.3999 26.7691L10.3906 26.9721L10.2354 26.8408L5.65324 22.9643L5.65286 22.9639C5.54829 22.8746 5.4267 22.8075 5.2955 22.7668C5.16436 22.7261 5.02635 22.7126 4.88985 22.7271C4.7513 22.7421 4.61724 22.7853 4.49585 22.854C4.37485 22.9225 4.26897 23.015 4.18465 23.1258C4.01719 23.3604 3.94501 23.6503 3.98286 23.9365C4.02077 24.2231 4.16621 24.4844 4.38944 24.6671L13.9258 32.4514L13.9284 32.4535L13.9284 32.4536C13.985 32.503 14.0525 32.5381 14.1254 32.556C14.1966 32.5734 14.2709 32.5739 14.3423 32.5574L23.0617 29.4382L23.0641 29.4373L23.0641 29.4373L23.0775 29.4329C23.6186 29.2546 24.3423 29.0161 25.0235 29.426L27.7727 30.927C27.845 30.9665 27.9089 31.0199 27.9607 31.0841C28.0124 31.1483 28.0511 31.2222 28.0744 31.3013C28.0977 31.3805 28.1052 31.4635 28.0965 31.5456C28.0878 31.6277 28.0631 31.7073 28.0238 31.7798C27.9844 31.8523 27.9312 31.9164 27.8672 31.9684C27.8031 32.0203 27.7295 32.0591 27.6505 32.0825C27.5714 32.1059 27.4886 32.1135 27.4066 32.1048C27.3247 32.096 27.2452 32.0712 27.1729 32.0317L27.1728 32.0317L24.402 30.5181L24.3983 30.5161L24.3984 30.516C24.3043 30.4593 24.1768 30.4492 24.0102 30.4767C23.8441 30.5042 23.6579 30.5656 23.456 30.6324L23.4556 30.6325L23.3481 30.6675L14.7385 33.7504C14.7383 33.7504 14.7382 33.7505 14.738 33.7505L14.7379 33.7506L14.7042 33.6564C14.6926 33.6606 14.6808 33.6646 14.6689 33.6678L3.58967 25.6367ZM3.58967 25.6367L13.125 33.4196C13.1252 33.4198 13.1255 33.42 13.1257 33.4202C13.3395 33.6014 13.5942 33.7275 13.8677 33.7875C14.1413 33.8475 14.4254 33.8395 14.6953 33.7642L3.58967 25.6367Z" fill="white" stroke="white" stroke-width="0.2"/>
<path d="M9.95356 15.1617V15.1691C9.95326 15.1742 9.95289 15.1796 9.95251 15.1853C9.9522 15.1898 9.95188 15.1945 9.95158 15.1992H9.95V15.241V15.2463V15.2492V15.2968V23.154C9.95 23.8449 10.512 24.4069 11.2029 24.4069H20.4865C21.1774 24.4069 21.7394 23.8449 21.7394 23.154V21.5768H22.1264V22.4981V22.5481H22.1764H22.8258H22.8758V22.4981V21.5717C23.2252 21.5332 23.4982 21.2371 23.4982 20.8774V19.0752C23.4983 18.7155 23.2253 18.4193 22.8759 18.3808V15.9769C22.8759 14.875 21.9795 13.9787 20.8777 13.9787H20.1272L19.5819 12.6784L19.5626 12.6323L19.5164 12.6517L17.632 13.442L16.5232 11.9699L16.4931 11.93L16.4532 11.9601L13.773 13.9787H11.2123C10.5599 13.9787 10.0231 14.4764 9.95807 15.1117H9.95356V15.1617ZM11.2029 15.7527H11.2029C10.9452 15.7527 10.732 15.5577 10.703 15.3075V15.182C10.7323 14.927 10.9495 14.7281 11.2123 14.7281H12.778L11.4176 15.7528L11.2029 15.7527ZM20.99 18.3757H18.0907C17.705 18.3757 17.3913 18.6894 17.3913 19.0751V20.8773C17.3913 21.263 17.705 21.5767 18.0907 21.5767H20.99L20.99 23.154C20.99 23.4316 20.7641 23.6575 20.4865 23.6575H11.2029C10.9253 23.6575 10.6994 23.4316 10.6994 23.154V16.3965C10.8536 16.4644 11.024 16.5021 11.2029 16.5021H13.4089H13.4586C13.469 16.5023 13.4787 16.5023 13.4873 16.5023L13.488 16.5023H13.4881L20.4866 16.5032C20.7641 16.5032 20.99 16.7291 20.99 17.0067V18.3757ZM22.7489 19.1252L22.7493 20.8274H18.1406V19.1252H22.7489ZM20.8777 14.7281C21.5662 14.7281 22.1265 15.2884 22.1265 15.9769V18.3758H21.7394V17.0067C21.7394 16.4613 21.3888 15.9972 20.9017 15.8255L20.4415 14.7281H20.8777ZM19.1613 13.6133L20.0591 15.7538C18.1578 15.7538 15.3211 15.7537 14.0589 15.7532L19.1613 13.6133ZM16.3453 12.9795L16.9189 13.7411L13.3426 15.2411L16.3453 12.9795Z" fill="white" stroke="white" stroke-width="0.1"/>
<path d="M19.1327 20.4715C19.3942 20.4715 19.6062 20.2595 19.6062 19.9979C19.6062 19.7364 19.3942 19.5244 19.1327 19.5244C18.8712 19.5244 18.6592 19.7364 18.6592 19.9979C18.6592 20.2595 18.8712 20.4715 19.1327 20.4715Z" fill="white"/>
</svg>
