<svg width="252" height="74" viewBox="0 0 252 74" fill="none" xmlns="http://www.w3.org/2000/svg">
<g clip-path="url(#clip0_2439_234)">
<path d="M82.0915 39.1384H61.4476C61.6089 40.9945 62.1734 42.447 63.2217 43.4154C64.27 44.3838 65.5603 44.868 67.0924 44.868C69.3504 44.868 70.9632 43.8996 71.8502 41.9628H81.6076C81.1238 43.8996 80.2368 45.6749 78.9465 47.2889C77.6563 48.8222 76.0435 50.1133 74.0275 51.001C72.0921 51.8887 69.9148 52.3729 67.415 52.3729C64.512 52.3729 61.8508 51.7273 59.5929 50.5168C57.335 49.3064 55.5609 47.4503 54.2707 45.1908C52.9804 42.8505 52.3353 40.1875 52.3353 37.0403C52.3353 33.9738 52.9804 31.23 54.2707 28.8898C55.5609 26.5495 57.335 24.7742 59.5929 23.5637C61.8508 22.3532 64.512 21.7077 67.415 21.7077C70.318 21.7077 72.8985 22.3532 75.0758 23.5637C77.3337 24.7742 79.1078 26.4688 80.3174 28.7284C81.6076 30.9879 82.2528 33.5703 82.2528 36.5561C82.2528 37.2824 82.1721 38.17 82.0915 39.1384ZM72.8985 34.0545C72.8985 32.5212 72.334 31.23 71.2857 30.3423C70.2374 29.4547 68.8665 28.9705 67.2537 28.9705C65.7216 28.9705 64.4313 29.4547 63.383 30.3423C62.3347 31.23 61.6896 32.5212 61.4476 34.1351H72.8985V34.0545Z" fill="#E9188C"/>
<path d="M93.9456 44.3032H106.848V51.8888H83.7043V44.626L96.1229 29.5355H83.785V22.0306H106.606V29.2934L93.9456 44.3032Z" fill="#E9188C"/>
<path d="M152.974 22.0306L144.91 51.8888H134.83L130.072 32.5213L125.234 51.8888H115.154L107.09 22.0306H116.202L120.396 43.3348L125.476 22.0306H135.153L140.233 43.2541L144.346 22.0306H152.974Z" fill="#0BABE3"/>
<path d="M154.668 28.8092C155.796 26.469 157.409 24.6936 159.425 23.4831C161.441 22.2727 163.619 21.6271 166.118 21.6271C168.215 21.6271 170.07 22.0306 171.683 22.9182C173.295 23.8059 174.505 24.9357 175.311 26.3076V22.1113H184.424V51.9695H175.311V47.6118C174.424 48.9837 173.215 50.1135 171.602 51.0011C169.989 51.8888 168.134 52.2923 166.038 52.2923C163.619 52.2923 161.441 51.6467 159.425 50.3555C157.409 49.0644 155.877 47.289 154.668 44.9488C153.539 42.6085 152.893 39.9455 152.893 36.879C152.893 33.8125 153.539 31.1494 154.668 28.8092ZM173.376 31.5529C172.086 30.2618 170.554 29.5355 168.78 29.5355C166.925 29.5355 165.393 30.1811 164.183 31.4722C162.893 32.7634 162.248 34.5388 162.248 36.879C162.248 39.1385 162.893 40.9946 164.183 42.2858C165.473 43.5769 167.005 44.3032 168.78 44.3032C170.634 44.3032 172.166 43.6576 173.376 42.2858C174.666 40.9946 175.311 39.1385 175.311 36.879C175.311 34.6195 174.666 32.8441 173.376 31.5529Z" fill="#0BABE3"/>
<path d="M206.196 22.8374C207.809 23.7251 209.019 24.8549 209.825 26.2267V22.0304H218.938V51.808C218.938 54.5517 218.373 57.0533 217.325 59.2322C216.276 61.4917 214.583 63.2671 212.325 64.5583C210.067 65.8494 207.325 66.5757 204.019 66.5757C199.584 66.5757 196.036 65.5266 193.294 63.4285C190.552 61.3303 189.02 58.5059 188.617 54.9552H197.649C197.971 56.085 198.616 56.9726 199.665 57.6182C200.713 58.2638 202.084 58.5866 203.616 58.5866C205.471 58.5866 207.003 58.0217 208.132 56.9726C209.261 55.9236 209.825 54.1482 209.825 51.7273V47.6117C208.938 48.9836 207.729 50.1133 206.116 51.001C204.584 51.8887 202.729 52.2922 200.632 52.2922C198.132 52.2922 195.955 51.6466 193.939 50.3554C191.923 49.0643 190.391 47.2889 189.181 44.9487C188.052 42.6084 187.407 39.9454 187.407 36.8789C187.407 33.8123 187.972 31.1493 189.181 28.8091C190.31 26.4688 191.923 24.6935 193.939 23.483C195.955 22.2725 198.132 21.627 200.632 21.627C202.729 21.5463 204.584 22.0304 206.196 22.8374ZM207.971 31.5528C206.68 30.2616 205.148 29.5354 203.374 29.5354C201.519 29.5354 199.987 30.1809 198.778 31.4721C197.487 32.7633 196.842 34.5386 196.842 36.8789C196.842 39.1384 197.487 40.9945 198.778 42.2856C200.068 43.5768 201.6 44.3031 203.374 44.3031C205.229 44.3031 206.761 43.6575 207.971 42.2856C209.261 40.9945 209.906 39.1384 209.906 36.8789C209.825 34.6193 209.261 32.844 207.971 31.5528Z" fill="#0BABE3"/>
<path d="M251.839 39.1384H231.114C231.276 40.9945 231.84 42.447 232.888 43.4154C233.937 44.3838 235.227 44.868 236.759 44.868C239.017 44.868 240.63 43.8996 241.517 41.9628H251.274C250.79 43.8996 249.903 45.6749 248.613 47.2889C247.323 48.8222 245.71 50.1133 243.694 51.001C241.759 51.8887 239.581 52.3729 237.082 52.3729C234.179 52.3729 231.517 51.7273 229.26 50.5168C227.002 49.3064 225.228 47.4503 223.937 45.1908C222.647 42.8505 222.002 40.1875 222.002 37.0403C222.002 33.9738 222.647 31.23 223.937 28.8898C225.228 26.5495 227.002 24.7742 229.26 23.5637C231.517 22.3532 234.179 21.7077 237.082 21.7077C239.985 21.7077 242.565 22.3532 244.742 23.5637C247 24.7742 248.774 26.4688 249.984 28.7284C251.274 30.9879 251.919 33.5703 251.919 36.5561C252 37.2824 252 38.17 251.839 39.1384ZM242.646 34.0545C242.646 32.5212 242.081 31.23 241.033 30.3423C239.985 29.4547 238.614 28.9705 237.001 28.9705C235.469 28.9705 234.179 29.4547 233.13 30.3423C232.082 31.23 231.437 32.5212 231.195 34.1351H242.646V34.0545Z" fill="#0BABE3"/>
<path d="M0 31.9564L34.5946 56.0044C37.8202 58.1833 42.1747 55.9237 42.1747 52.0502V42.9313L4.4352 15.7361C2.58048 14.445 0 15.8168 0 18.0764V31.9564Z" fill="#3D7ABE"/>
<path d="M37.2557 18.3989L0 32.0369V17.9955C0 15.4131 1.6128 13.0729 4.032 12.1852L36.7718 0.241909C39.433 -0.726467 42.1747 1.21028 42.1747 4.03471V11.2975C42.1747 14.5254 40.1587 17.3499 37.2557 18.3989Z" fill="#0BABE3"/>
<path d="M38.1427 62.7022L8.30592 73.5965C4.27392 75.1297 0 72.1439 0 67.8669V58.3446L42.1747 42.9313V56.9727C42.1747 59.555 40.5619 61.8146 38.1427 62.7022Z" fill="#0BABE3"/>
<path d="M19.031 47.5311L0 54.3097V35.9913L15.5635 30.5038C19.273 29.2126 23.1437 31.9564 23.1437 35.9106V41.8015C23.1437 44.3032 21.4502 46.6434 19.031 47.5311Z" fill="#E9188C"/>
<path d="M0 46.2399V57.699C0 57.699 0.88704 53.7448 5.40288 52.373C8.54784 51.4046 2.58048 44.7067 2.58048 44.7067L0 46.2399Z" fill="#E9188C"/>
</g>
<defs>
<clipPath id="clip0_2439_234">
<rect width="252" height="74" fill="white"/>
</clipPath>
</defs>
</svg>
