<svg width="35" height="35" viewBox="0 0 35 35" fill="none" xmlns="http://www.w3.org/2000/svg">
<rect width="35" height="35" rx="7" fill="#00A2FF"/>
<path fill-rule="evenodd" clip-rule="evenodd" d="M6.26186 6.26201C6.90982 5.61405 7.78865 5.25003 8.70501 5.25003H11.2178C11.7382 5.25003 12.1601 5.67192 12.1601 6.19234C12.1601 6.71276 11.7382 7.13465 11.2178 7.13465H8.70501C8.28848 7.13465 7.88901 7.30011 7.59449 7.59464C7.29996 7.88917 7.13449 8.28863 7.13449 8.70516V11.218C7.13449 11.7384 6.71261 12.1603 6.19219 12.1603C5.67176 12.1603 5.24988 11.7384 5.24988 11.218V8.70516C5.24988 7.7888 5.6139 6.90998 6.26186 6.26201ZM22.8396 6.19234C22.8396 5.67192 23.2615 5.25003 23.7819 5.25003H26.2947C27.2111 5.25003 28.0899 5.61405 28.7379 6.26201C29.3859 6.90998 29.7499 7.7888 29.7499 8.70516V11.218C29.7499 11.7384 29.328 12.1603 28.8076 12.1603C28.2871 12.1603 27.8653 11.7384 27.8653 11.218V8.70516C27.8653 8.28863 27.6998 7.88917 27.4053 7.59464C27.1107 7.30011 26.7113 7.13465 26.2947 7.13465H23.7819C23.2615 7.13465 22.8396 6.71276 22.8396 6.19234ZM12.4742 11.5321C12.9947 11.5321 13.4165 11.954 13.4165 12.4744V14.9872C13.4165 15.5076 12.9947 15.9295 12.4742 15.9295C11.9538 15.9295 11.5319 15.5076 11.5319 14.9872V12.4744C11.5319 11.954 11.9538 11.5321 12.4742 11.5321ZM17.4999 11.5321C18.0203 11.5321 18.4422 11.954 18.4422 12.4744V19.3846C18.4422 19.9051 18.0203 20.327 17.4999 20.327C16.9795 20.327 16.5576 19.9051 16.5576 19.3846V12.4744C16.5576 11.954 16.9795 11.5321 17.4999 11.5321ZM22.5255 11.5321C23.0459 11.5321 23.4678 11.954 23.4678 12.4744V14.9872C23.4678 15.5076 23.0459 15.9295 22.5255 15.9295C22.0051 15.9295 21.5832 15.5076 21.5832 14.9872V12.4744C21.5832 11.954 22.0051 11.5321 22.5255 11.5321ZM14.3963 21.8587C14.3963 21.8587 14.3963 21.8587 14.3963 21.8587L14.3954 21.8578L14.3926 21.855L14.39 21.8525C14.3888 21.8513 14.3889 21.8514 14.39 21.8525C14.39 21.8525 14.3899 21.8524 14.39 21.8525C14.3923 21.8547 14.399 21.8608 14.4101 21.8705C14.4326 21.8902 14.4732 21.9243 14.5316 21.9681C14.6486 22.0559 14.8363 22.182 15.0944 22.311C15.6073 22.5675 16.4063 22.8398 17.4999 22.8398C18.5935 22.8398 19.3924 22.5675 19.9054 22.311C20.1634 22.182 20.3511 22.0559 20.4681 21.9681C20.5266 21.9243 20.5671 21.8902 20.5897 21.8705C20.601 21.8606 20.6077 21.8544 20.6099 21.8523C20.611 21.8513 20.6111 21.8512 20.6099 21.8523L20.6071 21.855L20.6052 21.857L20.604 21.8581C20.9721 21.4908 21.5676 21.4916 21.9354 21.8594C22.3034 22.2274 22.3034 22.824 21.9354 23.192L21.2691 22.5257C21.9354 23.192 21.9358 23.1916 21.9354 23.192L21.9326 23.1948L21.9292 23.1981L21.9211 23.2061L21.8989 23.2272C21.8814 23.2436 21.8587 23.2643 21.8307 23.2888C21.7748 23.3378 21.6975 23.4019 21.5989 23.4758C21.4018 23.6236 21.1184 23.8116 20.7482 23.9967C20.0048 24.3684 18.9191 24.7244 17.4999 24.7244C16.0807 24.7244 14.995 24.3684 14.2515 23.9967C13.8814 23.8116 13.5979 23.6236 13.4008 23.4758C13.3022 23.4019 13.225 23.3378 13.169 23.2888C13.141 23.2643 13.1183 23.2436 13.1009 23.2272L13.0787 23.2061L13.0705 23.1981L13.0672 23.1948L13.0657 23.1933C13.0654 23.193 13.0643 23.192 13.7306 22.5257L13.0643 23.192C12.6963 22.824 12.6963 22.2274 13.0643 21.8594C13.43 21.4937 14.0215 21.4914 14.39 21.8525M14.3954 21.8578L14.3963 21.8587C14.3963 21.8587 14.3963 21.8587 14.3963 21.8587M6.19219 22.8398C6.71261 22.8398 7.13449 23.2617 7.13449 23.7821V26.2949C7.13449 26.7114 7.29996 27.1109 7.59449 27.4054C7.88901 27.6999 8.28848 27.8654 8.70501 27.8654H11.2178C11.7382 27.8654 12.1601 28.2873 12.1601 28.8077C12.1601 29.3281 11.7382 29.75 11.2178 29.75H8.70501C7.78865 29.75 6.90982 29.386 6.26186 28.738C5.6139 28.0901 5.24988 27.2113 5.24988 26.2949V23.7821C5.24988 23.2617 5.67176 22.8398 6.19219 22.8398ZM28.8076 22.8398C29.328 22.8398 29.7499 23.2617 29.7499 23.7821V26.2949C29.7499 27.2113 29.3859 28.0901 28.7379 28.738C28.0899 29.386 27.2111 29.75 26.2947 29.75H23.7819C23.2615 29.75 22.8396 29.3281 22.8396 28.8077C22.8396 28.2873 23.2615 27.8654 23.7819 27.8654H26.2947C26.7113 27.8654 27.1107 27.6999 27.4053 27.4054C27.6998 27.1109 27.8653 26.7114 27.8653 26.2949V23.7821C27.8653 23.2617 28.2871 22.8398 28.8076 22.8398Z" fill="white"/>
</svg>
