<svg width="76" height="79" viewBox="0 0 76 79" fill="none" xmlns="http://www.w3.org/2000/svg">
<path opacity="0.25" d="M38.1971 79C53.9898 79 66.7922 76.8662 66.7922 74.2341C66.7922 71.602 53.9898 69.4683 38.1971 69.4683C22.4045 69.4683 9.60202 71.602 9.60202 74.2341C9.60202 76.8662 22.4045 79 38.1971 79Z" fill="#DEE6F1"/>
<path d="M38.4138 74.2122C58.3546 74.2122 74.5199 58.0469 74.5199 38.1061C74.5199 18.1653 58.3546 2 38.4138 2C18.4729 2 2.30769 18.1653 2.30769 38.1061C2.30769 58.0469 18.4729 74.2122 38.4138 74.2122Z" fill="white"/>
<path d="M43.8988 68.4338C37.2597 68.4339 30.7492 66.6037 25.0827 63.1442C19.4163 59.6847 14.8132 54.73 11.7796 48.8245C8.746 42.9191 7.39922 36.2917 7.8873 29.6706C8.37538 23.0495 10.6794 16.6912 14.5462 11.2944C10.751 14.6619 7.70835 18.7917 5.61688 23.4144C3.52541 28.0372 2.43207 33.0489 2.40821 38.1227C2.38435 43.1964 3.4305 48.2182 5.4784 52.8604C7.5263 57.5026 10.5299 61.6609 14.2933 65.0639C18.0567 68.4669 22.4953 71.0382 27.3195 72.6101C32.1438 74.182 37.2452 74.719 42.291 74.1863C47.3367 73.6535 52.2135 72.0629 56.6031 69.5183C60.9927 66.9736 64.7964 63.532 67.7662 59.4181C61.1794 65.239 52.689 68.4462 43.8988 68.4338Z" fill="#DEE6F1"/>
<path d="M56.8967 7.48486C58.0638 8.20412 59.1891 8.98911 60.2672 9.83602" stroke="#374449" stroke-width="2.5" stroke-miterlimit="10"/>
<path d="M71.0771 22.2617C61.7208 24.9662 50.6157 26.5472 38.6998 26.5472C26.7839 26.5472 15.6763 24.9662 6.31995 22.2617C7.04437 20.7957 7.86813 19.3808 8.78548 18.0271C17.6029 20.3147 27.8108 21.6263 38.6972 21.6263C49.5837 21.6263 59.7941 20.3173 68.6064 18.0271C69.5266 19.38 70.3521 20.7949 71.0771 22.2617Z" fill="#00B528"/>
<path d="M10.5538 18.4667C9.94683 19.9181 9.43735 21.4084 9.0287 22.9276C8.12128 22.7013 7.21132 22.4802 6.33949 22.226C7.06172 20.7741 7.88031 19.3721 8.78977 18.0295C9.37099 18.177 9.95899 18.3227 10.5538 18.4667Z" fill="#3FAAA7"/>
<path d="M65.9881 15.4655C71.473 22.2295 74.3212 30.7517 74.0056 39.4543C73.6899 48.1569 70.2317 56.4504 64.2713 62.7992C58.3108 69.1481 50.2519 73.1222 41.5865 73.9859C32.9211 74.8496 24.2363 72.5443 17.14 67.4968C10.0437 62.4493 5.01656 55.0015 2.98942 46.5324C0.962276 38.0633 2.07241 29.1466 6.11427 21.4331C10.1561 13.7196 16.856 7.73184 24.9733 4.57844C33.0906 1.42505 42.0756 1.31961 50.2646 4.28165" stroke="#374449" stroke-width="2.5" stroke-miterlimit="10"/>
<path d="M45.1412 52.4731C45.1412 56.1689 42.2817 59.1631 38.7563 59.1631C35.2308 59.1631 32.3764 56.1739 32.3764 52.4731V52.4426C32.3805 52.2956 32.4311 52.1537 32.5209 52.0372C32.6107 51.9207 32.735 51.8356 32.8761 51.7941C33.0172 51.7527 33.1678 51.7569 33.3063 51.8063C33.4449 51.8556 33.5642 51.9476 33.6473 52.069C34.2193 52.8958 34.9833 53.5715 35.8738 54.0382C36.7643 54.505 37.7547 54.7488 38.7601 54.7488C39.7655 54.7488 40.7559 54.505 41.6463 54.0382C42.5368 53.5715 43.3008 52.8958 43.8729 52.069C43.9559 51.9476 44.0753 51.8556 44.2138 51.8063C44.3523 51.7569 44.5029 51.7527 44.644 51.7941C44.7851 51.8356 44.9095 51.9207 44.9992 52.0372C45.089 52.1537 45.1396 52.2956 45.1438 52.4426L45.1412 52.4731Z" fill="#374449"/>
<path d="M26.4583 39.9596C26.0948 38.8945 25.2408 38.3938 23.7513 38.3582C22.6507 38.2998 22.1652 38.2489 22 37.766C21.878 37.4101 22.1144 36.9348 22.8566 36.6832C23.3908 36.4904 23.9641 36.4311 24.5265 36.5103L24.4528 35.0234C23.8321 34.948 23.2024 35.0167 22.6126 35.2242L22.1703 33.9177L20.8791 34.3575L21.3671 35.7936C20.3682 36.4849 20.0047 37.5042 20.3504 38.5006C20.724 39.5986 21.7611 40.0028 23.1743 40.0256C24.1783 40.0078 24.6307 40.1781 24.7858 40.6306C24.9612 41.1389 24.6511 41.6117 23.8758 41.8761C23.2199 42.0865 22.5256 42.1499 21.8424 42.0616L21.9288 43.5867C22.6127 43.6595 23.3043 43.5938 23.9623 43.3935L24.4045 44.6924L25.6958 44.2526L25.5865 43.9298L25.2204 42.8572C26.471 42.1048 26.8091 40.9864 26.4583 39.9596Z" fill="#4FBDBD"/>
<path d="M54.7957 41.5723C55.0854 40.4844 54.6508 39.5922 53.4307 38.7407C52.5462 38.0824 52.1598 37.7723 52.3022 37.2766C52.3988 36.9132 52.8563 36.6488 53.6163 36.8496C54.1683 36.9855 54.6788 37.2542 55.1032 37.6325L55.8658 36.3616C55.3906 35.9542 54.8278 35.6619 54.2212 35.5076L54.572 34.1833L53.2528 33.8325L52.8639 35.2991C51.6489 35.322 50.7822 35.9676 50.5102 36.9869C50.2128 38.1078 50.8534 39.0203 52.0175 39.821C52.8614 40.3624 53.146 40.7564 53.0342 41.2164C52.8944 41.7451 52.3784 41.9586 51.5879 41.7502C50.9314 41.5609 50.3241 41.2303 49.8087 40.7818L49.0461 42.0933C49.5694 42.5287 50.1743 42.8553 50.8254 43.0541L50.4746 44.3809L51.7938 44.7317L51.8802 44.4013L52.17 43.3058C53.6163 43.3642 54.5186 42.622 54.7957 41.5723Z" fill="#4FBDBD"/>
</svg>
