<svg width="54" height="54" viewBox="0 0 54 54" fill="none" xmlns="http://www.w3.org/2000/svg">
<path fill-rule="evenodd" clip-rule="evenodd" d="M2.23049 2.23049C3.65866 0.802332 5.59566 0 7.61539 0H13.1538C14.3009 0 15.2308 0.92987 15.2308 2.07692C15.2308 3.22398 14.3009 4.15385 13.1538 4.15385H7.61539C6.69733 4.15385 5.81687 4.51854 5.16771 5.16771C4.51854 5.81687 4.15385 6.69733 4.15385 7.61539V13.1538C4.15385 14.3009 3.22398 15.2308 2.07692 15.2308C0.92987 15.2308 0 14.3009 0 13.1538V7.61539C0 5.59566 0.802332 3.65866 2.23049 2.23049ZM38.7692 2.07692C38.7692 0.92987 39.6991 0 40.8462 0H46.3846C48.4043 0 50.3413 0.802333 51.7695 2.23049C53.1977 3.65866 54 5.59566 54 7.61539V13.1538C54 14.3009 53.0701 15.2308 51.9231 15.2308C50.776 15.2308 49.8462 14.3009 49.8462 13.1538V7.61539C49.8462 6.69733 49.4815 5.81687 48.8323 5.16771C48.1831 4.51854 47.3027 4.15385 46.3846 4.15385H40.8462C39.6991 4.15385 38.7692 3.22398 38.7692 2.07692ZM15.9231 13.8462C17.0701 13.8462 18 14.776 18 15.9231V21.4615C18 22.6086 17.0701 23.5385 15.9231 23.5385C14.776 23.5385 13.8462 22.6086 13.8462 21.4615V15.9231C13.8462 14.776 14.776 13.8462 15.9231 13.8462ZM27 13.8462C28.1471 13.8462 29.0769 14.776 29.0769 15.9231V31.1538C29.0769 32.3009 28.1471 33.2308 27 33.2308C25.8529 33.2308 24.9231 32.3009 24.9231 31.1538V15.9231C24.9231 14.776 25.8529 13.8462 27 13.8462ZM38.0769 13.8462C39.224 13.8462 40.1538 14.776 40.1538 15.9231V21.4615C40.1538 22.6086 39.224 23.5385 38.0769 23.5385C36.9299 23.5385 36 22.6086 36 21.4615V15.9231C36 14.776 36.9299 13.8462 38.0769 13.8462ZM20.1595 36.6069C20.1595 36.6069 20.1595 36.6069 20.1595 36.6069L20.1575 36.6049L20.1513 36.5988L20.1455 36.5931C20.1429 36.5906 20.1431 36.5909 20.1455 36.5931C20.1456 36.5932 20.1454 36.593 20.1455 36.5931C20.1507 36.598 20.1655 36.6116 20.1898 36.6329C20.2395 36.6764 20.3289 36.7514 20.4577 36.8481C20.7157 37.0416 21.1293 37.3195 21.6981 37.6039C22.8287 38.1692 24.5896 38.7692 27 38.7692C29.4104 38.7692 31.1713 38.1692 32.3019 37.6039C32.8707 37.3195 33.2843 37.0416 33.5423 36.8481C33.6711 36.7514 33.7605 36.6764 33.8102 36.6329C33.8351 36.6111 33.8499 36.5974 33.8547 36.5928C33.8572 36.5906 33.8574 36.5903 33.8547 36.5928L33.8487 36.5988L33.8444 36.6031L33.8418 36.6056C34.653 35.7959 35.9657 35.7977 36.7763 36.6083C37.5874 37.4194 37.5874 38.7344 36.7763 39.5455L35.3077 38.0769C36.7763 39.5455 36.777 39.5448 36.7763 39.5455L36.77 39.5518L36.7627 39.5591L36.7447 39.5766L36.6957 39.6232C36.6573 39.6592 36.6073 39.705 36.5455 39.759C36.4222 39.8669 36.2519 40.0082 36.0346 40.1712C35.6003 40.4969 34.9755 40.9112 34.1596 41.3192C32.521 42.1385 30.128 42.9231 27 42.9231C23.872 42.9231 21.479 42.1385 19.8404 41.3192C19.0245 40.9112 18.3997 40.4969 17.9654 40.1712C17.7481 40.0082 17.5778 39.8669 17.4545 39.759C17.3927 39.705 17.3427 39.6592 17.3043 39.6232L17.2553 39.5766L17.2373 39.5591L17.23 39.5518L17.2267 39.5485C17.226 39.5478 17.2237 39.5455 18.6923 38.0769L17.2237 39.5455C16.4126 38.7344 16.4126 37.4194 17.2237 36.6083C18.0297 35.8023 19.3333 35.7973 20.1455 36.5931M20.1575 36.6049L20.1595 36.6069C20.1595 36.6069 20.1595 36.6069 20.1595 36.6069M2.07692 38.7692C3.22398 38.7692 4.15385 39.6991 4.15385 40.8462V46.3846C4.15385 47.3027 4.51854 48.1831 5.16771 48.8323C5.81687 49.4815 6.69733 49.8462 7.61539 49.8462H13.1538C14.3009 49.8462 15.2308 50.776 15.2308 51.9231C15.2308 53.0701 14.3009 54 13.1538 54H7.61539C5.59566 54 3.65866 53.1977 2.23049 51.7695C0.802333 50.3413 0 48.4043 0 46.3846V40.8462C0 39.6991 0.92987 38.7692 2.07692 38.7692ZM51.9231 38.7692C53.0701 38.7692 54 39.6991 54 40.8462V46.3846C54 48.4043 53.1977 50.3413 51.7695 51.7695C50.3413 53.1977 48.4043 54 46.3846 54H40.8462C39.6991 54 38.7692 53.0701 38.7692 51.9231C38.7692 50.776 39.6991 49.8462 40.8462 49.8462H46.3846C47.3027 49.8462 48.1831 49.4815 48.8323 48.8323C49.4815 48.1831 49.8462 47.3027 49.8462 46.3846V40.8462C49.8462 39.6991 50.776 38.7692 51.9231 38.7692Z" fill="#00A2FF"/>
</svg>
