<svg width="20" height="21" viewBox="0 0 20 21" fill="none" xmlns="http://www.w3.org/2000/svg">
<path d="M9.77631 16.1061C10.3025 16.1061 10.7291 15.6861 10.7291 15.1681C10.7291 14.65 10.3025 14.2301 9.77631 14.2301C9.25008 14.2301 8.82349 14.65 8.82349 15.1681C8.82349 15.6861 9.25008 16.1061 9.77631 16.1061Z" fill="#00A2FF"/>
<path d="M9.77625 0.966736C4.38385 0.966736 0.0192871 5.26274 0.0192871 10.572C0.0192871 15.8806 4.38313 20.1773 9.77625 20.1773C15.1687 20.1773 19.5332 15.8813 19.5332 10.572C19.5332 5.26346 15.1694 0.966736 9.77625 0.966736ZM9.77625 18.6765C5.22642 18.6765 1.54381 15.0517 1.54381 10.572C1.54381 6.09293 5.22581 2.46756 9.77625 2.46756C14.3261 2.46756 18.0087 6.09233 18.0087 10.572C18.0087 15.0511 14.3267 18.6765 9.77625 18.6765Z" fill="#00A2FF"/>
<path d="M9.77635 5.78799C8.0951 5.78799 6.72729 7.13454 6.72729 8.78965C6.72729 9.2041 7.06856 9.54006 7.48956 9.54006C7.91056 9.54006 8.25182 9.2041 8.25182 8.78965C8.25182 7.96209 8.93572 7.28882 9.77635 7.28882C10.617 7.28882 11.3009 7.96209 11.3009 8.78965C11.3009 9.61721 10.617 10.2905 9.77635 10.2905C9.35535 10.2905 9.01408 10.6264 9.01408 11.0409V12.9169C9.01408 13.3314 9.35535 13.6673 9.77635 13.6673C10.1973 13.6673 10.5386 13.3314 10.5386 12.9169V11.6963C11.8522 11.3623 12.8254 10.1858 12.8254 8.78965C12.8254 7.13454 11.4576 5.78799 9.77635 5.78799Z" fill="#00A2FF"/>
</svg>
