<svg width="12" height="13" viewBox="0 0 12 13" fill="none" xmlns="http://www.w3.org/2000/svg">
<path d="M4.97148 8.58107L3.59484 9.95766V0.600369C3.59484 0.441141 3.53158 0.288435 3.41899 0.175844C3.3064 0.0632529 3.15369 0 2.99447 0C2.83524 0 2.68253 0.0632529 2.56994 0.175844C2.45735 0.288435 2.3941 0.441141 2.3941 0.600369V9.95766L1.01745 8.58107C0.904221 8.47171 0.752567 8.4112 0.595152 8.41256C0.437737 8.41393 0.287157 8.47707 0.175844 8.58839C0.0645308 8.6997 0.00139059 8.85028 2.26955e-05 9.00769C-0.0013452 9.16511 0.0591686 9.31676 0.168531 9.42999L2.57001 11.8315C2.6827 11.9438 2.83535 12.007 2.9945 12.007C3.15364 12.007 3.3063 11.9438 3.41899 11.8315L5.82046 9.42999C5.93022 9.31684 5.99107 9.16505 5.98987 9.0074C5.98866 8.84976 5.9255 8.69892 5.81403 8.58745C5.70255 8.47598 5.5517 8.41283 5.39406 8.41164C5.23642 8.41045 5.08463 8.4713 4.97148 8.58107Z" fill="#EC0B8D"/>
<path d="M5.39615 2.40142H11.3998C11.5591 2.40142 11.7118 2.33817 11.8244 2.22558C11.937 2.11298 12.0002 1.96028 12.0002 1.80105C12.0002 1.64182 11.937 1.48912 11.8244 1.37653C11.7118 1.26394 11.5591 1.20068 11.3998 1.20068H5.39615C5.23692 1.20068 5.08421 1.26394 4.97162 1.37653C4.85903 1.48912 4.79578 1.64182 4.79578 1.80105C4.79578 1.96028 4.85903 2.11298 4.97162 2.22558C5.08421 2.33817 5.23692 2.40142 5.39615 2.40142Z" fill="#EC0B8D"/>
<path d="M11.3998 3.60217H5.39615C5.23692 3.60217 5.08421 3.66543 4.97162 3.77802C4.85903 3.89061 4.79578 4.04331 4.79578 4.20254C4.79578 4.36177 4.85903 4.51447 4.97162 4.62706C5.08421 4.73966 5.23692 4.80291 5.39615 4.80291H11.3998C11.5591 4.80291 11.7118 4.73966 11.8244 4.62706C11.937 4.51447 12.0002 4.36177 12.0002 4.20254C12.0002 4.04331 11.937 3.89061 11.8244 3.77802C11.7118 3.66543 11.5591 3.60217 11.3998 3.60217Z" fill="#EC0B8D"/>
<path d="M9.59873 6.00366H5.39615C5.23692 6.00366 5.08421 6.06692 4.97162 6.17951C4.85903 6.2921 4.79578 6.44481 4.79578 6.60403C4.79578 6.76326 4.85903 6.91597 4.97162 7.02856C5.08421 7.14115 5.23692 7.20441 5.39615 7.20441H9.59873C9.75796 7.20441 9.91066 7.14115 10.0233 7.02856C10.1358 6.91597 10.1991 6.76326 10.1991 6.60403C10.1991 6.44481 10.1358 6.2921 10.0233 6.17951C9.91066 6.06692 9.75796 6.00366 9.59873 6.00366Z" fill="#EC0B8D"/>
</svg>
