<svg width="8" height="9" viewBox="0 0 8 9" fill="none" xmlns="http://www.w3.org/2000/svg">
<path d="M3.62674 1L1.90698 3.79336M1.69767 1H6.30233C6.68605 1 7 1.31823 7 1.70718V2.48508C7 2.76795 6.82558 3.12154 6.65116 3.29833L5.15116 4.64197C4.94186 4.81877 4.80233 5.17236 4.80233 5.45523V6.97567C4.80233 7.18782 4.66279 7.47069 4.48837 7.57677L4 7.895C3.54651 8.17787 2.9186 7.85964 2.9186 7.2939V5.41987C2.9186 5.17236 2.77907 4.85413 2.63953 4.67733L1.31395 3.26297C1.13953 3.08618 1 2.76795 1 2.55579V1.74254C1 1.31823 1.31395 1 1.69767 1Z" stroke="#EC0B8D" stroke-width="0.8" stroke-miterlimit="10" stroke-linecap="round" stroke-linejoin="round"/>
</svg>
