<svg width="24" height="13" viewBox="0 0 24 13" fill="none" xmlns="http://www.w3.org/2000/svg">
<path d="M24 0H0V13H24V0Z" fill="#003E15"/>
<path d="M13.5833 2.77289C11.5725 4.37387 11.8871 6.81377 13.1593 8.06895C14.4041 9.30491 16.8184 9.75318 18.6309 8.18422C18.3984 9.36895 16.3876 10.5345 14.6298 10.4448C12.619 10.3488 11.0117 8.93348 10.7176 7.10836C10.3619 4.92461 11.9418 3.22116 13.5833 2.77289Z" fill="white"/>
<path d="M16.4627 3.61182C16.6337 3.79113 16.7979 3.97684 16.9757 4.14334C17.0304 4.19457 17.1535 4.22019 17.2288 4.19457C17.475 4.11132 17.7144 4.00886 17.9948 3.94482C17.8648 4.14975 17.7417 4.36108 17.6049 4.5596C17.5297 4.66847 17.5297 4.75172 17.6323 4.85418C17.8101 5.02709 17.9674 5.2128 18.1179 5.43694C17.8785 5.39211 17.6323 5.35369 17.3998 5.29605C17.2424 5.25122 17.1467 5.28324 17.0715 5.42413C16.962 5.62906 16.8252 5.82118 16.6406 6.01329C16.6132 5.77635 16.5722 5.5394 16.5585 5.30246C16.5517 5.16157 16.4901 5.11034 16.3601 5.08472C16.1139 5.0399 15.8609 4.98226 15.601 4.8862C15.8267 4.79014 16.0455 4.68127 16.2781 4.59802C16.4217 4.54679 16.4696 4.47635 16.4559 4.32906C16.4285 4.09852 16.4149 3.86157 16.3943 3.62462C16.4149 3.61822 16.4354 3.61822 16.4627 3.61182Z" fill="white"/>
<path d="M6 0H0V13H6V0Z" fill="white"/>
</svg>
