<svg width="16" height="16" viewBox="0 0 16 16" fill="none" xmlns="http://www.w3.org/2000/svg">
<path d="M10.6914 15C10.3593 14.9219 10.0195 14.875 9.69918 14.7656C7.99215 14.1797 6.88668 12.418 7.08199 10.625C7.28121 8.78908 8.67965 7.35939 10.5117 7.1172C10.5273 7.1172 10.539 7.10939 10.5664 7.10158C10.5664 5.84767 10.5664 4.58986 10.5664 3.30861C10.5195 3.35158 10.4843 3.38283 10.4492 3.41798C10.164 3.69923 9.88277 3.98048 9.59761 4.26173C9.39058 4.46486 9.13668 4.47267 8.95308 4.28517C8.7734 4.09767 8.78121 3.85158 8.98043 3.64845C9.55074 3.07814 10.1171 2.50783 10.6875 1.94142C10.8984 1.73439 11.1367 1.73048 11.3437 1.93751C11.9179 2.50783 12.4921 3.08204 13.0625 3.65626C13.2617 3.85548 13.2656 4.10939 13.082 4.29298C12.8984 4.47658 12.6445 4.46876 12.4453 4.26955C12.1289 3.94923 11.8203 3.62501 11.5078 3.3047C11.496 3.31251 11.4843 3.32033 11.4726 3.32814C11.4726 4.58204 11.4726 5.83595 11.4726 7.10158C11.6015 7.12501 11.7382 7.14845 11.875 7.1797C13.5312 7.53908 14.7734 8.90236 14.9765 10.586C14.9804 10.625 14.9921 10.6602 15.0039 10.6992C15.0039 10.9141 15.0039 11.1289 15.0039 11.3438C14.996 11.3828 14.9843 11.418 14.9765 11.457C14.7343 13.1055 13.8203 14.2188 12.2617 14.7969C11.9687 14.9063 11.6484 14.9375 11.3398 15.0078C11.121 15 10.9062 15 10.6914 15ZM11.0156 14.1211C12.7109 14.1211 14.121 12.707 14.121 11.0117C14.121 9.32814 12.7187 7.94142 11.0195 7.93751C9.32418 7.93751 7.94137 9.31251 7.94137 11.0078C7.93746 12.7149 9.32418 14.1211 11.0156 14.1211Z" fill="#9C9FA2"/>
<path d="M4.30469 0C4.60937 0.0664063 4.91797 0.109375 5.21484 0.207031C6.96875 0.773438 8.10938 2.54687 7.91406 4.37891C7.71875 6.21094 6.32031 7.64453 4.48828 7.88672C4.47266 7.88672 4.46094 7.89453 4.43359 7.90234C4.43359 8.78516 4.43359 9.67187 4.43359 10.5781C4.47266 10.5781 4.51953 10.5781 4.56641 10.5781C4.93359 10.5781 5.29688 10.5781 5.66406 10.5781C5.98047 10.5781 6.17578 10.7461 6.17578 11.0117C6.17969 11.2852 5.98047 11.4531 5.65625 11.4531C5.25 11.4531 4.84766 11.4531 4.42187 11.4531C4.42187 11.5039 4.42187 11.5508 4.42187 11.5977C4.42187 11.9531 4.42187 12.3086 4.42187 12.668C4.42187 13.0117 4.26172 13.207 3.98438 13.2109C3.70703 13.2148 3.54297 13.0117 3.54297 12.6758C3.54297 12.2773 3.54297 11.875 3.54297 11.4531C3.48828 11.4531 3.44531 11.4531 3.39844 11.4531C3.03906 11.4531 2.67578 11.4531 2.31641 11.4531C1.98828 11.4531 1.78906 11.2891 1.78906 11.0156C1.78516 10.7422 1.98437 10.5742 2.30859 10.5742C2.71484 10.5742 3.11719 10.5742 3.53516 10.5742C3.53516 9.68359 3.53516 8.79688 3.53516 7.91406C3.27344 7.85156 3.00391 7.80859 2.75 7.71484C1.19922 7.15234 0.269531 6.0625 0.0273437 4.41797C0.0234375 4.37891 0.0117188 4.34375 0 4.30859C0 4.09375 0 3.87891 0 3.66406C0.0078125 3.62109 0.0195312 3.57812 0.0273437 3.53906C0.269531 1.92187 1.15625 0.820312 2.67188 0.234375C2.98438 0.117188 3.33203 0.078125 3.66016 0C3.875 0 4.08984 0 4.30469 0ZM7.05859 3.98438C7.05859 2.28516 5.67578 0.882813 3.99219 0.878906C2.29687 0.875 0.882813 2.28125 0.878906 3.97656C0.875 5.66797 2.28125 7.05859 3.98438 7.05859C5.67969 7.05859 7.05859 5.67969 7.05859 3.98438Z" fill="#9C9FA2"/>
</svg>
