<svg width="29" height="34" viewBox="0 0 29 34" fill="none" xmlns="http://www.w3.org/2000/svg">
<path d="M21.8603 20.5708C21.8603 20.776 21.8603 20.9159 21.8603 21.0465C21.8603 23.7147 21.851 26.3828 21.8696 29.0509C21.8696 29.5734 21.7208 29.9932 21.3583 30.3664C20.6982 31.0474 20.0846 31.7564 19.4339 32.4374C18.0766 33.8834 15.9756 33.9301 14.5532 32.5494C14.358 32.3535 14.1813 32.1389 13.9489 31.887C13.7258 32.1202 13.5492 32.3161 13.3632 32.5027C11.9409 33.9114 9.94212 33.9208 8.51045 32.5214C8.32452 32.3348 8.13859 32.1389 7.93407 31.9243C7.71095 32.1482 7.52502 32.3441 7.32979 32.54C5.89813 33.9487 3.75063 33.8928 2.40264 32.4094C1.75188 31.7004 1.10112 30.9821 0.441069 30.2824C0.14358 29.9652 0.00413179 29.62 0.00413179 29.1816C0.00413179 20.6174 -0.00516474 12.0533 0.00413179 3.4891C0.00413179 1.48333 1.45439 0.00932914 3.44385 0.00932914C10.816 0 18.1974 0 25.5696 0C27.5404 0 28.9907 1.474 28.9907 3.46111C29 7.98575 28.9907 12.5104 29 17.0257C29 17.4362 28.8698 17.772 28.591 18.0612C27.9309 18.7702 27.2801 19.4792 26.6294 20.1883C25.3558 21.569 23.5615 21.7556 22.0462 20.6734C22.009 20.664 21.9718 20.6361 21.8603 20.5708ZM19.7314 2.24832C19.6942 2.24832 19.6291 2.23899 19.5547 2.23899C14.1627 2.23899 8.77076 2.23899 3.38807 2.23899C2.66294 2.23899 2.226 2.68679 2.226 3.43312C2.226 11.848 2.226 20.2629 2.2353 28.6871C2.2353 28.827 2.30967 29.0043 2.40264 29.1163C2.94183 29.7226 3.49963 30.3197 4.05742 30.9168C4.59662 31.4952 5.21948 31.5045 5.78657 30.9448C6.21421 30.5156 6.64185 30.0865 7.06949 29.6573C7.60869 29.1163 8.24085 29.1069 8.78935 29.6387C9.22629 30.0678 9.65393 30.5156 10.1002 30.9448C10.6301 31.4672 11.2529 31.4672 11.7921 30.9448C12.2198 30.525 12.6474 30.0865 13.075 29.6573C13.6421 29.0883 14.265 29.0976 14.8414 29.6667C15.2504 30.0772 15.6595 30.497 16.0685 30.9074C16.6542 31.4952 17.2864 31.4859 17.8535 30.8795C18.3648 30.329 18.8668 29.76 19.3874 29.2095C19.5826 29.0136 19.6477 28.8084 19.6477 28.5285C19.6384 20.2629 19.6384 11.9973 19.6477 3.73166C19.6384 3.25587 19.7035 2.77076 19.7314 2.24832ZM21.8696 10.2434C21.8696 12.529 21.8603 14.8147 21.8789 17.091C21.8789 17.2776 21.9811 17.4921 22.102 17.6321C22.4459 18.0239 22.8364 18.3784 23.2083 18.7516C23.7939 19.33 24.4075 19.3113 24.9653 18.7143C25.5231 18.1172 26.0716 17.5201 26.6201 16.9137C26.7131 16.8111 26.7688 16.6525 26.7688 16.5126C26.7781 12.1465 26.7781 7.77117 26.7688 3.40514C26.7688 2.69612 26.3226 2.24832 25.6161 2.24832C24.8073 2.23899 23.9892 2.24832 23.1804 2.24832C22.2507 2.24832 21.8789 2.64015 21.8789 3.56373C21.8603 5.7934 21.8696 8.01373 21.8696 10.2434Z" fill="#9C9FA2"/>
<path d="M10.937 6.71692C11.8759 6.71692 12.8149 6.71692 13.7538 6.71692C14.4696 6.71692 14.9716 7.17405 14.9716 7.82709C14.9809 8.4708 14.4789 8.95591 13.7724 8.95591C11.8666 8.95591 9.97012 8.96524 8.06433 8.95591C7.3578 8.95591 6.87438 8.4708 6.88368 7.80843C6.90227 7.17405 7.39499 6.72625 8.08293 6.71692C9.03117 6.71692 9.98871 6.71692 10.937 6.71692Z" fill="#9C9FA2"/>
<path d="M13.2427 25.8324C12.3223 25.8324 11.4113 25.8324 10.4909 25.8324C9.78436 25.8324 9.28235 25.3566 9.28235 24.7129C9.28235 24.0692 9.79366 23.5934 10.5002 23.5934C12.3502 23.5934 14.1909 23.5934 16.0409 23.5934C16.6638 23.5934 17.1193 23.9665 17.2123 24.5263C17.3052 25.0581 16.9985 25.5898 16.4779 25.7671C16.3291 25.8137 16.1618 25.8324 16.0037 25.8324C15.0741 25.8324 14.1537 25.8324 13.2427 25.8324Z" fill="#9C9FA2"/>
<path d="M13.2425 20.5894C12.2756 20.5894 11.3181 20.5988 10.3513 20.5894C9.83066 20.5801 9.4495 20.2443 9.31935 19.7591C9.1985 19.3113 9.35654 18.8262 9.76558 18.5743C9.96081 18.4531 10.2211 18.3691 10.4535 18.3691C12.3221 18.3504 14.1907 18.3504 16.0593 18.3598C16.7287 18.3598 17.2121 18.8356 17.2214 19.4606C17.2307 20.1043 16.7566 20.5801 16.0686 20.5988C15.1204 20.6081 14.1814 20.5988 13.2425 20.5894Z" fill="#9C9FA2"/>
<path d="M13.2331 15.3465C12.2662 15.3465 11.3087 15.3558 10.3418 15.3372C9.83053 15.3278 9.44008 14.992 9.30993 14.5069C9.18907 14.0497 9.36571 13.546 9.79335 13.3034C9.98857 13.1915 10.2303 13.1262 10.4534 13.1262C12.3127 13.1075 14.1627 13.1168 16.022 13.1168C16.7193 13.1168 17.2027 13.5833 17.212 14.2177C17.2213 14.8707 16.7286 15.3372 16.0127 15.3465C15.0924 15.3558 14.1627 15.3465 13.2331 15.3465Z" fill="#9C9FA2"/>
<path d="M6.07466 20.6082C5.87014 20.5895 5.65632 20.5988 5.45179 20.5522C4.96838 20.4309 4.643 19.9738 4.65229 19.4607C4.66159 18.9476 4.99626 18.4904 5.49828 18.4065C5.85154 18.3505 6.21411 18.3505 6.56738 18.3878C7.12517 18.4531 7.52492 18.9756 7.49703 19.5166C7.46914 20.0951 7.0322 20.5429 6.45582 20.5802C6.32567 20.5895 6.20481 20.5802 6.07466 20.5802C6.07466 20.5988 6.07466 20.5988 6.07466 20.6082Z" fill="#9C9FA2"/>
<path d="M6.07466 25.8511C5.87014 25.8325 5.65632 25.8418 5.45179 25.7952C4.96838 25.6739 4.643 25.2074 4.65229 24.6943C4.66159 24.1906 4.97767 23.7428 5.47039 23.6588C5.84225 23.5935 6.2327 23.5842 6.60456 23.6401C7.16235 23.7241 7.54351 24.2559 7.49703 24.797C7.44125 25.3754 6.99501 25.8045 6.41863 25.8325C6.30707 25.8418 6.18622 25.8325 6.07466 25.8325C6.07466 25.8325 6.07466 25.8418 6.07466 25.8511Z" fill="#9C9FA2"/>
<path d="M6.06544 15.365C5.86092 15.3464 5.6471 15.3557 5.44257 15.2997C4.95915 15.1785 4.63378 14.712 4.65237 14.1989C4.66167 13.6858 5.00564 13.238 5.50765 13.154C5.84232 13.0981 6.20489 13.0981 6.54886 13.1354C7.12525 13.2007 7.53429 13.7231 7.5064 14.2829C7.46922 14.8613 7.03228 15.2997 6.4559 15.3371C6.32574 15.3464 6.20489 15.3371 6.07474 15.3371C6.06544 15.3464 6.06544 15.3557 6.06544 15.365Z" fill="#9C9FA2"/>
</svg>
