<svg width="21" height="22" viewBox="0 0 21 22" fill="none" xmlns="http://www.w3.org/2000/svg">
<g clip-path="url(#clip0_3219_3089)">
<path d="M7.95291 3.69848C8.1314 3.77129 8.26134 3.81875 8.38602 3.87531C8.89591 4.10674 9.13412 4.66258 8.94578 5.17551C8.75416 5.69818 8.19177 5.99723 7.65498 5.8087C6.68442 5.46805 5.72107 5.10529 4.76429 4.72824C4.25702 4.52866 4.01487 3.96762 4.2019 3.45469C4.54708 2.51075 4.90407 1.57071 5.27615 0.637166C5.4868 0.109286 6.07084 -0.12605 6.59714 0.0670298C7.13524 0.26401 7.40299 0.821144 7.22449 1.37373C7.18315 1.50115 7.1359 1.62727 7.08668 1.76704C7.56442 1.65002 8.01853 1.52195 8.4792 1.42834C13.1384 0.478542 18.0031 2.91251 19.9934 7.18366C21.9365 11.354 21.0178 16.1271 17.6054 19.2371C15.2095 21.4208 12.3391 22.3628 9.11837 21.8739C4.60417 21.1881 1.6577 18.5844 0.395112 14.2444C-0.389738 11.5478 0.0190927 8.92787 1.40767 6.4718C1.71741 5.92377 2.3369 5.74369 2.85729 6.03429C3.37439 6.32293 3.54239 6.94312 3.23134 7.48921C2.35068 9.03384 1.97072 10.6929 2.17612 12.4495C2.51342 15.3398 3.97944 17.5358 6.56039 18.9218C11.343 21.4904 17.2812 18.8887 18.6363 13.6716C19.8536 8.98443 16.7438 4.22831 11.9408 3.42674C10.608 3.20441 9.30015 3.28762 7.95291 3.69848Z" fill="#C4C4C4"/>
<path d="M9.98515 12.5404C10.1013 12.5404 10.1886 12.5404 10.2765 12.5404C11.2182 12.5404 12.1599 12.5365 13.1016 12.5424C13.6233 12.5456 14.04 12.8687 14.1496 13.3335C14.2618 13.8074 14.0492 14.2918 13.6108 14.4979C13.4533 14.572 13.2663 14.6168 13.0924 14.6181C11.7248 14.6279 10.3572 14.6266 8.99031 14.622C8.33539 14.6201 7.90031 14.1878 7.89834 13.5338C7.89375 11.9033 7.89375 10.2735 7.89834 8.64306C7.90031 8.00921 8.34195 7.56325 8.94503 7.56455C9.54613 7.5665 9.98056 8.01377 9.98318 8.65151C9.98843 9.8516 9.98449 11.0523 9.98449 12.2524C9.98515 12.3402 9.98515 12.4273 9.98515 12.5404Z" fill="#C4C4C4"/>
</g>
<defs>
<clipPath id="clip0_3219_3089">
<rect width="21" height="22" fill="white"/>
</clipPath>
</defs>
</svg>
