<svg width="25" height="24" viewBox="0 0 25 24" fill="none" xmlns="http://www.w3.org/2000/svg">
<path d="M12.5228 1.5C13.0401 1.5 13.4795 1.81036 13.5601 1.8907L22.7864 11.0574C22.8287 11.0996 22.8624 11.1503 22.8854 11.2065C22.9084 11.2626 22.9202 11.323 22.9201 11.384V20.6949C22.9201 21.1736 22.7376 21.6328 22.4126 21.9713C22.0877 22.3098 21.647 22.5 21.1875 22.5H15.9864H15.1201H14.6001H12.5212H10.4401H9.92012H9.40012H9.05598H3.85273C3.39321 22.5 2.95251 22.3098 2.62759 21.9713C2.30266 21.6328 2.12012 21.1736 2.12012 20.6949L2.12174 11.384C2.12168 11.323 2.13349 11.2626 2.15648 11.2065C2.17947 11.1503 2.21314 11.0996 2.25548 11.0574L11.4801 1.8907C11.5607 1.81036 12.0001 1.5 12.5228 1.5Z" fill="white"/>
<path d="M9.3999 17C9.3999 16.4477 9.84762 16 10.3999 16H14.6399C15.1922 16 15.6399 16.4477 15.6399 17V21H9.3999V17Z" fill="#EC0B8D"/>
</svg>
