<svg width="20" height="21" viewBox="0 0 20 21" fill="none" xmlns="http://www.w3.org/2000/svg">
<path fill-rule="evenodd" clip-rule="evenodd" d="M11 0.390698C10.9225 0.310361 10.5 0 10.0026 0C9.5 0 9.07751 0.310361 9 0.390698L0.130154 9.55743C0.0894496 9.59961 0.0570666 9.65031 0.0349638 9.70645C0.0128611 9.76259 0.00149793 9.823 0.00156179 9.88403L0 19.1949C0 19.6736 0.175522 20.1328 0.487952 20.4713C0.800382 20.8098 1.22413 21 1.66597 21H6.6691H7H7.5H8H10.001H12H12.5H13.333H18.334C18.7759 21 19.1996 20.8098 19.5121 20.4713C19.8245 20.1328 20 19.6736 20 19.1949V9.88403C20.0001 9.823 19.9887 9.76259 19.9666 9.70645C19.9445 9.65031 19.9121 9.59961 19.8714 9.55743L11 0.390698ZM8 14.5C7.44772 14.5 7 14.9477 7 15.5V19.5H13V15.5C13 14.9477 12.5523 14.5 12 14.5H8Z" fill="#C4C4C4"/>
</svg>
