<svg width="22" height="6" viewBox="0 0 22 6" fill="none" xmlns="http://www.w3.org/2000/svg">
<path d="M2.205 0.0599998V6H0.657V0.0599998H2.205ZM3.52223 6V0.0599998H6.41123C7.14323 0.0659997 7.68323 0.207 8.03123 0.483C8.37923 0.753 8.55323 1.146 8.55323 1.662C8.55323 1.998 8.45423 2.289 8.25623 2.535C8.05823 2.775 7.75523 2.928 7.34723 2.994V3.003C7.80323 3.063 8.14223 3.222 8.36423 3.48C8.59223 3.732 8.70623 4.038 8.70623 4.398C8.70623 4.908 8.52623 5.304 8.16623 5.586C7.80623 5.862 7.26623 6 6.54623 6H3.52223ZM5.01623 4.911H6.28523C6.56723 4.911 6.77723 4.854 6.91523 4.74C7.05323 4.626 7.12223 4.461 7.12223 4.245C7.12223 4.035 7.05323 3.876 6.91523 3.768C6.77723 3.654 6.56723 3.597 6.28523 3.597H5.01623V4.911ZM5.01623 2.49H6.14123C6.69323 2.49 6.96923 2.274 6.96923 1.842C6.96923 1.41 6.69323 1.194 6.14123 1.194H5.01623V2.49ZM15.0394 6H13.4464L13.0324 4.659H10.9984L10.5754 6H9.01842L11.1064 0.0599998H12.9604L15.0394 6ZM11.2864 3.606H12.7444L12.0154 1.203L11.2864 3.606ZM21.0852 0.0599998V6H19.3662L17.5212 2.787L17.0712 1.905H17.0622L17.0982 3.003V6H15.7302V0.0599998H17.4492L19.2942 3.273L19.7442 4.155H19.7532L19.7172 3.057V0.0599998H21.0852Z" fill="#00A2FF"/>
</svg>
