<svg width="12" height="15" viewBox="0 0 12 15" fill="none" xmlns="http://www.w3.org/2000/svg">
<path opacity="0.5" d="M6.48015 11.4466C6.75202 11.4466 7.01778 11.3676 7.24383 11.2198C7.46988 11.0719 7.64606 10.8617 7.7501 10.6158C7.85414 10.3698 7.88136 10.0992 7.82832 9.83817C7.77528 9.5771 7.64437 9.3373 7.45213 9.14908C7.25989 8.96086 7.01496 8.83268 6.74832 8.78075C6.48167 8.72882 6.20529 8.75547 5.95412 8.85734C5.70295 8.9592 5.48827 9.1317 5.33722 9.35302C5.18618 9.57434 5.10556 9.83455 5.10556 10.1007C5.10652 10.4574 5.25164 10.7992 5.50922 11.0514C5.7668 11.3036 6.11588 11.4456 6.48015 11.4466ZM10.6039 5.39072H9.91706V4.04399C9.91706 3.15164 9.55501 2.29584 8.91054 1.66485C8.26608 1.03387 7.392 0.679382 6.4806 0.679382C5.56919 0.679382 4.69512 1.03387 4.05065 1.66485C3.40619 2.29584 3.04414 3.15164 3.04414 4.04399V5.38984H2.3564C1.99213 5.39077 1.64305 5.53286 1.38547 5.78506C1.12789 6.03725 0.982763 6.37903 0.981812 6.73568V13.4649C0.982763 13.8216 1.12789 14.1633 1.38547 14.4155C1.64305 14.6677 1.99213 14.8098 2.3564 14.8107H10.6039C10.9682 14.8098 11.3172 14.6677 11.5748 14.4155C11.8324 14.1633 11.9775 13.8216 11.9785 13.4649V6.73568C11.9775 6.37903 11.8324 6.03725 11.5748 5.78506C11.3172 5.53286 10.9682 5.39077 10.6039 5.38984V5.39072ZM4.34932 4.04399C4.34349 3.76647 4.39428 3.49059 4.49872 3.23253C4.60317 2.97446 4.75916 2.7394 4.95756 2.54111C5.15596 2.34282 5.39278 2.18529 5.65415 2.07775C5.91552 1.9702 6.19618 1.91481 6.4797 1.91481C6.76321 1.91481 7.04387 1.9702 7.30524 2.07775C7.56661 2.18529 7.80344 2.34282 8.00184 2.54111C8.20024 2.7394 8.35623 2.97446 8.46067 3.23253C8.56511 3.49059 8.61591 3.76647 8.61008 4.04399V5.38984H4.34932V4.04399ZM10.6039 13.4649H2.3564V6.73568H10.6039V13.4649Z" fill="#393F45"/>
</svg>
