<svg width="156" height="156" viewBox="0 0 156 156" fill="none" xmlns="http://www.w3.org/2000/svg">
<g filter="url(#filter0_d_3643_2168)">
<rect x="18" y="18" width="120" height="120" rx="5" fill="white"/>
</g>
<path d="M50.6215 107.66V116H49.2535V107.66H50.6215ZM55.7536 109.28C56.2736 109.28 56.7376 109.388 57.1456 109.604C57.5616 109.82 57.8856 110.14 58.1176 110.564C58.3496 110.988 58.4656 111.5 58.4656 112.1V116H57.1096V112.304C57.1096 111.712 56.9616 111.26 56.6656 110.948C56.3696 110.628 55.9656 110.468 55.4536 110.468C54.9416 110.468 54.5336 110.628 54.2296 110.948C53.9336 111.26 53.7856 111.712 53.7856 112.304V116H52.4176V109.388H53.7856V110.144C54.0096 109.872 54.2936 109.66 54.6376 109.508C54.9896 109.356 55.3616 109.28 55.7536 109.28ZM62.6105 116.108C62.0905 116.108 61.6225 116.016 61.2065 115.832C60.7985 115.64 60.4745 115.384 60.2345 115.064C59.9945 114.736 59.8665 114.372 59.8505 113.972H61.2665C61.2905 114.252 61.4225 114.488 61.6625 114.68C61.9105 114.864 62.2185 114.956 62.5865 114.956C62.9705 114.956 63.2665 114.884 63.4745 114.74C63.6905 114.588 63.7985 114.396 63.7985 114.164C63.7985 113.916 63.6785 113.732 63.4385 113.612C63.2065 113.492 62.8345 113.36 62.3225 113.216C61.8265 113.08 61.4225 112.948 61.1105 112.82C60.7985 112.692 60.5265 112.496 60.2945 112.232C60.0705 111.968 59.9585 111.62 59.9585 111.188C59.9585 110.836 60.0625 110.516 60.2705 110.228C60.4785 109.932 60.7745 109.7 61.1585 109.532C61.5505 109.364 61.9985 109.28 62.5025 109.28C63.2545 109.28 63.8585 109.472 64.3145 109.856C64.7785 110.232 65.0265 110.748 65.0585 111.404H63.6905C63.6665 111.108 63.5465 110.872 63.3305 110.696C63.1145 110.52 62.8225 110.432 62.4545 110.432C62.0945 110.432 61.8185 110.5 61.6265 110.636C61.4345 110.772 61.3385 110.952 61.3385 111.176C61.3385 111.352 61.4025 111.5 61.5305 111.62C61.6585 111.74 61.8145 111.836 61.9985 111.908C62.1825 111.972 62.4545 112.056 62.8145 112.16C63.2945 112.288 63.6865 112.42 63.9905 112.556C64.3025 112.684 64.5705 112.876 64.7945 113.132C65.0185 113.388 65.1345 113.728 65.1425 114.152C65.1425 114.528 65.0385 114.864 64.8305 115.16C64.6225 115.456 64.3265 115.688 63.9425 115.856C63.5665 116.024 63.1225 116.108 62.6105 116.108ZM72.6087 109.388V116H71.2407V115.22C71.0247 115.492 70.7407 115.708 70.3887 115.868C70.0447 116.02 69.6767 116.096 69.2847 116.096C68.7647 116.096 68.2967 115.988 67.8807 115.772C67.4727 115.556 67.1487 115.236 66.9087 114.812C66.6767 114.388 66.5607 113.876 66.5607 113.276V109.388H67.9167V113.072C67.9167 113.664 68.0647 114.12 68.3607 114.44C68.6567 114.752 69.0607 114.908 69.5727 114.908C70.0847 114.908 70.4887 114.752 70.7847 114.44C71.0887 114.12 71.2407 113.664 71.2407 113.072V109.388H72.6087ZM75.7817 110.348C75.9817 110.012 76.2457 109.752 76.5737 109.568C76.9097 109.376 77.3057 109.28 77.7617 109.28V110.696H77.4137C76.8777 110.696 76.4697 110.832 76.1897 111.104C75.9177 111.376 75.7817 111.848 75.7817 112.52V116H74.4137V109.388H75.7817V110.348ZM78.5631 112.664C78.5631 112 78.6991 111.412 78.9711 110.9C79.2511 110.388 79.6271 109.992 80.0991 109.712C80.5791 109.424 81.1071 109.28 81.6831 109.28C82.2031 109.28 82.6551 109.384 83.0391 109.592C83.4311 109.792 83.7431 110.044 83.9751 110.348V109.388H85.3551V116H83.9751V115.016C83.7431 115.328 83.4271 115.588 83.0271 115.796C82.6271 116.004 82.1711 116.108 81.6591 116.108C81.0911 116.108 80.5711 115.964 80.0991 115.676C79.6271 115.38 79.2511 114.972 78.9711 114.452C78.6991 113.924 78.5631 113.328 78.5631 112.664ZM83.9751 112.688C83.9751 112.232 83.8791 111.836 83.6871 111.5C83.5031 111.164 83.2591 110.908 82.9551 110.732C82.6511 110.556 82.3231 110.468 81.9711 110.468C81.6191 110.468 81.2911 110.556 80.9871 110.732C80.6831 110.9 80.4351 111.152 80.2431 111.488C80.0591 111.816 79.9671 112.208 79.9671 112.664C79.9671 113.12 80.0591 113.52 80.2431 113.864C80.4351 114.208 80.6831 114.472 80.9871 114.656C81.2991 114.832 81.6271 114.92 81.9711 114.92C82.3231 114.92 82.6511 114.832 82.9551 114.656C83.2591 114.48 83.5031 114.224 83.6871 113.888C83.8791 113.544 83.9751 113.144 83.9751 112.688ZM90.488 109.28C91.008 109.28 91.472 109.388 91.88 109.604C92.296 109.82 92.62 110.14 92.852 110.564C93.084 110.988 93.2 111.5 93.2 112.1V116H91.844V112.304C91.844 111.712 91.696 111.26 91.4 110.948C91.104 110.628 90.7 110.468 90.188 110.468C89.676 110.468 89.268 110.628 88.964 110.948C88.668 111.26 88.52 111.712 88.52 112.304V116H87.152V109.388H88.52V110.144C88.744 109.872 89.028 109.66 89.372 109.508C89.724 109.356 90.096 109.28 90.488 109.28ZM94.4889 112.688C94.4889 112.008 94.6249 111.412 94.8969 110.9C95.1769 110.38 95.5609 109.98 96.0489 109.7C96.5369 109.42 97.0969 109.28 97.7289 109.28C98.5289 109.28 99.1889 109.472 99.7089 109.856C100.237 110.232 100.593 110.772 100.777 111.476H99.3009C99.1809 111.148 98.9889 110.892 98.7249 110.708C98.4609 110.524 98.1289 110.432 97.7289 110.432C97.1689 110.432 96.7209 110.632 96.3849 111.032C96.0569 111.424 95.8929 111.976 95.8929 112.688C95.8929 113.4 96.0569 113.956 96.3849 114.356C96.7209 114.756 97.1689 114.956 97.7289 114.956C98.5209 114.956 99.0449 114.608 99.3009 113.912H100.777C100.585 114.584 100.225 115.12 99.6969 115.52C99.1689 115.912 98.5129 116.108 97.7289 116.108C97.0969 116.108 96.5369 115.968 96.0489 115.688C95.5609 115.4 95.1769 115 94.8969 114.488C94.6249 113.968 94.4889 113.368 94.4889 112.688ZM108.2 112.532C108.2 112.78 108.184 113.004 108.152 113.204H103.1C103.14 113.732 103.336 114.156 103.688 114.476C104.04 114.796 104.472 114.956 104.984 114.956C105.72 114.956 106.24 114.648 106.544 114.032H108.02C107.82 114.64 107.456 115.14 106.928 115.532C106.408 115.916 105.76 116.108 104.984 116.108C104.352 116.108 103.784 115.968 103.28 115.688C102.784 115.4 102.392 115 102.104 114.488C101.824 113.968 101.684 113.368 101.684 112.688C101.684 112.008 101.82 111.412 102.092 110.9C102.372 110.38 102.76 109.98 103.256 109.7C103.76 109.42 104.336 109.28 104.984 109.28C105.608 109.28 106.164 109.416 106.652 109.688C107.14 109.96 107.52 110.344 107.792 110.84C108.064 111.328 108.2 111.892 108.2 112.532ZM106.772 112.1C106.764 111.596 106.584 111.192 106.232 110.888C105.88 110.584 105.444 110.432 104.924 110.432C104.452 110.432 104.048 110.584 103.712 110.888C103.376 111.184 103.176 111.588 103.112 112.1H106.772Z" fill="#2F2F2F"/>
<circle cx="79" cy="64" r="29" fill="#556AC1" fill-opacity="0.14"/>
<path d="M93.3381 51.5477C92.9751 51.5477 92.5516 51.4901 92.1886 51.4326C91.2811 51.3174 90.3737 51.2599 89.5872 51.1447C86.4413 50.5691 83.4769 49.3602 80.694 47.5181C80.21 47.1727 79.605 47 79.0605 47H78.879C78.3345 47 77.7295 47.1727 77.2456 47.5181C74.4021 49.4178 71.4982 50.6266 68.3523 51.1447C67.5053 51.2599 66.6584 51.375 65.7509 51.4326C65.3879 51.4326 64.9644 51.4901 64.6014 51.5477C62.847 51.7204 62 53.0444 62 54.2533C62 60.0099 63.089 64.7878 65.1459 69.0477C67.7473 74.3437 71.9217 78.6036 77.6085 81.6546C77.9715 81.8273 78.395 81.9424 78.879 82H79.0605C79.5445 82 79.968 81.8849 80.331 81.6546C86.0178 78.5461 90.1922 74.3437 92.7936 69.0477C94.8505 64.7878 95.879 59.9523 96 54.2533C95.9395 53.0444 95.0925 51.7204 93.3381 51.5477ZM89.7082 67.4934C87.4698 72.0987 83.7794 75.8405 78.8185 78.6036V64.4424H66.6584C65.6299 61.5066 65.1459 58.4556 65.0854 54.8865H65.3879C65.5694 54.8865 65.6904 54.8289 65.8719 54.8289L66.3559 54.7714C67.1423 54.7138 67.9893 54.5987 68.8363 54.4836C72.4057 53.8503 75.6726 52.5263 78.879 50.3964V64.4424H91.0996C90.7367 65.4786 90.2527 66.4572 89.7082 67.4934Z" fill="#556AC1"/>
<defs>
<filter id="filter0_d_3643_2168" x="0.9" y="0.9" width="154.2" height="154.2" filterUnits="userSpaceOnUse" color-interpolation-filters="sRGB">
<feFlood flood-opacity="0" result="BackgroundImageFix"/>
<feColorMatrix in="SourceAlpha" type="matrix" values="0 0 0 0 0 0 0 0 0 0 0 0 0 0 0 0 0 0 127 0" result="hardAlpha"/>
<feMorphology radius="0.1" operator="dilate" in="SourceAlpha" result="effect1_dropShadow_3643_2168"/>
<feOffset/>
<feGaussianBlur stdDeviation="8.5"/>
<feComposite in2="hardAlpha" operator="out"/>
<feColorMatrix type="matrix" values="0 0 0 0 0.768627 0 0 0 0 0.768627 0 0 0 0 0.768627 0 0 0 0.63 0"/>
<feBlend mode="normal" in2="BackgroundImageFix" result="effect1_dropShadow_3643_2168"/>
<feBlend mode="normal" in="SourceGraphic" in2="effect1_dropShadow_3643_2168" result="shape"/>
</filter>
</defs>
</svg>
