<svg width="58" height="58" viewBox="0 0 58 58" fill="none" xmlns="http://www.w3.org/2000/svg">
<circle cx="29" cy="29" r="29" fill="#556AC1" fill-opacity="0.14"/>
<path d="M43.3381 16.5477C42.9751 16.5477 42.5516 16.4901 42.1886 16.4326C41.2811 16.3174 40.3737 16.2599 39.5872 16.1447C36.4413 15.5691 33.4769 14.3602 30.694 12.5181C30.21 12.1727 29.605 12 29.0605 12H28.879C28.3345 12 27.7295 12.1727 27.2456 12.5181C24.4021 14.4178 21.4982 15.6266 18.3523 16.1447C17.5053 16.2599 16.6584 16.375 15.7509 16.4326C15.3879 16.4326 14.9644 16.4901 14.6014 16.5477C12.847 16.7204 12 18.0444 12 19.2533C12 25.0099 13.089 29.7878 15.1459 34.0477C17.7473 39.3438 21.9217 43.6036 27.6085 46.6546C27.9715 46.8273 28.395 46.9424 28.879 47H29.0605C29.5445 47 29.968 46.8849 30.331 46.6546C36.0178 43.5461 40.1922 39.3438 42.7936 34.0477C44.8505 29.7878 45.879 24.9523 46 19.2533C45.9395 18.0444 45.0925 16.7204 43.3381 16.5477ZM39.7082 32.4934C37.4697 37.0987 33.7794 40.8405 28.8185 43.6036V29.4424H16.6584C15.6299 26.5066 15.1459 23.4556 15.0854 19.8865H15.3879C15.5694 19.8865 15.6904 19.8289 15.8719 19.8289L16.3559 19.7714C17.1423 19.7138 17.9893 19.5987 18.8363 19.4836C22.4057 18.8503 25.6726 17.5263 28.879 15.3964V29.4424H41.0996C40.7367 30.4786 40.2527 31.4572 39.7082 32.4934Z" fill="#556AC1"/>
</svg>
