<svg width="45" height="44" viewBox="0 0 45 44" fill="none" xmlns="http://www.w3.org/2000/svg">
<g filter="url(#filter0_d_1506_600)">
<rect x="4.11426" y="1.38409" width="37.5363" height="36.7543" rx="3.91003" fill="#F4F4F4"/>
</g>
<path d="M17.961 9.19885C20.8118 9.19885 23.668 9.19885 26.5188 9.19885C26.5509 9.20955 26.583 9.2256 26.6205 9.2256C28.1555 9.35931 29.4766 9.96906 30.5784 11.0388C31.6963 12.1246 32.3595 13.451 32.5093 15.0075C32.7019 16.9811 32.0868 18.6927 30.7122 20.1154C29.605 21.26 28.2411 21.9286 26.6525 22.0302C25.54 22.0998 24.4168 22.057 23.2989 22.0784C23.1652 22.0784 23.0155 22.1212 22.9085 22.1961C21.7532 22.9556 20.6032 23.7258 19.4533 24.4906C19.2233 24.6457 18.9826 24.6992 18.7312 24.5602C18.4798 24.4211 18.3889 24.1964 18.3889 23.9183C18.3942 23.4958 18.3889 23.0786 18.3889 22.656C18.3889 22.4688 18.3889 22.2763 18.3889 22.1158C18.0252 22.073 17.6936 22.0516 17.3673 21.9875C14.586 21.4258 12.8103 19.7838 12.0882 17.0293C12.0133 16.7351 11.9812 16.4302 11.9277 16.1307C11.9277 15.8312 11.9277 15.5316 11.9277 15.2321C11.9384 15.1893 11.9545 15.1519 11.9598 15.1091C12.0508 14.0394 12.3931 13.0499 12.9868 12.1567C13.8746 10.8141 15.0888 9.89418 16.6452 9.45559C17.0731 9.33792 17.5224 9.28443 17.961 9.19885ZM18.3996 14.3763C17.7043 14.371 17.1159 14.9486 17.1106 15.6493C17.1052 16.3446 17.6829 16.933 18.3835 16.9383C19.0789 16.9437 19.6672 16.366 19.6726 15.6654C19.6779 14.97 19.0949 14.3817 18.3996 14.3763ZM23.5236 15.6493C23.5182 14.9486 22.9299 14.371 22.2346 14.3763C21.5339 14.387 20.9509 14.9754 20.9562 15.6707C20.9616 16.3714 21.5499 16.949 22.2453 16.9437C22.9513 16.9383 23.5289 16.35 23.5236 15.6493ZM26.0909 14.3763C25.3903 14.3763 24.8073 14.9647 24.8126 15.66C24.8126 16.3607 25.401 16.9437 26.0963 16.9383C26.797 16.9383 27.38 16.35 27.3746 15.6547C27.3746 14.9593 26.7863 14.3763 26.0909 14.3763Z" fill="#00A2FF"/>
<path d="M26.6045 31.1069C26.4494 31.0159 26.2889 30.9357 26.1445 30.8394C25.0587 30.1067 23.9729 29.3686 22.8925 28.6305C22.7481 28.5342 22.609 28.4967 22.4379 28.4967C21.3307 28.4914 20.2235 28.5235 19.1217 28.4593C17.5385 28.363 16.1853 27.6891 15.0728 26.5659C13.9442 25.4213 13.3238 24.036 13.2329 22.426C13.2168 22.1158 13.2329 21.8056 13.2649 21.474C14.4042 22.3939 15.6611 23.009 17.1106 23.2604C17.1106 23.5278 17.1053 23.7899 17.1106 24.052C17.1427 25.1271 18.0092 25.9561 19.0843 25.9347C19.4961 25.9294 19.8598 25.7796 20.1968 25.5496C21.2291 24.8597 22.256 24.1697 23.2937 23.4904C23.4006 23.4209 23.5397 23.3781 23.6627 23.3781C24.4276 23.3674 25.1871 23.3834 25.9519 23.3727C29.0702 23.3246 31.4022 21.95 32.9426 19.2329C32.964 19.1955 32.9854 19.158 33.0068 19.1206C33.0121 19.1099 33.0282 19.1045 33.0496 19.0831C33.3972 19.7143 33.6272 20.3828 33.7449 21.0889C33.777 21.2654 33.8037 21.4365 33.8305 21.613C33.8305 21.9286 33.8305 22.2388 33.8305 22.5544C33.8198 22.6079 33.8091 22.6667 33.793 22.7202C33.6754 23.2337 33.6165 23.7632 33.4293 24.2499C32.6859 26.2236 31.2899 27.5393 29.2841 28.1972C28.669 28.4005 28.0379 28.5342 27.364 28.5021C27.364 29.0904 27.3479 29.6627 27.3693 30.2297C27.3854 30.6308 27.273 30.9357 26.8933 31.1122C26.8077 31.1069 26.7061 31.1069 26.6045 31.1069Z" fill="#00A2FF"/>
<defs>
<filter id="filter0_d_1506_600" x="0.98623" y="0.602087" width="43.7924" height="43.0104" filterUnits="userSpaceOnUse" color-interpolation-filters="sRGB">
<feFlood flood-opacity="0" result="BackgroundImageFix"/>
<feColorMatrix in="SourceAlpha" type="matrix" values="0 0 0 0 0 0 0 0 0 0 0 0 0 0 0 0 0 0 127 0" result="hardAlpha"/>
<feMorphology radius="0.782007" operator="erode" in="SourceAlpha" result="effect1_dropShadow_1506_600"/>
<feOffset dy="2.34602"/>
<feGaussianBlur stdDeviation="1.95502"/>
<feComposite in2="hardAlpha" operator="out"/>
<feColorMatrix type="matrix" values="0 0 0 0 0 0 0 0 0 0 0 0 0 0 0 0 0 0 0.25 0"/>
<feBlend mode="normal" in2="BackgroundImageFix" result="effect1_dropShadow_1506_600"/>
<feBlend mode="normal" in="SourceGraphic" in2="effect1_dropShadow_1506_600" result="shape"/>
</filter>
</defs>
</svg>
