<svg width="41" height="41" viewBox="0 0 41 41" fill="none" xmlns="http://www.w3.org/2000/svg">
<g filter="url(#filter0_d_1501_444)">
<rect x="2" y="1" width="37.0286" height="36" rx="5.83784" fill="#F4F4F4"/>
</g>
<path d="M9.78939 21.174C9.90645 20.9733 10.0793 20.912 10.3078 20.912C17.0973 20.9176 23.8813 20.9176 30.6708 20.912C30.9049 20.912 31.0777 20.9733 31.1892 21.174C31.1892 22.523 31.1892 23.8775 31.1892 25.2265C31.0833 25.4272 30.9217 25.4941 30.6931 25.4941C23.8869 25.4885 17.0862 25.4885 10.2799 25.4941C10.0514 25.4941 9.88973 25.4272 9.78381 25.2265C9.78939 23.8775 9.78939 22.523 9.78939 21.174ZM16.9803 23.203C17.1977 23.0581 17.3983 22.9299 17.5879 22.7961C17.822 22.6345 17.8777 22.4226 17.7495 22.2275C17.6213 22.0324 17.3983 22.0101 17.1642 22.1606C17.0081 22.261 16.8576 22.3613 16.6737 22.4839C16.6737 22.3223 16.6793 22.2052 16.6737 22.0882C16.6625 21.8373 16.5065 21.6757 16.2891 21.6757C16.0717 21.6757 15.9156 21.8373 15.9044 22.0882C15.8988 22.2108 15.9044 22.3279 15.9044 22.4505C15.8654 22.4505 15.8598 22.4505 15.8543 22.4505C15.7037 22.3502 15.5532 22.2498 15.4027 22.1551C15.1798 22.0157 14.9568 22.0436 14.8342 22.2331C14.7059 22.4226 14.7617 22.64 14.9791 22.7905C15.1798 22.9299 15.3804 23.0637 15.609 23.2142C15.3916 23.3591 15.1909 23.4929 14.9902 23.6267C14.7673 23.7772 14.7059 23.989 14.8286 24.1785C14.9568 24.3792 15.1798 24.4127 15.4139 24.2622C15.57 24.1618 15.7205 24.0559 15.8988 23.9388C15.949 24.2622 15.7985 24.7137 16.2891 24.7248C16.8019 24.736 16.6402 24.2677 16.7071 23.9444C16.8799 24.0559 17.0304 24.1618 17.1921 24.2622C17.4206 24.4071 17.6325 24.3792 17.7607 24.1897C17.8945 23.9946 17.8387 23.7828 17.6102 23.6211C17.3983 23.4818 17.1977 23.348 16.9803 23.203ZM24.2882 23.9333C24.3551 24.2566 24.1879 24.7193 24.7007 24.7137C25.1913 24.7025 25.0407 24.2566 25.0909 23.9611C25.1132 23.9611 25.1299 23.9556 25.1411 23.9611C25.2804 24.0503 25.4198 24.1451 25.5592 24.2343C25.81 24.3959 26.033 24.3681 26.1612 24.1674C26.2838 23.9723 26.2225 23.7605 25.9828 23.5988C25.7877 23.465 25.5926 23.3368 25.3808 23.1975C25.4978 23.1138 25.5982 23.0525 25.6929 22.9856C25.7989 22.9187 25.9048 22.8519 26.0051 22.7794C26.2169 22.6289 26.2727 22.4059 26.15 22.222C26.0218 22.0324 25.8044 22.0046 25.5815 22.1439C25.4198 22.2443 25.2637 22.3557 25.0742 22.4784C25.0742 22.3223 25.0798 22.2052 25.0742 22.0882C25.063 21.8373 24.9125 21.6757 24.6951 21.6757C24.4777 21.6757 24.3217 21.8318 24.3105 22.0826C24.3049 22.2052 24.3105 22.3223 24.3105 22.4839C24.1154 22.3502 23.9649 22.2387 23.8032 22.1495C23.7029 22.0993 23.5635 22.038 23.4799 22.0714C23.3629 22.1216 23.2402 22.2387 23.1901 22.3557C23.1232 22.5062 23.2124 22.6568 23.3461 22.7515C23.558 22.902 23.7754 23.0414 24.0039 23.1975C23.7809 23.3424 23.5858 23.4762 23.3907 23.61C23.1566 23.7716 23.1009 23.9834 23.2347 24.1785C23.3629 24.3681 23.5803 24.3959 23.8032 24.251C23.9649 24.1562 24.1154 24.0503 24.2882 23.9333ZM11.3948 23.203C11.1718 23.348 10.9767 23.4818 10.7816 23.6155C10.5475 23.7716 10.4918 23.989 10.6255 24.1841C10.7593 24.3792 10.9711 24.4015 11.2108 24.2454C11.3669 24.1451 11.5174 24.0392 11.707 23.9165C11.707 24.0782 11.707 24.1953 11.707 24.3123C11.7125 24.5687 11.8575 24.7248 12.0749 24.7304C12.3034 24.736 12.4595 24.5687 12.4651 24.3123C12.4706 24.1953 12.4651 24.0726 12.4651 23.9221C12.6546 24.0503 12.8051 24.1507 12.9556 24.251C13.1953 24.4071 13.4127 24.3792 13.5409 24.1841C13.6691 23.9946 13.6022 23.7716 13.3793 23.6155C13.1842 23.4818 12.9891 23.3535 12.7717 23.2086C12.9946 23.0637 13.1953 22.9299 13.396 22.7905C13.6078 22.6456 13.6691 22.4171 13.5465 22.2331C13.4183 22.0436 13.2009 22.0101 12.9779 22.1495C12.8162 22.2554 12.6602 22.3613 12.4651 22.4895C12.4651 22.3223 12.4706 22.1941 12.4651 22.0603C12.4539 21.8318 12.2923 21.6757 12.0804 21.6757C11.8686 21.6757 11.7181 21.8373 11.707 22.0714C11.7014 22.1997 11.707 22.3279 11.707 22.4895C11.5007 22.3557 11.3446 22.2443 11.1774 22.1439C10.9656 22.0101 10.7482 22.0436 10.6255 22.2275C10.4918 22.4171 10.5419 22.6345 10.7593 22.785C10.96 22.9187 11.1662 23.047 11.3948 23.203ZM21.1833 23.203C21.3004 23.125 21.4007 23.0581 21.4955 22.9912C21.6014 22.9243 21.7073 22.8574 21.8076 22.785C22.0195 22.6345 22.0752 22.4115 21.947 22.2275C21.8188 22.038 21.6014 22.0101 21.3784 22.1551C21.2168 22.261 21.0607 22.3669 20.8656 22.4951C20.8656 22.3279 20.8711 22.2052 20.8656 22.0826C20.8544 21.8429 20.6983 21.6757 20.4754 21.6812C20.2635 21.6868 20.113 21.8485 20.1075 22.0826C20.1019 22.2108 20.1075 22.3334 20.1075 22.4951C19.9904 22.4171 19.9179 22.3669 19.8399 22.3167C19.7563 22.261 19.6782 22.2052 19.5946 22.1551C19.3717 22.0157 19.1543 22.0436 19.026 22.2331C18.8978 22.4171 18.9536 22.64 19.1654 22.7905C19.3661 22.9299 19.5668 23.0637 19.7897 23.2142C19.5779 23.3535 19.3828 23.4873 19.1877 23.6155C18.9536 23.7716 18.8923 23.989 19.0149 24.1785C19.1487 24.3848 19.3605 24.4071 19.6169 24.2454C19.773 24.1451 19.9235 24.0448 20.1019 23.9277C20.1019 24.1005 20.0963 24.2231 20.1019 24.3513C20.113 24.5855 20.2635 24.736 20.4809 24.736C20.6928 24.736 20.8489 24.5799 20.86 24.3458C20.8656 24.2176 20.86 24.0894 20.86 23.9221C21.0551 24.0503 21.2056 24.1562 21.3617 24.2566C21.5958 24.4071 21.8188 24.3736 21.947 24.1785C22.0641 23.989 22.0083 23.7716 21.7909 23.6211C21.607 23.4818 21.4063 23.3535 21.1833 23.203ZM28.887 24.7304C29.2549 24.7304 29.6228 24.7304 29.9907 24.7304C30.2527 24.7304 30.42 24.5743 30.42 24.3513C30.42 24.1284 30.2472 23.9723 29.9852 23.9723C29.2549 23.9723 28.5247 23.9723 27.7945 23.9723C27.5269 23.9723 27.3652 24.1172 27.3708 24.3513C27.3708 24.5855 27.5325 24.7248 27.8 24.7304C28.1679 24.7304 28.5303 24.7304 28.887 24.7304Z" fill="#00A2FF"/>
<path d="M27.2202 29.7027C22.7329 29.7027 18.2456 29.7027 13.7582 29.7027C13.7081 29.6804 13.6635 29.6581 13.6133 29.6358C13.1562 29.4574 12.8719 29.1174 12.8552 28.6324C12.8273 27.8576 12.8496 27.0883 12.8496 26.3135C12.8496 26.3023 12.8664 26.2912 12.8719 26.28C17.9557 26.28 23.0339 26.28 28.1289 26.28C28.1289 27.0883 28.1456 27.8799 28.1233 28.6714C28.1121 29.0282 27.917 29.318 27.6104 29.5131C27.4878 29.5912 27.3485 29.6358 27.2202 29.7027Z" fill="#00A2FF"/>
<path d="M20.9491 8.29724C21.395 8.392 21.8521 8.4589 22.2869 8.59268C24.5668 9.31177 26.1834 11.5025 26.2113 13.8883C26.2224 14.5628 26.2113 15.2373 26.2113 15.9285C25.7096 15.9285 25.219 15.9285 24.7006 15.9285C24.695 15.8505 24.6895 15.7724 24.6895 15.6944C24.6839 15.0199 24.7006 14.3398 24.6616 13.6709C24.5557 11.8146 23.0283 10.1646 21.1888 9.8915C18.7974 9.52917 16.6847 11.051 16.3336 13.4479C16.2332 14.1447 16.289 14.8638 16.2778 15.5773C16.2778 15.6944 16.2778 15.8114 16.2778 15.9396C15.765 15.9396 15.2744 15.9396 14.7839 15.9396C14.7727 15.9285 14.7616 15.9173 14.7616 15.9062C14.7783 14.8136 14.6613 13.7211 14.9233 12.6396C15.4807 10.3542 17.5097 8.57596 19.8454 8.34184C19.9067 8.33626 19.968 8.31954 20.0293 8.30282C20.3359 8.29724 20.6425 8.29724 20.9491 8.29724Z" fill="#00A2FF"/>
<path d="M12.8553 20.1204C12.8497 20.0591 12.8442 19.9978 12.8442 19.9365C12.8442 19.262 12.8386 18.5875 12.8442 17.9074C12.8497 17.1883 13.3347 16.7034 14.0538 16.7034C18.346 16.7034 22.6327 16.7034 26.9249 16.7034C27.644 16.7034 28.129 17.1939 28.1345 17.913C28.1401 18.6432 28.1345 19.3735 28.1345 20.126C23.0396 20.1204 17.9558 20.1204 12.8553 20.1204ZM14.3771 18.2363C14.6335 18.2363 14.8732 18.2419 15.1073 18.2363C15.3582 18.2252 15.5143 18.0747 15.5198 17.8573C15.5198 17.6343 15.3693 17.4782 15.1185 17.4726C14.7561 17.4615 14.3938 17.4615 14.0315 17.4726C13.7583 17.4782 13.619 17.6231 13.6134 17.8907C13.6078 18.2475 13.6078 18.5986 13.6134 18.9554C13.619 19.223 13.7695 19.379 14.0036 19.379C14.2322 19.3735 14.3771 19.2118 14.3827 18.9442C14.3827 18.7213 14.3771 18.4983 14.3771 18.2363Z" fill="#00A2FF"/>
<defs>
<filter id="filter0_d_1501_444" x="0.0540533" y="0.513513" width="40.9205" height="39.8919" filterUnits="userSpaceOnUse" color-interpolation-filters="sRGB">
<feFlood flood-opacity="0" result="BackgroundImageFix"/>
<feColorMatrix in="SourceAlpha" type="matrix" values="0 0 0 0 0 0 0 0 0 0 0 0 0 0 0 0 0 0 127 0" result="hardAlpha"/>
<feMorphology radius="0.486487" operator="erode" in="SourceAlpha" result="effect1_dropShadow_1501_444"/>
<feOffset dy="1.45946"/>
<feGaussianBlur stdDeviation="1.21622"/>
<feComposite in2="hardAlpha" operator="out"/>
<feColorMatrix type="matrix" values="0 0 0 0 0 0 0 0 0 0 0 0 0 0 0 0 0 0 0.25 0"/>
<feBlend mode="normal" in2="BackgroundImageFix" result="effect1_dropShadow_1501_444"/>
<feBlend mode="normal" in="SourceGraphic" in2="effect1_dropShadow_1501_444" result="shape"/>
</filter>
</defs>
</svg>
