<svg width="19" height="18" viewBox="0 0 19 18" fill="none" xmlns="http://www.w3.org/2000/svg">
<path d="M3.35239 2.25C3.64876 2.25 3.933 2.13147 4.14256 1.92049C4.35213 1.70952 4.46986 1.42337 4.46986 1.125C4.46986 0.826631 4.35213 0.540484 4.14256 0.329505C3.933 0.118527 3.64876 0 3.35239 0H1.11746C0.821095 0 0.536863 0.118527 0.327298 0.329505C0.117733 0.540484 0 0.826631 0 1.125V16.875C0 17.1734 0.117733 17.4595 0.327298 17.6705C0.536863 17.8815 0.821095 18 1.11746 18H3.35239C3.64876 18 3.933 17.8815 4.14256 17.6705C4.35213 17.4595 4.46986 17.1734 4.46986 16.875C4.46986 16.5766 4.35213 16.2905 4.14256 16.0795C3.933 15.8685 3.64876 15.75 3.35239 15.75H2.23493V2.25H3.35239ZM18.7958 8.3475L15.6445 3.8475C15.4736 3.60496 15.2143 3.44041 14.9232 3.38982C14.6321 3.33922 14.333 3.4067 14.0912 3.5775C13.9704 3.66276 13.8675 3.77127 13.7885 3.89678C13.7095 4.02229 13.656 4.1623 13.6311 4.30873C13.6062 4.45517 13.6103 4.60512 13.6432 4.74994C13.6762 4.89477 13.7373 5.03158 13.823 5.1525L15.7451 7.875H6.70479C6.40842 7.875 6.12419 7.99353 5.91462 8.20451C5.70506 8.41548 5.58732 8.70163 5.58732 9C5.58732 9.29837 5.70506 9.58452 5.91462 9.79549C6.12419 10.0065 6.40842 10.125 6.70479 10.125H15.6445L13.6331 12.825C13.545 12.9432 13.481 13.0777 13.4445 13.2208C13.4081 13.3639 13.4001 13.5128 13.4208 13.6591C13.4416 13.8054 13.4907 13.9461 13.5655 14.0732C13.6403 14.2003 13.7392 14.3114 13.8566 14.4C14.05 14.546 14.2853 14.625 14.527 14.625C14.7005 14.625 14.8716 14.5843 15.0268 14.5062C15.182 14.4281 15.3169 14.3147 15.421 14.175L18.7734 9.675C18.9165 9.48473 18.9958 9.25356 18.9998 9.01492C19.0039 8.77629 18.9324 8.54255 18.7958 8.3475V8.3475Z" fill="#545454"/>
</svg>
