<svg width="20" height="16" viewBox="0 0 20 16" fill="none" xmlns="http://www.w3.org/2000/svg">
<path d="M17.8181 0.44455H1.73438C0.789859 0.44455 0.0192871 1.20979 0.0192871 2.14963V13.5168C0.0192871 14.4535 0.786429 15.2219 1.73438 15.2219H17.8181C18.7603 15.2219 19.5332 14.4593 19.5332 13.5168V2.14963C19.5332 1.21297 18.7661 0.44455 17.8181 0.44455ZM17.5813 1.58127L9.81261 9.30465L1.97674 1.58127H17.5813ZM1.16268 13.2815V2.37959L6.66923 7.80706L1.16268 13.2815ZM1.97118 14.0852L7.48119 8.60735L9.41189 10.5103C9.63539 10.7306 9.99605 10.7299 10.2186 10.5086L12.1012 8.63702L17.5813 14.0852H1.97118ZM18.3898 13.2814L12.9096 7.83324L18.3898 2.38501V13.2814Z" fill="#00A2FF"/>
</svg>
