<svg width="20" height="23" viewBox="0 0 20 23" fill="none" xmlns="http://www.w3.org/2000/svg">
<path fill-rule="evenodd" clip-rule="evenodd" d="M10 18.5C10.9205 18.5 11.6667 19.2836 11.6667 20.25C11.6667 21.2165 10.9205 22 10 22C9.07962 22 8.33337 21.2165 8.33337 20.25C8.33337 19.2836 9.07962 18.5 10 18.5ZM10 9.75C10.9205 9.75 11.6667 10.5335 11.6667 11.5C11.6667 12.4664 10.9205 13.25 10 13.25C9.07962 13.25 8.33337 12.4664 8.33337 11.5C8.33337 10.5335 9.07962 9.75 10 9.75ZM10 1C10.9205 1 11.6667 1.78349 11.6667 2.74995C11.6667 3.71651 10.9205 4.5 10 4.5C9.07962 4.5 8.33337 3.71651 8.33337 2.74995C8.33337 1.78349 9.07962 1 10 1Z" stroke="white" stroke-width="2" stroke-linecap="round" stroke-linejoin="round"/>
</svg>
