<svg width="22" height="22" viewBox="0 0 22 22" fill="none" xmlns="http://www.w3.org/2000/svg">
<path d="M19.9729 0H13.7605C12.641 0 11.7334 0.983913 11.7334 2.19763V2.20237C11.7334 3.41609 12.641 4.4 13.7605 4.4H19.9729C21.0925 4.4 22.0001 3.41609 22.0001 2.20237V2.19763C22.0001 0.983913 21.0925 0 19.9729 0Z" fill="url(#paint0_linear_1060_2833)"/>
<path d="M2.23039 0H2.16961C0.971366 0 0 0.983913 0 2.19763V2.20237C0 3.41609 0.971366 4.4 2.16961 4.4H2.23039C3.42863 4.4 4.4 3.41609 4.4 2.20237V2.19763C4.4 0.983913 3.42863 0 2.23039 0Z" fill="#EC0B8D"/>
<path d="M19.83 17.6001H19.7692C18.571 17.6001 17.5996 18.584 17.5996 19.7977V19.8025C17.5996 21.0162 18.571 22.0001 19.7692 22.0001H19.83C21.0282 22.0001 21.9996 21.0162 21.9996 19.8025V19.7977C21.9996 18.584 21.0282 17.6001 19.83 17.6001Z" fill="#EC0B8D"/>
<path d="M9.41663 17.6001H2.31671C1.03723 17.6001 0 18.584 0 19.7977V19.8025C0 21.0162 1.03723 22.0001 2.31671 22.0001H9.41663C10.6961 22.0001 11.7333 21.0162 11.7333 19.8025V19.7977C11.7333 18.584 10.6961 17.6001 9.41663 17.6001Z" fill="url(#paint1_linear_1060_2833)"/>
<path d="M19.8276 8.80005H2.17238C0.972606 8.80005 0 9.78396 0 10.9977V11.0024C0 12.2161 0.972606 13.2 2.17238 13.2H19.8276C21.0274 13.2 22 12.2161 22 11.0024V10.9977C22 9.78396 21.0274 8.80005 19.8276 8.80005Z" fill="url(#paint2_linear_1060_2833)"/>
<defs>
<linearGradient id="paint0_linear_1060_2833" x1="16.8667" y1="0" x2="16.8667" y2="4.4" gradientUnits="userSpaceOnUse">
<stop stop-color="#429FDB"/>
<stop offset="1" stop-color="#5960BC"/>
</linearGradient>
<linearGradient id="paint1_linear_1060_2833" x1="5.86667" y1="17.6001" x2="5.86667" y2="22.0001" gradientUnits="userSpaceOnUse">
<stop stop-color="#429FDB"/>
<stop offset="1" stop-color="#5960BC"/>
</linearGradient>
<linearGradient id="paint2_linear_1060_2833" x1="11" y1="8.80005" x2="11" y2="13.2" gradientUnits="userSpaceOnUse">
<stop stop-color="#439CDA"/>
<stop offset="1" stop-color="#5961BC"/>
</linearGradient>
</defs>
</svg>
