<svg width="19" height="19" viewBox="0 0 19 19" fill="none" xmlns="http://www.w3.org/2000/svg">
<path d="M9.77646 0.966812C4.79884 0.966812 0.77002 4.93233 0.77002 9.83325C0.77002 11.3884 1.18203 12.9073 1.9644 14.247L0.803964 17.7946C0.723019 18.0419 0.789534 18.313 0.976161 18.4968C1.161 18.6787 1.43572 18.7466 1.68941 18.6663L5.29303 17.5239C6.65384 18.2941 8.19673 18.6997 9.77646 18.6997C14.7541 18.6997 18.7829 14.7342 18.7829 9.83325C18.7829 4.93301 14.7548 0.966812 9.77646 0.966812ZM9.77646 17.3143C8.34955 17.3143 6.95865 16.9224 5.7541 16.1808C5.5808 16.0742 5.36559 16.0454 5.16536 16.1089L2.564 16.9336L3.40175 14.3727C3.46525 14.1784 3.43845 13.9663 3.32851 13.7931C2.5754 12.6073 2.17728 11.238 2.17728 9.83325C2.17728 5.70823 5.5863 2.35219 9.77646 2.35219C13.9666 2.35219 17.3756 5.70823 17.3756 9.83325C17.3756 13.9583 13.9666 17.3143 9.77646 17.3143ZM10.656 9.83325C10.656 10.3114 10.2623 10.6991 9.77646 10.6991C9.29066 10.6991 8.89693 10.3114 8.89693 9.83325C8.89693 9.355 9.29066 8.96739 9.77646 8.96739C10.2623 8.96739 10.656 9.355 10.656 9.83325ZM14.1741 9.83325C14.1741 10.3114 13.7804 10.6991 13.2946 10.6991C12.8088 10.6991 12.4151 10.3114 12.4151 9.83325C12.4151 9.355 12.8088 8.96739 13.2946 8.96739C13.7804 8.96739 14.1741 9.355 14.1741 9.83325ZM7.13786 9.83325C7.13786 10.3114 6.74413 10.6991 6.25832 10.6991C5.77265 10.6991 5.37879 10.3114 5.37879 9.83325C5.37879 9.355 5.77265 8.96739 6.25832 8.96739C6.74413 8.96739 7.13786 9.355 7.13786 9.83325Z" fill="#00A2FF"/>
</svg>
