<svg width="156" height="156" viewBox="0 0 156 156" fill="none" xmlns="http://www.w3.org/2000/svg">
<g filter="url(#filter0_d_3643_2175)">
<rect x="18" y="18" width="120" height="120" rx="5" fill="white"/>
</g>
<circle cx="78" cy="64" r="29" fill="#3FD276" fill-opacity="0.14"/>
<path d="M85.7677 70.5014C85.7677 68.8662 85.2829 67.2678 84.3744 65.9083C83.466 64.5487 82.1748 63.489 80.6642 62.8633C79.1535 62.2376 77.4912 62.0738 75.8875 62.3928C74.2838 62.7118 72.8107 63.4992 71.6545 64.6554C70.4983 65.8117 69.7109 67.2848 69.3919 68.8885C69.0729 70.4922 69.2366 72.1545 69.8623 73.6651C70.4881 75.1758 71.5477 76.467 72.9073 77.3754C74.2668 78.2838 75.8652 78.7687 77.5004 78.7687C79.693 78.7687 81.7959 77.8977 83.3463 76.3473C84.8967 74.7968 85.7677 72.694 85.7677 70.5014ZM77.5004 77.402C76.1356 77.402 74.8014 76.9972 73.6666 76.239C72.5318 75.4807 71.6473 74.403 71.1251 73.1421C70.6028 71.8812 70.4661 70.4937 70.7324 69.1551C70.9986 67.8165 71.6559 66.587 72.6209 65.6219C73.586 64.6568 74.8156 63.9996 76.1541 63.7333C77.4927 63.4671 78.8802 63.6037 80.1411 64.126C81.402 64.6483 82.4798 65.5328 83.238 66.6676C83.9963 67.8024 84.401 69.1365 84.401 70.5014C84.401 72.3315 83.674 74.0867 82.3798 75.3808C81.0857 76.6749 79.3305 77.402 77.5004 77.402Z" fill="#03AF00" stroke="#03AF00" stroke-width="0.2"/>
<mask id="path-4-outside-1_3643_2175" maskUnits="userSpaceOnUse" x="59" y="44.9998" width="37" height="37" fill="black">
<rect fill="white" x="59" y="44.9998" width="37" height="37"/>
<path d="M80.8778 66.2949L73.2938 73.8789C73.2391 73.9331 73.1957 73.9977 73.1661 74.0688C73.1365 74.1398 73.1212 74.2161 73.1212 74.2931C73.1212 74.3701 73.1365 74.4464 73.1661 74.5175C73.1957 74.5886 73.2391 74.6531 73.2938 74.7073C73.348 74.762 73.4126 74.8054 73.4837 74.835C73.5547 74.8646 73.631 74.8799 73.708 74.8799C73.785 74.8799 73.8613 74.8646 73.9324 74.835C74.0035 74.8054 74.068 74.762 74.1222 74.7073L81.7062 67.1233C81.816 67.0135 81.8778 66.8645 81.8778 66.7091C81.8778 66.5538 81.816 66.4048 81.7062 66.2949C81.5963 66.1851 81.4473 66.1234 81.292 66.1234C81.1366 66.1234 80.9876 66.1851 80.8778 66.2949ZM75.2248 70.3261C75.6402 70.3261 76.0462 70.2029 76.3916 69.9722C76.737 69.7414 77.0062 69.4134 77.1651 69.0296C77.3241 68.6459 77.3657 68.2236 77.2846 67.8162C77.2036 67.4088 77.0036 67.0346 76.7099 66.7409C76.4161 66.4472 76.0419 66.2471 75.6345 66.1661C75.2271 66.0851 74.8049 66.1266 74.4211 66.2856C74.0373 66.4446 73.7093 66.7138 73.4786 67.0591C73.2478 67.4045 73.1246 67.8105 73.1246 68.2259C73.1262 68.7824 73.3479 69.3157 73.7415 69.7093C74.135 70.1028 74.6683 70.3246 75.2248 70.3261ZM75.2248 67.2925C75.4094 67.2925 75.5899 67.3473 75.7434 67.4498C75.8969 67.5524 76.0165 67.6982 76.0872 67.8687C76.1578 68.0393 76.1763 68.227 76.1403 68.408C76.1043 68.5891 76.0154 68.7554 75.8848 68.8859C75.7543 69.0165 75.588 69.1054 75.4069 69.1414C75.2258 69.1774 75.0382 69.1589 74.8676 69.0883C74.697 69.0176 74.5513 68.898 74.4487 68.7445C74.3461 68.591 74.2914 68.4105 74.2914 68.2259C74.2914 67.9784 74.3897 67.7409 74.5648 67.5659C74.7398 67.3908 74.9772 67.2925 75.2248 67.2925ZM79.7752 70.6761C79.3598 70.6761 78.9538 70.7993 78.6084 71.0301C78.263 71.2608 77.9938 71.5889 77.8349 71.9726C77.6759 72.3564 77.6343 72.7786 77.7154 73.186C77.7964 73.5934 77.9964 73.9676 78.2901 74.2614C78.5839 74.5551 78.9581 74.7551 79.3655 74.8361C79.7729 74.9172 80.1951 74.8756 80.5789 74.7166C80.9627 74.5577 81.2907 74.2885 81.5214 73.9431C81.7522 73.5977 81.8754 73.1917 81.8754 72.7763C81.8738 72.2198 81.6521 71.6865 81.2585 71.293C80.865 70.8994 80.3317 70.6777 79.7752 70.6761ZM79.7752 73.7097C79.5906 73.7097 79.4101 73.655 79.2566 73.5524C79.1031 73.4499 78.9835 73.3041 78.9128 73.1335C78.8422 72.963 78.8237 72.7753 78.8597 72.5942C78.8957 72.4131 78.9846 72.2468 79.1152 72.1163C79.2457 71.9858 79.412 71.8968 79.5931 71.8608C79.7742 71.8248 79.9618 71.8433 80.1324 71.9139C80.303 71.9846 80.4487 72.1042 80.5513 72.2577C80.6539 72.4112 80.7086 72.5917 80.7086 72.7763C80.7086 73.0239 80.6103 73.2613 80.4352 73.4363C80.2602 73.6114 80.0228 73.7097 79.7752 73.7097ZM86.2507 81.002H92.0846C92.2393 81.002 92.3877 80.9406 92.4971 80.8311C92.6065 80.7217 92.668 80.5734 92.668 80.4186V51.8329H94.4181C94.5356 51.8325 94.6503 51.7967 94.7471 51.7301C94.8439 51.6634 94.9184 51.5691 94.9607 51.4595C95.0037 51.3484 95.0116 51.2268 94.9835 51.111C94.9553 50.9952 94.8924 50.8909 94.8031 50.8119L89.5527 46.1449C89.4462 46.0513 89.3094 45.9998 89.1677 45.9998C89.026 45.9998 88.8891 46.0513 88.7826 46.1449L83.5322 50.8119C83.4429 50.8909 83.38 50.9952 83.3519 51.111C83.3237 51.2268 83.3317 51.3484 83.3747 51.4595C83.417 51.5691 83.4914 51.6634 83.5882 51.7301C83.685 51.7967 83.7997 51.8325 83.9172 51.8329H85.6674V65.834C85.6674 65.9888 85.7288 66.1372 85.8382 66.2466C85.9476 66.356 86.096 66.4174 86.2507 66.4174C86.4055 66.4174 86.5539 66.356 86.6633 66.2466C86.7727 66.1372 86.8341 65.9888 86.8341 65.834V51.2495C86.8341 51.0947 86.7727 50.9464 86.6633 50.837C86.5539 50.7275 86.4055 50.6661 86.2507 50.6661H85.4515L89.1677 47.3641L92.8838 50.6661H92.0846C91.9299 50.6661 91.7815 50.7275 91.6721 50.837C91.5627 50.9464 91.5012 51.0947 91.5012 51.2495V79.8353H86.8341V75.1682C86.8341 75.0135 86.7727 74.8651 86.6633 74.7557C86.5539 74.6463 86.4055 74.5848 86.2507 74.5848C86.096 74.5848 85.9476 74.6463 85.8382 74.7557C85.7288 74.8651 85.6674 75.0135 85.6674 75.1682V80.4186C85.6674 80.5734 85.7288 80.7217 85.8382 80.8311C85.9476 80.9406 86.096 81.002 86.2507 81.002ZM79.8335 79.8353H75.1665C75.1665 79.6805 75.105 79.5321 74.9956 79.4227C74.8862 79.3133 74.7378 79.2519 74.5831 79.2519C74.4284 79.2519 74.28 79.3133 74.1706 79.4227C74.0612 79.5321 73.9997 79.6805 73.9997 79.8353V80.4186C73.9997 80.5734 74.0612 80.7217 74.1706 80.8311C74.28 80.9406 74.4284 81.002 74.5831 81.002H80.4169C80.5716 81.002 80.72 80.9406 80.8294 80.8311C80.9388 80.7217 81.0003 80.5734 81.0003 80.4186V79.8353C81.0003 79.6805 80.9388 79.5321 80.8294 79.4227C80.72 79.3133 80.5716 79.2519 80.4169 79.2519C80.2622 79.2519 80.1138 79.3133 80.0044 79.4227C79.895 79.5321 79.8335 79.6805 79.8335 79.8353ZM79.8335 59.4168V60.5836C79.8335 60.7383 79.895 60.8867 80.0044 60.9961C80.1138 61.1055 80.2622 61.167 80.4169 61.167C80.5716 61.167 80.72 61.1055 80.8294 60.9961C80.9388 60.8867 81.0003 60.7383 81.0003 60.5836V60.0002H82.7505C82.868 59.9999 82.9826 59.964 83.0794 59.8974C83.1763 59.8308 83.2507 59.7365 83.293 59.6269C83.336 59.5157 83.344 59.3941 83.3158 59.2784C83.2876 59.1626 83.2247 59.0582 83.1355 58.9793L77.885 54.3122C77.7786 54.2187 77.6417 54.1671 77.5 54.1671C77.3583 54.1671 77.2214 54.2187 77.115 54.3122L71.8645 58.9793C71.7753 59.0582 71.7124 59.1626 71.6842 59.2784C71.656 59.3941 71.664 59.5157 71.707 59.6269C71.7493 59.7365 71.8237 59.8308 71.9206 59.8974C72.0174 59.964 72.132 59.9999 72.2496 60.0002H73.9997V60.5836C73.9997 60.7383 74.0612 60.8867 74.1706 60.9961C74.28 61.1055 74.4284 61.167 74.5831 61.167C74.7378 61.167 74.8862 61.1055 74.9956 60.9961C75.105 60.8867 75.1665 60.7383 75.1665 60.5836V59.4168C75.1665 59.2621 75.105 59.1137 74.9956 59.0043C74.8862 58.8949 74.7378 58.8335 74.5831 58.8335H73.7838L77.5 55.5315L81.2162 58.8335H80.4169C80.2622 58.8335 80.1138 58.8949 80.0044 59.0043C79.895 59.1137 79.8335 59.2621 79.8335 59.4168ZM62.9154 81.002H68.7493C68.904 81.002 69.0524 80.9406 69.1618 80.8311C69.2712 80.7217 69.3326 80.5734 69.3326 80.4186V75.1682C69.3326 75.0135 69.2712 74.8651 69.1618 74.7557C69.0524 74.6463 68.904 74.5848 68.7493 74.5848C68.5945 74.5848 68.4461 74.6463 68.3367 74.7557C68.2273 74.8651 68.1659 75.0135 68.1659 75.1682V79.8353H63.4988V67.5842C63.4988 67.4295 63.4373 67.2811 63.3279 67.1717C63.2185 67.0623 63.0701 67.0008 62.9154 67.0008H62.1162L65.8323 63.6989L68.0725 65.6882C68.1293 65.7428 68.1966 65.7852 68.2702 65.8131C68.3439 65.841 68.4224 65.8536 68.5011 65.8503C68.5798 65.847 68.657 65.8278 68.7281 65.7939C68.7991 65.76 68.8626 65.712 68.9146 65.6529C68.9666 65.5937 69.0061 65.5247 69.0308 65.4499C69.0554 65.3751 69.0646 65.2961 69.0579 65.2176C69.0512 65.1392 69.0286 65.0629 68.9916 64.9934C68.9546 64.9238 68.9039 64.8625 68.8426 64.8131L66.2174 62.4796C66.1109 62.3861 65.974 62.3345 65.8323 62.3345C65.6906 62.3345 65.5538 62.3861 65.4473 62.4796L60.1969 67.1467C60.1076 67.2256 60.0447 67.33 60.0165 67.4457C59.9884 67.5615 59.9963 67.6831 60.0393 67.7942C60.0816 67.9039 60.1561 67.9982 60.2529 68.0648C60.3497 68.1314 60.4644 68.1672 60.5819 68.1676H62.332V80.4186C62.332 80.5734 62.3935 80.7217 62.5029 80.8311C62.6123 80.9406 62.7607 81.002 62.9154 81.002Z"/>
</mask>
<path d="M80.8778 66.2949L73.2938 73.8789C73.2391 73.9331 73.1957 73.9977 73.1661 74.0688C73.1365 74.1398 73.1212 74.2161 73.1212 74.2931C73.1212 74.3701 73.1365 74.4464 73.1661 74.5175C73.1957 74.5886 73.2391 74.6531 73.2938 74.7073C73.348 74.762 73.4126 74.8054 73.4837 74.835C73.5547 74.8646 73.631 74.8799 73.708 74.8799C73.785 74.8799 73.8613 74.8646 73.9324 74.835C74.0035 74.8054 74.068 74.762 74.1222 74.7073L81.7062 67.1233C81.816 67.0135 81.8778 66.8645 81.8778 66.7091C81.8778 66.5538 81.816 66.4048 81.7062 66.2949C81.5963 66.1851 81.4473 66.1234 81.292 66.1234C81.1366 66.1234 80.9876 66.1851 80.8778 66.2949ZM75.2248 70.3261C75.6402 70.3261 76.0462 70.2029 76.3916 69.9722C76.737 69.7414 77.0062 69.4134 77.1651 69.0296C77.3241 68.6459 77.3657 68.2236 77.2846 67.8162C77.2036 67.4088 77.0036 67.0346 76.7099 66.7409C76.4161 66.4472 76.0419 66.2471 75.6345 66.1661C75.2271 66.0851 74.8049 66.1266 74.4211 66.2856C74.0373 66.4446 73.7093 66.7138 73.4786 67.0591C73.2478 67.4045 73.1246 67.8105 73.1246 68.2259C73.1262 68.7824 73.3479 69.3157 73.7415 69.7093C74.135 70.1028 74.6683 70.3246 75.2248 70.3261ZM75.2248 67.2925C75.4094 67.2925 75.5899 67.3473 75.7434 67.4498C75.8969 67.5524 76.0165 67.6982 76.0872 67.8687C76.1578 68.0393 76.1763 68.227 76.1403 68.408C76.1043 68.5891 76.0154 68.7554 75.8848 68.8859C75.7543 69.0165 75.588 69.1054 75.4069 69.1414C75.2258 69.1774 75.0382 69.1589 74.8676 69.0883C74.697 69.0176 74.5513 68.898 74.4487 68.7445C74.3461 68.591 74.2914 68.4105 74.2914 68.2259C74.2914 67.9784 74.3897 67.7409 74.5648 67.5659C74.7398 67.3908 74.9772 67.2925 75.2248 67.2925ZM79.7752 70.6761C79.3598 70.6761 78.9538 70.7993 78.6084 71.0301C78.263 71.2608 77.9938 71.5889 77.8349 71.9726C77.6759 72.3564 77.6343 72.7786 77.7154 73.186C77.7964 73.5934 77.9964 73.9676 78.2901 74.2614C78.5839 74.5551 78.9581 74.7551 79.3655 74.8361C79.7729 74.9172 80.1951 74.8756 80.5789 74.7166C80.9627 74.5577 81.2907 74.2885 81.5214 73.9431C81.7522 73.5977 81.8754 73.1917 81.8754 72.7763C81.8738 72.2198 81.6521 71.6865 81.2585 71.293C80.865 70.8994 80.3317 70.6777 79.7752 70.6761ZM79.7752 73.7097C79.5906 73.7097 79.4101 73.655 79.2566 73.5524C79.1031 73.4499 78.9835 73.3041 78.9128 73.1335C78.8422 72.963 78.8237 72.7753 78.8597 72.5942C78.8957 72.4131 78.9846 72.2468 79.1152 72.1163C79.2457 71.9858 79.412 71.8968 79.5931 71.8608C79.7742 71.8248 79.9618 71.8433 80.1324 71.9139C80.303 71.9846 80.4487 72.1042 80.5513 72.2577C80.6539 72.4112 80.7086 72.5917 80.7086 72.7763C80.7086 73.0239 80.6103 73.2613 80.4352 73.4363C80.2602 73.6114 80.0228 73.7097 79.7752 73.7097ZM86.2507 81.002H92.0846C92.2393 81.002 92.3877 80.9406 92.4971 80.8311C92.6065 80.7217 92.668 80.5734 92.668 80.4186V51.8329H94.4181C94.5356 51.8325 94.6503 51.7967 94.7471 51.7301C94.8439 51.6634 94.9184 51.5691 94.9607 51.4595C95.0037 51.3484 95.0116 51.2268 94.9835 51.111C94.9553 50.9952 94.8924 50.8909 94.8031 50.8119L89.5527 46.1449C89.4462 46.0513 89.3094 45.9998 89.1677 45.9998C89.026 45.9998 88.8891 46.0513 88.7826 46.1449L83.5322 50.8119C83.4429 50.8909 83.38 50.9952 83.3519 51.111C83.3237 51.2268 83.3317 51.3484 83.3747 51.4595C83.417 51.5691 83.4914 51.6634 83.5882 51.7301C83.685 51.7967 83.7997 51.8325 83.9172 51.8329H85.6674V65.834C85.6674 65.9888 85.7288 66.1372 85.8382 66.2466C85.9476 66.356 86.096 66.4174 86.2507 66.4174C86.4055 66.4174 86.5539 66.356 86.6633 66.2466C86.7727 66.1372 86.8341 65.9888 86.8341 65.834V51.2495C86.8341 51.0947 86.7727 50.9464 86.6633 50.837C86.5539 50.7275 86.4055 50.6661 86.2507 50.6661H85.4515L89.1677 47.3641L92.8838 50.6661H92.0846C91.9299 50.6661 91.7815 50.7275 91.6721 50.837C91.5627 50.9464 91.5012 51.0947 91.5012 51.2495V79.8353H86.8341V75.1682C86.8341 75.0135 86.7727 74.8651 86.6633 74.7557C86.5539 74.6463 86.4055 74.5848 86.2507 74.5848C86.096 74.5848 85.9476 74.6463 85.8382 74.7557C85.7288 74.8651 85.6674 75.0135 85.6674 75.1682V80.4186C85.6674 80.5734 85.7288 80.7217 85.8382 80.8311C85.9476 80.9406 86.096 81.002 86.2507 81.002ZM79.8335 79.8353H75.1665C75.1665 79.6805 75.105 79.5321 74.9956 79.4227C74.8862 79.3133 74.7378 79.2519 74.5831 79.2519C74.4284 79.2519 74.28 79.3133 74.1706 79.4227C74.0612 79.5321 73.9997 79.6805 73.9997 79.8353V80.4186C73.9997 80.5734 74.0612 80.7217 74.1706 80.8311C74.28 80.9406 74.4284 81.002 74.5831 81.002H80.4169C80.5716 81.002 80.72 80.9406 80.8294 80.8311C80.9388 80.7217 81.0003 80.5734 81.0003 80.4186V79.8353C81.0003 79.6805 80.9388 79.5321 80.8294 79.4227C80.72 79.3133 80.5716 79.2519 80.4169 79.2519C80.2622 79.2519 80.1138 79.3133 80.0044 79.4227C79.895 79.5321 79.8335 79.6805 79.8335 79.8353ZM79.8335 59.4168V60.5836C79.8335 60.7383 79.895 60.8867 80.0044 60.9961C80.1138 61.1055 80.2622 61.167 80.4169 61.167C80.5716 61.167 80.72 61.1055 80.8294 60.9961C80.9388 60.8867 81.0003 60.7383 81.0003 60.5836V60.0002H82.7505C82.868 59.9999 82.9826 59.964 83.0794 59.8974C83.1763 59.8308 83.2507 59.7365 83.293 59.6269C83.336 59.5157 83.344 59.3941 83.3158 59.2784C83.2876 59.1626 83.2247 59.0582 83.1355 58.9793L77.885 54.3122C77.7786 54.2187 77.6417 54.1671 77.5 54.1671C77.3583 54.1671 77.2214 54.2187 77.115 54.3122L71.8645 58.9793C71.7753 59.0582 71.7124 59.1626 71.6842 59.2784C71.656 59.3941 71.664 59.5157 71.707 59.6269C71.7493 59.7365 71.8237 59.8308 71.9206 59.8974C72.0174 59.964 72.132 59.9999 72.2496 60.0002H73.9997V60.5836C73.9997 60.7383 74.0612 60.8867 74.1706 60.9961C74.28 61.1055 74.4284 61.167 74.5831 61.167C74.7378 61.167 74.8862 61.1055 74.9956 60.9961C75.105 60.8867 75.1665 60.7383 75.1665 60.5836V59.4168C75.1665 59.2621 75.105 59.1137 74.9956 59.0043C74.8862 58.8949 74.7378 58.8335 74.5831 58.8335H73.7838L77.5 55.5315L81.2162 58.8335H80.4169C80.2622 58.8335 80.1138 58.8949 80.0044 59.0043C79.895 59.1137 79.8335 59.2621 79.8335 59.4168ZM62.9154 81.002H68.7493C68.904 81.002 69.0524 80.9406 69.1618 80.8311C69.2712 80.7217 69.3326 80.5734 69.3326 80.4186V75.1682C69.3326 75.0135 69.2712 74.8651 69.1618 74.7557C69.0524 74.6463 68.904 74.5848 68.7493 74.5848C68.5945 74.5848 68.4461 74.6463 68.3367 74.7557C68.2273 74.8651 68.1659 75.0135 68.1659 75.1682V79.8353H63.4988V67.5842C63.4988 67.4295 63.4373 67.2811 63.3279 67.1717C63.2185 67.0623 63.0701 67.0008 62.9154 67.0008H62.1162L65.8323 63.6989L68.0725 65.6882C68.1293 65.7428 68.1966 65.7852 68.2702 65.8131C68.3439 65.841 68.4224 65.8536 68.5011 65.8503C68.5798 65.847 68.657 65.8278 68.7281 65.7939C68.7991 65.76 68.8626 65.712 68.9146 65.6529C68.9666 65.5937 69.0061 65.5247 69.0308 65.4499C69.0554 65.3751 69.0646 65.2961 69.0579 65.2176C69.0512 65.1392 69.0286 65.0629 68.9916 64.9934C68.9546 64.9238 68.9039 64.8625 68.8426 64.8131L66.2174 62.4796C66.1109 62.3861 65.974 62.3345 65.8323 62.3345C65.6906 62.3345 65.5538 62.3861 65.4473 62.4796L60.1969 67.1467C60.1076 67.2256 60.0447 67.33 60.0165 67.4457C59.9884 67.5615 59.9963 67.6831 60.0393 67.7942C60.0816 67.9039 60.1561 67.9982 60.2529 68.0648C60.3497 68.1314 60.4644 68.1672 60.5819 68.1676H62.332V80.4186C62.332 80.5734 62.3935 80.7217 62.5029 80.8311C62.6123 80.9406 62.7607 81.002 62.9154 81.002Z" fill="#03AF00"/>
<path d="M80.8778 66.2949L73.2938 73.8789C73.2391 73.9331 73.1957 73.9977 73.1661 74.0688C73.1365 74.1398 73.1212 74.2161 73.1212 74.2931C73.1212 74.3701 73.1365 74.4464 73.1661 74.5175C73.1957 74.5886 73.2391 74.6531 73.2938 74.7073C73.348 74.762 73.4126 74.8054 73.4837 74.835C73.5547 74.8646 73.631 74.8799 73.708 74.8799C73.785 74.8799 73.8613 74.8646 73.9324 74.835C74.0035 74.8054 74.068 74.762 74.1222 74.7073L81.7062 67.1233C81.816 67.0135 81.8778 66.8645 81.8778 66.7091C81.8778 66.5538 81.816 66.4048 81.7062 66.2949C81.5963 66.1851 81.4473 66.1234 81.292 66.1234C81.1366 66.1234 80.9876 66.1851 80.8778 66.2949ZM75.2248 70.3261C75.6402 70.3261 76.0462 70.2029 76.3916 69.9722C76.737 69.7414 77.0062 69.4134 77.1651 69.0296C77.3241 68.6459 77.3657 68.2236 77.2846 67.8162C77.2036 67.4088 77.0036 67.0346 76.7099 66.7409C76.4161 66.4472 76.0419 66.2471 75.6345 66.1661C75.2271 66.0851 74.8049 66.1266 74.4211 66.2856C74.0373 66.4446 73.7093 66.7138 73.4786 67.0591C73.2478 67.4045 73.1246 67.8105 73.1246 68.2259C73.1262 68.7824 73.3479 69.3157 73.7415 69.7093C74.135 70.1028 74.6683 70.3246 75.2248 70.3261ZM75.2248 67.2925C75.4094 67.2925 75.5899 67.3473 75.7434 67.4498C75.8969 67.5524 76.0165 67.6982 76.0872 67.8687C76.1578 68.0393 76.1763 68.227 76.1403 68.408C76.1043 68.5891 76.0154 68.7554 75.8848 68.8859C75.7543 69.0165 75.588 69.1054 75.4069 69.1414C75.2258 69.1774 75.0382 69.1589 74.8676 69.0883C74.697 69.0176 74.5513 68.898 74.4487 68.7445C74.3461 68.591 74.2914 68.4105 74.2914 68.2259C74.2914 67.9784 74.3897 67.7409 74.5648 67.5659C74.7398 67.3908 74.9772 67.2925 75.2248 67.2925ZM79.7752 70.6761C79.3598 70.6761 78.9538 70.7993 78.6084 71.0301C78.263 71.2608 77.9938 71.5889 77.8349 71.9726C77.6759 72.3564 77.6343 72.7786 77.7154 73.186C77.7964 73.5934 77.9964 73.9676 78.2901 74.2614C78.5839 74.5551 78.9581 74.7551 79.3655 74.8361C79.7729 74.9172 80.1951 74.8756 80.5789 74.7166C80.9627 74.5577 81.2907 74.2885 81.5214 73.9431C81.7522 73.5977 81.8754 73.1917 81.8754 72.7763C81.8738 72.2198 81.6521 71.6865 81.2585 71.293C80.865 70.8994 80.3317 70.6777 79.7752 70.6761ZM79.7752 73.7097C79.5906 73.7097 79.4101 73.655 79.2566 73.5524C79.1031 73.4499 78.9835 73.3041 78.9128 73.1335C78.8422 72.963 78.8237 72.7753 78.8597 72.5942C78.8957 72.4131 78.9846 72.2468 79.1152 72.1163C79.2457 71.9858 79.412 71.8968 79.5931 71.8608C79.7742 71.8248 79.9618 71.8433 80.1324 71.9139C80.303 71.9846 80.4487 72.1042 80.5513 72.2577C80.6539 72.4112 80.7086 72.5917 80.7086 72.7763C80.7086 73.0239 80.6103 73.2613 80.4352 73.4363C80.2602 73.6114 80.0228 73.7097 79.7752 73.7097ZM86.2507 81.002H92.0846C92.2393 81.002 92.3877 80.9406 92.4971 80.8311C92.6065 80.7217 92.668 80.5734 92.668 80.4186V51.8329H94.4181C94.5356 51.8325 94.6503 51.7967 94.7471 51.7301C94.8439 51.6634 94.9184 51.5691 94.9607 51.4595C95.0037 51.3484 95.0116 51.2268 94.9835 51.111C94.9553 50.9952 94.8924 50.8909 94.8031 50.8119L89.5527 46.1449C89.4462 46.0513 89.3094 45.9998 89.1677 45.9998C89.026 45.9998 88.8891 46.0513 88.7826 46.1449L83.5322 50.8119C83.4429 50.8909 83.38 50.9952 83.3519 51.111C83.3237 51.2268 83.3317 51.3484 83.3747 51.4595C83.417 51.5691 83.4914 51.6634 83.5882 51.7301C83.685 51.7967 83.7997 51.8325 83.9172 51.8329H85.6674V65.834C85.6674 65.9888 85.7288 66.1372 85.8382 66.2466C85.9476 66.356 86.096 66.4174 86.2507 66.4174C86.4055 66.4174 86.5539 66.356 86.6633 66.2466C86.7727 66.1372 86.8341 65.9888 86.8341 65.834V51.2495C86.8341 51.0947 86.7727 50.9464 86.6633 50.837C86.5539 50.7275 86.4055 50.6661 86.2507 50.6661H85.4515L89.1677 47.3641L92.8838 50.6661H92.0846C91.9299 50.6661 91.7815 50.7275 91.6721 50.837C91.5627 50.9464 91.5012 51.0947 91.5012 51.2495V79.8353H86.8341V75.1682C86.8341 75.0135 86.7727 74.8651 86.6633 74.7557C86.5539 74.6463 86.4055 74.5848 86.2507 74.5848C86.096 74.5848 85.9476 74.6463 85.8382 74.7557C85.7288 74.8651 85.6674 75.0135 85.6674 75.1682V80.4186C85.6674 80.5734 85.7288 80.7217 85.8382 80.8311C85.9476 80.9406 86.096 81.002 86.2507 81.002ZM79.8335 79.8353H75.1665C75.1665 79.6805 75.105 79.5321 74.9956 79.4227C74.8862 79.3133 74.7378 79.2519 74.5831 79.2519C74.4284 79.2519 74.28 79.3133 74.1706 79.4227C74.0612 79.5321 73.9997 79.6805 73.9997 79.8353V80.4186C73.9997 80.5734 74.0612 80.7217 74.1706 80.8311C74.28 80.9406 74.4284 81.002 74.5831 81.002H80.4169C80.5716 81.002 80.72 80.9406 80.8294 80.8311C80.9388 80.7217 81.0003 80.5734 81.0003 80.4186V79.8353C81.0003 79.6805 80.9388 79.5321 80.8294 79.4227C80.72 79.3133 80.5716 79.2519 80.4169 79.2519C80.2622 79.2519 80.1138 79.3133 80.0044 79.4227C79.895 79.5321 79.8335 79.6805 79.8335 79.8353ZM79.8335 59.4168V60.5836C79.8335 60.7383 79.895 60.8867 80.0044 60.9961C80.1138 61.1055 80.2622 61.167 80.4169 61.167C80.5716 61.167 80.72 61.1055 80.8294 60.9961C80.9388 60.8867 81.0003 60.7383 81.0003 60.5836V60.0002H82.7505C82.868 59.9999 82.9826 59.964 83.0794 59.8974C83.1763 59.8308 83.2507 59.7365 83.293 59.6269C83.336 59.5157 83.344 59.3941 83.3158 59.2784C83.2876 59.1626 83.2247 59.0582 83.1355 58.9793L77.885 54.3122C77.7786 54.2187 77.6417 54.1671 77.5 54.1671C77.3583 54.1671 77.2214 54.2187 77.115 54.3122L71.8645 58.9793C71.7753 59.0582 71.7124 59.1626 71.6842 59.2784C71.656 59.3941 71.664 59.5157 71.707 59.6269C71.7493 59.7365 71.8237 59.8308 71.9206 59.8974C72.0174 59.964 72.132 59.9999 72.2496 60.0002H73.9997V60.5836C73.9997 60.7383 74.0612 60.8867 74.1706 60.9961C74.28 61.1055 74.4284 61.167 74.5831 61.167C74.7378 61.167 74.8862 61.1055 74.9956 60.9961C75.105 60.8867 75.1665 60.7383 75.1665 60.5836V59.4168C75.1665 59.2621 75.105 59.1137 74.9956 59.0043C74.8862 58.8949 74.7378 58.8335 74.5831 58.8335H73.7838L77.5 55.5315L81.2162 58.8335H80.4169C80.2622 58.8335 80.1138 58.8949 80.0044 59.0043C79.895 59.1137 79.8335 59.2621 79.8335 59.4168ZM62.9154 81.002H68.7493C68.904 81.002 69.0524 80.9406 69.1618 80.8311C69.2712 80.7217 69.3326 80.5734 69.3326 80.4186V75.1682C69.3326 75.0135 69.2712 74.8651 69.1618 74.7557C69.0524 74.6463 68.904 74.5848 68.7493 74.5848C68.5945 74.5848 68.4461 74.6463 68.3367 74.7557C68.2273 74.8651 68.1659 75.0135 68.1659 75.1682V79.8353H63.4988V67.5842C63.4988 67.4295 63.4373 67.2811 63.3279 67.1717C63.2185 67.0623 63.0701 67.0008 62.9154 67.0008H62.1162L65.8323 63.6989L68.0725 65.6882C68.1293 65.7428 68.1966 65.7852 68.2702 65.8131C68.3439 65.841 68.4224 65.8536 68.5011 65.8503C68.5798 65.847 68.657 65.8278 68.7281 65.7939C68.7991 65.76 68.8626 65.712 68.9146 65.6529C68.9666 65.5937 69.0061 65.5247 69.0308 65.4499C69.0554 65.3751 69.0646 65.2961 69.0579 65.2176C69.0512 65.1392 69.0286 65.0629 68.9916 64.9934C68.9546 64.9238 68.9039 64.8625 68.8426 64.8131L66.2174 62.4796C66.1109 62.3861 65.974 62.3345 65.8323 62.3345C65.6906 62.3345 65.5538 62.3861 65.4473 62.4796L60.1969 67.1467C60.1076 67.2256 60.0447 67.33 60.0165 67.4457C59.9884 67.5615 59.9963 67.6831 60.0393 67.7942C60.0816 67.9039 60.1561 67.9982 60.2529 68.0648C60.3497 68.1314 60.4644 68.1672 60.5819 68.1676H62.332V80.4186C62.332 80.5734 62.3935 80.7217 62.5029 80.8311C62.6123 80.9406 62.7607 81.002 62.9154 81.002Z" stroke="#03AF00" stroke-width="0.4" mask="url(#path-4-outside-1_3643_2175)"/>
<path d="M47.0082 107.66V116H45.6402V110.288L43.0962 116H42.1482L39.5922 110.288V116H38.2242V107.66H39.7002L42.6282 114.2L45.5442 107.66H47.0082ZM54.7943 109.388V116H53.4263V115.22C53.2103 115.492 52.9263 115.708 52.5743 115.868C52.2303 116.02 51.8623 116.096 51.4703 116.096C50.9503 116.096 50.4823 115.988 50.0663 115.772C49.6583 115.556 49.3343 115.236 49.0943 114.812C48.8623 114.388 48.7463 113.876 48.7463 113.276V109.388H50.1023V113.072C50.1023 113.664 50.2503 114.12 50.5463 114.44C50.8423 114.752 51.2463 114.908 51.7583 114.908C52.2703 114.908 52.6743 114.752 52.9703 114.44C53.2743 114.12 53.4263 113.664 53.4263 113.072V109.388H54.7943ZM58.1952 110.504V114.164C58.1952 114.412 58.2512 114.592 58.3632 114.704C58.4832 114.808 58.6832 114.86 58.9632 114.86H59.8032V116H58.7232C58.1072 116 57.6352 115.856 57.3072 115.568C56.9792 115.28 56.8152 114.812 56.8152 114.164V110.504H56.0352V109.388H56.8152V107.744H58.1952V109.388H59.8032V110.504H58.1952ZM67.0521 109.388V116H65.6841V115.22C65.4681 115.492 65.1841 115.708 64.8321 115.868C64.4881 116.02 64.1201 116.096 63.7281 116.096C63.2081 116.096 62.7401 115.988 62.3241 115.772C61.9161 115.556 61.5921 115.236 61.3521 114.812C61.1201 114.388 61.0041 113.876 61.0041 113.276V109.388H62.3601V113.072C62.3601 113.664 62.5081 114.12 62.8041 114.44C63.1001 114.752 63.5041 114.908 64.0161 114.908C64.5281 114.908 64.9321 114.752 65.2281 114.44C65.5321 114.12 65.6841 113.664 65.6841 113.072V109.388H67.0521ZM68.401 112.664C68.401 112 68.537 111.412 68.809 110.9C69.089 110.388 69.465 109.992 69.937 109.712C70.417 109.424 70.945 109.28 71.521 109.28C72.041 109.28 72.493 109.384 72.877 109.592C73.269 109.792 73.581 110.044 73.813 110.348V109.388H75.193V116H73.813V115.016C73.581 115.328 73.265 115.588 72.865 115.796C72.465 116.004 72.009 116.108 71.497 116.108C70.929 116.108 70.409 115.964 69.937 115.676C69.465 115.38 69.089 114.972 68.809 114.452C68.537 113.924 68.401 113.328 68.401 112.664ZM73.813 112.688C73.813 112.232 73.717 111.836 73.525 111.5C73.341 111.164 73.097 110.908 72.793 110.732C72.489 110.556 72.161 110.468 71.809 110.468C71.457 110.468 71.129 110.556 70.825 110.732C70.521 110.9 70.273 111.152 70.081 111.488C69.897 111.816 69.805 112.208 69.805 112.664C69.805 113.12 69.897 113.52 70.081 113.864C70.273 114.208 70.521 114.472 70.825 114.656C71.137 114.832 71.465 114.92 71.809 114.92C72.161 114.92 72.489 114.832 72.793 114.656C73.097 114.48 73.341 114.224 73.525 113.888C73.717 113.544 73.813 113.144 73.813 112.688ZM78.3578 107.12V116H76.9898V107.12H78.3578ZM88.1791 107.66V108.776H84.6391V111.236H87.3991V112.352H84.6391V116H83.2711V107.66H88.1791ZM95.4349 109.388V116H94.0669V115.22C93.8509 115.492 93.5669 115.708 93.2149 115.868C92.8709 116.02 92.5029 116.096 92.1109 116.096C91.5909 116.096 91.1229 115.988 90.7069 115.772C90.2989 115.556 89.9749 115.236 89.7349 114.812C89.5029 114.388 89.3869 113.876 89.3869 113.276V109.388H90.7429V113.072C90.7429 113.664 90.8909 114.12 91.1869 114.44C91.4829 114.752 91.8869 114.908 92.3989 114.908C92.9109 114.908 93.3149 114.752 93.6109 114.44C93.9149 114.12 94.0669 113.664 94.0669 113.072V109.388H95.4349ZM100.576 109.28C101.096 109.28 101.56 109.388 101.968 109.604C102.384 109.82 102.708 110.14 102.94 110.564C103.172 110.988 103.288 111.5 103.288 112.1V116H101.932V112.304C101.932 111.712 101.784 111.26 101.488 110.948C101.192 110.628 100.788 110.468 100.276 110.468C99.7638 110.468 99.3558 110.628 99.0518 110.948C98.7558 111.26 98.6078 111.712 98.6078 112.304V116H97.2398V109.388H98.6078V110.144C98.8318 109.872 99.1158 109.66 99.4598 109.508C99.8118 109.356 100.184 109.28 100.576 109.28ZM104.577 112.664C104.577 112 104.713 111.412 104.985 110.9C105.265 110.388 105.641 109.992 106.113 109.712C106.593 109.424 107.125 109.28 107.709 109.28C108.141 109.28 108.565 109.376 108.981 109.568C109.405 109.752 109.741 110 109.989 110.312V107.12H111.369V116H109.989V115.004C109.765 115.324 109.453 115.588 109.053 115.796C108.661 116.004 108.209 116.108 107.697 116.108C107.121 116.108 106.593 115.964 106.113 115.676C105.641 115.38 105.265 114.972 104.985 114.452C104.713 113.924 104.577 113.328 104.577 112.664ZM109.989 112.688C109.989 112.232 109.893 111.836 109.701 111.5C109.517 111.164 109.273 110.908 108.969 110.732C108.665 110.556 108.337 110.468 107.985 110.468C107.633 110.468 107.305 110.556 107.001 110.732C106.697 110.9 106.449 111.152 106.257 111.488C106.073 111.816 105.981 112.208 105.981 112.664C105.981 113.12 106.073 113.52 106.257 113.864C106.449 114.208 106.697 114.472 107.001 114.656C107.313 114.832 107.641 114.92 107.985 114.92C108.337 114.92 108.665 114.832 108.969 114.656C109.273 114.48 109.517 114.224 109.701 113.888C109.893 113.544 109.989 113.144 109.989 112.688ZM115.566 116.108C115.046 116.108 114.578 116.016 114.162 115.832C113.754 115.64 113.43 115.384 113.19 115.064C112.95 114.736 112.822 114.372 112.806 113.972H114.222C114.246 114.252 114.378 114.488 114.618 114.68C114.866 114.864 115.174 114.956 115.542 114.956C115.926 114.956 116.222 114.884 116.43 114.74C116.646 114.588 116.754 114.396 116.754 114.164C116.754 113.916 116.634 113.732 116.394 113.612C116.162 113.492 115.79 113.36 115.278 113.216C114.782 113.08 114.378 112.948 114.066 112.82C113.754 112.692 113.482 112.496 113.25 112.232C113.026 111.968 112.914 111.62 112.914 111.188C112.914 110.836 113.018 110.516 113.226 110.228C113.434 109.932 113.73 109.7 114.114 109.532C114.506 109.364 114.954 109.28 115.458 109.28C116.21 109.28 116.814 109.472 117.27 109.856C117.734 110.232 117.982 110.748 118.014 111.404H116.646C116.622 111.108 116.502 110.872 116.286 110.696C116.07 110.52 115.778 110.432 115.41 110.432C115.05 110.432 114.774 110.5 114.582 110.636C114.39 110.772 114.294 110.952 114.294 111.176C114.294 111.352 114.358 111.5 114.486 111.62C114.614 111.74 114.77 111.836 114.954 111.908C115.138 111.972 115.41 112.056 115.77 112.16C116.25 112.288 116.642 112.42 116.946 112.556C117.258 112.684 117.526 112.876 117.75 113.132C117.974 113.388 118.09 113.728 118.098 114.152C118.098 114.528 117.994 114.864 117.786 115.16C117.578 115.456 117.282 115.688 116.898 115.856C116.522 116.024 116.078 116.108 115.566 116.108Z" fill="#2F2F2F"/>
<defs>
<filter id="filter0_d_3643_2175" x="0.9" y="0.9" width="154.2" height="154.2" filterUnits="userSpaceOnUse" color-interpolation-filters="sRGB">
<feFlood flood-opacity="0" result="BackgroundImageFix"/>
<feColorMatrix in="SourceAlpha" type="matrix" values="0 0 0 0 0 0 0 0 0 0 0 0 0 0 0 0 0 0 127 0" result="hardAlpha"/>
<feMorphology radius="0.1" operator="dilate" in="SourceAlpha" result="effect1_dropShadow_3643_2175"/>
<feOffset/>
<feGaussianBlur stdDeviation="8.5"/>
<feComposite in2="hardAlpha" operator="out"/>
<feColorMatrix type="matrix" values="0 0 0 0 0.768627 0 0 0 0 0.768627 0 0 0 0 0.768627 0 0 0 0.63 0"/>
<feBlend mode="normal" in2="BackgroundImageFix" result="effect1_dropShadow_3643_2175"/>
<feBlend mode="normal" in="SourceGraphic" in2="effect1_dropShadow_3643_2175" result="shape"/>
</filter>
</defs>
</svg>
