<svg width="58" height="58" viewBox="0 0 58 58" fill="none" xmlns="http://www.w3.org/2000/svg">
<circle cx="29" cy="29" r="29" fill="#3FD276" fill-opacity="0.14"/>
<path d="M36.7677 35.5018C36.7677 33.8667 36.2829 32.2683 35.3744 30.9087C34.466 29.5492 33.1748 28.4895 31.6642 27.8638C30.1535 27.2381 28.4912 27.0743 26.8875 27.3933C25.2838 27.7123 23.8107 28.4997 22.6545 29.6559C21.4983 30.8121 20.7109 32.2852 20.3919 33.889C20.0729 35.4927 20.2366 37.155 20.8623 38.6656C21.4881 40.1763 22.5477 41.4675 23.9073 42.3759C25.2668 43.2843 26.8652 43.7692 28.5004 43.7692C30.693 43.7692 32.7959 42.8982 34.3463 41.3478C35.8967 39.7973 36.7677 37.6945 36.7677 35.5018ZM28.5004 42.4024C27.1356 42.4024 25.8014 41.9977 24.6666 41.2395C23.5318 40.4812 22.6473 39.4035 22.1251 38.1426C21.6028 36.8817 21.4661 35.4942 21.7324 34.1556C21.9986 32.817 22.6559 31.5874 23.6209 30.6224C24.586 29.6573 25.8156 29.0001 27.1541 28.7338C28.4927 28.4676 29.8802 28.6042 31.1411 29.1265C32.402 29.6488 33.4798 30.5333 34.238 31.6681C34.9963 32.8029 35.401 34.137 35.401 35.5018C35.401 37.332 34.674 39.0872 33.3798 40.3813C32.0857 41.6754 30.3305 42.4024 28.5004 42.4024Z" fill="#03AF00" stroke="#03AF00" stroke-width="0.2"/>
<mask id="path-3-outside-1_3662_2305" maskUnits="userSpaceOnUse" x="10" y="10" width="37" height="37" fill="black">
<rect fill="white" x="10" y="10" width="37" height="37"/>
<path d="M31.8778 31.2952L24.2938 38.8792C24.2391 38.9334 24.1957 38.9979 24.1661 39.069C24.1365 39.1401 24.1212 39.2163 24.1212 39.2934C24.1212 39.3704 24.1365 39.4466 24.1661 39.5177C24.1957 39.5888 24.2391 39.6533 24.2938 39.7076C24.348 39.7622 24.4126 39.8056 24.4837 39.8353C24.5547 39.8649 24.631 39.8801 24.708 39.8801C24.785 39.8801 24.8613 39.8649 24.9324 39.8353C25.0035 39.8056 25.068 39.7622 25.1222 39.7076L32.7062 32.1236C32.816 32.0137 32.8778 31.8647 32.8778 31.7094C32.8778 31.554 32.816 31.405 32.7062 31.2952C32.5963 31.1853 32.4473 31.1236 32.292 31.1236C32.1366 31.1236 31.9876 31.1853 31.8778 31.2952ZM26.2248 35.3263C26.6402 35.3263 27.0462 35.2032 27.3916 34.9724C27.737 34.7416 28.0062 34.4136 28.1651 34.0299C28.3241 33.6461 28.3657 33.2238 28.2846 32.8164C28.2036 32.409 28.0036 32.0348 27.7099 31.7411C27.4161 31.4474 27.0419 31.2474 26.6345 31.1663C26.2271 31.0853 25.8049 31.1269 25.4211 31.2859C25.0373 31.4448 24.7093 31.714 24.4786 32.0594C24.2478 32.4047 24.1246 32.8108 24.1246 33.2262C24.1262 33.7827 24.3479 34.316 24.7415 34.7095C25.135 35.103 25.6683 35.3248 26.2248 35.3263ZM26.2248 32.2928C26.4094 32.2928 26.5899 32.3475 26.7434 32.4501C26.8969 32.5526 27.0165 32.6984 27.0872 32.869C27.1578 33.0395 27.1763 33.2272 27.1403 33.4083C27.1043 33.5893 27.0154 33.7556 26.8848 33.8862C26.7543 34.0167 26.588 34.1056 26.4069 34.1416C26.2258 34.1777 26.0382 34.1592 25.8676 34.0885C25.697 34.0179 25.5513 33.8982 25.4487 33.7447C25.3461 33.5912 25.2914 33.4108 25.2914 33.2262C25.2914 32.9786 25.3897 32.7412 25.5648 32.5661C25.7398 32.3911 25.9772 32.2928 26.2248 32.2928ZM30.7752 35.6764C30.3598 35.6764 29.9538 35.7995 29.6084 36.0303C29.263 36.2611 28.9938 36.5891 28.8349 36.9729C28.6759 37.3566 28.6343 37.7789 28.7154 38.1863C28.7964 38.5937 28.9964 38.9679 29.2901 39.2616C29.5839 39.5553 29.9581 39.7553 30.3655 39.8364C30.7729 39.9174 31.1951 39.8758 31.5789 39.7169C31.9627 39.5579 32.2907 39.2887 32.5214 38.9434C32.7522 38.598 32.8754 38.1919 32.8754 37.7766C32.8738 37.22 32.6521 36.6867 32.2585 36.2932C31.865 35.8997 31.3317 35.6779 30.7752 35.6764ZM30.7752 38.71C30.5906 38.71 30.4101 38.6552 30.2566 38.5527C30.1031 38.4501 29.9835 38.3043 29.9128 38.1338C29.8422 37.9632 29.8237 37.7755 29.8597 37.5945C29.8957 37.4134 29.9846 37.2471 30.1152 37.1165C30.2457 36.986 30.412 36.8971 30.5931 36.8611C30.7742 36.8251 30.9618 36.8435 31.1324 36.9142C31.303 36.9848 31.4487 37.1045 31.5513 37.258C31.6539 37.4115 31.7086 37.5919 31.7086 37.7766C31.7086 38.0241 31.6103 38.2615 31.4352 38.4366C31.2602 38.6116 31.0228 38.71 30.7752 38.71ZM37.2507 46.0023H43.0846C43.2393 46.0023 43.3877 45.9408 43.4971 45.8314C43.6065 45.722 43.668 45.5736 43.668 45.4189V16.8331H45.4181C45.5356 16.8327 45.6503 16.7969 45.7471 16.7303C45.8439 16.6637 45.9184 16.5694 45.9607 16.4597C46.0037 16.3486 46.0116 16.227 45.9835 16.1112C45.9553 15.9955 45.8924 15.8911 45.8031 15.8122L40.5527 11.1451C40.4462 11.0516 40.3094 11 40.1677 11C40.026 11 39.8891 11.0516 39.7826 11.1451L34.5322 15.8122C34.4429 15.8911 34.38 15.9955 34.3519 16.1112C34.3237 16.227 34.3317 16.3486 34.3747 16.4597C34.417 16.5694 34.4914 16.6637 34.5882 16.7303C34.685 16.7969 34.7997 16.8327 34.9172 16.8331H36.6674V30.8343C36.6674 30.989 36.7288 31.1374 36.8382 31.2468C36.9476 31.3562 37.096 31.4177 37.2507 31.4177C37.4055 31.4177 37.5539 31.3562 37.6633 31.2468C37.7727 31.1374 37.8341 30.989 37.8341 30.8343V16.2497C37.8341 16.095 37.7727 15.9466 37.6633 15.8372C37.5539 15.7278 37.4055 15.6663 37.2507 15.6663H36.4515L40.1677 12.3644L43.8838 15.6663H43.0846C42.9299 15.6663 42.7815 15.7278 42.6721 15.8372C42.5627 15.9466 42.5012 16.095 42.5012 16.2497V44.8355H37.8341V40.1684C37.8341 40.0137 37.7727 39.8653 37.6633 39.7559C37.5539 39.6465 37.4055 39.585 37.2507 39.585C37.096 39.585 36.9476 39.6465 36.8382 39.7559C36.7288 39.8653 36.6674 40.0137 36.6674 40.1684V45.4189C36.6674 45.5736 36.7288 45.722 36.8382 45.8314C36.9476 45.9408 37.096 46.0023 37.2507 46.0023ZM30.8335 44.8355H26.1665C26.1665 44.6808 26.105 44.5324 25.9956 44.423C25.8862 44.3136 25.7378 44.2521 25.5831 44.2521C25.4284 44.2521 25.28 44.3136 25.1706 44.423C25.0612 44.5324 24.9997 44.6808 24.9997 44.8355V45.4189C24.9997 45.5736 25.0612 45.722 25.1706 45.8314C25.28 45.9408 25.4284 46.0023 25.5831 46.0023H31.4169C31.5716 46.0023 31.72 45.9408 31.8294 45.8314C31.9388 45.722 32.0003 45.5736 32.0003 45.4189V44.8355C32.0003 44.6808 31.9388 44.5324 31.8294 44.423C31.72 44.3136 31.5716 44.2521 31.4169 44.2521C31.2622 44.2521 31.1138 44.3136 31.0044 44.423C30.895 44.5324 30.8335 44.6808 30.8335 44.8355ZM30.8335 24.4171V25.5838C30.8335 25.7386 30.895 25.887 31.0044 25.9964C31.1138 26.1058 31.2622 26.1672 31.4169 26.1672C31.5716 26.1672 31.72 26.1058 31.8294 25.9964C31.9388 25.887 32.0003 25.7386 32.0003 25.5838V25.0005H33.7505C33.868 25.0001 33.9826 24.9643 34.0794 24.8977C34.1763 24.831 34.2507 24.7367 34.293 24.6271C34.336 24.516 34.344 24.3944 34.3158 24.2786C34.2876 24.1628 34.2247 24.0585 34.1355 23.9795L28.885 19.3125C28.7786 19.2189 28.6417 19.1674 28.5 19.1674C28.3583 19.1674 28.2214 19.2189 28.115 19.3125L22.8645 23.9795C22.7753 24.0585 22.7124 24.1628 22.6842 24.2786C22.656 24.3944 22.664 24.516 22.707 24.6271C22.7493 24.7367 22.8237 24.831 22.9206 24.8977C23.0174 24.9643 23.132 25.0001 23.2496 25.0005H24.9997V25.5838C24.9997 25.7386 25.0612 25.887 25.1706 25.9964C25.28 26.1058 25.4284 26.1672 25.5831 26.1672C25.7378 26.1672 25.8862 26.1058 25.9956 25.9964C26.105 25.887 26.1665 25.7386 26.1665 25.5838V24.4171C26.1665 24.2624 26.105 24.114 25.9956 24.0046C25.8862 23.8952 25.7378 23.8337 25.5831 23.8337H24.7838L28.5 20.5317L32.2162 23.8337H31.4169C31.2622 23.8337 31.1138 23.8952 31.0044 24.0046C30.895 24.114 30.8335 24.2624 30.8335 24.4171ZM13.9154 46.0023H19.7493C19.904 46.0023 20.0524 45.9408 20.1618 45.8314C20.2712 45.722 20.3326 45.5736 20.3326 45.4189V40.1684C20.3326 40.0137 20.2712 39.8653 20.1618 39.7559C20.0524 39.6465 19.904 39.585 19.7493 39.585C19.5945 39.585 19.4461 39.6465 19.3367 39.7559C19.2273 39.8653 19.1659 40.0137 19.1659 40.1684V44.8355H14.4988V32.5844C14.4988 32.4297 14.4373 32.2813 14.3279 32.1719C14.2185 32.0625 14.0701 32.0011 13.9154 32.0011H13.1162L16.8323 28.6991L19.0725 30.6884C19.1293 30.743 19.1966 30.7855 19.2702 30.8134C19.3439 30.8412 19.4224 30.8539 19.5011 30.8506C19.5798 30.8473 19.657 30.8281 19.7281 30.7941C19.7991 30.7602 19.8626 30.7122 19.9146 30.6531C19.9666 30.594 20.0061 30.5249 20.0308 30.4501C20.0554 30.3753 20.0646 30.2963 20.0579 30.2179C20.0512 30.1394 20.0286 30.0631 19.9916 29.9936C19.9546 29.9241 19.9039 29.8628 19.8426 29.8134L17.2174 27.4798C17.1109 27.3863 16.974 27.3347 16.8323 27.3347C16.6906 27.3347 16.5538 27.3863 16.4473 27.4798L11.1969 32.1469C11.1076 32.2258 11.0447 32.3302 11.0165 32.446C10.9884 32.5617 10.9963 32.6834 11.0393 32.7945C11.0816 32.9041 11.1561 32.9984 11.2529 33.065C11.3497 33.1316 11.4644 33.1675 11.5819 33.1678H13.332V45.4189C13.332 45.5736 13.3935 45.722 13.5029 45.8314C13.6123 45.9408 13.7607 46.0023 13.9154 46.0023Z"/>
</mask>
<path d="M31.8778 31.2952L24.2938 38.8792C24.2391 38.9334 24.1957 38.9979 24.1661 39.069C24.1365 39.1401 24.1212 39.2163 24.1212 39.2934C24.1212 39.3704 24.1365 39.4466 24.1661 39.5177C24.1957 39.5888 24.2391 39.6533 24.2938 39.7076C24.348 39.7622 24.4126 39.8056 24.4837 39.8353C24.5547 39.8649 24.631 39.8801 24.708 39.8801C24.785 39.8801 24.8613 39.8649 24.9324 39.8353C25.0035 39.8056 25.068 39.7622 25.1222 39.7076L32.7062 32.1236C32.816 32.0137 32.8778 31.8647 32.8778 31.7094C32.8778 31.554 32.816 31.405 32.7062 31.2952C32.5963 31.1853 32.4473 31.1236 32.292 31.1236C32.1366 31.1236 31.9876 31.1853 31.8778 31.2952ZM26.2248 35.3263C26.6402 35.3263 27.0462 35.2032 27.3916 34.9724C27.737 34.7416 28.0062 34.4136 28.1651 34.0299C28.3241 33.6461 28.3657 33.2238 28.2846 32.8164C28.2036 32.409 28.0036 32.0348 27.7099 31.7411C27.4161 31.4474 27.0419 31.2474 26.6345 31.1663C26.2271 31.0853 25.8049 31.1269 25.4211 31.2859C25.0373 31.4448 24.7093 31.714 24.4786 32.0594C24.2478 32.4047 24.1246 32.8108 24.1246 33.2262C24.1262 33.7827 24.3479 34.316 24.7415 34.7095C25.135 35.103 25.6683 35.3248 26.2248 35.3263ZM26.2248 32.2928C26.4094 32.2928 26.5899 32.3475 26.7434 32.4501C26.8969 32.5526 27.0165 32.6984 27.0872 32.869C27.1578 33.0395 27.1763 33.2272 27.1403 33.4083C27.1043 33.5893 27.0154 33.7556 26.8848 33.8862C26.7543 34.0167 26.588 34.1056 26.4069 34.1416C26.2258 34.1777 26.0382 34.1592 25.8676 34.0885C25.697 34.0179 25.5513 33.8982 25.4487 33.7447C25.3461 33.5912 25.2914 33.4108 25.2914 33.2262C25.2914 32.9786 25.3897 32.7412 25.5648 32.5661C25.7398 32.3911 25.9772 32.2928 26.2248 32.2928ZM30.7752 35.6764C30.3598 35.6764 29.9538 35.7995 29.6084 36.0303C29.263 36.2611 28.9938 36.5891 28.8349 36.9729C28.6759 37.3566 28.6343 37.7789 28.7154 38.1863C28.7964 38.5937 28.9964 38.9679 29.2901 39.2616C29.5839 39.5553 29.9581 39.7553 30.3655 39.8364C30.7729 39.9174 31.1951 39.8758 31.5789 39.7169C31.9627 39.5579 32.2907 39.2887 32.5214 38.9434C32.7522 38.598 32.8754 38.1919 32.8754 37.7766C32.8738 37.22 32.6521 36.6867 32.2585 36.2932C31.865 35.8997 31.3317 35.6779 30.7752 35.6764ZM30.7752 38.71C30.5906 38.71 30.4101 38.6552 30.2566 38.5527C30.1031 38.4501 29.9835 38.3043 29.9128 38.1338C29.8422 37.9632 29.8237 37.7755 29.8597 37.5945C29.8957 37.4134 29.9846 37.2471 30.1152 37.1165C30.2457 36.986 30.412 36.8971 30.5931 36.8611C30.7742 36.8251 30.9618 36.8435 31.1324 36.9142C31.303 36.9848 31.4487 37.1045 31.5513 37.258C31.6539 37.4115 31.7086 37.5919 31.7086 37.7766C31.7086 38.0241 31.6103 38.2615 31.4352 38.4366C31.2602 38.6116 31.0228 38.71 30.7752 38.71ZM37.2507 46.0023H43.0846C43.2393 46.0023 43.3877 45.9408 43.4971 45.8314C43.6065 45.722 43.668 45.5736 43.668 45.4189V16.8331H45.4181C45.5356 16.8327 45.6503 16.7969 45.7471 16.7303C45.8439 16.6637 45.9184 16.5694 45.9607 16.4597C46.0037 16.3486 46.0116 16.227 45.9835 16.1112C45.9553 15.9955 45.8924 15.8911 45.8031 15.8122L40.5527 11.1451C40.4462 11.0516 40.3094 11 40.1677 11C40.026 11 39.8891 11.0516 39.7826 11.1451L34.5322 15.8122C34.4429 15.8911 34.38 15.9955 34.3519 16.1112C34.3237 16.227 34.3317 16.3486 34.3747 16.4597C34.417 16.5694 34.4914 16.6637 34.5882 16.7303C34.685 16.7969 34.7997 16.8327 34.9172 16.8331H36.6674V30.8343C36.6674 30.989 36.7288 31.1374 36.8382 31.2468C36.9476 31.3562 37.096 31.4177 37.2507 31.4177C37.4055 31.4177 37.5539 31.3562 37.6633 31.2468C37.7727 31.1374 37.8341 30.989 37.8341 30.8343V16.2497C37.8341 16.095 37.7727 15.9466 37.6633 15.8372C37.5539 15.7278 37.4055 15.6663 37.2507 15.6663H36.4515L40.1677 12.3644L43.8838 15.6663H43.0846C42.9299 15.6663 42.7815 15.7278 42.6721 15.8372C42.5627 15.9466 42.5012 16.095 42.5012 16.2497V44.8355H37.8341V40.1684C37.8341 40.0137 37.7727 39.8653 37.6633 39.7559C37.5539 39.6465 37.4055 39.585 37.2507 39.585C37.096 39.585 36.9476 39.6465 36.8382 39.7559C36.7288 39.8653 36.6674 40.0137 36.6674 40.1684V45.4189C36.6674 45.5736 36.7288 45.722 36.8382 45.8314C36.9476 45.9408 37.096 46.0023 37.2507 46.0023ZM30.8335 44.8355H26.1665C26.1665 44.6808 26.105 44.5324 25.9956 44.423C25.8862 44.3136 25.7378 44.2521 25.5831 44.2521C25.4284 44.2521 25.28 44.3136 25.1706 44.423C25.0612 44.5324 24.9997 44.6808 24.9997 44.8355V45.4189C24.9997 45.5736 25.0612 45.722 25.1706 45.8314C25.28 45.9408 25.4284 46.0023 25.5831 46.0023H31.4169C31.5716 46.0023 31.72 45.9408 31.8294 45.8314C31.9388 45.722 32.0003 45.5736 32.0003 45.4189V44.8355C32.0003 44.6808 31.9388 44.5324 31.8294 44.423C31.72 44.3136 31.5716 44.2521 31.4169 44.2521C31.2622 44.2521 31.1138 44.3136 31.0044 44.423C30.895 44.5324 30.8335 44.6808 30.8335 44.8355ZM30.8335 24.4171V25.5838C30.8335 25.7386 30.895 25.887 31.0044 25.9964C31.1138 26.1058 31.2622 26.1672 31.4169 26.1672C31.5716 26.1672 31.72 26.1058 31.8294 25.9964C31.9388 25.887 32.0003 25.7386 32.0003 25.5838V25.0005H33.7505C33.868 25.0001 33.9826 24.9643 34.0794 24.8977C34.1763 24.831 34.2507 24.7367 34.293 24.6271C34.336 24.516 34.344 24.3944 34.3158 24.2786C34.2876 24.1628 34.2247 24.0585 34.1355 23.9795L28.885 19.3125C28.7786 19.2189 28.6417 19.1674 28.5 19.1674C28.3583 19.1674 28.2214 19.2189 28.115 19.3125L22.8645 23.9795C22.7753 24.0585 22.7124 24.1628 22.6842 24.2786C22.656 24.3944 22.664 24.516 22.707 24.6271C22.7493 24.7367 22.8237 24.831 22.9206 24.8977C23.0174 24.9643 23.132 25.0001 23.2496 25.0005H24.9997V25.5838C24.9997 25.7386 25.0612 25.887 25.1706 25.9964C25.28 26.1058 25.4284 26.1672 25.5831 26.1672C25.7378 26.1672 25.8862 26.1058 25.9956 25.9964C26.105 25.887 26.1665 25.7386 26.1665 25.5838V24.4171C26.1665 24.2624 26.105 24.114 25.9956 24.0046C25.8862 23.8952 25.7378 23.8337 25.5831 23.8337H24.7838L28.5 20.5317L32.2162 23.8337H31.4169C31.2622 23.8337 31.1138 23.8952 31.0044 24.0046C30.895 24.114 30.8335 24.2624 30.8335 24.4171ZM13.9154 46.0023H19.7493C19.904 46.0023 20.0524 45.9408 20.1618 45.8314C20.2712 45.722 20.3326 45.5736 20.3326 45.4189V40.1684C20.3326 40.0137 20.2712 39.8653 20.1618 39.7559C20.0524 39.6465 19.904 39.585 19.7493 39.585C19.5945 39.585 19.4461 39.6465 19.3367 39.7559C19.2273 39.8653 19.1659 40.0137 19.1659 40.1684V44.8355H14.4988V32.5844C14.4988 32.4297 14.4373 32.2813 14.3279 32.1719C14.2185 32.0625 14.0701 32.0011 13.9154 32.0011H13.1162L16.8323 28.6991L19.0725 30.6884C19.1293 30.743 19.1966 30.7855 19.2702 30.8134C19.3439 30.8412 19.4224 30.8539 19.5011 30.8506C19.5798 30.8473 19.657 30.8281 19.7281 30.7941C19.7991 30.7602 19.8626 30.7122 19.9146 30.6531C19.9666 30.594 20.0061 30.5249 20.0308 30.4501C20.0554 30.3753 20.0646 30.2963 20.0579 30.2179C20.0512 30.1394 20.0286 30.0631 19.9916 29.9936C19.9546 29.9241 19.9039 29.8628 19.8426 29.8134L17.2174 27.4798C17.1109 27.3863 16.974 27.3347 16.8323 27.3347C16.6906 27.3347 16.5538 27.3863 16.4473 27.4798L11.1969 32.1469C11.1076 32.2258 11.0447 32.3302 11.0165 32.446C10.9884 32.5617 10.9963 32.6834 11.0393 32.7945C11.0816 32.9041 11.1561 32.9984 11.2529 33.065C11.3497 33.1316 11.4644 33.1675 11.5819 33.1678H13.332V45.4189C13.332 45.5736 13.3935 45.722 13.5029 45.8314C13.6123 45.9408 13.7607 46.0023 13.9154 46.0023Z" fill="#03AF00"/>
<path d="M31.8778 31.2952L24.2938 38.8792C24.2391 38.9334 24.1957 38.9979 24.1661 39.069C24.1365 39.1401 24.1212 39.2163 24.1212 39.2934C24.1212 39.3704 24.1365 39.4466 24.1661 39.5177C24.1957 39.5888 24.2391 39.6533 24.2938 39.7076C24.348 39.7622 24.4126 39.8056 24.4837 39.8353C24.5547 39.8649 24.631 39.8801 24.708 39.8801C24.785 39.8801 24.8613 39.8649 24.9324 39.8353C25.0035 39.8056 25.068 39.7622 25.1222 39.7076L32.7062 32.1236C32.816 32.0137 32.8778 31.8647 32.8778 31.7094C32.8778 31.554 32.816 31.405 32.7062 31.2952C32.5963 31.1853 32.4473 31.1236 32.292 31.1236C32.1366 31.1236 31.9876 31.1853 31.8778 31.2952ZM26.2248 35.3263C26.6402 35.3263 27.0462 35.2032 27.3916 34.9724C27.737 34.7416 28.0062 34.4136 28.1651 34.0299C28.3241 33.6461 28.3657 33.2238 28.2846 32.8164C28.2036 32.409 28.0036 32.0348 27.7099 31.7411C27.4161 31.4474 27.0419 31.2474 26.6345 31.1663C26.2271 31.0853 25.8049 31.1269 25.4211 31.2859C25.0373 31.4448 24.7093 31.714 24.4786 32.0594C24.2478 32.4047 24.1246 32.8108 24.1246 33.2262C24.1262 33.7827 24.3479 34.316 24.7415 34.7095C25.135 35.103 25.6683 35.3248 26.2248 35.3263ZM26.2248 32.2928C26.4094 32.2928 26.5899 32.3475 26.7434 32.4501C26.8969 32.5526 27.0165 32.6984 27.0872 32.869C27.1578 33.0395 27.1763 33.2272 27.1403 33.4083C27.1043 33.5893 27.0154 33.7556 26.8848 33.8862C26.7543 34.0167 26.588 34.1056 26.4069 34.1416C26.2258 34.1777 26.0382 34.1592 25.8676 34.0885C25.697 34.0179 25.5513 33.8982 25.4487 33.7447C25.3461 33.5912 25.2914 33.4108 25.2914 33.2262C25.2914 32.9786 25.3897 32.7412 25.5648 32.5661C25.7398 32.3911 25.9772 32.2928 26.2248 32.2928ZM30.7752 35.6764C30.3598 35.6764 29.9538 35.7995 29.6084 36.0303C29.263 36.2611 28.9938 36.5891 28.8349 36.9729C28.6759 37.3566 28.6343 37.7789 28.7154 38.1863C28.7964 38.5937 28.9964 38.9679 29.2901 39.2616C29.5839 39.5553 29.9581 39.7553 30.3655 39.8364C30.7729 39.9174 31.1951 39.8758 31.5789 39.7169C31.9627 39.5579 32.2907 39.2887 32.5214 38.9434C32.7522 38.598 32.8754 38.1919 32.8754 37.7766C32.8738 37.22 32.6521 36.6867 32.2585 36.2932C31.865 35.8997 31.3317 35.6779 30.7752 35.6764ZM30.7752 38.71C30.5906 38.71 30.4101 38.6552 30.2566 38.5527C30.1031 38.4501 29.9835 38.3043 29.9128 38.1338C29.8422 37.9632 29.8237 37.7755 29.8597 37.5945C29.8957 37.4134 29.9846 37.2471 30.1152 37.1165C30.2457 36.986 30.412 36.8971 30.5931 36.8611C30.7742 36.8251 30.9618 36.8435 31.1324 36.9142C31.303 36.9848 31.4487 37.1045 31.5513 37.258C31.6539 37.4115 31.7086 37.5919 31.7086 37.7766C31.7086 38.0241 31.6103 38.2615 31.4352 38.4366C31.2602 38.6116 31.0228 38.71 30.7752 38.71ZM37.2507 46.0023H43.0846C43.2393 46.0023 43.3877 45.9408 43.4971 45.8314C43.6065 45.722 43.668 45.5736 43.668 45.4189V16.8331H45.4181C45.5356 16.8327 45.6503 16.7969 45.7471 16.7303C45.8439 16.6637 45.9184 16.5694 45.9607 16.4597C46.0037 16.3486 46.0116 16.227 45.9835 16.1112C45.9553 15.9955 45.8924 15.8911 45.8031 15.8122L40.5527 11.1451C40.4462 11.0516 40.3094 11 40.1677 11C40.026 11 39.8891 11.0516 39.7826 11.1451L34.5322 15.8122C34.4429 15.8911 34.38 15.9955 34.3519 16.1112C34.3237 16.227 34.3317 16.3486 34.3747 16.4597C34.417 16.5694 34.4914 16.6637 34.5882 16.7303C34.685 16.7969 34.7997 16.8327 34.9172 16.8331H36.6674V30.8343C36.6674 30.989 36.7288 31.1374 36.8382 31.2468C36.9476 31.3562 37.096 31.4177 37.2507 31.4177C37.4055 31.4177 37.5539 31.3562 37.6633 31.2468C37.7727 31.1374 37.8341 30.989 37.8341 30.8343V16.2497C37.8341 16.095 37.7727 15.9466 37.6633 15.8372C37.5539 15.7278 37.4055 15.6663 37.2507 15.6663H36.4515L40.1677 12.3644L43.8838 15.6663H43.0846C42.9299 15.6663 42.7815 15.7278 42.6721 15.8372C42.5627 15.9466 42.5012 16.095 42.5012 16.2497V44.8355H37.8341V40.1684C37.8341 40.0137 37.7727 39.8653 37.6633 39.7559C37.5539 39.6465 37.4055 39.585 37.2507 39.585C37.096 39.585 36.9476 39.6465 36.8382 39.7559C36.7288 39.8653 36.6674 40.0137 36.6674 40.1684V45.4189C36.6674 45.5736 36.7288 45.722 36.8382 45.8314C36.9476 45.9408 37.096 46.0023 37.2507 46.0023ZM30.8335 44.8355H26.1665C26.1665 44.6808 26.105 44.5324 25.9956 44.423C25.8862 44.3136 25.7378 44.2521 25.5831 44.2521C25.4284 44.2521 25.28 44.3136 25.1706 44.423C25.0612 44.5324 24.9997 44.6808 24.9997 44.8355V45.4189C24.9997 45.5736 25.0612 45.722 25.1706 45.8314C25.28 45.9408 25.4284 46.0023 25.5831 46.0023H31.4169C31.5716 46.0023 31.72 45.9408 31.8294 45.8314C31.9388 45.722 32.0003 45.5736 32.0003 45.4189V44.8355C32.0003 44.6808 31.9388 44.5324 31.8294 44.423C31.72 44.3136 31.5716 44.2521 31.4169 44.2521C31.2622 44.2521 31.1138 44.3136 31.0044 44.423C30.895 44.5324 30.8335 44.6808 30.8335 44.8355ZM30.8335 24.4171V25.5838C30.8335 25.7386 30.895 25.887 31.0044 25.9964C31.1138 26.1058 31.2622 26.1672 31.4169 26.1672C31.5716 26.1672 31.72 26.1058 31.8294 25.9964C31.9388 25.887 32.0003 25.7386 32.0003 25.5838V25.0005H33.7505C33.868 25.0001 33.9826 24.9643 34.0794 24.8977C34.1763 24.831 34.2507 24.7367 34.293 24.6271C34.336 24.516 34.344 24.3944 34.3158 24.2786C34.2876 24.1628 34.2247 24.0585 34.1355 23.9795L28.885 19.3125C28.7786 19.2189 28.6417 19.1674 28.5 19.1674C28.3583 19.1674 28.2214 19.2189 28.115 19.3125L22.8645 23.9795C22.7753 24.0585 22.7124 24.1628 22.6842 24.2786C22.656 24.3944 22.664 24.516 22.707 24.6271C22.7493 24.7367 22.8237 24.831 22.9206 24.8977C23.0174 24.9643 23.132 25.0001 23.2496 25.0005H24.9997V25.5838C24.9997 25.7386 25.0612 25.887 25.1706 25.9964C25.28 26.1058 25.4284 26.1672 25.5831 26.1672C25.7378 26.1672 25.8862 26.1058 25.9956 25.9964C26.105 25.887 26.1665 25.7386 26.1665 25.5838V24.4171C26.1665 24.2624 26.105 24.114 25.9956 24.0046C25.8862 23.8952 25.7378 23.8337 25.5831 23.8337H24.7838L28.5 20.5317L32.2162 23.8337H31.4169C31.2622 23.8337 31.1138 23.8952 31.0044 24.0046C30.895 24.114 30.8335 24.2624 30.8335 24.4171ZM13.9154 46.0023H19.7493C19.904 46.0023 20.0524 45.9408 20.1618 45.8314C20.2712 45.722 20.3326 45.5736 20.3326 45.4189V40.1684C20.3326 40.0137 20.2712 39.8653 20.1618 39.7559C20.0524 39.6465 19.904 39.585 19.7493 39.585C19.5945 39.585 19.4461 39.6465 19.3367 39.7559C19.2273 39.8653 19.1659 40.0137 19.1659 40.1684V44.8355H14.4988V32.5844C14.4988 32.4297 14.4373 32.2813 14.3279 32.1719C14.2185 32.0625 14.0701 32.0011 13.9154 32.0011H13.1162L16.8323 28.6991L19.0725 30.6884C19.1293 30.743 19.1966 30.7855 19.2702 30.8134C19.3439 30.8412 19.4224 30.8539 19.5011 30.8506C19.5798 30.8473 19.657 30.8281 19.7281 30.7941C19.7991 30.7602 19.8626 30.7122 19.9146 30.6531C19.9666 30.594 20.0061 30.5249 20.0308 30.4501C20.0554 30.3753 20.0646 30.2963 20.0579 30.2179C20.0512 30.1394 20.0286 30.0631 19.9916 29.9936C19.9546 29.9241 19.9039 29.8628 19.8426 29.8134L17.2174 27.4798C17.1109 27.3863 16.974 27.3347 16.8323 27.3347C16.6906 27.3347 16.5538 27.3863 16.4473 27.4798L11.1969 32.1469C11.1076 32.2258 11.0447 32.3302 11.0165 32.446C10.9884 32.5617 10.9963 32.6834 11.0393 32.7945C11.0816 32.9041 11.1561 32.9984 11.2529 33.065C11.3497 33.1316 11.4644 33.1675 11.5819 33.1678H13.332V45.4189C13.332 45.5736 13.3935 45.722 13.5029 45.8314C13.6123 45.9408 13.7607 46.0023 13.9154 46.0023Z" stroke="#03AF00" stroke-width="0.4" mask="url(#path-3-outside-1_3662_2305)"/>
</svg>
