<svg width="113" height="92" viewBox="0 0 113 92" fill="none" xmlns="http://www.w3.org/2000/svg">
<path d="M103.024 55.7181L56.9489 55.5679C55.3907 55.5628 54.1236 56.887 54.1188 58.5255L54.0332 87.5531C54.0284 89.1916 55.2876 90.524 56.8458 90.5291L102.921 90.6793C104.479 90.6844 105.746 89.3602 105.751 87.7217L105.837 58.6941C105.841 57.0556 104.582 55.7232 103.024 55.7181Z" fill="#7F635D"/>
<path d="M57.5297 88.525L56.6318 88.5221C56.5913 88.522 56.5525 88.5049 56.5239 88.4747C56.4953 88.4445 56.4794 88.4035 56.4795 88.3609C56.4796 88.3183 56.4958 88.2774 56.5246 88.2474C56.5534 88.2174 56.5923 88.2006 56.6328 88.2007L57.5307 88.2036C57.5707 88.2046 57.6087 88.2221 57.6366 88.2522C57.6645 88.2823 57.68 88.3228 57.6799 88.3648C57.6798 88.4069 57.664 88.4472 57.6359 88.4772C57.6078 88.5071 57.5697 88.5243 57.5297 88.525ZM103.148 88.6738L102.556 88.6719C102.516 88.6711 102.477 88.6538 102.449 88.6236C102.421 88.5935 102.405 88.5529 102.406 88.5107C102.406 88.4685 102.422 88.428 102.45 88.398C102.478 88.368 102.517 88.351 102.557 88.3505L103.149 88.3524C103.248 88.3527 103.343 88.313 103.416 88.2406C103.446 88.2124 103.485 88.1975 103.525 88.1991C103.564 88.2007 103.602 88.2187 103.63 88.2492C103.657 88.2797 103.672 88.3203 103.672 88.3623C103.671 88.4043 103.655 88.4444 103.626 88.474C103.497 88.603 103.326 88.6746 103.148 88.6738ZM98.4447 88.6585L97.4414 88.6552C97.4013 88.6544 97.363 88.6371 97.3349 88.6069C97.3068 88.5768 97.2911 88.5362 97.2912 88.494C97.2914 88.4518 97.3073 88.4113 97.3356 88.3813C97.3639 88.3513 97.4022 88.3343 97.4424 88.3338L98.4457 88.3371C98.4858 88.3378 98.5241 88.3551 98.5522 88.3853C98.5803 88.4155 98.5959 88.456 98.5958 88.4983C98.5957 88.5405 98.5798 88.581 98.5515 88.6109C98.5232 88.6409 98.4849 88.658 98.4447 88.6585ZM93.3303 88.6418L92.327 88.6385C92.2865 88.6384 92.2477 88.6213 92.2191 88.5911C92.1905 88.5608 92.1746 88.5199 92.1747 88.4773C92.1748 88.4347 92.191 88.3938 92.2198 88.3638C92.2485 88.3337 92.2875 88.3169 92.328 88.3171L93.3313 88.3203C93.3718 88.3205 93.4106 88.3375 93.4392 88.3678C93.4678 88.398 93.4837 88.4389 93.4836 88.4816C93.4835 88.5242 93.4673 88.565 93.4385 88.5951C93.4098 88.6251 93.3708 88.6419 93.3303 88.6418ZM88.216 88.6251L87.2127 88.6218C87.1725 88.6211 87.1343 88.6038 87.1062 88.5736C87.0781 88.5434 87.0624 88.5029 87.0625 88.4606C87.0626 88.4184 87.0786 88.3779 87.1068 88.348C87.1351 88.318 87.1735 88.3009 87.2136 88.3004L88.2169 88.3037C88.257 88.3044 88.2953 88.3218 88.3234 88.3519C88.3515 88.3821 88.3672 88.4227 88.367 88.4649C88.3669 88.5071 88.351 88.5476 88.3227 88.5776C88.2945 88.6075 88.2561 88.6246 88.216 88.6251ZM83.1016 88.6084L82.0983 88.6051C82.0582 88.6044 82.0199 88.5871 81.9918 88.5569C81.9637 88.5267 81.948 88.4862 81.9482 88.4439C81.9483 88.4017 81.9642 88.3612 81.9925 88.3313C82.0208 88.3013 82.0591 88.2842 82.0993 88.2837L83.1025 88.287C83.1427 88.2878 83.1809 88.3051 83.209 88.3352C83.2371 88.3654 83.2528 88.406 83.2527 88.4482C83.2526 88.4904 83.2367 88.5309 83.2084 88.5609C83.1801 88.5909 83.1417 88.6079 83.1016 88.6084ZM77.9872 88.5918L76.9839 88.5885C76.9438 88.5878 76.9055 88.5704 76.8774 88.5403C76.8493 88.5101 76.8336 88.4695 76.8338 88.4273C76.8339 88.3851 76.8498 88.3446 76.8781 88.3146C76.9064 88.2847 76.9447 88.2676 76.9849 88.2671L77.9882 88.2704C78.0283 88.2711 78.0665 88.2884 78.0946 88.3186C78.1227 88.3488 78.1384 88.3893 78.1383 88.4316C78.1382 88.4738 78.1223 88.5143 78.094 88.5442C78.0657 88.5742 78.0273 88.5913 77.9872 88.5918ZM72.8728 88.5751L71.8696 88.5718C71.8296 88.5708 71.7915 88.5534 71.7636 88.5232C71.7357 88.4931 71.7202 88.4527 71.7203 88.4106C71.7204 88.3686 71.7362 88.3282 71.7643 88.2983C71.7924 88.2683 71.8305 88.2511 71.8705 88.2504L72.8738 88.2537C72.9143 88.2538 72.9531 88.2708 72.9817 88.3011C73.0103 88.3313 73.0263 88.3722 73.0261 88.4149C73.026 88.4575 73.0098 88.4983 72.981 88.5284C72.9523 88.5584 72.9134 88.5752 72.8728 88.5751ZM67.7585 88.5584L66.7552 88.5551C66.715 88.5544 66.6768 88.5371 66.6487 88.5069C66.6206 88.4767 66.6049 88.4362 66.605 88.3939C66.6052 88.3517 66.6211 88.3112 66.6494 88.2813C66.6776 88.2513 66.716 88.2342 66.7562 88.2337L67.7594 88.237C67.7996 88.2378 67.8378 88.2551 67.8659 88.2852C67.894 88.3154 67.9097 88.356 67.9096 88.3982C67.9095 88.4404 67.8935 88.4809 67.8652 88.5109C67.837 88.5409 67.7986 88.5579 67.7585 88.5584ZM62.6441 88.5417L61.6408 88.5385C61.6007 88.5377 61.5624 88.5204 61.5343 88.4902C61.5062 88.4601 61.4905 88.4195 61.4907 88.3773C61.4908 88.335 61.5067 88.2946 61.535 88.2646C61.5633 88.2346 61.6016 88.2175 61.6418 88.2171L62.645 88.2203C62.6852 88.2211 62.7234 88.2384 62.7515 88.2685C62.7796 88.2987 62.7953 88.3393 62.7952 88.3815C62.7951 88.4237 62.7792 88.4642 62.7509 88.4942C62.7226 88.5242 62.6843 88.5412 62.6441 88.5417ZM60.0172 88.5332L59.1193 88.5302C59.0991 88.5305 59.079 88.5265 59.0602 88.5185C59.0414 88.5105 59.0243 88.4986 59.0099 88.4836C58.9956 88.4686 58.9842 88.4508 58.9764 88.4311C58.9686 88.4114 58.9647 88.3903 58.9647 88.369C58.9648 88.3477 58.9689 88.3267 58.9768 88.307C58.9846 88.2874 58.9961 88.2696 59.0106 88.2547C59.0251 88.2398 59.0422 88.2281 59.061 88.2202C59.0799 88.2123 59.1 88.2085 59.1202 88.2088L60.0181 88.2118C60.0582 88.2125 60.0965 88.2298 60.1246 88.26C60.1527 88.2901 60.1684 88.3307 60.1683 88.3729C60.1681 88.4152 60.1522 88.4556 60.1239 88.4856C60.0957 88.5156 60.0573 88.5327 60.0172 88.5332ZM100.932 88.6666L99.9288 88.6633C99.8888 88.6623 99.8508 88.6449 99.8229 88.6147C99.795 88.5846 99.7794 88.5442 99.7796 88.5021C99.7797 88.46 99.7955 88.4197 99.8236 88.3897C99.8516 88.3598 99.8898 88.3426 99.9298 88.3419L100.933 88.3451C100.953 88.3452 100.973 88.3494 100.992 88.3576C101.01 88.3657 101.027 88.3776 101.041 88.3926C101.055 88.4075 101.066 88.4253 101.074 88.4448C101.082 88.4643 101.085 88.4852 101.085 88.5063C101.085 88.5274 101.081 88.5483 101.074 88.5678C101.066 88.5873 101.055 88.605 101.04 88.6198C101.026 88.6347 101.009 88.6465 100.991 88.6545C100.972 88.6625 100.952 88.6666 100.932 88.6666ZM95.8178 88.6499L94.8145 88.6466C94.774 88.6465 94.7351 88.6294 94.7066 88.5992C94.678 88.569 94.662 88.528 94.6621 88.4854C94.6623 88.4428 94.6785 88.4019 94.7072 88.3719C94.736 88.3419 94.7749 88.3251 94.8155 88.3252L95.8187 88.3285C95.8593 88.3286 95.8981 88.3457 95.9267 88.3759C95.9552 88.4061 95.9712 88.4471 95.9711 88.4897C95.971 88.5323 95.9547 88.5731 95.926 88.6032C95.8972 88.6332 95.8583 88.65 95.8178 88.6499ZM90.7034 88.6332L89.7001 88.6299C89.66 88.6292 89.6217 88.6119 89.5936 88.5817C89.5655 88.5515 89.5498 88.511 89.5499 88.4687C89.5501 88.4265 89.566 88.386 89.5943 88.3561C89.6226 88.3261 89.6609 88.309 89.7011 88.3085L90.7043 88.3118C90.7246 88.3116 90.7447 88.3156 90.7635 88.3236C90.7822 88.3316 90.7993 88.3434 90.8137 88.3584C90.8281 88.3734 90.8395 88.3913 90.8472 88.4109C90.855 88.4306 90.8589 88.4517 90.8589 88.473C90.8588 88.4943 90.8547 88.5154 90.8468 88.535C90.839 88.5546 90.8275 88.5724 90.813 88.5873C90.7985 88.6022 90.7814 88.614 90.7626 88.6218C90.7437 88.6297 90.7236 88.6336 90.7034 88.6332ZM85.589 88.6165L84.5857 88.6132C84.5456 88.6125 84.5073 88.5952 84.4792 88.565C84.4511 88.5349 84.4355 88.4943 84.4356 88.4521C84.4357 88.4098 84.4516 88.3694 84.4799 88.3394C84.5082 88.3094 84.5465 88.2923 84.5867 88.2919L85.59 88.2951C85.6305 88.2953 85.6693 88.3123 85.6979 88.3426C85.7265 88.3728 85.7424 88.4137 85.7423 88.4563C85.7422 88.499 85.726 88.5398 85.6972 88.5698C85.6685 88.5999 85.6295 88.6167 85.589 88.6165ZM80.4746 88.5998L79.4714 88.5966C79.4513 88.5965 79.4314 88.5923 79.4129 88.5841C79.3944 88.576 79.3776 88.5641 79.3634 88.5491C79.3493 88.5342 79.3381 88.5164 79.3305 88.4969C79.3229 88.4774 79.319 88.4565 79.319 88.4354C79.3191 88.4142 79.3231 88.3934 79.3308 88.3739C79.3386 88.3544 79.3499 88.3367 79.3641 88.3219C79.3784 88.307 79.3952 88.2952 79.4138 88.2872C79.4324 88.2792 79.4523 88.2751 79.4723 88.2751L80.4756 88.2784C80.5161 88.2786 80.555 88.2956 80.5835 88.3258C80.6121 88.3561 80.6281 88.397 80.628 88.4396C80.6278 88.4823 80.6116 88.5231 80.5829 88.5531C80.5541 88.5832 80.5152 88.6 80.4746 88.5998ZM75.3603 88.5832L74.357 88.5799C74.317 88.5789 74.279 88.5615 74.2511 88.5313C74.2232 88.5012 74.2076 88.4608 74.2078 88.4187C74.2079 88.3766 74.2237 88.3363 74.2517 88.3063C74.2798 88.2764 74.3179 88.2592 74.3579 88.2585L75.3612 88.2617C75.4012 88.2627 75.4392 88.2802 75.4671 88.3103C75.495 88.3404 75.5106 88.3809 75.5105 88.4229C75.5103 88.465 75.4945 88.5053 75.4665 88.5353C75.4384 88.5652 75.4003 88.5824 75.3603 88.5832ZM70.2459 88.5665L69.2426 88.5632C69.2021 88.5631 69.1633 88.5461 69.1347 88.5158C69.1061 88.4856 69.0901 88.4447 69.0903 88.402C69.0904 88.3594 69.1066 88.3186 69.1354 88.2885C69.1641 88.2585 69.203 88.2417 69.2436 88.2418L70.2468 88.2451C70.2669 88.2452 70.2868 88.2494 70.3053 88.2575C70.3238 88.2657 70.3406 88.2776 70.3548 88.2925C70.3689 88.3075 70.3801 88.3252 70.3877 88.3448C70.3954 88.3643 70.3993 88.3852 70.3992 88.4063C70.3991 88.4274 70.3951 88.4483 70.3874 88.4678C70.3796 88.4872 70.3683 88.5049 70.3541 88.5198C70.3399 88.5347 70.323 88.5465 70.3044 88.5545C70.2858 88.5625 70.266 88.5666 70.2459 88.5665ZM65.1315 88.5498L64.1283 88.5466C64.0881 88.5458 64.0498 88.5285 64.0217 88.4983C63.9937 88.4682 63.978 88.4276 63.9781 88.3854C63.9782 88.3431 63.9942 88.3027 64.0224 88.2727C64.0507 88.2427 64.0891 88.2256 64.1292 88.2252L65.1325 88.2284C65.1726 88.2292 65.2109 88.2465 65.239 88.2767C65.2671 88.3068 65.2828 88.3474 65.2826 88.3896C65.2825 88.4319 65.2666 88.4723 65.2383 88.5023C65.21 88.5323 65.1717 88.5494 65.1315 88.5498ZM103.699 85.0479C103.658 85.0478 103.619 85.0307 103.591 85.0005C103.562 84.9703 103.546 84.9294 103.546 84.8867L103.549 83.8317C103.549 83.8104 103.553 83.7893 103.561 83.7695C103.568 83.7498 103.579 83.7318 103.594 83.7167C103.608 83.7016 103.625 83.6896 103.644 83.6814C103.662 83.6733 103.682 83.6691 103.703 83.6692C103.723 83.6692 103.743 83.6735 103.762 83.6818C103.78 83.6901 103.797 83.7022 103.811 83.7174C103.826 83.7326 103.837 83.7507 103.844 83.7704C103.852 83.7902 103.855 83.8114 103.855 83.8327L103.852 84.8877C103.852 84.9303 103.836 84.9712 103.807 85.0012C103.778 85.0312 103.739 85.0481 103.699 85.0479ZM103.715 79.6699C103.674 79.6697 103.635 79.6527 103.607 79.6224C103.578 79.5922 103.562 79.5513 103.562 79.5087L103.568 77.65C103.568 77.6078 103.585 77.5676 103.614 77.538C103.642 77.5085 103.681 77.492 103.721 77.4921C103.761 77.4923 103.8 77.509 103.828 77.5388C103.857 77.5685 103.873 77.6088 103.873 77.651L103.868 79.5097C103.868 79.5308 103.864 79.5517 103.856 79.5711C103.848 79.5906 103.837 79.6083 103.823 79.6232C103.808 79.638 103.792 79.6498 103.773 79.6578C103.754 79.6658 103.735 79.6699 103.715 79.6699ZM103.73 74.2918C103.69 74.2917 103.651 74.2746 103.622 74.2444C103.594 74.2142 103.578 74.1733 103.578 74.1306L103.584 72.272C103.584 72.2509 103.588 72.23 103.595 72.2105C103.603 72.1911 103.614 72.1734 103.629 72.1585C103.657 72.1285 103.696 72.1117 103.737 72.1118C103.757 72.1119 103.777 72.1161 103.795 72.1242C103.814 72.1324 103.831 72.1443 103.845 72.1592C103.859 72.1742 103.87 72.1919 103.878 72.2115C103.885 72.231 103.889 72.2519 103.889 72.273L103.884 74.1316C103.884 74.1743 103.867 74.2151 103.839 74.2451C103.81 74.2752 103.771 74.292 103.73 74.2918ZM103.746 68.9138C103.706 68.9137 103.667 68.8966 103.638 68.8664C103.61 68.8361 103.594 68.7952 103.594 68.7526L103.597 67.6976C103.598 67.6553 103.614 67.6151 103.643 67.5856C103.671 67.556 103.71 67.5395 103.75 67.5397C103.79 67.5398 103.829 67.5565 103.857 67.5863C103.886 67.616 103.902 67.6563 103.903 67.6985L103.899 68.7536C103.899 68.7747 103.895 68.7956 103.888 68.815C103.88 68.8345 103.869 68.8522 103.854 68.8671C103.84 68.882 103.823 68.8937 103.805 68.9018C103.786 68.9098 103.766 68.9139 103.746 68.9138ZM103.77 60.7232C103.73 60.7231 103.691 60.706 103.662 60.6758C103.634 60.6456 103.618 60.6047 103.618 60.562L103.62 59.9088C103.62 59.8875 103.623 59.8663 103.631 59.8466C103.639 59.8269 103.65 59.8089 103.664 59.7938C103.678 59.7787 103.695 59.7667 103.714 59.7585C103.733 59.7503 103.753 59.7462 103.773 59.7462C103.793 59.7463 103.813 59.7506 103.832 59.7589C103.851 59.7672 103.868 59.7793 103.882 59.7945C103.896 59.8097 103.907 59.8277 103.915 59.8475C103.922 59.8673 103.926 59.8885 103.926 59.9098L103.924 60.563C103.924 60.5841 103.92 60.605 103.912 60.6245C103.904 60.644 103.893 60.6616 103.879 60.6765C103.864 60.6914 103.847 60.7032 103.829 60.7112C103.81 60.7192 103.79 60.7233 103.77 60.7232ZM103.61 63.1293L103.613 62.3217C103.748 62.1607 103.919 62.2596 103.918 62.3999L103.916 63.0531C103.916 63.1934 103.745 63.2911 103.61 63.1293ZM103.555 81.9897L103.557 81.1821C103.692 81.0211 103.863 81.12 103.863 81.2603L103.861 81.9135C103.86 82.0538 103.689 82.1515 103.555 81.9897ZM103.756 65.6751C103.715 65.6749 103.676 65.6579 103.648 65.6277C103.619 65.5974 103.603 65.5565 103.603 65.5139L103.605 64.8606C103.605 64.818 103.622 64.7772 103.65 64.7471C103.679 64.7171 103.718 64.7003 103.759 64.7004C103.799 64.7006 103.838 64.7176 103.867 64.7479C103.895 64.7781 103.911 64.819 103.911 64.8616L103.909 65.5149C103.909 65.536 103.905 65.5569 103.897 65.5764C103.889 65.5958 103.878 65.6135 103.864 65.6284C103.85 65.6433 103.833 65.6551 103.814 65.6631C103.796 65.6711 103.776 65.6752 103.756 65.6751ZM103.611 58.2056C103.571 58.2056 103.534 58.1894 103.505 58.1607C103.434 58.0877 103.338 58.0468 103.238 58.0466L102.265 58.0434C102.245 58.0437 102.225 58.0397 102.206 58.0317C102.187 58.0237 102.17 58.0118 102.156 57.9968C102.141 57.9818 102.13 57.964 102.122 57.9443C102.114 57.9246 102.11 57.9035 102.111 57.8822C102.111 57.8609 102.115 57.8399 102.123 57.8202C102.13 57.8006 102.142 57.7828 102.156 57.7679C102.171 57.753 102.188 57.7413 102.207 57.7334C102.226 57.7255 102.246 57.7217 102.266 57.722L103.239 57.7252C103.418 57.7255 103.589 57.7987 103.717 57.9292C103.739 57.9515 103.754 57.9801 103.761 58.0115C103.767 58.0429 103.764 58.0755 103.753 58.1052C103.741 58.135 103.722 58.1604 103.696 58.1783C103.671 58.1962 103.641 58.2057 103.611 58.2056ZM97.7719 58.0288L96.7687 58.0255C96.7285 58.0248 96.6903 58.0074 96.6622 57.9773C96.6341 57.9471 96.6184 57.9065 96.6185 57.8643C96.6186 57.8221 96.6346 57.7816 96.6628 57.7516C96.6911 57.7216 96.7295 57.7046 96.7696 57.7041L97.7729 57.7074C97.7932 57.7071 97.8132 57.7111 97.832 57.7191C97.8508 57.7271 97.8679 57.739 97.8822 57.754C97.8966 57.769 97.908 57.7868 97.9158 57.8065C97.9235 57.8262 97.9275 57.8473 97.9274 57.8686C97.9274 57.8899 97.9233 57.911 97.9154 57.9306C97.9075 57.9502 97.896 57.968 97.8816 57.9829C97.8671 57.9978 97.85 58.0095 97.8311 58.0174C97.8123 58.0253 97.7922 58.0291 97.7719 58.0288ZM92.6576 58.0121L91.6543 58.0088C91.6341 58.0091 91.614 58.0051 91.5952 57.9971C91.5764 57.9891 91.5593 57.9772 91.545 57.9622C91.5306 57.9472 91.5192 57.9294 91.5114 57.9097C91.5036 57.89 91.4997 57.8689 91.4997 57.8476C91.4998 57.8263 91.5039 57.8052 91.5118 57.7856C91.5196 57.766 91.5311 57.7482 91.5456 57.7333C91.5601 57.7184 91.5772 57.7067 91.596 57.6988C91.6149 57.6909 91.635 57.687 91.6552 57.6874L92.6585 57.6907C92.6987 57.6914 92.7369 57.7088 92.765 57.7389C92.7931 57.7691 92.8088 57.8097 92.8087 57.8519C92.8085 57.8941 92.7926 57.9346 92.7644 57.9645C92.7361 57.9945 92.6977 58.0116 92.6576 58.0121ZM87.5432 57.9954L86.5399 57.9921C86.4994 57.992 86.4606 57.9749 86.432 57.9447C86.4034 57.9145 86.3874 57.8735 86.3876 57.8309C86.3877 57.7883 86.4039 57.7475 86.4327 57.7174C86.4614 57.6874 86.5003 57.6706 86.5409 57.6707L87.5441 57.674C87.5642 57.674 87.5841 57.6783 87.6026 57.6864C87.6211 57.6945 87.6379 57.7064 87.6521 57.7214C87.6662 57.7364 87.6774 57.7541 87.685 57.7737C87.6927 57.7932 87.6966 57.8141 87.6965 57.8352C87.6964 57.8563 87.6924 57.8772 87.6847 57.8967C87.6769 57.9161 87.6656 57.9338 87.6514 57.9487C87.6372 57.9636 87.6203 57.9753 87.6017 57.9834C87.5831 57.9914 87.5632 57.9955 87.5432 57.9954ZM82.4288 57.9787L81.4256 57.9754C81.3854 57.9747 81.3472 57.9574 81.3191 57.9272C81.291 57.8971 81.2753 57.8565 81.2754 57.8143C81.2755 57.772 81.2914 57.7316 81.3197 57.7016C81.348 57.6716 81.3864 57.6545 81.4265 57.6541L82.4298 57.6573C82.4699 57.6581 82.5082 57.6754 82.5363 57.7056C82.5644 57.7357 82.5801 57.7763 82.5799 57.8185C82.5798 57.8608 82.5639 57.9012 82.5356 57.9312C82.5073 57.9612 82.469 57.9782 82.4288 57.9787ZM77.3145 57.962L76.3112 57.9588C76.2712 57.9578 76.2332 57.9403 76.2053 57.9102C76.1774 57.8801 76.1618 57.8396 76.1619 57.7976C76.1621 57.7555 76.1779 57.7152 76.2059 57.6852C76.234 57.6553 76.2721 57.6381 76.3121 57.6373L77.3154 57.6406C77.3554 57.6416 77.3934 57.659 77.4213 57.6892C77.4492 57.7193 77.4648 57.7597 77.4647 57.8018C77.4646 57.8439 77.4488 57.8842 77.4207 57.9142C77.3926 57.9441 77.3545 57.9613 77.3145 57.962ZM72.2001 57.9454L71.1968 57.9421C71.1563 57.942 71.1175 57.9249 71.0889 57.8947C71.0603 57.8644 71.0444 57.8235 71.0445 57.7809C71.0446 57.7383 71.0608 57.6974 71.0896 57.6674C71.1183 57.6374 71.1573 57.6206 71.1978 57.6207L72.2011 57.624C72.2412 57.6247 72.2795 57.642 72.3076 57.6722C72.3357 57.7024 72.3514 57.7429 72.3512 57.7852C72.3511 57.8274 72.3352 57.8679 72.3069 57.8978C72.2786 57.9278 72.2403 57.9449 72.2001 57.9454ZM67.0857 57.9287L66.0824 57.9254C66.0622 57.9257 66.0421 57.9217 66.0233 57.9137C66.0045 57.9057 65.9875 57.8939 65.9731 57.8789C65.9587 57.8639 65.9473 57.846 65.9395 57.8263C65.9318 57.8067 65.9278 57.7856 65.9279 57.7643C65.9279 57.743 65.932 57.7219 65.9399 57.7023C65.9478 57.6826 65.9593 57.6648 65.9737 57.6499C65.9882 57.635 66.0053 57.6233 66.0242 57.6154C66.043 57.6075 66.0631 57.6037 66.0834 57.604L67.0867 57.6073C67.1268 57.6081 67.1651 57.6254 67.1932 57.6555C67.2213 57.6857 67.2369 57.7263 67.2368 57.7685C67.2367 57.8107 67.2208 57.8512 67.1925 57.8812C67.1642 57.9112 67.1259 57.9282 67.0857 57.9287ZM61.9714 57.912L60.9681 57.9088C60.9281 57.9078 60.8901 57.8903 60.8622 57.8602C60.8343 57.8301 60.8187 57.7896 60.8188 57.7476C60.8189 57.7055 60.8347 57.6652 60.8628 57.6352C60.8909 57.6053 60.929 57.5881 60.969 57.5873L61.9723 57.5906C62.0128 57.5907 62.0517 57.6078 62.0802 57.638C62.1088 57.6683 62.1248 57.7092 62.1247 57.7518C62.1245 57.7944 62.1083 57.8353 62.0796 57.8653C62.0508 57.8954 62.0119 57.9122 61.9714 57.912ZM57.62 57.8978L56.7222 57.8949C56.7019 57.8951 56.6818 57.8911 56.663 57.8832C56.6443 57.8752 56.6272 57.8633 56.6128 57.8483C56.5984 57.8333 56.587 57.8155 56.5793 57.7958C56.5715 57.7761 56.5675 57.755 56.5676 57.7337C56.5676 57.7124 56.5717 57.6913 56.5796 57.6717C56.5875 57.6521 56.599 57.6343 56.6135 57.6194C56.6279 57.6045 56.6451 57.5928 56.6639 57.5849C56.6827 57.577 56.7028 57.5731 56.7231 57.5735L57.6209 57.5764C57.6412 57.5762 57.6613 57.5802 57.6801 57.5882C57.6988 57.5962 57.7159 57.608 57.7303 57.623C57.7447 57.638 57.7561 57.6559 57.7638 57.6756C57.7716 57.6952 57.7756 57.7163 57.7755 57.7376C57.7754 57.7589 57.7714 57.78 57.7635 57.7996C57.7556 57.8193 57.7441 57.837 57.7296 57.8519C57.7152 57.8668 57.698 57.8786 57.6792 57.8865C57.6604 57.8943 57.6403 57.8982 57.62 57.8978ZM100.044 58.0362L99.041 58.0329C99.0005 58.0327 98.9617 58.0157 98.9331 57.9854C98.9045 57.9552 98.8886 57.9143 98.8887 57.8717C98.8888 57.829 98.905 57.7882 98.9338 57.7582C98.9625 57.7281 99.0015 57.7113 99.042 57.7115L100.045 57.7147C100.086 57.7149 100.125 57.7319 100.153 57.7622C100.182 57.7924 100.198 57.8333 100.198 57.8759C100.197 57.9186 100.181 57.9594 100.153 57.9894C100.124 58.0195 100.085 58.0363 100.044 58.0362ZM94.9299 58.0195L93.9267 58.0162C93.8865 58.0155 93.8483 57.9982 93.8202 57.968C93.7921 57.9378 93.7764 57.8973 93.7765 57.8551C93.7766 57.8128 93.7925 57.7724 93.8208 57.7424C93.8491 57.7124 93.8875 57.6953 93.9276 57.6948L94.9309 57.6981C94.971 57.6989 95.0093 57.7162 95.0374 57.7463C95.0655 57.7765 95.0812 57.8171 95.081 57.8593C95.0809 57.9015 95.065 57.942 95.0367 57.972C95.0084 58.002 94.9701 58.019 94.9299 58.0195ZM89.8155 58.0028L88.8123 57.9996C88.7723 57.9986 88.7343 57.9811 88.7064 57.951C88.6785 57.9209 88.6629 57.8804 88.663 57.8384C88.6631 57.7963 88.6789 57.756 88.707 57.726C88.7351 57.6961 88.7732 57.6789 88.8132 57.6781L89.8165 57.6814C89.8565 57.6824 89.8945 57.6998 89.9224 57.73C89.9503 57.7601 89.9659 57.8005 89.9657 57.8426C89.9656 57.8846 89.9498 57.925 89.9217 57.9549C89.8937 57.9849 89.8555 58.0021 89.8155 58.0028ZM84.7012 57.9861L83.6979 57.9829C83.6574 57.9827 83.6186 57.9657 83.59 57.9355C83.5614 57.9052 83.5454 57.8643 83.5455 57.8217C83.5457 57.779 83.5619 57.7382 83.5906 57.7082C83.6194 57.6781 83.6583 57.6613 83.6988 57.6614L84.7021 57.6647C84.7421 57.6657 84.7801 57.6831 84.808 57.7133C84.8359 57.7434 84.8515 57.7838 84.8514 57.8259C84.8512 57.868 84.8354 57.9083 84.8074 57.9383C84.7793 57.9682 84.7412 57.9854 84.7012 57.9861ZM79.823 57.9702L78.8197 57.967C78.7796 57.9662 78.7413 57.9489 78.7132 57.9187C78.6851 57.8886 78.6695 57.848 78.6696 57.8058C78.6697 57.7636 78.6856 57.7231 78.7139 57.6931C78.7422 57.6631 78.7805 57.646 78.8207 57.6456L79.824 57.6488C79.8641 57.6496 79.9024 57.6669 79.9305 57.6971C79.9586 57.7272 79.9743 57.7678 79.9741 57.81C79.974 57.8522 79.9581 57.8927 79.9298 57.9227C79.9015 57.9527 79.8632 57.9697 79.823 57.9702ZM74.8189 57.9539L73.8156 57.9507C73.7754 57.9499 73.7372 57.9326 73.7091 57.9024C73.681 57.8723 73.6653 57.8317 73.6654 57.7895C73.6656 57.7472 73.6815 57.7068 73.7098 57.6768C73.738 57.6468 73.7764 57.6297 73.8166 57.6293L74.8198 57.6325C74.8604 57.6327 74.8992 57.6497 74.9278 57.68C74.9563 57.7102 74.9723 57.7511 74.9722 57.7937C74.9721 57.8364 74.9558 57.8772 74.9271 57.9072C74.8983 57.9373 74.8594 57.9541 74.8189 57.9539ZM69.5471 57.9367L68.5438 57.9335C68.5032 57.9333 68.4644 57.9163 68.4358 57.886C68.4073 57.8558 68.3913 57.8149 68.3914 57.7722C68.3915 57.7296 68.4078 57.6888 68.4365 57.6587C68.4653 57.6287 68.5042 57.6119 68.5447 57.612L69.548 57.6153C69.5886 57.6154 69.6274 57.6325 69.6559 57.6627C69.6845 57.693 69.7005 57.7339 69.7004 57.7765C69.7002 57.8191 69.684 57.86 69.6553 57.89C69.6265 57.9201 69.5876 57.9369 69.5471 57.9367ZM64.6374 57.9207L63.6341 57.9174C63.614 57.9174 63.5942 57.9131 63.5756 57.905C63.5571 57.8969 63.5403 57.885 63.5262 57.87C63.512 57.855 63.5008 57.8373 63.4932 57.8178C63.4856 57.7982 63.4817 57.7773 63.4817 57.7562C63.4818 57.7351 63.4858 57.7142 63.4936 57.6948C63.5013 57.6753 63.5126 57.6576 63.5268 57.6427C63.5411 57.6278 63.558 57.6161 63.5765 57.608C63.5951 57.6 63.615 57.5959 63.635 57.596L64.6384 57.5993C64.6789 57.5994 64.7177 57.6165 64.7463 57.6467C64.7749 57.6769 64.7908 57.7179 64.7907 57.7605C64.7906 57.8031 64.7744 57.844 64.7456 57.874C64.7169 57.904 64.6779 57.9208 64.6374 57.9207ZM59.8924 57.9052L58.9945 57.9023C58.954 57.9022 58.9152 57.8851 58.8866 57.8549C58.858 57.8247 58.842 57.7837 58.8422 57.7411C58.8423 57.6985 58.8585 57.6577 58.8873 57.6276C58.916 57.5976 58.9549 57.5808 58.9955 57.5809L59.8933 57.5838C59.9339 57.584 59.9727 57.601 60.0013 57.6312C60.0298 57.6615 60.0458 57.7024 60.0457 57.745C60.0456 57.7877 60.0293 57.8285 60.0006 57.8585C59.9718 57.8886 59.9329 57.9054 59.8924 57.9052Z" fill="white"/>
<path d="M105.098 78.0398L93.7215 78.0027C92.9884 78.0003 92.3903 77.3676 92.3926 76.5966L92.4128 69.7319C92.4151 68.961 93.0168 68.3321 93.75 68.3345L105.126 68.3716C105.859 68.374 106.457 69.0067 106.455 69.7777L106.435 76.6423C106.433 77.4133 105.831 78.0422 105.098 78.0398Z" fill="#A07252"/>
<path d="M96.6703 75.6337C97.8143 75.156 98.3735 73.7937 97.9193 72.5907C97.4651 71.3878 96.1695 70.7999 95.0255 71.2775C93.8815 71.7551 93.3223 73.1175 93.7765 74.3204C94.2307 75.5233 95.5263 76.1113 96.6703 75.6337Z" fill="#7F635D"/>
<path d="M97.1104 74.6046C97.9253 73.7476 97.9253 72.3582 97.1104 71.5012C96.2954 70.6443 94.9741 70.6443 94.1592 71.5013C93.3442 72.3583 93.3443 73.7477 94.1592 74.6046C94.9742 75.4616 96.2955 75.4615 97.1104 74.6046Z" fill="#FFE164"/>
<path d="M99.3184 78.021C99.3184 78.021 104.464 78.1956 105.769 81.9605L105.78 78.042L99.3184 78.021Z" fill="#594643"/>
<path d="M93.4717 25.7131L96.5951 26.0479L95.9181 33.0325L92.7947 32.6977L93.4717 25.7131Z" fill="#8CDBDB"/>
<path d="M98.5449 24.9441L101.668 25.2789L100.865 33.5627L97.742 33.2279L98.5449 24.9441Z" fill="#88BFAB"/>
<path d="M103.674 23.5947L106.797 23.9295L105.812 34.0928L102.689 33.758L103.674 23.5947Z" fill="#FFF56E"/>
<path d="M108.768 22.6138L111.891 22.9486L110.759 34.6232L107.636 34.2884L108.768 22.6138Z" fill="#FF894A"/>
<path d="M94.334 25.8186L97.4574 26.1534L96.7804 33.1379L93.657 32.8032L94.334 25.8186Z" fill="#5CBEC6"/>
<path d="M99.4072 25.0496L102.531 25.3843L101.728 33.6682L98.6043 33.3334L99.4072 25.0496Z" fill="#54A86C"/>
<path d="M104.536 23.7002L107.66 24.035L106.674 34.1982L103.551 33.8635L104.536 23.7002Z" fill="#FFE164"/>
<path d="M109.63 22.7192L112.753 23.054L111.622 34.7286L108.498 34.3939L109.63 22.7192Z" fill="#FF5F4A"/>
<path d="M4.22414 81.404C4.04004 84.677 5.07947 87.6034 6.7978 89.3273L6.7157 90.7868L8.17998 90.9097C11.7868 91.0679 14.6598 87.0545 14.9472 81.9455C15.2346 76.8365 12.8276 72.5665 9.22067 72.4083L7.75639 72.2854L7.67429 73.7449C5.77101 75.3099 4.40827 78.131 4.22414 81.404Z" fill="#F7AC41"/>
<path d="M13.7335 82.0826C14.1239 76.9802 11.5243 72.5971 7.92706 72.2928C4.32987 71.9885 1.09729 75.8781 0.706888 80.9805C0.316484 86.0829 2.9161 90.466 6.51329 90.7703C10.1105 91.0746 13.3431 87.185 13.7335 82.0826Z" fill="#FFE164"/>
<path d="M6.22013 73.5921C6.56033 73.51 6.90945 73.4761 7.2582 73.4913C8.71129 73.5551 10.0193 74.465 10.9412 76.0538C11.8411 77.6045 12.271 79.628 12.1516 81.7517C12.0322 83.8753 11.3773 85.8514 10.3078 87.3157C9.21211 88.8158 7.8085 89.607 6.35537 89.5432C4.90228 89.4794 3.59431 88.5694 2.67235 86.9808C1.7724 85.43 1.34252 83.4065 1.46197 81.2829C1.58148 79.1592 2.23623 77.1831 3.3058 75.7188C4.13749 74.5802 5.14665 73.85 6.22013 73.5921ZM7.26535 89.0304C8.22348 88.8002 9.13677 88.1317 9.90177 87.0843C10.9261 85.6819 11.5537 83.7805 11.669 81.7305C11.9046 77.54 9.91528 74.035 7.23432 73.9175C4.55357 73.7998 2.18043 77.1134 1.94467 81.3039C1.70898 85.4944 3.69833 88.9993 6.37928 89.1169C6.67684 89.13 6.97323 89.1005 7.26535 89.0304Z" fill="#F7AC41"/>
<path d="M7.77565 73.9261C7.74542 73.9281 7.71498 73.9323 7.68405 73.9389C7.41193 73.9965 5.8175 73.9146 4.20273 75.3442C2.7265 76.6511 2.42706 79.3053 2.4297 79.3952C2.4457 79.9172 3.1436 80.4571 3.24285 80.0162C3.37833 79.4144 3.10893 77.5693 4.74194 76.1172C5.99156 75.0061 8.47577 74.8744 8.4357 74.3566C8.39851 73.8766 8.16268 73.8999 7.77565 73.9261Z" fill="white"/>
<path d="M19.9354 5.31447L25.6455 1.83044C26.0338 1.5935 26.5313 1.73244 26.7567 2.14083L29.5404 7.18574C29.7657 7.59412 29.6336 8.11728 29.2452 8.35422L27.3055 9.53775L27.7669 11.3485L27.244 11.6675L25.4711 10.657L23.5351 11.8383C23.1468 12.0752 22.6493 11.9363 22.4239 11.5279L19.6402 6.48299C19.4149 6.07457 19.547 5.55145 19.9354 5.31447Z" fill="#F2C3A7"/>
<path d="M20.4588 4.99538L26.1689 1.51135C26.5573 1.27441 27.0548 1.41335 27.2801 1.82173L30.0639 6.86665C30.2892 7.27503 30.1571 7.79819 29.7687 8.03513L27.829 9.21866L27.7675 11.3484L25.9946 10.3379L24.0586 11.5192C23.6702 11.7561 23.1727 11.6172 22.9474 11.2088L20.1637 6.16386C19.9383 5.75548 20.0705 5.23236 20.4588 4.99538Z" fill="#FF5F4A"/>
<path d="M23.4189 5.9189C24.1635 5.26923 24.7153 5.94377 24.7153 5.94377C24.7153 5.94377 24.4322 5.10528 25.3381 4.74791C26.244 4.39051 26.4859 5.85169 26.2562 6.87666C26.0265 7.90164 25.9818 8.23912 25.9818 8.23912C25.9818 8.23912 25.681 8.11239 24.7208 7.81346C23.7606 7.5145 22.6743 6.56858 23.4189 5.9189Z" fill="#F2C3A7"/>
<path d="M50.2988 8.17176L46.4662 7.79702C46.1828 7.7693 45.9237 8.0558 45.8903 8.43367C45.8569 8.81155 46.0614 9.14335 46.3447 9.17107L46.3455 9.17114C46.374 9.17392 46.3812 9.22313 46.3565 9.24375C46.2202 9.35713 46.1212 9.54884 46.1014 9.77262C46.068 10.1505 46.2725 10.4823 46.5559 10.51L46.6656 10.5207C46.6941 10.5235 46.7013 10.5727 46.6765 10.5933C46.5402 10.7067 46.4413 10.8984 46.4215 11.1222C46.3881 11.5001 46.5926 11.8319 46.8759 11.8596L49.184 12.0853C49.4674 12.113 49.7265 11.8265 49.7599 11.4486C49.7797 11.2248 49.716 11.0172 49.602 10.8794C49.5812 10.8543 49.5969 10.8073 49.6254 10.8101L49.7352 10.8209C50.0185 10.8485 50.2776 10.5621 50.3111 10.1842C50.3309 9.96042 50.2672 9.7528 50.1531 9.61493C50.1324 9.58986 50.1481 9.54292 50.1766 9.54571L50.1774 9.54578C50.4607 9.5735 50.7199 9.287 50.7533 8.90912C50.7866 8.53128 50.5822 8.19944 50.2988 8.17176Z" fill="#EAEAEA"/>
<path d="M51.6597 1.433C50.9949 0.602485 50.0609 0.0975372 49.0317 0.0124971C46.9514 -0.16023 45.1067 1.47789 44.9196 3.66424C44.8422 4.56859 45.061 5.48324 45.5357 6.23968C45.8163 6.68682 46.0078 7.16276 46.1047 7.65434C46.1161 7.71221 46.1449 7.76471 46.1868 7.80413C46.2287 7.84354 46.2815 7.86779 46.3374 7.87331C46.3613 7.87564 49.9112 8.21918 50.3412 8.2539C50.4736 8.3069 50.6229 8.23997 50.6771 8.1013C50.8589 7.63595 51.1298 7.20608 51.4822 6.82354C52.0855 6.16868 52.4621 5.30703 52.5425 4.39743C52.6381 3.31646 52.3246 2.26366 51.6597 1.433Z" fill="#FFAF45"/>
<path d="M46.8747 11.8596C46.8747 11.8596 46.8314 12.9815 47.925 13.1551C49.0186 13.3286 49.1828 12.0853 49.1828 12.0853L46.8747 11.8596ZM48.1847 10.8461C47.4378 10.7731 46.8563 10.6345 46.8476 10.6324C46.8296 10.6281 46.814 10.6165 46.8043 10.6001C46.7945 10.5837 46.7913 10.5638 46.7954 10.545C46.7996 10.5261 46.8106 10.5097 46.8262 10.4995C46.8418 10.4892 46.8607 10.4859 46.8786 10.4902C46.8915 10.4933 48.1825 10.8007 49.3808 10.735C49.39 10.7343 49.3992 10.7356 49.4079 10.7388C49.4166 10.7419 49.4246 10.7468 49.4315 10.7533C49.4383 10.7597 49.4439 10.7675 49.4479 10.7762C49.4519 10.7849 49.4542 10.7944 49.4546 10.804C49.4551 10.8137 49.4538 10.8233 49.4507 10.8324C49.4476 10.8415 49.4428 10.8499 49.4366 10.857C49.4304 10.8641 49.4229 10.8699 49.4146 10.874C49.4063 10.8781 49.3972 10.8804 49.3881 10.8807C48.9798 10.9031 48.5612 10.8829 48.1847 10.8461ZM48.3351 9.58034C47.3333 9.48241 46.5507 9.32442 46.539 9.32201C46.5211 9.31819 46.5053 9.30706 46.4951 9.29105C46.4849 9.27505 46.4812 9.25547 46.4847 9.23657C46.4882 9.21767 46.4986 9.20099 46.5137 9.19015C46.5289 9.17931 46.5475 9.1752 46.5655 9.17871C46.5829 9.18227 48.3308 9.53496 49.9438 9.50909C49.9529 9.50894 49.962 9.51069 49.9705 9.51422C49.9789 9.51775 49.9867 9.523 49.9932 9.52967C49.9998 9.53635 50.005 9.54431 50.0086 9.55311C50.0122 9.56191 50.0141 9.57136 50.0143 9.58095C50.0144 9.59053 50.0128 9.60005 50.0094 9.60896C50.006 9.61787 50.001 9.626 49.9947 9.63288C49.9884 9.63976 49.9808 9.64525 49.9724 9.64905C49.9641 9.65286 49.9551 9.65489 49.9459 9.65504C49.4005 9.66381 48.8399 9.62972 48.3351 9.58034Z" fill="#BAB9B9"/>
<path d="M47.6135 8.04977C47.6019 8.04862 47.5911 8.04327 47.5828 8.03465C47.5745 8.02602 47.5693 8.01464 47.5681 8.00245C47.567 7.99193 47.4619 6.93757 47.3763 5.88223C47.2007 3.7191 47.2726 3.66161 47.3155 3.6272C47.3802 3.57545 47.467 3.64489 47.4956 3.6677C47.6568 3.79662 47.8894 4.12487 48.0494 4.44915C48.1116 4.28074 48.1943 4.13521 48.2933 4.0228C48.681 3.58259 48.9588 3.59293 49.0899 3.63827C49.2562 3.69577 49.366 3.86359 49.391 4.09861L49.3994 4.17613C49.4115 4.28757 49.4229 4.39733 49.4324 4.50316C49.5449 4.36425 49.7033 4.20803 49.9007 4.11306C50.0493 4.04157 50.1658 4.03851 50.2468 4.10384C50.4346 4.25521 50.3613 4.71371 50.3024 5.08211C50.2942 5.13369 50.2864 5.1824 50.2803 5.22541C50.2199 5.64748 49.277 8.06443 49.2369 8.16713C49.2318 8.18015 49.222 8.19052 49.2097 8.19594C49.1973 8.20137 49.1834 8.20142 49.171 8.19607C49.1587 8.19072 49.1488 8.18042 49.1436 8.16743C49.1385 8.15444 49.1384 8.13983 49.1435 8.1268C49.1533 8.10176 50.1218 5.61913 50.1804 5.20964C50.1867 5.16576 50.1945 5.11659 50.2029 5.06456C50.2485 4.77883 50.3249 4.30063 50.1854 4.18811C50.1363 4.14852 50.0546 4.15576 49.9427 4.2096C49.7523 4.30118 49.5788 4.47168 49.4451 4.65736C49.4746 5.05752 49.4664 5.37937 49.3495 5.48548C49.3104 5.52089 49.2612 5.53165 49.2075 5.51654C49.1306 5.49495 49.0839 5.42823 49.0759 5.32859C49.0632 5.16987 49.1493 4.92377 49.3006 4.68634C49.3126 4.66746 49.3263 4.64667 49.3417 4.62449C49.3295 4.46823 49.3127 4.31403 49.2991 4.18814C49.2962 4.16102 49.2933 4.13504 49.2907 4.11045C49.2703 3.91847 49.1856 3.78314 49.0584 3.73916C48.8745 3.67557 48.6226 3.80522 48.3674 4.09495C48.2499 4.22837 48.1668 4.40217 48.1118 4.58381C48.2217 4.83775 48.3352 5.20131 48.2354 5.46406C48.2066 5.53994 48.1594 5.64104 48.0826 5.64274C48.0516 5.64347 48.008 5.62791 47.9748 5.55018C47.917 5.41499 47.9054 5.1387 47.946 4.86268C47.9593 4.77096 47.9785 4.68029 48.0034 4.59127C47.9312 4.43073 47.8416 4.27096 47.7464 4.12748C47.5658 3.85554 47.4266 3.73258 47.379 3.7167C47.358 3.79526 47.3381 4.17704 47.4813 5.9276C47.5659 6.9632 47.6674 7.9812 47.6684 7.99137C47.6692 7.99919 47.6683 8.00709 47.6659 8.0145C47.6634 8.02191 47.6594 8.02866 47.6541 8.03425C47.6489 8.03983 47.6425 8.04413 47.6355 8.04681C47.6285 8.0495 47.621 8.05051 47.6135 8.04977ZM48.0691 4.75079C48.0201 4.98311 48.013 5.21204 48.0344 5.37146C48.0484 5.47555 48.0709 5.52065 48.0819 5.53392C48.0908 5.52622 48.1126 5.50104 48.1416 5.42464C48.206 5.25546 48.1653 5.00887 48.0691 4.75079ZM49.353 4.79812C49.2345 4.99777 49.1666 5.19658 49.1765 5.31971C49.1829 5.39981 49.2197 5.41012 49.2336 5.41402C49.2606 5.42158 49.274 5.41377 49.2835 5.40514C49.3145 5.37703 49.3653 5.27674 49.3575 4.92091C49.3566 4.87996 49.3551 4.83903 49.353 4.79812ZM46.1915 6.16618C45.5853 5.19139 45.4146 3.96283 45.7214 2.84481C45.7643 2.68831 45.5275 2.64078 45.4846 2.79675C45.1613 3.97492 45.3525 5.28012 45.9901 6.30558C46.0752 6.44237 46.2764 6.30276 46.1915 6.16618ZM45.9338 2.37497L46.1435 2.08575C46.237 1.95666 46.0577 1.7871 45.9636 1.91689L45.7539 2.20611C45.6603 2.33523 45.8397 2.50476 45.9338 2.37497Z" fill="white"/>
<path d="M103.94 6.25044L100.32 5.96655L102.921 9.91423L103.94 6.25044Z" fill="#FFE164"/>
<path d="M87.3117 16.1047L86.2267 14.5106L94.9954 7.91148L96.5316 10.2914L101.329 6.96127L102.356 8.59723L96.0228 12.9935L94.5263 10.6751L87.3117 16.1047ZM77.6401 4.36745L77.4785 4.44183C77.7317 4.3252 77.8482 4.01189 77.7373 3.74563L77.5929 3.39889C77.482 3.13259 77.184 3.01015 76.9308 3.12677L75.0418 3.99678C75.0233 4.00531 75.0057 4.0152 74.9887 4.02575C74.6552 4.18159 74.1952 4.39113 74.0844 4.41397C73.9541 4.44089 73.7407 4.18135 73.7266 4.03697C73.7266 4.03697 73.687 2.91738 73.5807 2.50165C73.3514 1.60542 72.9043 1.09859 72.559 1.12474C72.0416 1.16392 71.9588 1.30705 72.0667 1.71303C72.1555 2.04674 72.3739 2.50161 72.3601 3.06329C72.3506 3.44681 72.007 3.88597 71.9492 5.46318C71.9425 5.64521 71.9318 6.32514 71.7772 6.58187C71.4163 7.18119 69.5264 8.02971 69.5264 8.02971L71.1332 11.2123C71.1332 11.2123 72.5985 10.5224 73.0706 10.3488C73.3321 10.2526 74.3071 10.2352 74.7124 10.0485L76.8904 9.04538L77.6209 8.70898L78.4962 8.30583C78.6898 8.21668 78.7788 7.97719 78.694 7.77365L78.5836 7.5086C78.4988 7.30506 78.2711 7.21145 78.0775 7.3006L78.526 7.09409C78.7792 6.97747 78.8956 6.66416 78.7847 6.39789L78.6403 6.05115C78.5294 5.78485 78.2315 5.66241 77.9782 5.77904L78.1879 5.68247C78.4411 5.56584 78.5576 5.25253 78.4467 4.98627L78.3023 4.63953C78.1912 4.37326 77.8933 4.25082 77.6401 4.36745Z" fill="#FFE164"/>
<path d="M69.459 7.87134L71.4329 6.93896L73.0882 10.814L71.1143 11.7464L69.459 7.87134Z" fill="#5CBEC6"/>
<path d="M71.7822 10.7271C71.9181 10.8895 72.1535 10.9055 72.308 10.7626C72.4625 10.6198 72.4776 10.3722 72.3418 10.2098C72.2059 10.0473 71.9705 10.0313 71.816 10.1742C71.6615 10.317 71.6464 10.5645 71.7822 10.7271Z" fill="white"/>
<path d="M45.0894 89.8506L38.9664 89.8506C30.6091 89.8506 -4.36667 90.1864 3.48213 90.9253C10.761 91.6106 42.7731 92 51.1304 92H58.5445C83.9597 92 106.502 91.5164 98.1847 90.9253H98.1846C89.8677 90.3342 72.7471 89.8506 45.0894 89.8506Z" fill="#5CBEC6"/>
<path d="M68.4044 27.9507C67.9142 28.5299 67.5421 29.127 67.3664 29.7218C66.4003 32.9916 68.614 42.8905 69.6506 42.9253C70.6873 42.96 70.7779 40.6742 70.7175 39.7854C70.6661 39.0281 70.6146 33.6773 70.6005 32.1089C69.2491 30.9572 68.6582 29.1568 68.4044 27.9507Z" fill="#F27C79"/>
<path d="M75.0352 27.2137L75.2168 23.105C75.2168 23.105 70.6095 25.3452 68.4043 27.9506C68.6581 29.1567 69.249 30.9571 70.6004 32.1088C70.5979 31.8361 70.5966 31.6769 70.5966 31.6769L75.0352 27.2137Z" fill="#B1D5DE"/>
<path d="M71.3506 87.0874L71.3607 87.2773L71.4924 89.7466C71.5145 90.1605 71.8401 90.4843 72.2344 90.4843H75.6545C75.7924 90.4843 75.8858 90.3358 75.8309 90.2027C75.6906 89.8622 75.4278 89.3005 75.1243 89.024C74.6715 88.6113 73.645 86.77 73.645 86.77L71.3506 87.0874Z" fill="#404859"/>
<path d="M56.7168 17.4558C56.7168 17.4558 52.0736 21.7475 49.7662 26.5412C46.348 33.6425 51.7556 43.885 52.731 43.8853C54.9712 43.8861 56.7168 17.4558 56.7168 17.4558Z" fill="#CE4949"/>
<path d="M62.7386 12.0433C62.7386 12.0433 62.9928 12.2066 62.9015 12.9119C62.8103 13.6172 62.6865 14.9921 62.1196 15.2285C61.5526 15.4649 59.8644 14.3762 59.718 13.8225C59.5716 13.2688 59.7932 11.5786 60.321 11.4345C60.8488 11.2905 62.5616 11.5945 62.7386 12.0433Z" fill="#434A59"/>
<path d="M59.7457 12.6015C59.9168 12.4318 59.9562 12.7429 59.964 12.9539C59.9682 13.0649 59.9761 13.1752 59.9933 13.2826C60.0367 13.553 60.0502 13.9776 59.8291 13.9334C59.5313 13.8739 59.4969 12.8482 59.7457 12.6015Z" fill="#FF867A"/>
<path d="M59.915 13.3153C59.915 13.3153 59.7728 12.6405 59.8747 12.4005C59.9766 12.1605 60.2709 12.1803 60.2596 12.3113C60.2482 12.4423 59.915 13.3153 59.915 13.3153Z" fill="#434A59"/>
<path d="M52.3307 88.8287C53.2206 88.1285 53.2859 86.0633 53.3037 85.9913C53.3807 85.6802 54.8525 85.2704 55.0683 85.9668C55.4937 87.3393 55.3443 85.6938 55.6537 86.144C56.1685 86.8931 56.1154 89.9295 55.6043 90.2699C54.6271 90.9207 48.7648 90.7238 48.8128 90.0931C48.8416 89.7145 51.191 89.7255 52.3307 88.8287Z" fill="#404859"/>
<path d="M53.5009 38.5352L67.3529 41.3065L74.8564 87.0403C73.4631 88.0048 72.082 87.7787 70.7563 87.4095L60.196 50.4308C60.196 50.4308 59.4442 57.9383 58.5627 66.1074C57.5107 75.8555 57.0374 86.6909 56.6733 86.6909C56.6733 86.6909 56.0143 87.1672 54.7412 87.2306C53.1401 87.3105 52.7486 86.5322 52.7486 86.5322C50.6995 50.7248 53.5009 38.5352 53.5009 38.5352Z" fill="#54678C"/>
<path d="M67.353 41.3064C67.3222 39.2348 66.8497 35.4525 67.0966 33.5228C67.4039 31.1204 68.8585 25.2508 68.692 23.5643C68.3757 20.3598 66.1363 17.8678 58.5679 17.2201C54.8286 16.8998 54.1454 20.6621 53.855 23.0788C53.684 24.502 52.5124 37.7096 52.8854 40.9627C52.9921 41.8939 54.9599 42.6335 57.5796 42.9161C57.9016 42.9509 59.419 42.8734 59.6421 42.8886C63.4457 43.149 67.3555 41.4794 67.353 41.3064Z" fill="#FF5F4A"/>
<path d="M60.2594 17.3958C59.7469 17.3507 58.4401 17.3102 58.0212 17.5648C57.6023 17.8193 59.2002 19.6394 60.5332 19.8805C62.3759 20.2139 64.2667 19.1373 64.0516 18.542C63.8365 17.9468 61.5171 17.5065 60.2594 17.3958Z" fill="#E7F2F2"/>
<path d="M60.2326 18.3806C60.8359 18.8535 62.5205 18.1735 62.5042 17.7829L61.9276 13.9023L60.8081 14.4818L60.6381 15.1534L60.4388 15.9395L59.9609 17.9315C59.8127 18.3434 60.056 18.2422 60.2326 18.3806Z" fill="#FF867A"/>
<path d="M60.4384 15.9396L60.3633 16.2525C60.5295 16.2752 60.7789 16.2726 61.1233 16.1763C61.8328 15.9778 61.9601 15.1528 61.9601 15.1528L60.6267 15.1966L60.4384 15.9396Z" fill="#C66C67"/>
<path d="M62.299 12.2917L62.2852 13.9818C62.3749 14.5631 62.0337 15.8192 60.5337 15.6228C59.6242 15.5037 59.5766 14.6244 59.6368 13.9938C59.6664 13.6832 59.7297 13.4212 59.8104 13.1749C59.9422 12.7723 60.0353 12.4543 60.1543 12.2168C60.2625 12.0008 60.4156 11.8395 60.5901 11.7357C60.6551 11.6972 60.7301 11.6815 60.8042 11.6909C61.2964 11.7533 62.0312 11.7512 62.299 12.2917Z" fill="#FF867A"/>
<path d="M60.1826 13.918C60.1826 13.918 60.202 14.2774 60.6372 14.3646C60.8248 14.4022 61.0062 14.4352 61.3497 14.1183C61.3497 14.1182 60.909 14.0021 60.1826 13.918Z" fill="white"/>
<path d="M62.6451 13.0583C62.5306 12.8424 62.4039 13.1265 62.3359 13.3251C62.3001 13.4296 62.261 13.5323 62.2138 13.6292C62.0948 13.8733 61.9603 14.2738 62.1838 14.3018C62.4847 14.3395 62.8116 13.3724 62.6451 13.0583Z" fill="#FF867A"/>
<path d="M60.7307 18.4654C60.7307 18.4654 60.1445 17.6318 60.1181 17.1226C59.5723 17.2707 59.4365 19.1689 59.4365 19.1689L60.6778 18.706L61.4789 19.5114C61.4789 19.5114 62.8561 18.7672 62.9027 18.3635C62.9493 17.9598 62.5325 16.9111 62.4055 17.1226C61.9999 17.7979 60.7307 18.4654 60.7307 18.4654Z" fill="white"/>
<path d="M61.0128 13.5875C60.8792 13.601 60.7535 13.5847 60.6283 13.538C60.5336 13.5025 60.4939 13.6487 60.5876 13.6837C60.7238 13.7345 60.8689 13.7531 61.0127 13.7384C61.113 13.7283 61.1139 13.5773 61.0128 13.5875Z" fill="#C66C67"/>
<path d="M61.5331 12.9157C61.5168 12.9133 61.467 12.9024 61.4383 12.9585C61.4167 13.0008 61.4035 13.0549 61.4095 13.1026C61.4165 13.1584 61.4759 13.1894 61.5295 13.1682C61.6038 13.1386 61.6421 12.9322 61.5331 12.9157ZM60.5623 12.8016C60.5461 12.7992 60.4963 12.7883 60.4675 12.8444C60.4459 12.8867 60.4328 12.9408 60.4387 12.9885C60.4458 13.0443 60.5051 13.0754 60.5588 13.0541C60.633 13.0246 60.6713 12.8181 60.5623 12.8016ZM61.5136 12.4697C61.5709 12.4366 61.6725 12.4382 61.7323 12.4621C61.7941 12.4868 61.8662 12.5347 61.8978 12.5948C61.9028 12.6002 61.9059 12.6073 61.9067 12.6148L61.9068 12.6152C61.9116 12.6289 61.9057 12.6397 61.896 12.6458C61.8836 12.6599 61.8621 12.6669 61.8397 12.6543C61.7487 12.6033 61.6329 12.5682 61.5302 12.5524C61.4806 12.5449 61.4754 12.4795 61.5136 12.4697ZM60.7856 12.4005C60.7283 12.3673 60.6267 12.369 60.5668 12.3929C60.5051 12.4176 60.433 12.4655 60.4015 12.5255C60.3965 12.531 60.3933 12.538 60.3925 12.5456L60.3924 12.546C60.3876 12.5596 60.3935 12.5705 60.4031 12.5766C60.4156 12.5907 60.4371 12.5977 60.4595 12.585C60.5504 12.5341 60.6663 12.499 60.769 12.4832C60.8186 12.4757 60.8239 12.4103 60.7856 12.4005ZM60.1965 50.625C60.2254 50.625 60.2539 50.6179 60.2797 50.6041C60.3055 50.5904 60.3279 50.5705 60.3451 50.5461C60.3623 50.5216 60.3737 50.4932 60.3786 50.4633C60.3834 50.4333 60.3815 50.4025 60.373 50.3735C60.2396 49.9192 59.0577 45.9199 58.6468 45.3882C58.2161 44.8307 57.2884 44.5283 57.2491 44.5157C57.2025 44.5014 57.1523 44.507 57.1096 44.5313C57.0668 44.5556 57.0349 44.5966 57.0207 44.6455C57.0066 44.6944 57.0113 44.7472 57.0338 44.7924C57.0564 44.8377 57.0951 44.8717 57.1414 44.8873C57.1498 44.89 58.0008 45.1681 58.3602 45.6332C58.6372 45.9917 59.5046 48.733 60.02 50.4881C60.0317 50.5278 60.0551 50.5624 60.0869 50.587C60.1186 50.6117 60.157 50.625 60.1965 50.625ZM60.2443 11.5929C60.2443 11.5929 60.2853 12.0215 60.8384 12.2061C61.3915 12.3906 62.2184 12.4004 62.2184 12.4004L62.9691 12.2358C62.9691 12.2358 62.8693 11.837 62.7882 11.593C62.7072 11.3489 62.11 10.4918 61.2551 10.6525C60.4002 10.8132 60.1757 11.2537 60.2443 11.5929Z" fill="#434A59"/>
<path d="M34.8999 14.876C34.8999 14.876 34.6707 15.912 34.399 16.5152C34.1273 17.1184 33.2261 17.166 33.3975 18.3565C33.5688 19.547 34.6947 19.6422 35.8903 19.4518C37.0859 19.2613 37.2789 19.1025 37.2789 19.1025C37.2789 19.1025 38.4898 19.4518 39.4559 18.7216C40.4219 17.9914 38.5568 15.3845 38.3346 14.6879C38.1124 13.9914 35.5818 12.7606 34.8999 14.876Z" fill="#F2C3A7"/>
<path d="M38.0198 15.2678C38.026 15.1685 38.0177 15.0695 38.0038 14.971C37.9773 14.784 37.9795 14.4995 38.2645 14.5943C38.6791 14.7322 38.7678 15.737 38.3359 15.8824C38.0152 15.9903 38.0042 15.5181 38.0198 15.2678Z" fill="#C66C67"/>
<path d="M33.3374 42.524C33.4561 42.3013 46.3548 48.4688 46.9639 48.9928C46.9639 48.9928 45.1284 84.3402 45.0233 86.5495C44.9718 87.6336 43.0326 87.0214 42.8156 85.9475C40.254 73.2674 40.7582 69.2655 40.7582 69.2655C40.7582 69.2655 40.7885 53.4744 40.8948 51.2119C40.7491 52.0365 38.2768 63.8995 35.4122 73.5269C33.359 80.4276 30.6503 85.9771 30.5538 86.4274C30.2009 88.074 28.4256 86.8589 28.4828 86.2458C28.5367 85.6679 30.3526 71.3335 31.2912 59.4979C32.0722 49.6502 32.7195 43.6829 33.3374 42.524Z" fill="#FF867A"/>
<path d="M41.9567 22.0905C41.9567 22.0905 43.925 24.2634 45.5967 31.017C47.2685 37.7706 47.8186 44.5493 48.1127 48.0402C48.4069 51.531 47.7259 61.152 46.3645 60.5614C45.0032 59.9707 37.7006 19.9524 41.9567 22.0905Z" fill="#F27C79"/>
<path d="M38.0538 21.9039C38.0538 21.9039 35.9002 20.727 35.4541 19.99C35.4541 19.99 34.795 20.683 34.7544 20.8502C34.7137 21.0175 37.3937 23.0398 37.3937 23.0398L38.2844 22.3449L39.1353 22.5729C39.1353 22.5729 38.9445 21.3603 38.4673 20.8001C37.9902 20.2398 37.9137 20.2011 37.9137 20.2011C37.9137 20.2011 38.0525 20.8983 38.0697 21.1346C38.0836 21.3264 38.0538 21.9039 38.0538 21.9039Z" fill="#B1D5DE"/>
<path d="M46.1947 31.0668L41.1995 32.3095C41.1995 32.3095 38.8506 19.8848 40.3655 20.185C43.5737 20.8208 45.4698 28.8132 46.1947 31.0668Z" fill="#AD5E5C"/>
<path d="M31.9985 46.1747C32.6048 42.3632 34.0739 37.3126 34.0141 35.69C33.7935 29.6989 31.9358 25.1844 32.5545 23.0398C32.9877 21.5384 33.687 19.9004 36.4795 19.6174C39.5071 19.3105 41.0823 20.2617 42.3027 21.9698C43.5323 23.6907 43.6617 26.7181 43.8312 29.2276C43.9702 31.2851 44.2462 33.0421 44.2462 33.0421C44.2462 33.0421 47.4071 43.949 47.5024 49.6017C47.5328 51.4034 48.5262 61.8112 48.5262 61.8112C48.5262 61.8112 45.0175 62.9533 40.3309 63.2169C35.6444 63.4806 29.1426 61.1671 29.1426 61.1671C29.1426 61.1671 31.1147 51.73 31.9985 46.1747Z" fill="#C66C67"/>
<path d="M33.166 26.2292C33.166 26.2292 39.8283 37.2399 41.695 38.5655C42.6448 39.24 44.5915 39.5331 45.9718 39.7778C46.1855 40.7126 46.3969 41.6896 46.5913 42.6707C45.2432 42.4972 43.2164 42.3259 41.9923 41.9172C39.7232 41.1595 35.9473 36.7358 34.9599 34.1509C33.9724 31.566 33.166 26.2292 33.166 26.2292Z" fill="#AD5E5C"/>
<path d="M35.0799 22.0906C37.4523 22.0906 39.8346 32.7072 42.1593 34.1913C44.8914 35.9354 49.3438 37.9054 50.2889 39.0029C50.953 39.774 51.0338 40.4517 49.1248 40.7646C47.5272 41.0265 43.835 41.8724 39.8572 38.2748C36.131 34.9047 33.9879 28.1111 33.5041 25.7932C33.1131 23.9194 33.833 22.0906 35.0799 22.0906ZM43.6832 87.2055C44.0831 87.5675 45.7381 89.6903 46.284 89.7515C46.5785 89.7846 46.8159 89.7508 46.9728 89.7127C46.6118 89.4256 46.1952 88.7518 45.808 88.0182C45.5473 87.5243 45.0289 86.6712 44.9793 85.707L42.7335 85.3125C42.7335 85.3125 42.9403 86.7924 42.8973 86.9472C43.1108 86.9439 43.4364 86.9821 43.6832 87.2055Z" fill="#FF867A"/>
<path d="M42.8972 86.9472C43.1106 86.9439 43.4362 86.9821 43.683 87.2055C44.0829 87.5675 45.738 89.6903 46.284 89.7516C46.5784 89.7846 46.8158 89.7509 46.9727 89.7127C47.0422 89.768 47.1099 89.8105 47.1747 89.8346C47.8295 90.0789 48.204 90.3168 48.4168 90.5177C48.6281 90.7174 48.509 91.071 48.2339 91.0688L46.1012 91.0521C45.6594 91.0486 45.2391 90.7728 45.0439 90.3436C44.9498 90.1365 44.8406 89.9339 44.7323 89.8154C44.4435 89.4995 43.9311 89.5525 43.9311 89.5525L44.0135 91.0357L43.335 91.0304C43.361 90.5202 42.9448 88.889 42.7774 88.3175C42.6614 87.9219 42.8006 87.2955 42.8972 86.9472Z" fill="#434A59"/>
<path d="M38.4093 14.3018C38.4276 13.7839 37.9632 12.5055 36.9449 12.5679C36.1296 12.6178 35.3457 13.189 35.0368 13.9739C34.7209 14.7767 34.8671 17.5868 36.3114 17.5079C37.7556 17.429 38.4008 14.5418 38.4093 14.3018Z" fill="#F2C3A7"/>
<path d="M36.0119 16.6372L35.7555 19.7626C35.7226 20.3257 36.9775 21.8462 37.8645 21.1799C38.1242 20.9849 37.8361 20.1927 37.6306 19.5951L37.1373 17.1725L36.0119 16.6372Z" fill="#FF867A"/>
<path d="M36.0178 14.6966C36.0178 14.6966 35.8556 15.5669 35.8962 16.2003C35.956 17.1346 36.4162 17.6171 37.3003 17.7597C37.8877 17.8544 38.4158 17.4705 38.6201 16.8124C38.6822 16.6125 38.7499 16.2823 38.337 15.0327C38.2705 14.8316 38.1751 14.4273 38.1049 14.2904C37.5935 13.2935 36.3442 13.3783 36.0178 14.6966Z" fill="#FF867A"/>
<path d="M36.5034 14.7756C36.6754 14.6284 36.8272 14.5103 37.0932 14.5002C37.1675 14.4973 37.1827 14.5655 37.092 14.5998C36.8419 14.694 36.7613 14.7197 36.5668 14.8505C36.4801 14.9088 36.4033 14.8612 36.5034 14.7756ZM38.0902 14.4994C37.9847 14.4474 37.8556 14.4535 37.7441 14.4627C37.6696 14.4688 37.6278 14.5257 37.7226 14.5446C37.9835 14.5966 37.9799 14.5734 38.1016 14.6121C38.1878 14.6396 38.2106 14.5588 38.0902 14.4994Z" fill="#434A59"/>
<path d="M37.7948 15.5721C37.7948 15.5721 37.8196 15.7591 37.6666 15.8374C37.5136 15.9156 37.4391 15.9113 37.4515 15.8374C37.4639 15.7634 37.5757 15.8034 37.6232 15.7095C37.6707 15.6156 37.6583 15.5199 37.6955 15.5025C37.7328 15.4851 37.7968 15.4947 37.7948 15.5721Z" fill="#C66C67"/>
<path d="M36.8047 15.1589C36.8047 15.2374 36.8473 15.3011 36.8998 15.3011C36.9523 15.3011 36.9949 15.2374 36.9949 15.1589C36.9949 15.0803 36.9523 15.0166 36.8998 15.0166C36.8473 15.0166 36.8047 15.0803 36.8047 15.1589ZM37.92 14.976C37.92 15.0546 37.9625 15.1183 38.0151 15.1183C38.0676 15.1183 38.1102 15.0546 38.1102 14.976C38.1102 14.8974 38.0676 14.8337 38.0151 14.8337C37.9625 14.8337 37.92 14.8974 37.92 14.976Z" fill="#434A59"/>
<path d="M39.9948 29.2762C39.9948 29.2762 39.7541 29.925 37.8204 31.0438C36.3883 31.8723 34.984 32.0049 34.984 32.0049C34.984 32.0049 33.065 26.7468 32.8296 24.493C32.5942 22.2393 33.3924 21.4845 33.8652 21.2102C34.3379 20.936 34.8459 21.1269 35.3307 21.4165C37.0501 22.4439 39.9948 29.2762 39.9948 29.2762ZM42.8937 34.8642C42.8836 34.8642 42.8737 34.861 42.8654 34.8548C41.9013 34.1496 41.5482 33.5421 41.5337 33.5165C41.5271 33.5047 41.5252 33.4905 41.5284 33.4772C41.5316 33.4638 41.5398 33.4524 41.551 33.4453C41.5622 33.4382 41.5756 33.4361 41.5883 33.4393C41.6011 33.4426 41.612 33.451 41.6189 33.4628C41.6224 33.4688 41.9774 34.078 42.9221 34.7691C42.9308 34.7754 42.9374 34.7845 42.9408 34.7951C42.9442 34.8056 42.9444 34.817 42.9412 34.8276C42.938 34.8383 42.9317 34.8475 42.9232 34.8541C42.9146 34.8607 42.9043 34.8642 42.8937 34.8642Z" fill="#C66C67"/>
<path d="M37.0449 16.1424C37.0449 16.1424 37.7505 16.2303 38.1731 15.98C38.1731 15.98 38.1968 16.5484 37.7656 16.5822C37.3345 16.616 37.0449 16.1424 37.0449 16.1424Z" fill="white"/>
<path d="M38.3277 17.3599C38.2065 17.3783 38.0246 17.4047 37.7529 17.4417C37.0579 17.5365 36.2139 17.1855 36.2139 17.1855C36.2139 17.1855 36.3114 17.508 36.6541 18.1658C36.9969 18.8235 37.48 18.8542 37.48 18.8542L37.2555 17.7518C37.2706 17.7545 37.2854 17.7573 37.3007 17.7598C37.6972 17.8237 38.0666 17.6693 38.3277 17.3599Z" fill="#C66C67"/>
<path d="M28.5575 89.9268C28.5575 89.9268 29.3007 89.8253 29.5807 89.0234C29.8606 88.2215 29.9571 87.0543 30.2756 86.7599C30.4321 86.6153 30.5816 86.5077 30.7046 86.4871C30.8085 85.7883 30.9062 85.5601 30.9062 85.5601L28.5177 85.9452C28.5177 85.9452 27.6926 88.6132 27.0967 89.2772C27.0592 89.3191 27.0168 89.3594 26.9707 89.399C27.2014 89.4203 27.6446 89.4845 27.9204 89.673L28.5575 89.9268Z" fill="#FF867A"/>
<path d="M25.4756 90.9555H28.3603C28.5293 90.9555 28.6954 90.9091 28.8422 90.8211C28.989 90.733 29.1115 90.6063 29.1975 90.4533L29.3108 90.2517L29.4395 90.333V90.9555H29.9028C29.9028 90.9555 30.4962 88.3548 30.6235 87.1391C30.65 86.8863 30.6777 86.6708 30.705 86.4873C30.582 86.5079 30.4325 86.6155 30.2761 86.7601C29.9576 87.0545 29.861 88.2217 29.5811 89.0236C29.3012 89.8255 28.5579 89.927 28.5579 89.927L27.9209 89.6732C27.645 89.4847 27.2019 89.4205 26.9711 89.3992C26.5392 89.7706 25.778 90.0749 25.4756 90.9555Z" fill="#434A59"/>
<path d="M37.6463 13.6156C37.6463 13.6156 37.5449 14.1132 37.2788 14.5001C37.0128 14.887 35.936 15.2659 35.936 15.2659C35.936 15.2659 35.6028 15.196 35.6085 14.7376C35.6141 14.2793 36.0952 13.6781 36.5537 13.5293C37.0123 13.3805 37.5114 13.3612 37.6463 13.6156Z" fill="#F2C3A7"/>
<path d="M36.0236 15.4923C35.9739 15.3926 35.9392 15.2864 35.9106 15.1779C35.8564 14.9717 35.7299 14.6787 35.4767 14.9143C35.1084 15.2569 35.4552 16.3383 35.965 16.2802C36.3437 16.237 36.149 15.7435 36.0236 15.4923Z" fill="#FF867A"/>
<path d="M23.5317 22.1882L34.1799 31.1714C34.1799 31.1714 47.493 36.691 47.5609 37.3596C47.6288 38.0283 47.6968 41.1993 44.7081 41.0282C41.7195 40.857 33.3648 37.5357 31.1234 36.6035C28.8819 35.6712 24.906 31.4966 23.5317 28.977C22.1574 26.4573 23.5317 22.1882 23.5317 22.1882Z" fill="#54678C"/>
<path d="M15.1408 14.6833C15.1408 14.6833 14.8175 14.4102 15.0997 14.0432C15.3819 13.6762 15.9061 13.6002 16.3288 13.736C16.7514 13.872 16.804 14.2356 16.804 14.2356C16.804 14.2356 16.7744 13.938 17.1528 14.0439C17.5313 14.1498 17.8025 15.4782 17.4938 16.0124C17.1851 16.5466 16.0678 18.0638 16.0374 18.3387C16.0071 18.6135 15.9839 18.7266 15.8371 18.6307C15.6902 18.5348 15.0953 18.0407 14.8535 17.5404C14.6117 17.04 14.3488 16.6969 14.3499 16.1336C14.351 15.5703 14.6893 15.4035 14.6893 15.4035C14.6893 15.4035 14.3294 14.7921 15.1408 14.6833ZM8.15044 89.2514C8.51032 88.5278 8.52496 87.3618 8.53963 87.3064C8.60295 87.0669 9.13755 86.9836 9.2824 87.5503C9.56797 88.6674 10.6226 87.3202 10.4872 87.7239C10.0844 88.9256 9.97881 90.9673 9.56164 91.0071C8.67292 91.0918 5.26254 91.6738 5.31106 91.1798C5.34017 90.8834 7.91131 89.7321 8.15044 89.2514ZM25.1467 90.3159C24.6643 90.0784 24.6131 89.6201 24.4159 89.1814C24.4025 89.1518 24.3372 88.5275 24.3378 88.4778C24.3404 88.263 23.5557 84.8223 23.2702 85.2621C22.7074 86.129 22.2687 87.6142 22.2914 87.9828C22.3588 89.08 21.9248 90.8099 22.3098 90.9399C23.1298 91.2168 26.9784 91.6151 27.0617 91.1911C27.1116 90.9368 25.9811 90.7267 25.1467 90.3159Z" fill="#434A59"/>
<path d="M13.4305 42.8479C13.5484 42.6268 27.0591 43.2068 27.664 43.7273C27.664 43.7273 26.2701 87.1423 25.4387 87.7728C24.6073 88.4033 22.6343 88.7203 22.1968 87.7319C21.0137 85.0588 20.7253 55.9547 20.9359 51.476C20.6874 52.882 12.727 86.8744 12.0747 87.7319C11.4224 88.5894 9.21311 88.3036 8.45203 87.7319C8.00578 87.3967 10.4662 71.4591 11.3984 59.705C12.174 49.925 12.8168 43.9988 13.4305 42.8479Z" fill="#434A59"/>
<path d="M11.3426 48.7717C11.34 45.654 12.1703 39.4684 12.0723 37.0185C11.7231 28.2892 9.02218 27.0329 10.0035 24.6704C10.8953 22.5232 13.7771 20.3802 16.5504 20.0992C19.5571 19.7944 22.8612 21.0852 24.0599 22.7919C26.2751 25.946 27.6486 37.8118 28.0541 46.1871C28.1717 48.6175 25.8901 49.6538 22.4499 49.9051C22.3503 49.9124 22.1641 48.3558 21.8339 47.1328C21.4883 45.8531 21.0003 44.9042 21.0003 44.9042C21.0003 44.9042 20.3142 49.9029 19.8769 49.9048C15.6402 49.9232 11.3429 49.1164 11.3426 48.7717Z" fill="#529AE3"/>
<path d="M15.3706 20.511C15.3706 20.511 15.0845 21.7955 15.3243 22.5709C15.5641 23.3464 19.7865 34.634 20.3301 35.3961C20.8737 36.1583 21.4535 31.1852 20.5113 26.9362C20.2254 25.6473 19.2363 20.8442 18.2941 20.4441C17.3518 20.0439 15.5028 20.1449 15.3706 20.511Z" fill="white"/>
<path d="M17.8677 20.8425C16.6924 21.4607 15.7628 20.4854 15.6947 20.1029C15.6947 20.1029 15.7599 19.1765 15.7156 18.8334L15.5254 17.3586L16.718 17.7112L16.8847 18.0664L17.016 18.3463L17.4091 19.1838C17.4091 19.1837 18.25 20.6414 17.8677 20.8425Z" fill="#F6BE89"/>
<path d="M18.0858 17.8383C18.0852 17.8392 18.0848 17.8403 18.0847 17.8414C18.0706 17.8797 18.0523 17.9162 18.0301 17.95C17.8974 18.1528 17.6191 18.2768 17.1798 18.3299L17.1782 18.33C17.1618 18.3323 17.145 18.3344 17.1279 18.336C17.0916 18.3399 17.054 18.3432 17.0155 18.3464C16.97 18.3498 16.9232 18.3526 16.875 18.3548C16.7171 18.4027 16.5301 18.3863 16.3446 18.3245C15.8958 18.1748 15.4541 17.7596 15.4424 17.3417L15.4529 17.224L15.5657 15.9534C15.6396 15.3227 15.9619 15.1674 16.438 14.947C16.9224 14.7228 17.0445 15.0072 17.291 15.3686C17.5277 15.7155 17.9248 16.584 18.0966 17.3882C18.134 17.5632 18.1314 17.7128 18.0858 17.8383Z" fill="#F6BE89"/>
<path d="M15.4319 16.7824C15.3326 16.6258 15.1506 16.4173 15.0021 16.6864C14.786 17.0778 15.2634 17.8425 15.6718 17.6482C15.9751 17.5038 15.4841 16.8649 15.4319 16.7824Z" fill="#F6BE89"/>
<path d="M17.0724 16.8166C17.0698 16.829 17.1017 16.8398 17.1455 16.831C17.1912 16.8238 17.2511 16.7962 17.303 16.7337C17.3036 16.7321 17.3047 16.7307 17.306 16.7297C17.3329 16.6949 17.3518 16.654 17.3611 16.6102C17.3738 16.5553 17.3672 16.5078 17.3565 16.4852C17.3505 16.472 17.3449 16.4672 17.3378 16.4692C17.3344 16.4697 17.3313 16.4715 17.3291 16.4742C17.3197 16.4874 17.3102 16.5218 17.294 16.5618C17.281 16.5918 17.2653 16.6248 17.2421 16.6561C17.2401 16.6603 17.2373 16.6632 17.2342 16.6672C17.1986 16.7157 17.1545 16.7469 17.1209 16.7699C17.0912 16.7902 17.0708 16.8033 17.0724 16.8166Z" fill="#DD6478"/>
<path d="M16.8087 17.0926C17.1224 17.103 17.4836 17.0075 17.6189 16.9303C17.6652 16.9039 17.7218 16.935 17.7243 16.9853C17.7703 17.9307 16.9417 17.5764 16.7586 17.2029C16.7321 17.1489 16.7473 17.0905 16.8087 17.0926Z" fill="white"/>
<path d="M15.924 15.9384C16.0649 15.7807 16.1893 15.6554 16.4103 15.6667C16.4721 15.6698 16.4858 15.7512 16.4108 15.7834C16.2043 15.8723 16.1376 15.8953 15.9779 16.0319C15.9067 16.0927 15.8421 16.0302 15.924 15.9384ZM17.4169 15.5316C17.3234 15.4819 17.2185 15.503 17.1284 15.5257C17.0683 15.5409 17.042 15.612 17.1222 15.624C17.3431 15.657 17.3369 15.6302 17.4419 15.6625C17.5164 15.6855 17.5238 15.5883 17.4169 15.5316ZM16.5292 16.1915C16.5407 16.2512 16.52 16.306 16.4829 16.3139C16.4458 16.3218 16.4064 16.2799 16.3948 16.2202C16.3833 16.1605 16.4041 16.1057 16.4412 16.0978C16.4783 16.0899 16.5177 16.1318 16.5292 16.1915ZM17.462 15.9925C17.4735 16.0522 17.4528 16.107 17.4156 16.1149C17.3786 16.1228 17.3391 16.0808 17.3276 16.0212C17.3161 15.9615 17.3368 15.9067 17.3739 15.8988C17.4111 15.8908 17.4505 15.9328 17.462 15.9925Z" fill="#434A59"/>
<path d="M17.1286 18.3359C17.0923 18.3399 17.0547 18.3432 17.0162 18.3464L17.4093 19.1838C16.8717 19.0846 16.5143 18.6441 16.3453 18.3244C16.2593 18.1615 16.222 18.0301 16.2349 17.9908C16.2654 17.898 16.5213 18.1363 16.8513 18.1735C17.5365 18.2509 17.929 18.0538 18.0308 17.95C17.8981 18.1527 17.6198 18.2767 17.1806 18.3298L17.1789 18.33C17.1691 18.3303 17.1593 18.3309 17.1495 18.3311L17.1474 18.3314C17.1383 18.3316 17.1322 18.3333 17.1286 18.3359Z" fill="#FF867A"/>
<path d="M11.7238 22.8016C11.012 21.9165 1.06117 31.9542 1.86116 38.2353C2.64831 44.4154 8.14335 47.6617 12.3042 50.1231C12.795 50.4135 14.4699 47.6368 14.4699 47.6368C14.4699 47.6368 7.64071 40.1124 7.4838 37.4366C7.39707 35.9576 11.7284 29.1442 12.5936 25.2025C12.8522 24.0241 12.1222 23.2971 11.7238 22.8016Z" fill="#529AE3"/>
<path d="M18.0419 20.9755C18.0419 20.9755 18.1756 21.588 18.085 21.6809C17.9944 21.7738 17.5052 21.9834 17.3602 21.8214C17.2153 21.6595 17.034 21.0919 17.0793 20.9755C17.1247 20.8592 17.8266 20.5489 18.0419 20.9755Z" fill="#434A59"/>
<path d="M13.4258 48.1034C13.4258 48.1034 14.815 47.078 15.4675 47.1897C16.12 47.3013 16.7481 47.3245 16.7269 47.6974C16.7185 47.8458 16.2813 47.8287 16.2813 47.8287C16.2813 47.8287 16.963 48.1769 16.9482 48.4449C16.9334 48.7129 16.7922 48.6268 16.7922 48.6268C16.7922 48.6268 17.0631 49.0125 16.6026 49.145C16.1421 49.2775 15.0071 49.2545 14.9405 49.259C14.8738 49.2635 14.0033 49.8164 13.4248 49.3928C12.8462 48.9691 13.007 48.4701 13.4258 48.1034Z" fill="#F6BE89"/>
<path d="M13.6816 48.0283C13.6816 48.0283 14.6348 46.8582 14.8579 46.507C15.0809 46.1557 15.2019 46.1949 15.2396 46.355C15.2774 46.5151 14.9184 47.2976 14.9308 47.4883C14.9432 47.6789 13.6816 48.0283 13.6816 48.0283Z" fill="#F6BE89"/>
<path d="M17.4372 20.6791C17.4372 20.6791 16.6971 20.5444 16.4872 20.4781C16.2772 20.4119 15.7129 19.7927 15.7129 19.7927L15.415 20.3843C15.415 20.3843 16.0239 21.1846 16.4104 21.3723C16.7969 21.56 17.0173 21.5875 17.0331 21.5875C17.0488 21.5875 17.5082 21.0332 17.5856 21.0427C17.663 21.0522 18.4398 21.3888 18.4188 21.284C18.3978 21.1791 18.1043 20.2574 18.0306 20.158C17.9569 20.0587 17.7381 19.6521 17.7187 19.7927C17.6464 20.3181 17.4372 20.6791 17.4372 20.6791Z" fill="white"/>
<path d="M21.0113 44.66C21.0122 44.66 21.013 44.66 21.0139 44.6599C21.0215 44.6596 21.029 44.6577 21.0359 44.6543C21.0427 44.6509 21.0489 44.6462 21.0541 44.6403C21.0592 44.6344 21.0632 44.6275 21.0658 44.62C21.0684 44.6125 21.0696 44.6045 21.0693 44.5965C21.0663 44.5226 20.7678 37.1888 20.732 35.8707C20.7311 35.8371 20.7038 35.8117 20.6725 35.8115C20.6571 35.812 20.6426 35.8188 20.632 35.8306C20.6215 35.8423 20.6158 35.858 20.6162 35.8741C20.6521 37.1931 20.9506 44.5278 20.9536 44.6017C20.9549 44.6345 20.9805 44.66 21.0113 44.66Z" fill="#54678C"/>
<path d="M18.3413 26.9029C18.0831 25.3881 17.4375 21.8221 17.4375 21.8221L18.015 21.7007C18.015 21.7007 20.1399 27.0887 20.6745 28.875C20.7946 29.2766 20.89 29.7485 20.9626 30.248C21.1575 33.3636 20.734 35.9623 20.3301 35.3961C20.1804 35.1862 19.7264 34.1901 19.1425 32.8419C18.9642 31.4136 18.5419 28.0799 18.3413 26.9029Z" fill="#434A59"/>
<path d="M7.37424 40.0682C7.3824 40.0682 7.39048 40.0664 7.39793 40.0629C7.40538 40.0594 7.41205 40.0543 7.41748 40.0479C7.42292 40.0415 7.427 40.0339 7.42947 40.0258C7.43194 40.0176 7.43273 40.0089 7.4318 40.0004C7.42964 39.9803 7.21942 37.9749 7.66262 36.6853C7.66705 36.6703 7.66582 36.6541 7.65918 36.6401C7.65254 36.626 7.64101 36.6152 7.62699 36.6099C7.61296 36.6045 7.59752 36.6051 7.58388 36.6114C7.57024 36.6178 7.55944 36.6294 7.55373 36.6439C7.10126 37.9605 7.3146 39.9938 7.31682 40.0142C7.32013 40.0452 7.34516 40.0682 7.37424 40.0682ZM10.9318 29.7123C10.9482 29.7123 10.9645 29.7049 10.976 29.6907C11.5969 28.9205 12.7254 26.0615 12.7731 25.9402C12.776 25.9328 12.7776 25.9248 12.7776 25.9168C12.7776 25.9088 12.7761 25.9008 12.7732 25.8934C12.7703 25.886 12.7661 25.8792 12.7607 25.8736C12.7553 25.8679 12.7489 25.8634 12.7418 25.8603C12.7348 25.8573 12.7272 25.8557 12.7196 25.8557C12.7119 25.8557 12.7044 25.8573 12.6973 25.8604C12.6903 25.8635 12.6839 25.8681 12.6786 25.8738C12.6732 25.8795 12.6689 25.8862 12.6661 25.8937C12.6544 25.9232 11.4968 28.8563 10.8876 29.612C10.8805 29.6209 10.8759 29.6317 10.8744 29.6432C10.8729 29.6547 10.8746 29.6665 10.8792 29.677C10.8839 29.6875 10.8913 29.6965 10.9006 29.7027C10.9099 29.709 10.9207 29.7123 10.9318 29.7123Z" fill="#54678C"/>
<path d="M20.1304 42.7995C20.2305 42.7995 20.3116 42.6331 20.3116 42.4279C20.3116 42.2227 20.2305 42.0564 20.1304 42.0564C20.0303 42.0564 19.9492 42.2227 19.9492 42.4279C19.9492 42.6331 20.0303 42.7995 20.1304 42.7995Z" fill="white"/>
<path d="M67.0981 32.4536C67.0981 32.4536 63.26 34.8012 60.6033 36.1346C58.6382 37.1208 54.7245 37.9613 52.8198 38.3322C52.8008 39.4509 52.8175 40.3714 52.8853 40.9628C52.9237 41.2971 53.2019 41.6068 53.6641 41.8794C56.2039 41.3339 61.8824 39.9851 63.4278 38.5351C65.4371 36.6499 67.0981 32.4536 67.0981 32.4536Z" fill="#CE4949"/>
<path d="M19.5917 37.4004C19.6334 37.6009 19.7465 37.7452 19.8442 37.7226C19.942 37.7001 19.9874 37.5194 19.9457 37.3189C19.9039 37.1185 19.7908 36.9742 19.6931 36.9967C19.5954 37.0193 19.5499 37.2 19.5917 37.4004Z" fill="white"/>
<path d="M46.2548 38.541C46.2548 38.541 46.1995 39.9035 46.968 40.4113C47.7365 40.9191 48.009 41.9601 48.3793 41.9628C48.7495 41.9656 48.1424 40.8802 48.1595 40.625C48.1766 40.3699 49.3027 40.9187 50.3548 41.0337C51.555 41.1648 50.5109 40.5233 50.5109 40.5233C50.5109 40.5233 51.4707 40.5255 51.3058 39.9057C51.1409 39.286 50.2893 39.0029 50.2893 39.0029C50.2893 39.0029 50.6785 38.9331 50.0683 38.523C49.4581 38.1128 46.849 37.0219 46.2548 38.541Z" fill="#FF867A"/>
<path d="M66.204 21.0773C64.5372 23.2605 61.9085 31.6115 61.9085 31.6115C61.9085 31.6115 51.0265 37.0234 51.3244 38.7853C51.6222 40.5472 52.9355 40.6901 54.5658 40.4044C56.196 40.1186 63.9094 37.7197 65.8417 34.9796C67.7739 32.2395 68.964 25.7578 68.7055 23.0397C68.4901 20.7737 66.9675 20.0772 66.204 21.0773Z" fill="#FF5F4A"/>
<path d="M51.5622 37.9311C51.5622 37.9311 50.2687 37.5558 49.9267 37.5781C49.5846 37.6004 47.7692 38.5837 47.8184 38.7064C47.9482 39.0303 49.2959 38.4004 49.2959 38.4004C49.2959 38.4004 48.0811 39.1754 48.1269 39.3756C48.1728 39.5759 48.2844 39.5928 48.2844 39.5928C48.2844 39.5928 48.2384 39.7784 48.4234 39.9039C48.5396 39.9826 49.6741 39.6206 49.6741 39.6206C49.6741 39.6206 49.2075 39.8386 48.9737 40.069C48.7399 40.2995 49.6401 39.9917 50.0533 39.9183C50.4665 39.8448 51.2876 40.1619 52.0738 40.0468C52.8601 39.9317 53.2452 39.585 53.2215 39.335C53.1977 39.0851 52.146 38.0894 51.5622 37.9311Z" fill="#FF867A"/>
<path d="M55.9106 37.0498C55.9106 37.0498 53.3083 37.1246 52.9904 37.2592C52.6724 37.3937 51.2443 38.9286 51.3277 39.0287C51.5481 39.2931 52.6383 38.2486 52.6383 38.2486C52.6383 38.2486 51.7176 39.3867 51.8212 39.5616C51.9247 39.7364 52.0357 39.7155 52.0357 39.7155C52.0357 39.7155 52.0477 39.9069 52.2609 39.9646C52.3947 40.0008 53.3629 39.2813 53.3629 39.2813C53.3629 39.2813 52.9854 39.6428 52.8326 39.9389C52.6798 40.2351 53.4419 39.6447 53.812 39.438C54.1822 39.2314 55.0202 39.1704 55.768 38.8903C56.7161 38.5352 56.7413 38.0638 56.6439 37.8345C56.5464 37.6051 56.5121 37.0065 55.9106 37.0498Z" fill="#FF867A"/>
<path d="M53.5028 36.5639C53.4771 36.564 53.4521 36.555 53.4318 36.5385C53.4115 36.522 53.3969 36.4989 53.3905 36.4728C53.384 36.4466 53.386 36.419 53.3961 36.3941C53.4062 36.3693 53.4238 36.3487 53.4463 36.3356C53.5194 36.2927 60.7671 32.0432 61.6831 31.4612C62.0549 31.225 62.7335 29.11 63.3897 27.0647C64.3405 24.1013 65.3236 21.037 66.1581 20.6617C66.1721 20.6551 66.1872 20.6515 66.2026 20.6512C66.218 20.6508 66.2333 20.6536 66.2476 20.6595C66.2619 20.6654 66.2749 20.6743 66.286 20.6855C66.297 20.6968 66.3058 20.7102 66.3119 20.7251C66.3179 20.7399 66.3211 20.7559 66.3212 20.7721C66.3213 20.7882 66.3184 20.8043 66.3125 20.8192C66.3067 20.8342 66.2981 20.8478 66.2872 20.8592C66.2764 20.8706 66.2634 20.8797 66.2492 20.8858C65.5102 21.2182 64.4563 24.5031 63.6094 27.1426C62.765 29.7744 62.226 31.4011 61.803 31.6698C60.8836 32.254 53.6323 36.5056 53.5591 36.5485C53.5419 36.5586 53.5225 36.5639 53.5028 36.5639Z" fill="#CE4949"/>
<path d="M53.8322 41.7175C53.8322 41.7175 52.4314 40.7466 52.1849 40.9908C51.9384 41.235 52.0519 41.5622 52.0141 41.7144C51.9762 41.8666 51.8444 42.1564 51.8209 42.3867C51.7974 42.6171 52.0477 43.0038 52.0109 43.1968C51.9742 43.3898 51.9091 44.0276 51.9494 44.301C51.9896 44.5744 52.8174 44.9187 53.1715 44.654C53.5254 44.3893 53.0571 44.0795 53.0571 44.0795C53.0571 44.0795 53.5593 43.5925 53.5859 43.3625C53.6125 43.1326 53.8107 43.3759 53.8235 42.768C53.825 42.6953 52.6575 41.8717 52.6575 41.8717C52.6575 41.8717 53.5469 42.3419 53.781 42.2193C54.0151 42.0966 53.8322 41.7175 53.8322 41.7175Z" fill="#FF867A"/>
<path d="M78.2675 17.0051C78.2675 17.0051 78.3582 15.615 79.6468 15.8724C80.9354 16.1297 80.7851 18.3885 81.8799 19.18C82.9747 19.9715 86.8099 23.9262 87.0097 24.5024C87.2095 25.0785 86.9366 25.8653 86.5462 26.7279C86.1559 27.5905 87.4901 28.3604 87.3229 29.2686C87.1557 30.1767 85.6928 31.7689 83.2227 30.6908C80.7526 29.6127 79.8817 29.1171 78.8983 26.6771C77.9149 24.2371 77.9253 24.107 76.6958 21.8143C75.4664 19.5216 76.6215 17.3236 78.2675 17.0051Z" fill="#543732"/>
<path d="M76.6888 86.7653C76.3178 87.1413 74.8382 89.3267 74.293 89.4043C73.9989 89.4461 73.7564 89.419 73.5947 89.3851C73.9332 89.0856 74.2932 88.3951 74.6182 87.6451C74.8369 87.1403 74.9546 86.4808 74.9183 85.5085L76.6305 85.5298C76.9886 85.5342 77.2964 85.7961 77.3774 86.1629C77.4088 86.3053 77.439 86.4302 77.4583 86.4824C77.2428 86.4853 76.9178 86.5332 76.6888 86.7653Z" fill="#FF867A"/>
<path d="M72.2103 90.2376C72.4069 90.0292 72.7634 89.7787 73.4021 89.5138C73.4652 89.4876 73.5297 89.4428 73.5948 89.3852C73.7565 89.419 73.999 89.4461 74.2931 89.4043C74.8383 89.3267 76.3179 87.1414 76.6889 86.7653C76.9179 86.5332 77.2429 86.4853 77.4584 86.4824C77.5871 86.8303 77.7834 87.4569 77.7019 87.8587C77.5842 88.439 77.3103 90.0935 77.3821 90.6064L76.6982 90.6315L76.6487 89.1357C76.6487 89.1357 76.127 89.0971 75.864 89.4236C75.7653 89.546 75.6733 89.7532 75.5968 89.9644C75.4383 90.4023 75.0391 90.6922 74.5938 90.7085L72.444 90.7872C72.1667 90.7973 72.0149 90.4448 72.2103 90.2376Z" fill="#404859"/>
<path d="M86.5977 86.7653C86.9687 87.1413 88.4483 89.3267 88.9935 89.4043C89.2876 89.4461 89.5301 89.419 89.6917 89.3851C89.3532 89.0855 88.9933 88.3951 88.6683 87.6451C88.4496 87.1403 87.9247 85.8141 87.7599 84.77H86.0233C85.6652 84.7744 85.99 85.796 85.9091 86.1628C85.8776 86.3053 85.8475 86.4302 85.8281 86.4824C86.0437 86.4852 86.3687 86.5332 86.5977 86.7653Z" fill="#FF867A"/>
<path d="M91.0763 90.2376C90.8797 90.0292 90.5232 89.7787 89.8845 89.5138C89.8213 89.4876 89.7569 89.4428 89.6917 89.3852C89.53 89.419 89.2876 89.4461 88.9935 89.4043C88.4483 89.3267 86.9687 87.1414 86.5977 86.7653C86.3687 86.5332 86.0437 86.4853 85.8281 86.4824C85.6995 86.8303 85.5031 87.4569 85.5846 87.8587C85.7024 88.439 85.9763 90.0935 85.9045 90.6064L86.5884 90.6315L86.6379 89.1357C86.6379 89.1357 87.1595 89.0971 87.4226 89.4236C87.5213 89.546 87.6133 89.7532 87.6897 89.9644C87.8482 90.4023 88.2475 90.6922 88.6928 90.7085L90.8426 90.7872C91.1198 90.7973 91.2716 90.4448 91.0763 90.2376Z" fill="#404859"/>
<path d="M88.6448 85.8259C88.6448 85.8259 85.3372 55.002 85.1324 52.7378C84.9766 51.0154 84.8972 47.3155 84.7095 45.7113C84.3927 43.004 83.517 39.9972 82.8238 37.4831C76.5054 39.1829 72.0091 37.2025 70.8615 36.6067C68.4486 42.8782 69.0616 46.3512 69.2694 50.0235C69.9167 61.461 71.7557 73.932 74.5165 86.06C74.6884 86.8152 77.4575 85.6875 77.4575 85.6875C77.2525 83.9329 76.8746 72.8891 76.1808 63.4368C76.1237 62.6589 76.0024 49.5198 76.2204 47.9283C76.8038 53.924 85.0859 85.7783 85.0859 85.7783C85.0859 85.7783 85.9093 86.1782 86.9589 86.1351C88.088 86.0886 88.6448 85.8259 88.6448 85.8259Z" fill="#4C87C2"/>
<path d="M83.5183 40.0102C81.6073 40.1199 73.819 40.543 72.3621 40.2428C71.3497 40.0343 70.3785 39.7869 69.7729 39.625C69.6411 40.0194 69.7656 39.8332 69.6504 40.2045C70.3825 40.5255 72.7521 41.5999 77.5043 41.7488C81.3351 41.8688 83.0783 42.0715 84.0137 41.9614C83.8577 41.3046 83.6895 40.6509 83.5183 40.0102Z" fill="#54678C"/>
<path d="M84.1582 40.6488C83.9183 39.7787 82.3658 35.8015 82.2004 35.0824C81.7763 33.2385 82.0877 30.796 82.506 28.6079C82.7222 27.4772 82.7805 26.2041 82.4607 25.309C81.8341 23.5551 79.2552 22.1738 79.2552 22.1738C77.2227 21.5259 74.534 23.1122 73.5809 24.8738C73.0865 25.7877 72.7781 29.1415 71.9099 32.573C71.1046 35.7559 69.7378 39.0154 69.2697 40.2165C69.2226 40.3375 77.8398 42.3486 84.1582 40.6488Z" fill="#E7F2F2"/>
<path d="M79.6711 20.0708L79.6885 22.0178L79.7752 22.5776C79.7614 22.9891 78.5765 23.9955 77.9807 23.4465C77.8063 23.2858 77.9072 22.7255 78.0952 22.3063L78.8093 20.187L79.6711 20.0708Z" fill="#FF867A"/>
<path d="M78.4014 21.4L78.7114 20.4799L79.4363 20.3613C79.4363 20.3613 79.1874 21.4161 78.4014 21.4Z" fill="#C66C67"/>
<path d="M79.8226 19.2775C79.9757 20.0309 79.4002 20.7844 78.6715 20.8649C77.7627 20.9653 77.3121 20.7793 77.3076 19.8885C77.305 19.3662 77.7395 18.419 77.9126 18.0528C78.115 17.6245 78.4828 17.4248 78.8335 17.4768C79.1666 17.5263 79.8226 19.2775 79.8226 19.2775Z" fill="#FF867A"/>
<path d="M78.1995 19.2379C78.1004 19.1921 78.0193 19.1268 77.9514 19.0382C77.8999 18.9711 77.811 19.067 77.8619 19.1334C77.9352 19.2291 78.0293 19.3049 78.1363 19.3542C78.2106 19.3885 78.2744 19.2725 78.1995 19.2379Z" fill="#C66C67"/>
<path d="M78.7972 18.6482C78.7841 18.6425 78.7444 18.6223 78.7114 18.6676C78.6866 18.7016 78.667 18.7483 78.6643 18.7931C78.6612 18.8454 78.7057 18.8861 78.7537 18.8778C78.8202 18.8662 78.8853 18.6857 78.7972 18.6482ZM77.9748 18.4803C77.9617 18.4747 77.922 18.4545 77.889 18.4997C77.8643 18.5338 77.8446 18.5805 77.842 18.6253C77.8388 18.6775 77.8833 18.7183 77.9313 18.7099C77.9979 18.6984 78.0629 18.5179 77.9748 18.4803Z" fill="#402823"/>
<path d="M78.5755 19.6905C78.4239 19.6462 78.0471 19.5428 77.6351 19.4794C77.6279 19.4782 77.6206 19.4787 77.6137 19.4807C77.6067 19.4828 77.6002 19.4864 77.5946 19.4912C77.589 19.4961 77.5845 19.5021 77.5813 19.5089C77.5781 19.5157 77.5763 19.5232 77.576 19.5308C77.5725 19.6257 77.5774 19.8114 77.6578 19.9204C77.815 20.1336 78.225 20.3093 78.603 19.7757C78.6247 19.745 78.6105 19.7007 78.5755 19.6905Z" fill="white"/>
<path d="M79.7489 19.199C79.7986 19.1314 79.8379 19.0567 79.8729 18.9797C79.9396 18.8332 80.0708 18.6318 80.2289 18.8426C80.4587 19.1492 80.0632 19.9091 79.6919 19.7954C79.4162 19.711 79.6238 19.3693 79.7489 19.199Z" fill="#FF867A"/>
<path d="M78.8007 18.3114C78.912 18.3625 79.0262 18.4364 79.1136 18.5278C79.1551 18.5713 79.0926 18.6339 79.0512 18.5905C78.9762 18.512 78.8729 18.4441 78.7772 18.4002C78.7247 18.3761 78.7475 18.287 78.8007 18.3114ZM77.8434 18.146C77.9166 18.1642 77.9881 18.1891 78.0596 18.2147C78.1142 18.2342 78.091 18.323 78.0362 18.3034C77.9647 18.2779 77.8932 18.2529 77.82 18.2347C77.7642 18.2209 77.7878 18.1321 77.8434 18.146Z" fill="#543732"/>
<path d="M77.931 22.8078C77.931 22.8078 76.5576 25.2238 76.6192 25.5471C76.6808 25.8703 79.6014 22.93 79.6111 22.9176C79.6207 22.9052 78.7019 22.1522 77.931 22.8078Z" fill="#FF867A"/>
<path d="M81.4871 28.8091L71.8186 32.9251C71.5633 33.8878 71.2618 34.8501 70.9541 35.7535C72.0731 35.2331 77.1012 32.8708 78.7473 31.677C80.6039 30.3306 81.4871 28.8091 81.4871 28.8091Z" fill="#B1D5DE"/>
<path d="M73.1299 41.1126L74.3831 39.625L75.0348 41.4816L73.1299 41.1126ZM76.3441 48.4029C76.3084 48.4029 76.2739 48.3893 76.2469 48.3648C76.2199 48.3402 76.2021 48.3063 76.1969 48.2691C75.8988 46.1478 74.0091 44.3752 73.99 44.3575C73.9612 44.3298 73.9438 44.2913 73.9417 44.2503C73.9396 44.2093 73.9529 44.1691 73.9787 44.1382C74.0045 44.1074 74.0408 44.0885 74.0797 44.0855C74.1187 44.0825 74.1572 44.0957 74.187 44.1223C74.2681 44.1974 76.1775 45.9868 76.4918 48.2233C76.4949 48.2456 76.4934 48.2684 76.4875 48.29C76.4815 48.3116 76.4711 48.3317 76.4571 48.3487C76.4431 48.3658 76.4257 48.3794 76.4063 48.3888C76.3868 48.3981 76.3656 48.403 76.3441 48.4029Z" fill="#54678C"/>
<path d="M80.6497 24.8328C78.7014 25.0066 73.7266 28.6585 73.7266 28.6585C73.7277 29.6059 73.9229 31.7115 75.5742 32.3357C78.7159 30.5722 81.7458 28.9553 81.9403 28.6585C83.7517 25.8945 81.6113 24.7471 80.6497 24.8328Z" fill="#E7F2F2"/>
<path d="M73.7263 28.6587L68.815 31.3727C68.815 31.3727 54.4597 36.6801 54.7767 38.23C55.0937 39.7798 65.0763 36.9284 69.6501 35.2141C71.4252 34.5487 73.5812 33.4544 75.5739 32.3359C73.9227 31.7117 73.7275 29.606 73.7263 28.6587Z" fill="#FF867A"/>
<path d="M87.7607 85.1807C87.7257 85.1806 87.6918 85.1676 87.665 85.144C87.6382 85.1203 87.6202 85.0875 87.6141 85.0512C87.5603 84.7319 86.2976 77.2063 86.2525 75.1563C86.2076 73.1107 84.6373 59.0838 84.0122 55.1447C83.4068 51.3293 82.1456 41.6006 82.1329 41.5028C82.1303 41.4824 82.1315 41.4617 82.1365 41.4418C82.1415 41.4219 82.1501 41.4032 82.162 41.3868C82.1738 41.3704 82.1886 41.3567 82.2055 41.3463C82.2224 41.3359 82.2411 41.3292 82.2605 41.3264C82.2799 41.3236 82.2996 41.3249 82.3185 41.3301C82.3374 41.3354 82.3552 41.3445 82.3708 41.3569C82.3864 41.3694 82.3995 41.3849 82.4093 41.4027C82.4192 41.4205 82.4256 41.4401 82.4283 41.4605C82.4409 41.5583 83.7015 51.2824 84.3062 55.0931C84.9323 59.0389 86.5054 73.0968 86.5505 75.1491C86.595 77.1754 87.8945 84.9187 87.9076 84.9967C87.9114 85.0192 87.9104 85.0424 87.9048 85.0645C87.8992 85.0866 87.889 85.1072 87.875 85.1247C87.861 85.1423 87.8435 85.1564 87.8237 85.1661C87.804 85.1757 87.7824 85.1807 87.7607 85.1807ZM76.345 84.5616C76.3103 84.5616 76.2767 84.5488 76.25 84.5255C76.2233 84.5022 76.2052 84.4698 76.1988 84.4339C76.1146 83.9634 74.8191 68.6601 74.7728 65.0259C74.7263 61.3757 74.7049 56.9272 74.7084 54.5948C74.7118 52.2857 74.885 46.7879 74.8867 46.7327C74.8873 46.7121 74.8918 46.6918 74.8998 46.673C74.9079 46.6542 74.9194 46.6373 74.9337 46.6232C74.948 46.6091 74.9648 46.5981 74.9831 46.5908C75.0015 46.5835 75.021 46.5801 75.0406 46.5808C75.0602 46.5815 75.0795 46.5863 75.0973 46.5948C75.1152 46.6033 75.1312 46.6155 75.1446 46.6305C75.158 46.6456 75.1684 46.6633 75.1753 46.6826C75.1821 46.7019 75.1853 46.7225 75.1846 46.7431C75.1828 46.7983 75.0099 52.2912 75.0064 54.5954C75.0029 56.9266 75.0243 61.373 75.0708 65.0217C75.1171 68.6479 76.4079 83.9072 76.4917 84.376C76.4957 84.3987 76.495 84.422 76.4895 84.4443C76.484 84.4666 76.4739 84.4873 76.4598 84.5051C76.4458 84.5228 76.4283 84.5371 76.4084 84.5468C76.3886 84.5566 76.3669 84.5617 76.345 84.5616Z" fill="#54678C"/>
<path d="M9.25086 86.5743C9.23874 86.5743 9.22677 86.5715 9.21579 86.5662C9.20481 86.5608 9.19509 86.5529 9.1873 86.5432C9.17952 86.5334 9.17388 86.5219 9.17076 86.5096C9.16764 86.4973 9.16713 86.4844 9.16926 86.4719C9.18496 86.3798 10.743 77.2339 11.101 74.6305C11.3815 72.5904 12.1092 64.7064 12.544 59.9959C12.6686 58.6458 12.767 57.5794 12.8214 57.015C13.0603 54.5342 13.5943 50.4183 13.5996 50.377C13.6027 50.3542 13.6143 50.3337 13.6317 50.3198C13.6492 50.306 13.6711 50.2999 13.6928 50.303C13.7145 50.3062 13.7341 50.3182 13.7474 50.3364C13.7606 50.3547 13.7665 50.3777 13.7637 50.4006C13.7583 50.4418 13.2247 54.5548 12.9861 57.0325C12.9318 57.5965 12.8334 58.6628 12.7088 60.0127C12.2738 64.7248 11.5459 72.6112 11.2648 74.6554C10.9065 77.2617 9.34792 86.4105 9.33226 86.5027C9.32883 86.5227 9.3188 86.5409 9.30392 86.554C9.28904 86.5671 9.27026 86.5743 9.25086 86.5743ZM19.3041 52.1266C19.2854 52.1267 19.2672 52.12 19.2525 52.1078C19.2379 52.0956 19.2276 52.0785 19.2233 52.0594C19.2191 52.0402 19.2211 52.0201 19.2291 52.0023C19.2371 51.9846 19.2506 51.9702 19.2674 51.9615C19.289 51.9503 21.4484 50.8414 23.1985 50.8414C23.2205 50.8414 23.2415 50.8506 23.2571 50.8669C23.2726 50.8832 23.2813 50.9054 23.2813 50.9285C23.2813 50.9515 23.2726 50.9737 23.2571 50.99C23.2415 51.0063 23.2205 51.0155 23.1985 51.0155C21.4866 51.0155 19.3619 52.1066 19.3406 52.1177C19.3293 52.1236 19.3167 52.1266 19.3041 52.1266ZM22.655 87.619C22.6349 87.619 22.6156 87.6113 22.6005 87.5974C22.5854 87.5835 22.5757 87.5644 22.573 87.5435C22.5712 87.5292 22.3914 86.113 22.3321 85.7697C22.2907 85.5306 22.1527 80.4332 22.0149 75.2326C21.9753 73.7394 21.9467 72.6606 21.9384 72.424C21.9314 72.2154 21.9246 72.0068 21.9181 71.7982C21.8567 69.8619 21.6697 63.9697 21.4859 61.9527C21.2764 59.6555 21.6329 52.1111 21.6365 52.0352C21.637 52.0238 21.6397 52.0126 21.6444 52.0022C21.649 51.9919 21.6555 51.9826 21.6636 51.9749C21.6717 51.9672 21.6811 51.9613 21.6914 51.9575C21.7016 51.9537 21.7125 51.952 21.7234 51.9526C21.7342 51.9532 21.7449 51.956 21.7547 51.9609C21.7645 51.9658 21.7733 51.9727 21.7806 51.9812C21.7879 51.9897 21.7936 51.9996 21.7972 52.0103C21.8009 52.0211 21.8025 52.0325 21.8019 52.0439C21.7983 52.1197 21.4423 59.6514 21.6507 61.9361C21.8351 63.9585 22.0222 69.8548 22.0836 71.7924C22.0931 72.0909 22.1 72.3074 22.1039 72.4175C22.1123 72.6549 22.1408 73.7341 22.1804 75.2277C22.2755 78.8151 22.4525 85.4924 22.4951 85.7386C22.5551 86.0858 22.7298 87.462 22.7372 87.5205C22.7388 87.5328 22.7378 87.5453 22.7344 87.5572C22.731 87.5691 22.7252 87.58 22.7174 87.5894C22.7096 87.5987 22.7 87.6062 22.6892 87.6113C22.6785 87.6164 22.6668 87.6191 22.655 87.619Z" fill="#272C33"/>
</svg>
