<svg width="12" height="15" viewBox="0 0 12 15" fill="none" xmlns="http://www.w3.org/2000/svg">
<path opacity="0.5" d="M6.49352 10.9642C6.76538 10.9642 7.03114 10.8853 7.25719 10.7374C7.48324 10.5895 7.65943 10.3793 7.76346 10.1334C7.8675 9.88748 7.89473 9.61688 7.84169 9.35581C7.78865 9.09474 7.65773 8.85494 7.46549 8.66672C7.27325 8.4785 7.02833 8.35032 6.76168 8.29839C6.49504 8.24646 6.21866 8.27311 5.96748 8.37497C5.71631 8.47684 5.50163 8.64934 5.35059 8.87066C5.19955 9.09198 5.11893 9.35219 5.11893 9.61837C5.11988 9.97503 5.26501 10.3168 5.52259 10.569C5.78017 10.8212 6.12925 10.9633 6.49352 10.9642ZM10.6173 4.90836H9.93043V3.56163C9.93043 2.66928 9.56837 1.81348 8.92391 1.18249C8.27945 0.551506 7.40537 0.197021 6.49397 0.197021C5.58256 0.197021 4.70848 0.551506 4.06402 1.18249C3.41956 1.81348 3.05751 2.66928 3.05751 3.56163V4.90748H2.36976C2.00549 4.90841 1.65641 5.0505 1.39884 5.30269C1.14126 5.55489 0.99613 5.89667 0.995178 6.25332V12.9825C0.99613 13.3392 1.14126 13.681 1.39884 13.9332C1.65641 14.1854 2.00549 14.3275 2.36976 14.3284H10.6173C10.9815 14.3275 11.3306 14.1854 11.5882 13.9332C11.8458 13.681 11.9909 13.3392 11.9919 12.9825V6.25332C11.9909 5.89667 11.8458 5.55489 11.5882 5.30269C11.3306 5.0505 10.9815 4.90841 10.6173 4.90748V4.90836ZM4.36268 3.56163C4.35685 3.28411 4.40765 3.00823 4.51209 2.75017C4.61653 2.4921 4.77252 2.25704 4.97092 2.05875C5.16933 1.86046 5.40615 1.70293 5.66752 1.59539C5.92889 1.48784 6.20955 1.43245 6.49306 1.43245C6.77658 1.43245 7.05724 1.48784 7.31861 1.59539C7.57998 1.70293 7.8168 1.86046 8.0152 2.05875C8.21361 2.25704 8.3696 2.4921 8.47404 2.75017C8.57848 3.00823 8.62928 3.28411 8.62344 3.56163V4.90748H4.36268V3.56163ZM10.6173 12.9825H2.36976V6.25332H10.6173V12.9825Z" fill="#393F45"/>
</svg>
