<svg width="35" height="35" viewBox="0 0 35 35" fill="none" xmlns="http://www.w3.org/2000/svg">
<rect width="35" height="35" rx="7" fill="#00A2FF"/>
<path d="M24.4784 8.27583C24.383 8.27607 24.2892 8.25069 24.2069 8.20233C21.9417 6.98959 19.9832 6.47509 17.6353 6.47509C15.2991 6.47509 13.0809 7.05084 11.0632 8.20233C10.7779 8.36362 10.4262 8.25133 10.2608 7.95529C10.187 7.81241 10.1704 7.64678 10.2143 7.49206C10.2582 7.33734 10.3593 7.20513 10.4972 7.12229C12.6732 5.8881 15.1336 5.24279 17.6353 5.25009C20.1481 5.25009 22.3429 5.82584 24.75 7.11209C24.8904 7.18931 24.995 7.31849 25.0413 7.47193C25.0876 7.62537 25.0719 7.79084 24.9975 7.93283C24.9529 8.03365 24.8802 8.11954 24.7882 8.18033C24.6962 8.24112 24.5887 8.27426 24.4784 8.27583ZM7.59442 14.7071C7.47183 14.7062 7.35246 14.6677 7.25245 14.5968C7.12232 14.5001 7.0348 14.3567 7.00834 14.1967C6.98187 14.0368 7.01851 13.8728 7.11055 13.7393C8.27889 12.0243 9.76471 10.6768 11.5353 9.73358C15.2399 7.75113 19.9832 7.73683 23.6996 9.72133C25.4697 10.6646 26.956 11.9998 28.1243 13.7026C28.216 13.8362 28.2524 14 28.226 14.1599C28.1995 14.3197 28.1123 14.4631 27.9824 14.5601C27.9195 14.6071 27.8475 14.6408 27.771 14.6589C27.6945 14.6771 27.6151 14.6793 27.5377 14.6655C27.4603 14.6518 27.3865 14.6222 27.3209 14.5788C27.2554 14.5354 27.1995 14.479 27.1566 14.4131C26.0949 12.8696 24.75 11.6568 23.157 10.8116C19.7709 9.01083 15.4405 9.01083 12.0662 10.8238C10.4614 11.6813 9.11648 12.9063 8.05482 14.4478C8.00904 14.5289 7.94194 14.5959 7.86078 14.6416C7.77963 14.6873 7.68752 14.71 7.59442 14.7071ZM14.9684 29.4948C14.8904 29.4956 14.8132 29.4795 14.7419 29.4478C14.6707 29.4161 14.6071 29.3695 14.5555 29.3111C13.529 28.2433 12.9727 27.5552 12.1841 26.075C11.3674 24.5683 10.9453 22.7308 10.9453 20.7585C10.9453 17.1203 13.9419 14.1558 17.6236 14.1558C21.3052 14.1558 24.3039 17.1203 24.3039 20.7585C24.3062 20.8375 24.2927 20.916 24.2641 20.9896C24.2355 21.0632 24.1924 21.1303 24.1374 21.1869C24.0824 21.2436 24.0166 21.2886 23.9439 21.3193C23.8712 21.3501 23.793 21.3659 23.7141 21.3659C23.6352 21.3659 23.557 21.3501 23.4843 21.3193C23.4116 21.2886 23.3458 21.2436 23.2908 21.1869C23.2358 21.1303 23.1927 21.0632 23.1641 20.9896C23.1355 20.916 23.122 20.8375 23.1243 20.7585C23.1243 17.7941 20.658 15.3808 17.6261 15.3808C14.5943 15.3808 12.1254 17.7941 12.1254 20.7585C12.1254 22.5225 12.5026 24.1518 13.2223 25.4748C13.9777 26.8835 14.4983 27.4838 15.4053 28.4393C15.5129 28.5582 15.5724 28.7128 15.5724 28.8731C15.5724 29.0335 15.5129 29.1881 15.4053 29.307C15.2895 29.4238 15.1329 29.4912 14.9684 29.4948ZM23.4285 27.2286C22.0244 27.2286 20.7856 26.8611 19.7709 26.1383C18.9064 25.5324 18.2001 24.7276 17.7116 23.7917C17.2231 22.8558 16.9665 21.8163 16.9636 20.7606C16.9603 20.681 16.9731 20.6016 17.0013 20.5272C17.0294 20.4527 17.0724 20.3847 17.1275 20.3272C17.1826 20.2698 17.2488 20.2241 17.322 20.1928C17.3952 20.1616 17.474 20.1455 17.5536 20.1455C17.6333 20.1455 17.7121 20.1616 17.7853 20.1928C17.8585 20.2241 17.9247 20.2698 17.9798 20.3272C18.0349 20.3847 18.0779 20.4527 18.106 20.5272C18.1342 20.6016 18.147 20.681 18.1437 20.7606C18.1457 21.6181 18.3548 22.4624 18.7533 23.2217C19.1518 23.981 19.7278 24.6328 20.4324 25.1216C21.27 25.7096 22.2495 25.9893 23.4295 25.9893C23.8405 25.982 24.2502 25.941 24.6545 25.8668C24.973 25.8055 25.2798 26.026 25.3385 26.369C25.3684 26.5273 25.3343 26.691 25.2437 26.8242C25.1531 26.9574 25.0133 27.0492 24.8551 27.0795C24.3851 27.1724 23.9076 27.2216 23.4285 27.2265V27.2286ZM21.0566 29.75C21.0048 29.7479 20.9534 29.7396 20.9035 29.7255C19.0272 29.1865 17.8002 28.4638 16.5139 27.153C14.8617 25.4503 13.9537 23.184 13.9537 20.7585C13.9537 18.7741 15.5819 17.1571 17.5873 17.1571C19.5928 17.1571 21.2215 18.7741 21.2215 20.7585C21.2215 22.0693 22.3189 23.135 23.6756 23.135C25.0322 23.135 26.1296 22.0693 26.1296 20.7585C26.1296 16.1403 22.2949 12.3918 17.5756 12.3918C14.2247 12.3918 11.1571 14.3273 9.77696 17.3286C9.31758 18.3208 9.08075 19.4846 9.08075 20.7585C9.08075 21.714 9.16293 23.2208 9.87087 25.1808C9.98929 25.4993 9.83566 25.8545 9.5289 25.9648C9.45599 25.9925 9.37823 26.0053 9.30028 26.0022C9.22233 25.9992 9.1458 25.9804 9.07529 25.947C9.00478 25.9137 8.94174 25.8664 8.88997 25.808C8.83819 25.7497 8.79874 25.6815 8.77399 25.6075C8.20471 24.0542 7.91307 22.4129 7.91241 20.7585C7.91241 19.2886 8.18395 17.9513 8.71478 16.7896C10.2843 13.3698 13.7648 11.1546 17.5756 11.1546C22.9441 11.1546 27.3097 15.4543 27.3097 20.7463C27.3097 22.7308 25.6815 24.3478 23.6756 24.3478C21.6696 24.3478 20.0414 22.7308 20.0414 20.7463C20.0419 19.4356 18.9445 18.3678 17.5878 18.3678C16.2312 18.3678 15.1338 19.4335 15.1338 20.7443C15.1338 22.837 15.9127 24.799 17.3403 26.269C18.4632 27.4205 19.5351 28.0554 21.1985 28.5352C21.517 28.621 21.6941 28.964 21.6114 29.2825C21.5857 29.4118 21.5167 29.5285 21.4159 29.6134C21.3151 29.6984 21.1884 29.7465 21.0566 29.75Z" fill="white"/>
</svg>
