<svg width="76" height="76" viewBox="0 0 76 76" fill="none" xmlns="http://www.w3.org/2000/svg">
<circle cx="38" cy="38" r="38" fill="#D1EEFF"/>
<g clip-path="url(#clip0_1506_820)">
<path d="M38.9162 16.9908C39.0148 17.0346 39.1024 17.0893 39.2009 17.1331C39.8469 17.4395 40.2192 17.9428 40.252 18.665C40.2739 19.2121 40.263 19.7592 40.252 20.3063C40.252 20.5361 40.3177 20.6346 40.5586 20.6784C45.6609 21.6085 49.4602 25.2741 50.5114 30.3295C50.6866 31.1939 50.7303 32.0912 50.7522 32.9775C50.796 34.8267 50.7194 36.676 50.8289 38.5143C51.026 41.6547 52.3727 44.2809 54.7158 46.3818C55.3947 46.9836 55.9093 47.662 55.9859 48.5921C56.1502 50.4414 54.8691 51.8858 53.0078 51.9842C52.8983 51.9952 52.7888 51.9842 52.6793 51.9842C43.2302 51.9842 33.7701 51.9842 24.321 51.9842C23.2261 51.9842 22.3064 51.645 21.6276 50.7697C20.6093 49.4675 20.8173 47.673 22.1422 46.5131C23.3028 45.4955 24.2335 44.3246 24.9451 42.9569C25.843 41.228 26.2481 39.3678 26.2481 37.431C26.2481 35.7459 26.2262 34.0717 26.259 32.3866C26.3685 26.631 30.6934 21.6194 36.376 20.6784C36.6936 20.6237 36.7812 20.5033 36.7702 20.2078C36.7483 19.8796 36.7921 19.5513 36.7593 19.223C36.6607 18.1398 37.0658 17.3738 38.0951 16.9689C38.3688 16.9908 38.6425 16.9908 38.9162 16.9908Z" fill="#0599F4"/>
<path d="M37.7664 59.0092C36.9671 58.7466 36.124 58.5715 35.3904 58.1885C33.6714 57.3022 32.6203 55.8469 32.1166 53.9867C32.1057 53.932 32.1057 53.8773 32.0947 53.7897C36.3649 53.7897 40.6241 53.7897 44.9161 53.7897C44.7738 54.5776 44.4672 55.2998 44.0293 55.9673C42.9344 57.6305 41.4015 58.6372 39.4197 58.9436C39.354 58.9545 39.2992 58.9873 39.2336 59.0092C38.7518 59.0092 38.2591 59.0092 37.7664 59.0092Z" fill="#0599F4"/>
</g>
<defs>
<clipPath id="clip0_1506_820">
<rect width="35" height="42" fill="white" transform="translate(21 17)"/>
</clipPath>
</defs>
</svg>
