<svg width="15" height="17" viewBox="0 0 15 17" fill="none" xmlns="http://www.w3.org/2000/svg">
<path d="M4.42021 11.4883C4.42021 11.1231 4.11494 10.8243 3.74694 10.8284C3.38731 10.8326 3.09041 11.1272 3.08622 11.4842C3.08204 11.8494 3.38313 12.1524 3.75113 12.1524C4.11912 12.1524 4.42021 11.8536 4.42021 11.4883Z" fill="white"/>
<path d="M6.92924 11.4924C6.92924 11.1272 6.62815 10.8284 6.26016 10.8284C5.90053 10.8284 5.59944 11.123 5.59526 11.48C5.59108 11.8452 5.88798 12.1482 6.25598 12.1523C6.62397 12.1565 6.92924 11.8577 6.92924 11.4924Z" fill="white"/>
<path d="M8.76504 12.1524C9.13303 12.1565 9.4383 11.8536 9.4383 11.4883C9.4383 11.1314 9.14558 10.8326 8.78177 10.8243C8.41377 10.816 8.10432 11.1148 8.10014 11.48C8.09596 11.8453 8.39705 12.1482 8.76504 12.1524Z" fill="white"/>
<path d="M11.3201 10.8284C10.9521 10.8243 10.6469 11.1231 10.6427 11.4883C10.6427 11.8453 10.9354 12.1441 11.2951 12.1565C11.663 12.1648 11.9725 11.8702 11.9809 11.5049C11.9892 11.1355 11.6881 10.8326 11.3201 10.8284Z" fill="white"/>
<path d="M7.8324 0C8.17949 0.0788574 8.53494 0.128662 8.86948 0.244873C10.4753 0.805176 11.504 2.25366 11.5124 3.94702C11.5165 4.64429 11.5124 5.34155 11.5124 6.03882C11.5124 6.10107 11.5124 6.15918 11.5124 6.24219C11.7591 6.24219 11.9933 6.24634 12.2316 6.24219C12.5871 6.23804 12.93 6.29199 13.2645 6.4165C14.2472 6.77759 14.9623 7.73633 14.9874 8.77808C15.0083 9.63721 14.9958 10.4922 14.9916 11.3513C14.9874 11.7332 14.6947 12.0195 14.3267 12.0195C13.9503 12.0195 13.6576 11.7332 13.6576 11.3389C13.6534 10.542 13.6576 9.74512 13.6534 8.94824C13.6492 8.29663 13.2812 7.80273 12.6665 7.62842C12.5285 7.59106 12.3822 7.57446 12.2358 7.57446C9.07439 7.57031 5.91297 7.57031 2.75155 7.57446C1.9152 7.57446 1.3423 8.14307 1.3423 8.97314C1.33811 10.7454 1.33811 12.5134 1.3423 14.2856C1.3423 15.1074 1.9152 15.676 2.74319 15.676C5.90879 15.6802 9.07857 15.676 12.2442 15.676C13.0554 15.676 13.5949 15.1614 13.6534 14.3438C13.6785 14.0159 13.8542 13.7917 14.1511 13.7087C14.4187 13.6382 14.7114 13.7253 14.8578 13.9578C14.933 14.0781 14.9874 14.2358 14.9874 14.3728C14.9958 15.6387 14.0047 16.7759 12.7418 16.9626C12.7 16.9709 12.6582 16.9875 12.6163 16.9958C9.20402 16.9958 5.7917 16.9958 2.37937 16.9958C2.35847 16.9875 2.34174 16.9709 2.32083 16.9668C1.06212 16.8215 -0.0167793 15.7092 -5.21998e-05 14.2441C0.0208566 12.4968 0.00412957 10.7495 0.00831134 9.0022C0.00831134 8.79468 0.0208566 8.57886 0.0626743 8.37549C0.317762 7.13452 1.37575 6.26709 2.65119 6.24634C2.923 6.24219 3.19482 6.24634 3.48336 6.24634C3.48336 6.17163 3.48336 6.10938 3.48336 6.05127C3.48336 5.34985 3.47918 4.64429 3.48336 3.94287C3.49173 2.25781 4.51626 0.809326 6.1137 0.249023C6.45242 0.128662 6.81205 0.0788574 7.16332 0C7.38914 0 7.61077 0 7.8324 0ZM10.17 6.23389C10.1742 6.19653 10.1742 6.16748 10.1742 6.14258C10.1742 5.38306 10.1826 4.62769 10.1658 3.86816C10.1616 3.61914 10.1198 3.35767 10.0404 3.12109C9.63056 1.88013 8.37185 1.15381 7.0295 1.36548C5.75406 1.5647 4.82571 2.65625 4.82153 3.95947C4.82153 4.64014 4.82153 5.3208 4.82153 6.00147C4.82153 6.07617 4.82153 6.15088 4.82153 6.23389C6.61133 6.23389 8.38021 6.23389 10.17 6.23389Z" fill="#9C9FA2"/>
<path d="M4.42021 11.4883C4.42021 11.8536 4.11912 12.1524 3.75113 12.1524C3.38313 12.1524 3.08204 11.8494 3.08622 11.4842C3.09041 11.1272 3.38731 10.8326 3.74694 10.8284C4.11494 10.8243 4.42021 11.1231 4.42021 11.4883Z" fill="#9C9FA2"/>
<path d="M6.92925 11.4925C6.92925 11.8577 6.62398 12.1565 6.25598 12.1524C5.88799 12.1482 5.5869 11.8453 5.59526 11.48C5.59944 11.1231 5.90053 10.8284 6.26017 10.8284C6.62816 10.8243 6.92925 11.1272 6.92925 11.4925Z" fill="#9C9FA2"/>
<path d="M8.76504 12.1524C8.39705 12.1482 8.09596 11.8453 8.10014 11.48C8.10432 11.1148 8.41377 10.8201 8.78177 10.8243C9.1414 10.8326 9.4383 11.1314 9.4383 11.4883C9.4383 11.8536 9.13303 12.1565 8.76504 12.1524Z" fill="#9C9FA2"/>
<path d="M11.3201 10.8284C11.6881 10.8326 11.9851 11.1397 11.9809 11.5049C11.9725 11.8702 11.6631 12.1648 11.2951 12.1565C10.9354 12.1482 10.6427 11.8494 10.6427 11.4883C10.6469 11.1189 10.9522 10.8243 11.3201 10.8284Z" fill="#9C9FA2"/>
</svg>
