<svg width="16" height="16" viewBox="0 0 16 16" fill="none" xmlns="http://www.w3.org/2000/svg">
<path id="Vector" d="M16 10.7336C16 11.0138 16 11.2983 16 11.5786C15.9917 11.6204 15.9792 11.658 15.975 11.6999C15.9292 12.2729 15.8875 12.846 15.8458 13.4191C15.8083 13.9169 15.6625 14.3812 15.3583 14.7869C14.8958 15.406 14.2542 15.7239 13.5208 15.8745C13.1875 15.9414 12.8417 15.9623 12.5042 16.0042C12.4208 16.0042 12.3375 16.0042 12.2542 16.0042C12.1833 15.9958 12.1083 15.9874 12.0375 15.9791C11.6417 15.9289 11.2375 15.908 10.8458 15.8285C9.34167 15.5357 7.9625 14.9333 6.66667 14.1218C5.6375 13.4735 4.73333 12.6787 3.875 11.817C2.91667 10.8507 2.0875 9.79659 1.42917 8.60025C0.795833 7.44993 0.329167 6.23686 0.116667 4.93594C0.0708333 4.6515 0.0375 4.36705 0 4.08261C0 3.80235 0 3.5179 0 3.23764C0.00833333 3.2 0.0208333 3.15817 0.0291667 3.12052C0.104167 2.7566 0.141667 2.38431 0.254167 2.03712C0.583333 1.0332 1.2375 0.363919 2.29167 0.179866C2.74167 0.100389 3.2 0.0752913 3.65833 0.0501933C4.20833 0.0209123 4.7625 -0.0125518 5.30833 0.00836327C5.90417 0.0334613 6.23333 0.35137 6.3625 0.93699C6.37917 1.01228 6.39167 1.09176 6.4 1.16706C6.52083 2.27973 6.775 3.35895 7.22083 4.38379C7.43333 4.86901 7.35 5.30823 7.00833 5.70562C6.725 6.03189 6.44583 6.36235 6.15833 6.68862C6.08333 6.77228 6.06667 6.85176 6.1125 6.96052C6.69167 8.32836 7.6625 9.303 9.025 9.88862C9.13333 9.93463 9.21667 9.92627 9.30833 9.84261C9.6125 9.57071 9.925 9.31555 10.225 9.03947C10.6542 8.64208 11.1167 8.58352 11.6667 8.79267C12.275 9.02692 12.9042 9.22771 13.5333 9.39084C14.0042 9.51215 14.4958 9.54561 14.9792 9.62927C15.55 9.72967 15.8542 10.0267 15.9542 10.5621C15.9708 10.6248 15.9833 10.6792 16 10.7336ZM12.3833 14.9919C12.9125 14.9835 13.4833 14.925 14.0125 14.6489C14.4583 14.4104 14.75 14.0507 14.8167 13.5404C14.8667 13.1597 14.8958 12.7707 14.9208 12.3859C14.9542 11.8965 14.9792 11.407 14.9917 10.9135C14.9958 10.6541 14.9667 10.6332 14.7083 10.6039C13.5 10.4701 12.3333 10.194 11.2167 9.70038C11.1125 9.65437 11.0333 9.6711 10.9458 9.7464C10.6042 10.0476 10.2625 10.3446 9.91667 10.6374C9.54583 10.9553 9.125 11.0138 8.67917 10.8256C7.04167 10.1354 5.875 8.96418 5.18333 7.32026C4.9875 6.85594 5.05833 6.43346 5.3875 6.04862C5.67083 5.72235 5.95 5.38771 6.2375 5.06562C6.33333 4.95686 6.34583 4.86483 6.29167 4.72679C6.0125 4.07006 5.775 3.39241 5.6375 2.68967C5.54167 2.20444 5.475 1.71085 5.40417 1.22143C5.38333 1.06248 5.32083 0.974637 5.15 0.97882C5 0.983003 4.84583 0.966271 4.69583 0.974637C4.05833 1.02902 3.41667 1.07921 2.77083 1.12941C1.9375 1.19215 1.44167 1.58117 1.18333 2.38013C0.941667 3.12888 0.958333 3.89437 1.07917 4.65986C1.30833 6.13646 1.88333 7.48339 2.67083 8.74666C3.25417 9.68365 3.97917 10.4993 4.75 11.2816C5.9375 12.4863 7.275 13.4567 8.81667 14.1386C9.9375 14.628 11.0958 14.9626 12.3833 14.9919Z" fill="#9C9FA2"/>
</svg>
