<svg width="32" height="32" viewBox="0 0 32 32" fill="none" xmlns="http://www.w3.org/2000/svg">
<path d="M0.118983 18.7108C0.288071 18.4209 0.537677 18.3323 0.867801 18.3323C10.6749 18.3404 20.4739 18.3404 30.281 18.3323C30.6192 18.3323 30.8688 18.4209 31.0299 18.7108C31.0299 20.6593 31.0299 22.6159 31.0299 24.5644C30.8769 24.8543 30.6434 24.9509 30.3132 24.9509C20.482 24.9429 10.6588 24.9429 0.827542 24.9509C0.497418 24.9509 0.263916 24.8543 0.110931 24.5644C0.118983 22.6159 0.118983 20.6593 0.118983 18.7108ZM10.5058 21.6416C10.8198 21.4323 11.1097 21.2471 11.3835 21.0538C11.7216 20.8203 11.8022 20.5144 11.617 20.2326C11.4318 19.9507 11.1097 19.9185 10.7715 20.1359C10.5461 20.2809 10.3287 20.4258 10.063 20.6029C10.063 20.3694 10.071 20.2004 10.063 20.0313C10.0469 19.6689 9.82141 19.4354 9.50739 19.4354C9.19337 19.4354 8.96792 19.6689 8.95181 20.0313C8.94376 20.2084 8.95181 20.3775 8.95181 20.5546C8.89545 20.5546 8.8874 20.5546 8.87935 20.5546C8.66195 20.4097 8.44455 20.2648 8.22715 20.1279C7.90508 19.9266 7.583 19.9669 7.40587 20.2406C7.22067 20.5144 7.30119 20.8284 7.61521 21.0458C7.90508 21.2471 8.19494 21.4403 8.52507 21.6577C8.21105 21.8671 7.92118 22.0603 7.63132 22.2536C7.30924 22.471 7.22067 22.7769 7.39781 23.0507C7.58301 23.3406 7.90508 23.3889 8.24325 23.1715C8.4687 23.0265 8.6861 22.8736 8.94376 22.7045C9.01623 23.1715 8.79883 23.8237 9.50739 23.8398C10.2482 23.8559 10.0146 23.1795 10.1113 22.7125C10.3609 22.8736 10.5783 23.0265 10.8118 23.1715C11.1419 23.3808 11.4479 23.3406 11.6331 23.0668C11.8263 22.785 11.7458 22.479 11.4157 22.2455C11.1097 22.0442 10.8198 21.851 10.5058 21.6416ZM21.0617 22.6964C21.1583 23.1634 20.9168 23.8317 21.6576 23.8237C22.3661 23.8076 22.1487 23.1634 22.2212 22.7367C22.2534 22.7367 22.2775 22.7286 22.2936 22.7367C22.4949 22.8655 22.6962 23.0024 22.8975 23.1312C23.2599 23.3647 23.5819 23.3245 23.7671 23.0346C23.9443 22.7528 23.8557 22.4468 23.5095 22.2133C23.2277 22.0201 22.9458 21.8349 22.6399 21.6336C22.809 21.5128 22.9539 21.4242 23.0908 21.3276C23.2438 21.231 23.3967 21.1344 23.5417 21.0297C23.8476 20.8123 23.9282 20.4902 23.751 20.2245C23.5658 19.9507 23.2518 19.9105 22.9297 20.1118C22.6962 20.2567 22.4708 20.4178 22.197 20.5949C22.197 20.3694 22.2051 20.2004 22.197 20.0313C22.1809 19.6689 21.9635 19.4354 21.6495 19.4354C21.3355 19.4354 21.11 19.6609 21.0939 20.0232C21.0859 20.2004 21.0939 20.3694 21.0939 20.6029C20.8121 20.4097 20.5947 20.2487 20.3612 20.1198C20.2163 20.0474 20.015 19.9588 19.8942 20.0071C19.7251 20.0796 19.548 20.2487 19.4755 20.4178C19.3789 20.6352 19.5077 20.8525 19.701 20.9894C20.0069 21.2068 20.321 21.4081 20.6511 21.6336C20.329 21.8429 20.0472 22.0362 19.7654 22.2294C19.4272 22.4629 19.3467 22.7689 19.5399 23.0507C19.7251 23.3245 20.0391 23.3647 20.3612 23.1554C20.5947 23.0185 20.8121 22.8655 21.0617 22.6964ZM2.4379 21.6416C2.11583 21.851 1.83402 22.0442 1.5522 22.2375C1.21403 22.4629 1.13351 22.7769 1.32675 23.0587C1.52 23.3406 1.82597 23.3728 2.17219 23.1473C2.39764 23.0024 2.61504 22.8494 2.8888 22.6723C2.8888 22.9058 2.8888 23.0748 2.8888 23.2439C2.89686 23.6143 3.1062 23.8398 3.42022 23.8478C3.75035 23.8559 3.9758 23.6143 3.98385 23.2439C3.9919 23.0748 3.98385 22.8977 3.98385 22.6803C4.25761 22.8655 4.47501 23.0104 4.69241 23.1554C5.03864 23.3808 5.35266 23.3406 5.53785 23.0587C5.72304 22.785 5.62642 22.4629 5.30434 22.2375C5.02253 22.0442 4.74072 21.859 4.4267 21.6497C4.74877 21.4403 5.03863 21.2471 5.3285 21.0458C5.63447 20.8364 5.72304 20.5063 5.5459 20.2406C5.36071 19.9669 5.04669 19.9185 4.72462 20.1198C4.49111 20.2728 4.26566 20.4258 3.98385 20.611C3.98385 20.3694 3.9919 20.1843 3.98385 19.991C3.96775 19.6609 3.73424 19.4354 3.42827 19.4354C3.12231 19.4354 2.90491 19.6689 2.8888 20.0071C2.88075 20.1923 2.8888 20.3775 2.8888 20.611C2.59089 20.4178 2.36544 20.2567 2.12388 20.1118C1.81791 19.9185 1.50389 19.9669 1.32675 20.2326C1.13351 20.5063 1.20598 20.8203 1.52 21.0377C1.80986 21.231 2.10778 21.4162 2.4379 21.6416ZM16.5769 21.6416C16.746 21.5289 16.8909 21.4323 17.0278 21.3357C17.1808 21.239 17.3337 21.1424 17.4787 21.0377C17.7846 20.8203 17.8652 20.4983 17.68 20.2326C17.4948 19.9588 17.1808 19.9185 16.8587 20.1279C16.6252 20.2809 16.3997 20.4339 16.1179 20.619C16.1179 20.3775 16.126 20.2004 16.1179 20.0232C16.1018 19.677 15.8764 19.4354 15.5543 19.4435C15.2483 19.4515 15.0309 19.685 15.0229 20.0232C15.0148 20.2084 15.0229 20.3855 15.0229 20.619C14.8538 20.5063 14.7491 20.4339 14.6364 20.3614C14.5156 20.2809 14.4029 20.2004 14.2821 20.1279C13.96 19.9266 13.646 19.9669 13.4608 20.2406C13.2756 20.5063 13.3561 20.8284 13.6621 21.0458C13.952 21.2471 14.2418 21.4403 14.5639 21.6577C14.258 21.859 13.9761 22.0523 13.6943 22.2375C13.3561 22.4629 13.2676 22.7769 13.4447 23.0507C13.638 23.3486 13.9439 23.3808 14.3143 23.1473C14.5398 23.0024 14.7572 22.8574 15.0148 22.6884C15.0148 22.938 15.0068 23.1151 15.0148 23.3003C15.0309 23.6385 15.2483 23.8559 15.5623 23.8559C15.8683 23.8559 16.0938 23.6304 16.1099 23.2922C16.1179 23.1071 16.1099 22.9219 16.1099 22.6803C16.3917 22.8655 16.6091 23.0185 16.8345 23.1634C17.1727 23.3808 17.4948 23.3325 17.68 23.0507C17.8491 22.7769 17.7685 22.4629 17.4545 22.2455C17.1888 22.0442 16.8989 21.859 16.5769 21.6416ZM27.7045 23.8478C28.2359 23.8478 28.7673 23.8478 29.2987 23.8478C29.6772 23.8478 29.9187 23.6224 29.9187 23.3003C29.9187 22.9782 29.6691 22.7528 29.2907 22.7528C28.2359 22.7528 27.1811 22.7528 26.1263 22.7528C25.7398 22.7528 25.5063 22.9621 25.5144 23.3003C25.5144 23.6385 25.7479 23.8398 26.1344 23.8478C26.6658 23.8478 27.1891 23.8478 27.7045 23.8478Z" fill="#EC0B8D"/>
<path d="M25.2971 31.03C18.8154 31.03 12.3337 31.03 5.85195 31.03C5.77949 30.9978 5.71507 30.9656 5.64261 30.9334C4.98236 30.6757 4.57172 30.1845 4.54756 29.484C4.5073 28.3648 4.53951 27.2537 4.53951 26.1345C4.53951 26.1184 4.56367 26.1023 4.57172 26.0862C11.915 26.0862 19.2502 26.0862 26.6095 26.0862C26.6095 27.2537 26.6337 28.397 26.6015 29.5404C26.5854 30.0557 26.3035 30.4744 25.8607 30.7562C25.6835 30.869 25.4823 30.9334 25.2971 31.03Z" fill="#00A2FF"/>
<path d="M16.2386 0.111084C16.8827 0.247965 17.543 0.344586 18.171 0.53783C21.4642 1.57651 23.7992 4.74087 23.8395 8.18704C23.8556 9.16131 23.8395 10.1356 23.8395 11.134C23.1148 11.134 22.4062 11.134 21.6574 11.134C21.6494 11.0213 21.6413 10.9086 21.6413 10.7958C21.6333 9.82156 21.6574 8.83924 21.6011 7.87302C21.4481 5.19177 19.2419 2.80844 16.5848 2.4139C13.1306 1.89053 10.0789 4.08867 9.57168 7.55095C9.42674 8.55742 9.50726 9.59611 9.49116 10.6267C9.49116 10.7958 9.49116 10.9649 9.49116 11.1501C8.75039 11.1501 8.04183 11.1501 7.33327 11.1501C7.31717 11.134 7.30107 11.1179 7.30107 11.1018C7.32522 9.52364 7.15613 7.94549 7.53457 6.38344C8.33975 3.0822 11.2706 0.513674 14.6443 0.175498C14.7329 0.167447 14.8214 0.143291 14.91 0.119136C15.3529 0.111084 15.7957 0.111084 16.2386 0.111084Z" fill="#00A2FF"/>
<path d="M4.54761 17.1889C4.53955 17.1004 4.5315 17.0118 4.5315 16.9232C4.5315 15.949 4.52345 14.9747 4.5315 13.9924C4.53955 12.9537 5.24006 12.2532 6.27874 12.2532C12.4786 12.2532 18.6705 12.2532 24.8704 12.2532C25.909 12.2532 26.6095 12.9617 26.6176 14.0004C26.6257 15.0552 26.6176 16.11 26.6176 17.197C19.2583 17.1889 11.915 17.1889 4.54761 17.1889ZM6.74575 14.4674C7.11613 14.4674 7.46236 14.4755 7.80053 14.4674C8.16287 14.4513 8.38832 14.2339 8.39637 13.9199C8.39637 13.5978 8.17897 13.3724 7.81664 13.3643C7.29327 13.3482 6.7699 13.3482 6.24654 13.3643C5.852 13.3724 5.6507 13.5817 5.64265 13.9682C5.6346 14.4835 5.6346 14.9908 5.64265 15.5061C5.6507 15.8926 5.8681 16.118 6.20628 16.118C6.5364 16.11 6.74575 15.8765 6.7538 15.49C6.7538 15.1679 6.74575 14.8459 6.74575 14.4674Z" fill="#00A2FF"/>
</svg>
