<svg width="76" height="79" viewBox="0 0 76 79" fill="none" xmlns="http://www.w3.org/2000/svg">
<path opacity="0.25" d="M38.1957 79C53.9883 79 66.7908 76.8662 66.7908 74.2341C66.7908 71.602 53.9883 69.4683 38.1957 69.4683C22.403 69.4683 9.60057 71.602 9.60057 74.2341C9.60057 76.8662 22.403 79 38.1957 79Z" fill="#DEE6F1"/>
<path d="M38.4115 74.2122C58.3524 74.2122 74.5176 58.0469 74.5176 38.1061C74.5176 18.1652 58.3524 2 38.4115 2C18.4707 2 2.30546 18.1652 2.30546 38.1061C2.30546 58.0469 18.4707 74.2122 38.4115 74.2122Z" fill="white"/>
<path d="M43.9005 68.4345C37.2615 68.4346 30.7509 66.6044 25.0844 63.1449C19.418 59.6854 14.815 54.7307 11.7814 48.8253C8.74773 42.9198 7.40095 36.2924 7.88903 29.6713C8.37711 23.0502 10.6812 16.6919 14.5479 11.2952C10.7527 14.6626 7.71008 18.7925 5.61861 23.4152C3.52714 28.0379 2.43381 33.0496 2.40995 38.1234C2.38608 43.1972 3.43223 48.219 5.48013 52.8611C7.52803 57.5033 10.5317 61.6616 14.2951 65.0646C18.0585 68.4676 22.4971 71.0389 27.3213 72.6108C32.1455 74.1827 37.2469 74.7197 42.2927 74.187C47.3385 73.6542 52.2152 72.0636 56.6048 69.519C60.9944 66.9743 64.7981 63.5327 67.7679 59.4188C61.1811 65.2397 52.6907 68.4469 43.9005 68.4345Z" fill="#DEE6F1"/>
<path d="M56.8968 7.48291C58.0639 8.20217 59.1892 8.98715 60.2672 9.83406" stroke="#374449" stroke-width="3.5" stroke-miterlimit="10"/>
<path d="M71.0796 22.262C61.7232 24.9664 50.6182 26.5474 38.7023 26.5474C26.7864 26.5474 15.6788 24.9664 6.32246 22.262C7.04688 20.7959 7.87065 19.3811 8.788 18.0273C17.6055 20.315 27.8133 21.6265 38.6997 21.6265C49.5862 21.6265 59.7966 20.3175 68.6089 18.0273C69.5291 19.3803 70.3546 20.7952 71.0796 22.262Z" fill="#FF6174"/>
<path d="M10.5538 18.466C9.94688 19.9174 9.43739 21.4076 9.02874 22.9268C8.12132 22.7006 7.21136 22.4795 6.33953 22.2253C7.06176 20.7734 7.88035 19.3714 8.78981 18.0288C9.37104 18.1762 9.95904 18.322 10.5538 18.466Z" fill="#FF6174"/>
<path d="M70.3553 22.4058C61.0207 25.06 49.9414 26.5976 38.0531 26.5976C26.1648 26.5976 15.083 25.06 5.75091 22.4058C6.47365 20.9684 7.2955 19.5812 8.21072 18.2539C17.0077 20.4968 27.1919 21.7828 38.0531 21.7828C48.9143 21.7828 59.101 20.4993 67.893 18.2539C68.8101 19.5805 69.6329 20.9678 70.3553 22.4058Z" stroke="#FF6174" stroke-width="0.1" stroke-miterlimit="10"/>
<path d="M65.9881 15.4626C71.4729 22.2266 74.3212 30.7488 74.0055 39.4514C73.6899 48.154 70.2317 56.4474 64.2713 62.7963C58.3108 69.1451 50.2519 73.1193 41.5865 73.983C32.9211 74.8466 24.2363 72.5413 17.14 67.4938C10.0437 62.4463 5.01656 54.9986 2.98942 46.5295C0.962276 38.0604 2.07241 29.1437 6.11427 21.4302C10.1561 13.7167 16.856 7.72891 24.9733 4.57551C33.0906 1.42212 42.0756 1.31668 50.2646 4.27872" stroke="#374449" stroke-width="2.5" stroke-miterlimit="10"/>
<path d="M25.9812 40.6442C25.981 41.6473 25.5856 42.6098 24.8806 43.3233C24.5235 42.9583 24.097 42.6683 23.6263 42.4703C23.1555 42.2724 22.65 42.1704 22.1393 42.1704C21.6286 42.1704 21.1231 42.2724 20.6524 42.4703C20.1816 42.6683 19.7552 42.9583 19.398 43.3233C18.9563 42.8733 18.6321 42.3216 18.454 41.7167C18.2758 41.1119 18.2493 40.4725 18.3766 39.855C18.5039 39.2374 18.7812 38.6607 19.1841 38.1756C19.5869 37.6906 20.1029 37.3121 20.6866 37.0735C21.2702 36.835 21.9036 36.7437 22.5309 36.8077C23.1582 36.8717 23.76 37.0891 24.2835 37.4407C24.8069 37.7923 25.2358 38.2672 25.5323 38.8237C25.8288 39.3801 25.9839 40.001 25.9838 40.6315L25.9812 40.6442Z" fill="#374449"/>
<path d="M57.247 40.6442C57.2468 41.6473 56.8514 42.6098 56.1464 43.3233C55.7892 42.9583 55.3628 42.6683 54.892 42.4703C54.4213 42.2724 53.9157 42.1704 53.4051 42.1704C52.8944 42.1704 52.3889 42.2724 51.9181 42.4703C51.4474 42.6683 51.0209 42.9583 50.6638 43.3233C50.2221 42.8733 49.8978 42.3216 49.7197 41.7167C49.5416 41.1119 49.515 40.4725 49.6423 39.855C49.7697 39.2374 50.047 38.6607 50.4498 38.1756C50.8527 37.6906 51.3687 37.3121 51.9523 37.0735C52.536 36.835 53.1694 36.7437 53.7966 36.8077C54.4239 36.8717 55.0258 37.0891 55.5492 37.4407C56.0726 37.7923 56.5015 38.2672 56.798 38.8237C57.0946 39.3801 57.2496 40.001 57.2495 40.6315L57.247 40.6442Z" fill="#374449"/>
<path d="M32.7295 57.5197C33.6188 56.3967 34.7477 55.4866 36.0338 54.8559C39.2085 53.3308 41.9892 55.044 44.0633 57.5197C45.0114 58.6482 46.6203 57.0113 45.6799 55.9031C43.2347 52.9826 39.6762 51.0178 35.8559 52.4742C33.997 53.1783 32.3573 54.3612 31.1027 55.9031C30.2004 57.0469 31.8068 58.6762 32.7193 57.5197H32.7295Z" fill="#374449"/>
<path d="M53.8982 30.3085C54.6429 32.5962 55.5097 34.8838 57.5507 36.325C58.4534 36.9431 59.4813 37.3546 60.5611 37.5304C61.641 37.7061 62.7463 37.6417 63.7984 37.3417C65.2167 36.9502 64.6143 34.744 63.1909 35.1354C62.4273 35.3588 61.6222 35.4017 60.8392 35.2605C60.0562 35.1193 59.3168 34.7981 58.6793 34.322C57.2203 33.2113 56.6458 31.3685 56.1044 29.6985C55.6494 28.3056 53.4406 28.9004 53.8982 30.306V30.3085Z" fill="#374449"/>
<path d="M19.4369 29.7015C18.9032 31.3765 18.3211 33.2117 16.8697 34.325C16.2321 34.8008 15.4927 35.122 14.7097 35.2632C13.9267 35.4043 13.1217 35.3616 12.3581 35.1384C10.9372 34.7469 10.3246 36.9532 11.7506 37.3446C12.8027 37.6448 13.908 37.7093 14.9879 37.5336C16.0678 37.3579 17.0956 36.9462 17.9983 36.3279C20.0317 34.8918 20.9061 32.5966 21.6508 30.3115C22.1083 28.9084 19.8995 28.3086 19.4446 29.704L19.4369 29.7015Z" fill="#374449"/>
</svg>
