<svg width="14" height="14" viewBox="0 0 14 14" fill="none" xmlns="http://www.w3.org/2000/svg">
<path d="M0 12.6875C0 10.0807 0 7.47396 0 4.86719C0.00729167 4.84167 0.0182292 4.81615 0.0255208 4.79062C0.160417 4.16719 0.535938 3.76979 1.14844 3.59479C1.22865 3.57292 1.3125 3.56198 1.40729 3.54375C1.34896 3.38698 1.29792 3.24479 1.24687 3.09896C1.02812 2.50469 1.26875 1.99062 1.86302 1.77552C3.48906 1.1849 5.1224 0.590625 6.75208 0C6.84323 0 6.93437 0 7.02552 0C7.0401 0.00729167 7.05833 0.0182292 7.07292 0.021875C7.4375 0.0984375 7.67812 0.317187 7.80573 0.667187C7.90052 0.926042 7.99896 1.18854 8.08646 1.45104C8.11927 1.55677 8.16667 1.58958 8.27969 1.58958C9.09635 1.58594 9.90938 1.58594 10.726 1.58594C11.324 1.58594 11.7286 1.99062 11.7323 2.58854C11.7323 2.79635 11.7323 3.00781 11.7323 3.21562C11.7323 3.32865 11.7323 3.43802 11.7323 3.5474C12.6474 3.65312 13.1797 4.25469 13.1797 5.15521C13.1797 5.63281 13.1797 6.11042 13.1797 6.58802C13.1797 6.66823 13.1943 6.70833 13.2818 6.72656C13.475 6.76667 13.6464 6.8651 13.7594 7.02187C13.8578 7.16406 13.9234 7.33177 14 7.48854C14 8.32708 14 9.16562 14 10.0042C13.9708 10.0844 13.9453 10.1646 13.9089 10.2411C13.763 10.5437 13.5151 10.7187 13.1797 10.788C13.1797 10.8427 13.1797 10.8937 13.1797 10.9411C13.1797 11.4698 13.187 11.9948 13.176 12.5234C13.1651 13.1724 12.7312 13.7375 12.1151 13.9234C12.024 13.9526 11.9328 13.9708 11.8417 13.9927C8.34167 13.9927 4.84167 13.9927 1.34167 13.9927C1.31615 13.9854 1.29062 13.9708 1.2651 13.9672C0.794792 13.8833 0.430208 13.6391 0.200521 13.2234C0.109375 13.063 0.065625 12.8661 0 12.6875ZM12.3594 6.6974C12.3594 6.14687 12.3594 5.61823 12.3594 5.09323C12.3594 4.66302 12.0714 4.375 11.6375 4.375C8.27604 4.375 4.91094 4.375 1.54948 4.375C1.10833 4.375 0.823958 4.65937 0.823958 5.10052C0.823958 7.54687 0.823958 9.99323 0.823958 12.4396C0.823958 12.888 1.10833 13.176 1.55677 13.176C4.91458 13.176 8.2724 13.176 11.6302 13.176C12.0714 13.176 12.3594 12.888 12.3594 12.4505C12.3594 11.9401 12.3594 11.4297 12.3594 10.9193C12.3594 10.8792 12.3557 10.8427 12.3521 10.799C11.9365 10.799 11.5354 10.8026 11.1344 10.799C10.9557 10.799 10.7771 10.799 10.6021 10.7771C9.63229 10.6604 8.88125 9.86927 8.80833 8.89948C8.73542 7.92969 9.35885 7.03646 10.3031 6.7776C10.4964 6.72292 10.7078 6.70469 10.9083 6.70104C11.3859 6.6901 11.8635 6.6974 12.3594 6.6974ZM7.2625 1.57135C7.17865 1.34531 7.10573 1.12656 7.02187 0.911458C6.98906 0.827604 6.91615 0.809375 6.82865 0.842187C6.59896 0.929687 6.36562 1.0099 6.13594 1.09375C4.80885 1.575 3.47812 2.0599 2.1474 2.54479C1.96875 2.61042 1.95052 2.64687 2.01615 2.82917C2.08906 3.02604 2.16562 3.21927 2.2276 3.41979C2.26042 3.52187 2.30781 3.55833 2.42083 3.55469C3.60573 3.55104 4.79062 3.55104 5.97552 3.55104C6.01927 3.55104 6.06302 3.55104 6.11771 3.55104C6.12135 3.49271 6.125 3.44896 6.125 3.40521C6.125 3.11354 6.12135 2.82187 6.125 2.53021C6.13229 2.07448 6.43854 1.69896 6.88698 1.60417C7 1.58229 7.12031 1.58594 7.2625 1.57135ZM11.8927 7.51771C11.8016 7.51771 11.7104 7.51771 11.6193 7.51771C11.3094 7.52135 10.9958 7.49583 10.6896 7.53229C10.037 7.6125 9.58125 8.18854 9.625 8.8375C9.66875 9.47187 10.201 9.97135 10.8536 9.975C11.5609 9.98229 12.2646 9.975 12.9719 9.975C13.1323 9.975 13.1724 9.9349 13.176 9.77448C13.176 9.08542 13.176 8.4 13.176 7.71094C13.176 7.55417 13.1359 7.51771 12.9828 7.51771C12.6219 7.51406 12.2573 7.51771 11.8927 7.51771ZM6.94531 3.54375C8.27604 3.54375 9.58854 3.54375 10.9083 3.54375C10.9083 3.23021 10.9083 2.92396 10.9083 2.62135C10.9083 2.43906 10.8755 2.40625 10.6932 2.40625C10.0297 2.40625 9.3625 2.40625 8.69896 2.40625C8.17396 2.40625 7.6526 2.40625 7.1276 2.40625C7.02187 2.40625 6.94531 2.43542 6.94167 2.55573C6.94167 2.88021 6.94531 3.20469 6.94531 3.54375Z" fill="#9C9FA2"/>
<path d="M10.861 9.15475C10.6422 9.1584 10.449 8.97246 10.4454 8.75371C10.4417 8.53131 10.6204 8.34173 10.8428 8.33444C11.0725 8.32715 11.2657 8.50944 11.2657 8.73913C11.2657 8.96152 11.0797 9.15111 10.861 9.15475Z" fill="#9C9FA2"/>
</svg>
