<svg width="58" height="58" viewBox="0 0 58 58" fill="none" xmlns="http://www.w3.org/2000/svg">
<circle cx="29" cy="29" r="29" fill="#BD28A7" fill-opacity="0.14"/>
<path d="M33.0004 31.1559L30.6602 30.7861C30.7381 31.0995 30.8428 31.4056 30.973 31.7011L32.4554 31.9355C32.3882 32.6589 32.4166 33.388 32.54 34.1039C32.722 34.3619 32.9019 34.6226 33.0799 34.8861C33.2431 34.8425 33.409 34.8053 33.5763 34.7718C33.2789 33.7561 33.2046 32.6882 33.3586 31.6412C33.3749 31.5295 33.3465 31.4157 33.2794 31.3249C33.2123 31.234 33.112 31.1731 33.0004 31.1559ZM35.6073 41.8723C35.7021 42.268 35.7697 42.6697 35.8097 43.0747L32.1615 42.4979L31.8452 42.7137C31.5654 42.9062 31.2205 42.9798 30.8865 42.9182L30.7258 42.9965C30.7586 43.0458 30.8014 43.0877 30.8512 43.1197C30.9011 43.1517 30.9571 43.1731 31.0156 43.1824L36.2046 44.0028C36.2671 44.0126 36.3309 44.0086 36.3916 43.9911C36.4523 43.9737 36.5085 43.9432 36.5562 43.9018C36.6037 43.8605 36.6414 43.8093 36.6667 43.7517C36.692 43.6941 36.7043 43.6317 36.7026 43.5688C36.6795 42.8806 36.5818 42.197 36.4113 41.5299C36.1915 41.7345 35.9071 41.8557 35.6073 41.8723Z" fill="#BD28A7"/>
<path d="M35.7114 40.0744L34.4249 40.9528C34.7726 40.9474 35.1203 40.9697 35.4646 41.0195C35.5764 41.0362 35.6904 41.0083 35.7818 40.9418C35.8733 40.8753 35.9349 40.7754 35.9534 40.6638L36.1216 39.6149C36.0245 39.7993 35.8837 39.9571 35.7114 40.0744ZM36.6971 36.0279C36.706 35.972 36.7037 35.915 36.6903 35.86C36.6769 35.8051 36.6527 35.7534 36.6191 35.7079C36.5853 35.6623 36.5428 35.6238 36.4941 35.5946C36.4454 35.5654 36.3914 35.5461 36.3353 35.5378C35.3008 35.3888 34.2468 35.4547 33.2389 35.7312C33.589 35.9258 33.9239 36.1465 34.2408 36.3914C34.7487 36.3142 35.2636 36.2952 35.7758 36.3346L35.5629 37.662C35.7364 37.867 35.8995 38.0807 36.0517 38.302C36.1538 38.4529 36.222 38.6241 36.2517 38.8038L36.6971 36.0279ZM29.1948 29.0479H24.4316C24.3748 29.0478 24.3186 29.059 24.2661 29.0807C24.2136 29.1025 24.1659 29.1344 24.1258 29.1746C24.0858 29.2145 24.0541 29.2621 24.0327 29.3144C24.0113 29.3667 24.0005 29.4228 24.001 29.4794C24.0143 30.4121 24.2019 31.3341 24.5541 32.1978L24.7685 32.0519C24.9375 31.9371 25.1313 31.864 25.3339 31.8386C25.0868 31.2196 24.9342 30.5671 24.8811 29.9027H28.781C28.8658 31.1665 29.2772 32.3866 29.975 33.4436C30.2346 33.8226 30.4982 34.1989 30.7658 34.5722L30.8784 34.7306C30.9901 34.7741 31.1017 34.8172 31.2131 34.8601C31.5833 35.0033 31.9541 35.1478 32.3197 35.2961C32.0411 34.8871 31.7575 34.4814 31.4691 34.0792C31.2093 33.7137 30.9404 33.3357 30.6891 32.9657C30.0063 31.9273 29.637 30.7142 29.6254 29.4714C29.624 29.3583 29.5779 29.2503 29.4973 29.171C29.4166 29.0917 29.3079 29.0474 29.1948 29.0479Z" fill="#BD28A7"/>
<path d="M27.9683 39.5858C29.0991 40.0735 30.0665 40.8753 30.7556 41.896C30.7874 41.943 30.8283 41.9832 30.8757 42.0143C30.9232 42.0454 30.9764 42.0668 31.0321 42.0773C31.1449 42.0986 31.2616 42.0743 31.3565 42.0097L35.2238 39.3703C35.27 39.339 35.3096 39.2988 35.3403 39.2522C35.371 39.2055 35.3922 39.1533 35.4027 39.0984C35.4133 39.0436 35.4129 38.9872 35.4016 38.9325C35.3903 38.8778 35.3684 38.8258 35.337 38.7796C34.5523 37.62 33.4515 36.7096 32.1653 36.1564C31.7456 35.9857 31.3241 35.8194 30.9009 35.6576C29.07 34.9502 27.1769 34.2189 25.8099 32.812C25.7389 32.739 25.6445 32.6935 25.5432 32.6833C25.4419 32.6732 25.3403 32.699 25.2562 32.7564L21.389 35.3958C21.3375 35.4307 21.2942 35.4765 21.2623 35.5299C21.2304 35.5833 21.2106 35.643 21.2043 35.7049C21.198 35.7668 21.2054 35.8293 21.2259 35.8881C21.2464 35.9468 21.2795 36.0003 21.3229 36.0449C22.8211 37.5869 24.8038 38.3528 26.721 39.0933C27.1337 39.253 27.5603 39.4176 27.9683 39.5855V39.5858ZM25.4505 33.6613C26.9138 35.0346 28.7802 35.7557 30.5887 36.4541C31.0009 36.6134 31.4275 36.7781 31.8355 36.9461C32.8348 37.3756 33.7081 38.0528 34.373 38.9136L31.2164 41.0679C30.4552 40.0721 29.4501 39.2895 28.298 38.7959C27.8784 38.6249 27.4568 38.4585 27.0335 38.2968C25.362 37.6512 23.6386 36.9852 22.3112 35.8038L25.4505 33.6613Z" fill="#BD28A7"/>
<path d="M11.4274 44.0082C11.6635 44.0082 11.8549 43.8168 11.8549 43.5808C11.8549 43.3447 11.6635 43.1533 11.4274 43.1533C11.1914 43.1533 11 43.3447 11 43.5808C11 43.8168 11.1914 44.0082 11.4274 44.0082Z" fill="#BD28A7"/>
<path d="M13.3508 43.1533H12.7097C12.5963 43.1533 12.4876 43.1984 12.4074 43.2785C12.3273 43.3587 12.2822 43.4674 12.2822 43.5808C12.2822 43.6941 12.3273 43.8028 12.4074 43.883C12.4876 43.9632 12.5963 44.0082 12.7097 44.0082H13.3508C13.4642 44.0082 13.5729 43.9632 13.6531 43.883C13.7332 43.8028 13.7782 43.6941 13.7782 43.5808C13.7782 43.4674 13.7332 43.3587 13.6531 43.2785C13.5729 43.1984 13.4642 43.1533 13.3508 43.1533ZM45.1947 43.1533H44.5536C44.4402 43.1533 44.3315 43.1984 44.2513 43.2785C44.1712 43.3587 44.1261 43.4674 44.1261 43.5808C44.1261 43.6941 44.1712 43.8028 44.2513 43.883C44.3315 43.9632 44.4402 44.0082 44.5536 44.0082H45.1947C45.3081 44.0082 45.4168 43.9632 45.497 43.883C45.5771 43.8028 45.6222 43.6941 45.6222 43.5808C45.6222 43.4674 45.5771 43.3587 45.497 43.2785C45.4168 43.1984 45.3081 43.1533 45.1947 43.1533Z" fill="#BD28A7"/>
<path d="M46.4772 44.0082C46.7133 44.0082 46.9047 43.8168 46.9047 43.5808C46.9047 43.3447 46.7133 43.1533 46.4772 43.1533C46.2412 43.1533 46.0498 43.3447 46.0498 43.5808C46.0498 43.8168 46.2412 44.0082 46.4772 44.0082Z" fill="#BD28A7"/>
<path d="M36.252 44.8628H34.4764C34.3688 44.8711 34.2683 44.9198 34.1949 44.999C34.1216 45.0783 34.0809 45.1823 34.0809 45.2902C34.0809 45.3982 34.1216 45.5022 34.1949 45.5814C34.2683 45.6607 34.3688 45.7093 34.4764 45.7177H36.252C36.3597 45.7093 36.4602 45.6607 36.5335 45.5814C36.6069 45.5022 36.6476 45.3982 36.6476 45.2902C36.6476 45.1823 36.6069 45.0783 36.5335 44.999C36.4602 44.9198 36.3597 44.8711 36.252 44.8628ZM23.429 44.8628H21.6534C21.5458 44.8711 21.4452 44.9198 21.3719 44.999C21.2985 45.0783 21.2578 45.1823 21.2578 45.2902C21.2578 45.3982 21.2985 45.5022 21.3719 45.5814C21.4452 45.6607 21.5458 45.7093 21.6534 45.7177H23.429C23.5366 45.7093 23.6371 45.6607 23.7105 45.5814C23.7838 45.5022 23.8245 45.3982 23.8245 45.2902C23.8245 45.1823 23.7838 45.0783 23.7105 44.999C23.6371 44.9198 23.5366 44.8711 23.429 44.8628ZM33.2271 44.8628H24.6784C24.565 44.8628 24.4563 44.9078 24.3761 44.988C24.296 45.0681 24.2509 45.1769 24.2509 45.2902C24.2509 45.4036 24.296 45.5123 24.3761 45.5925C24.4563 45.6726 24.565 45.7177 24.6784 45.7177H28.085V46.1451H26.3881C26.2747 46.1451 26.166 46.1901 26.0859 46.2703C26.0057 46.3505 25.9607 46.4592 25.9607 46.5725C25.9607 46.6859 26.0057 46.7946 26.0859 46.8748C26.166 46.9549 26.2747 47 26.3881 47H31.731C31.8444 47 31.9531 46.9549 32.0333 46.8748C32.1134 46.7946 32.1585 46.6859 32.1585 46.5725C32.1585 46.4592 32.1134 46.3505 32.0333 46.2703C31.9531 46.1901 31.8444 46.1451 31.731 46.1451H29.8204V45.7177H33.2271C33.3404 45.7177 33.4491 45.6726 33.5293 45.5925C33.6095 45.5123 33.6545 45.4036 33.6545 45.2902C33.6545 45.1769 33.6095 45.0681 33.5293 44.988C33.4491 44.9078 33.3404 44.8628 33.2271 44.8628Z" fill="#BD28A7"/>
<path d="M43.2119 43.1534H38.7834V35.195C38.7849 34.4988 38.6476 33.8093 38.3795 33.1668C38.1114 32.5243 37.7179 31.9417 37.222 31.453C36.8063 31.0433 36.4765 30.5548 36.2517 30.0161C36.0269 29.4774 35.9118 28.8994 35.913 28.3157C35.9116 27.9756 35.7985 27.6454 35.5911 27.376C35.3836 27.1065 35.0933 26.9128 34.7649 26.8246V26.2697C34.7633 25.9285 34.6263 25.6019 34.3842 25.3615C34.142 25.1211 33.8144 24.9866 33.4732 24.9874H28.4382C28.3096 24.8218 27.993 24.2847 28.3581 23.3525C28.5296 22.9191 28.6723 22.4749 28.7855 22.0228C29.5254 22.5507 30.4092 22.8396 31.3181 22.8505C32.8534 22.8505 34.3099 22.0255 35.6473 20.3989C35.7796 20.2384 35.8484 20.035 35.8407 19.8272C35.8331 19.6193 35.7495 19.4215 35.6059 19.2711C35.4616 19.1201 35.2675 19.0263 35.0595 19.0072C34.8514 18.988 34.6435 19.0447 34.474 19.1668C34.3665 19.2442 34.1043 19.3742 33.5567 19.3742C33.1957 19.3686 32.8362 19.3266 32.4837 19.2487C32.0436 19.1532 31.595 19.1032 31.1447 19.0993C29.9693 19.0993 29.1832 19.5045 28.7019 19.9606C28.3055 19.1256 27.3769 18.2284 25.4812 17.9228C24.1555 17.7074 23.7766 17.2678 23.6753 17.0889C23.5718 16.9073 23.4061 16.7694 23.2088 16.7006C23.0115 16.6319 22.7959 16.6369 22.602 16.7149C22.4084 16.7918 22.2496 16.9369 22.1556 17.1229C22.0616 17.3088 22.0388 17.5227 22.0917 17.7243C23.122 21.6267 25.4013 22.2093 26.6682 22.2093C27.0815 22.2081 27.4928 22.1511 27.8909 22.0398C27.7967 22.3798 27.6847 22.7146 27.5553 23.0428C27.28 23.6565 27.2493 24.3521 27.4696 24.9877H24.4317C24.0904 24.9868 23.7628 25.1213 23.5207 25.3617C23.2785 25.6021 23.1416 25.9287 23.1399 26.27V26.8246C22.8115 26.9128 22.5212 27.1065 22.3138 27.376C22.1063 27.6454 21.9932 27.9756 21.9919 28.3157C21.993 28.8994 21.8779 29.4774 21.6531 30.0161C21.4284 30.5548 21.0985 31.0433 20.6828 31.453C20.187 31.9417 19.7935 32.5243 19.5254 33.1668C19.2573 33.8093 19.1199 34.4988 19.1214 35.195V43.1534H14.693C14.6322 43.1455 14.5704 43.1506 14.5117 43.1684C14.453 43.1863 14.3988 43.2165 14.3527 43.2569C14.3067 43.2974 14.2697 43.3472 14.2444 43.4031C14.2191 43.4589 14.2061 43.5195 14.2061 43.5809C14.2061 43.6422 14.2191 43.7028 14.2444 43.7587C14.2697 43.8145 14.3067 43.8644 14.3527 43.9048C14.3988 43.9453 14.453 43.9754 14.5117 43.9933C14.5704 44.0111 14.6322 44.0162 14.693 44.0083H43.2117C43.2725 44.0162 43.3343 44.0111 43.3929 43.9933C43.4516 43.9754 43.5058 43.9453 43.5519 43.9048C43.598 43.8644 43.6349 43.8145 43.6602 43.7587C43.6855 43.7028 43.6986 43.6422 43.6986 43.5809C43.6986 43.5195 43.6855 43.4589 43.6602 43.4031C43.6349 43.3472 43.598 43.2974 43.5519 43.2569C43.5058 43.2165 43.4516 43.1863 43.3929 43.1684C43.3343 43.1506 43.2727 43.1455 43.2119 43.1534ZM28.9603 21.0422C29.0208 20.9005 29.485 19.9542 31.1447 19.9542C31.5356 19.9578 31.9251 20.0018 32.3069 20.0854C32.7175 20.1758 33.1363 20.224 33.5567 20.2292C34.0585 20.2594 34.5569 20.1296 34.9801 19.8584C33.6194 21.5137 32.3428 21.9956 31.3181 21.9956C30.4449 21.9816 29.6064 21.6517 28.9578 21.067L28.9603 21.0422ZM26.6682 21.3542C25.4526 21.3542 23.7706 20.711 22.9247 17.5075C23.1853 17.9679 23.8194 18.5189 25.3432 18.7666C28.2123 19.229 28.0905 21.064 28.0905 21.064C27.641 21.2561 27.1571 21.3547 26.6682 21.3542ZM24.001 26.2697C24.0016 26.156 24.0472 26.0471 24.128 25.967C24.2087 25.8869 24.3179 25.842 24.4317 25.8423H33.4732C33.5869 25.842 33.6961 25.8869 33.7769 25.967C33.8576 26.0471 33.9033 26.156 33.9038 26.2697V26.6972H24.001V26.2697ZM37.9224 43.1534H28.3145C28.9011 42.9162 29.4762 42.6491 30.0434 42.3757L30.0413 42.3729C29.8766 42.1315 29.6934 41.9031 29.4936 41.6899C28.1008 42.3558 26.6661 42.9671 25.157 43.1197L25.718 39.6213C25.4439 39.514 25.171 39.4036 24.8993 39.2903L24.2795 43.1534H22.3874C22.7259 42.0154 23.243 40.9383 23.9194 39.9624L24.0848 38.931C23.9571 38.8716 23.83 38.8105 23.7035 38.7479C22.7636 40.1 21.8861 41.5187 21.4997 43.1534H19.9825V35.195C19.9813 34.6113 20.0965 34.0332 20.3213 33.4945C20.5461 32.9559 20.876 32.4674 21.2917 32.0576C21.7876 31.5689 22.181 30.9863 22.4491 30.3437C22.7172 29.7012 22.8545 29.0117 22.8529 28.3154C22.8538 28.1313 22.9277 27.955 23.0584 27.8252C23.1891 27.6955 23.3659 27.6228 23.5501 27.6232H34.3548C34.539 27.6228 34.7158 27.6955 34.8465 27.8253C34.9772 27.9551 35.0511 28.1315 35.0519 28.3157C35.0504 29.0118 35.1877 29.7013 35.4558 30.3437C35.7239 30.9862 36.1173 31.5688 36.6131 32.0574C37.0289 32.4672 37.3588 32.9556 37.5835 33.4943C37.8083 34.033 37.9235 34.6111 37.9224 35.1948V43.1534ZM34.2003 17.4005C34.3271 17.4005 34.451 17.3629 34.5565 17.2924C34.6619 17.222 34.7441 17.1218 34.7926 17.0047C34.8411 16.8875 34.8538 16.7586 34.8291 16.6342C34.8043 16.5099 34.7433 16.3956 34.6536 16.306C34.5639 16.2163 34.4497 16.1552 34.3253 16.1305C34.201 16.1057 34.0721 16.1184 33.9549 16.167C33.8377 16.2155 33.7376 16.2977 33.6672 16.4031C33.5967 16.5085 33.5591 16.6325 33.5591 16.7593C33.5593 16.9293 33.6269 17.0923 33.7471 17.2125C33.8673 17.3327 34.0303 17.4003 34.2003 17.4005ZM34.2003 16.4387C34.2637 16.4387 34.3256 16.4575 34.3784 16.4928C34.4311 16.528 34.4722 16.5781 34.4964 16.6366C34.5207 16.6952 34.527 16.7597 34.5147 16.8219C34.5023 16.884 34.4718 16.9412 34.4269 16.986C34.3821 17.0308 34.325 17.0614 34.2628 17.0737C34.2006 17.0861 34.1362 17.0798 34.0776 17.0555C34.019 17.0312 33.9689 16.9901 33.9337 16.9374C33.8985 16.8847 33.8797 16.8227 33.8797 16.7593C33.8797 16.6743 33.9135 16.5928 33.9736 16.5327C34.0337 16.4726 34.1152 16.4388 34.2003 16.4387ZM45.5273 23.2243C45.4427 23.2243 45.3601 23.2493 45.2898 23.2963C45.2195 23.3433 45.1647 23.41 45.1324 23.4881C45.1 23.5662 45.0916 23.6522 45.1081 23.7351C45.1246 23.818 45.1653 23.8942 45.225 23.9539C45.2848 24.0137 45.361 24.0544 45.4439 24.0709C45.5268 24.0874 45.6128 24.079 45.6909 24.0466C45.769 24.0143 45.8357 23.9595 45.8827 23.8892C45.9296 23.8189 45.9547 23.7362 45.9547 23.6517C45.9546 23.5384 45.9095 23.4297 45.8294 23.3496C45.7493 23.2695 45.6406 23.2244 45.5273 23.2243ZM45.5273 23.8654C45.485 23.8654 45.4437 23.8529 45.4085 23.8294C45.3734 23.8059 45.346 23.7725 45.3298 23.7335C45.3137 23.6944 45.3094 23.6515 45.3177 23.61C45.3259 23.5686 45.3463 23.5305 45.3762 23.5006C45.4061 23.4707 45.4441 23.4503 45.4856 23.4421C45.527 23.4338 45.57 23.4381 45.6091 23.4543C45.6481 23.4704 45.6815 23.4978 45.705 23.533C45.7285 23.5681 45.741 23.6094 45.741 23.6517C45.7409 23.7084 45.7184 23.7627 45.6783 23.8028C45.6383 23.8428 45.5839 23.8654 45.5273 23.8654Z" fill="#BD28A7"/>
<path d="M37.7795 24.5065C37.6949 24.5065 37.6123 24.5315 37.542 24.5785C37.4717 24.6255 37.4169 24.6922 37.3846 24.7703C37.3522 24.8484 37.3437 24.9344 37.3602 25.0173C37.3767 25.1002 37.4174 25.1764 37.4772 25.2361C37.537 25.2959 37.6132 25.3366 37.6961 25.3531C37.779 25.3696 37.8649 25.3611 37.943 25.3288C38.0211 25.2964 38.0879 25.2417 38.1349 25.1714C38.1818 25.1011 38.2069 25.0184 38.2069 24.9339C38.2068 24.8206 38.1617 24.7119 38.0816 24.6318C38.0014 24.5516 37.8928 24.5066 37.7795 24.5065ZM37.7795 25.1476C37.7372 25.1476 37.6959 25.1351 37.6607 25.1116C37.6256 25.0881 37.5982 25.0547 37.582 25.0157C37.5658 24.9766 37.5616 24.9337 37.5698 24.8922C37.5781 24.8507 37.5984 24.8127 37.6283 24.7828C37.6582 24.7529 37.6963 24.7325 37.7378 24.7243C37.7792 24.716 37.8222 24.7203 37.8612 24.7364C37.9003 24.7526 37.9337 24.78 37.9572 24.8152C37.9806 24.8503 37.9932 24.8916 37.9932 24.9339C37.9931 24.9906 37.9706 25.0449 37.9305 25.0849C37.8904 25.125 37.8361 25.1476 37.7795 25.1476ZM41.2524 12.1108C41.1678 12.1108 41.0852 12.1359 41.0149 12.1829C40.9446 12.2298 40.8898 12.2966 40.8575 12.3747C40.8251 12.4528 40.8167 12.5387 40.8331 12.6217C40.8496 12.7046 40.8903 12.7807 40.9501 12.8405C41.0099 12.9003 41.0861 12.941 41.169 12.9575C41.2519 12.974 41.3378 12.9655 41.4159 12.9332C41.494 12.9008 41.5608 12.846 41.6078 12.7757C41.6547 12.7055 41.6798 12.6228 41.6798 12.5383C41.6797 12.4249 41.6346 12.3163 41.5545 12.2362C41.4743 12.156 41.3657 12.111 41.2524 12.1108ZM41.2524 12.752C41.2101 12.752 41.1688 12.7395 41.1336 12.716C41.0985 12.6925 41.0711 12.6591 41.0549 12.6201C41.0387 12.581 41.0345 12.538 41.0428 12.4966C41.051 12.4551 41.0714 12.417 41.1012 12.3872C41.1311 12.3573 41.1692 12.3369 41.2107 12.3287C41.2521 12.3204 41.2951 12.3246 41.3342 12.3408C41.3732 12.357 41.4066 12.3844 41.4301 12.4195C41.4536 12.4547 41.4661 12.496 41.4661 12.5383C41.466 12.5949 41.4435 12.6493 41.4034 12.6893C41.3634 12.7294 41.309 12.7519 41.2524 12.752ZM20.6703 20.8198C20.6703 20.7353 20.6452 20.6526 20.5983 20.5824C20.5513 20.5121 20.4845 20.4573 20.4064 20.4249C20.3283 20.3926 20.2424 20.3841 20.1595 20.4006C20.0766 20.4171 20.0004 20.4578 19.9406 20.5176C19.8808 20.5774 19.8401 20.6535 19.8236 20.7364C19.8072 20.8194 19.8156 20.9053 19.848 20.9834C19.8803 21.0615 19.9351 21.1283 20.0054 21.1752C20.0757 21.2222 20.1583 21.2473 20.2429 21.2473C20.3562 21.2472 20.4648 21.2021 20.545 21.1219C20.6251 21.0418 20.6702 20.9332 20.6703 20.8198ZM20.0291 20.8198C20.0291 20.7776 20.0417 20.7362 20.0652 20.7011C20.0886 20.6659 20.122 20.6386 20.1611 20.6224C20.2001 20.6062 20.2431 20.602 20.2846 20.6102C20.326 20.6185 20.3641 20.6388 20.394 20.6687C20.4239 20.6986 20.4442 20.7367 20.4525 20.7781C20.4607 20.8196 20.4565 20.8626 20.4403 20.9016C20.4241 20.9407 20.3967 20.974 20.3616 20.9975C20.3265 21.021 20.2851 21.0335 20.2429 21.0335C20.1862 21.0335 20.1319 21.011 20.0918 20.9709C20.0517 20.9308 20.0292 20.8765 20.0291 20.8198Z" fill="#BD28A7"/>
<path d="M13.3271 26.2721L13.6449 25.854L13.4443 25.7403L13.2402 26.2084H13.2335L13.0262 25.7437L12.8221 25.8606L13.1365 26.2686V26.2755L12.6447 26.2118V26.4392L13.1397 26.3757V26.3823L12.8221 26.7903L13.0125 26.9106L13.2301 26.4392H13.2367L13.4374 26.9072L13.6481 26.7869L13.3271 26.3858V26.3789L13.8319 26.4392V26.2118L13.3271 26.2787V26.2721ZM12.247 14.2928L12.0641 14.5276L12.1737 14.5971L12.2989 14.3255H12.3028L12.4184 14.5952L12.5398 14.5257L12.3549 14.2947V14.2908L12.6456 14.3255V14.1945L12.3549 14.2331V14.2293L12.5379 13.9884L12.4223 13.923L12.3047 14.1925H12.3009L12.1816 13.925L12.0641 13.9923L12.2451 14.2274V14.2312L11.9619 14.1945V14.3255L12.247 14.2889V14.2928ZM46.3288 17.2322V17.0091L45.8336 17.0747V17.0683L46.1452 16.6582L45.9483 16.5468L45.7483 17.0059H45.7417L45.5384 16.55L45.3382 16.6648L45.6466 17.0651V17.0715L45.1642 17.0091V17.2322L45.6498 17.17V17.1765L45.3382 17.5765L45.5252 17.6947L45.7385 17.2322H45.7449L45.9417 17.6915L46.1484 17.5733L45.8336 17.1797V17.1732L46.3288 17.2322ZM25.5325 12.4497L25.8014 12.0962L25.6315 12L25.459 12.396H25.4533L25.278 12.0028L25.1051 12.1017L25.3712 12.4469V12.4527L24.9553 12.3988V12.5911L25.374 12.5375V12.5431L25.1051 12.8882L25.2665 12.9902L25.4505 12.5911H25.456L25.6259 12.9874L25.8042 12.8854L25.5325 12.5458V12.5403L25.9596 12.5911V12.3988L25.5325 12.4554V12.4497Z" fill="#BD28A7"/>
</svg>
