<svg width="156" height="156" viewBox="0 0 156 156" fill="none" xmlns="http://www.w3.org/2000/svg">
<g filter="url(#filter0_d_3643_2203)">
<rect x="18" y="18" width="120" height="120" rx="5" fill="white"/>
</g>
<path d="M56.7535 116.084C56.1935 116.084 55.6895 115.988 55.2415 115.796C54.7935 115.596 54.4415 115.316 54.1855 114.956C53.9295 114.596 53.8015 114.176 53.8015 113.696H55.2655C55.2975 114.056 55.4375 114.352 55.6855 114.584C55.9415 114.816 56.2975 114.932 56.7535 114.932C57.2255 114.932 57.5935 114.82 57.8575 114.596C58.1215 114.364 58.2535 114.068 58.2535 113.708C58.2535 113.428 58.1695 113.2 58.0015 113.024C57.8415 112.848 57.6375 112.712 57.3895 112.616C57.1495 112.52 56.8135 112.416 56.3815 112.304C55.8375 112.16 55.3935 112.016 55.0495 111.872C54.7135 111.72 54.4255 111.488 54.1855 111.176C53.9455 110.864 53.8255 110.448 53.8255 109.928C53.8255 109.448 53.9455 109.028 54.1855 108.668C54.4255 108.308 54.7615 108.032 55.1935 107.84C55.6255 107.648 56.1255 107.552 56.6935 107.552C57.5015 107.552 58.1615 107.756 58.6735 108.164C59.1935 108.564 59.4815 109.116 59.5375 109.82H58.0255C58.0015 109.516 57.8575 109.256 57.5935 109.04C57.3295 108.824 56.9815 108.716 56.5495 108.716C56.1575 108.716 55.8375 108.816 55.5895 109.016C55.3415 109.216 55.2175 109.504 55.2175 109.88C55.2175 110.136 55.2935 110.348 55.4455 110.516C55.6055 110.676 55.8055 110.804 56.0455 110.9C56.2855 110.996 56.6135 111.1 57.0295 111.212C57.5815 111.364 58.0295 111.516 58.3735 111.668C58.7255 111.82 59.0215 112.056 59.2615 112.376C59.5095 112.688 59.6335 113.108 59.6335 113.636C59.6335 114.06 59.5175 114.46 59.2855 114.836C59.0615 115.212 58.7295 115.516 58.2895 115.748C57.8575 115.972 57.3455 116.084 56.7535 116.084ZM60.7917 112.664C60.7917 112 60.9277 111.412 61.1997 110.9C61.4797 110.388 61.8557 109.992 62.3277 109.712C62.8077 109.424 63.3357 109.28 63.9117 109.28C64.4317 109.28 64.8837 109.384 65.2677 109.592C65.6597 109.792 65.9717 110.044 66.2037 110.348V109.388H67.5837V116H66.2037V115.016C65.9717 115.328 65.6557 115.588 65.2557 115.796C64.8557 116.004 64.3997 116.108 63.8877 116.108C63.3197 116.108 62.7997 115.964 62.3277 115.676C61.8557 115.38 61.4797 114.972 61.1997 114.452C60.9277 113.924 60.7917 113.328 60.7917 112.664ZM66.2037 112.688C66.2037 112.232 66.1077 111.836 65.9157 111.5C65.7317 111.164 65.4877 110.908 65.1837 110.732C64.8797 110.556 64.5517 110.468 64.1997 110.468C63.8477 110.468 63.5197 110.556 63.2157 110.732C62.9117 110.9 62.6637 111.152 62.4717 111.488C62.2877 111.816 62.1957 112.208 62.1957 112.664C62.1957 113.12 62.2877 113.52 62.4717 113.864C62.6637 114.208 62.9117 114.472 63.2157 114.656C63.5277 114.832 63.8557 114.92 64.1997 114.92C64.5517 114.92 64.8797 114.832 65.1837 114.656C65.4877 114.48 65.7317 114.224 65.9157 113.888C66.1077 113.544 66.2037 113.144 66.2037 112.688ZM71.9365 114.776L73.8085 109.388H75.2605L72.7405 116H71.1085L68.6005 109.388H70.0645L71.9365 114.776ZM76.9905 108.512C76.7425 108.512 76.5345 108.428 76.3665 108.26C76.1985 108.092 76.1145 107.884 76.1145 107.636C76.1145 107.388 76.1985 107.18 76.3665 107.012C76.5345 106.844 76.7425 106.76 76.9905 106.76C77.2305 106.76 77.4345 106.844 77.6025 107.012C77.7705 107.18 77.8545 107.388 77.8545 107.636C77.8545 107.884 77.7705 108.092 77.6025 108.26C77.4345 108.428 77.2305 108.512 76.9905 108.512ZM77.6625 109.388V116H76.2945V109.388H77.6625ZM82.7946 109.28C83.3146 109.28 83.7786 109.388 84.1866 109.604C84.6026 109.82 84.9266 110.14 85.1586 110.564C85.3906 110.988 85.5066 111.5 85.5066 112.1V116H84.1506V112.304C84.1506 111.712 84.0026 111.26 83.7066 110.948C83.4106 110.628 83.0066 110.468 82.4946 110.468C81.9826 110.468 81.5746 110.628 81.2706 110.948C80.9746 111.26 80.8266 111.712 80.8266 112.304V116H79.4586V109.388H80.8266V110.144C81.0506 109.872 81.3346 109.66 81.6786 109.508C82.0306 109.356 82.4026 109.28 82.7946 109.28ZM89.9156 109.28C90.4276 109.28 90.8796 109.384 91.2716 109.592C91.6716 109.792 91.9836 110.044 92.2076 110.348V109.388H93.5876V116.108C93.5876 116.716 93.4596 117.256 93.2036 117.728C92.9476 118.208 92.5756 118.584 92.0876 118.856C91.6076 119.128 91.0316 119.264 90.3596 119.264C89.4636 119.264 88.7196 119.052 88.1276 118.628C87.5356 118.212 87.1996 117.644 87.1196 116.924H88.4756C88.5796 117.268 88.7996 117.544 89.1356 117.752C89.4796 117.968 89.8876 118.076 90.3596 118.076C90.9116 118.076 91.3556 117.908 91.6916 117.572C92.0356 117.236 92.2076 116.748 92.2076 116.108V115.004C91.9756 115.316 91.6596 115.58 91.2596 115.796C90.8676 116.004 90.4196 116.108 89.9156 116.108C89.3396 116.108 88.8116 115.964 88.3316 115.676C87.8596 115.38 87.4836 114.972 87.2036 114.452C86.9316 113.924 86.7956 113.328 86.7956 112.664C86.7956 112 86.9316 111.412 87.2036 110.9C87.4836 110.388 87.8596 109.992 88.3316 109.712C88.8116 109.424 89.3396 109.28 89.9156 109.28ZM92.2076 112.688C92.2076 112.232 92.1116 111.836 91.9196 111.5C91.7356 111.164 91.4916 110.908 91.1876 110.732C90.8836 110.556 90.5556 110.468 90.2036 110.468C89.8516 110.468 89.5236 110.556 89.2196 110.732C88.9156 110.9 88.6676 111.152 88.4756 111.488C88.2916 111.816 88.1996 112.208 88.1996 112.664C88.1996 113.12 88.2916 113.52 88.4756 113.864C88.6676 114.208 88.9156 114.472 89.2196 114.656C89.5316 114.832 89.8596 114.92 90.2036 114.92C90.5556 114.92 90.8836 114.832 91.1876 114.656C91.4916 114.48 91.7356 114.224 91.9196 113.888C92.1116 113.544 92.2076 113.144 92.2076 112.688ZM97.7844 116.108C97.2644 116.108 96.7964 116.016 96.3804 115.832C95.9724 115.64 95.6484 115.384 95.4084 115.064C95.1684 114.736 95.0404 114.372 95.0244 113.972H96.4404C96.4644 114.252 96.5964 114.488 96.8364 114.68C97.0844 114.864 97.3924 114.956 97.7604 114.956C98.1444 114.956 98.4404 114.884 98.6484 114.74C98.8644 114.588 98.9724 114.396 98.9724 114.164C98.9724 113.916 98.8524 113.732 98.6124 113.612C98.3804 113.492 98.0084 113.36 97.4964 113.216C97.0004 113.08 96.5964 112.948 96.2844 112.82C95.9724 112.692 95.7004 112.496 95.4684 112.232C95.2444 111.968 95.1324 111.62 95.1324 111.188C95.1324 110.836 95.2364 110.516 95.4444 110.228C95.6524 109.932 95.9484 109.7 96.3324 109.532C96.7244 109.364 97.1724 109.28 97.6764 109.28C98.4284 109.28 99.0324 109.472 99.4884 109.856C99.9524 110.232 100.2 110.748 100.232 111.404H98.8644C98.8404 111.108 98.7204 110.872 98.5044 110.696C98.2884 110.52 97.9964 110.432 97.6284 110.432C97.2684 110.432 96.9924 110.5 96.8004 110.636C96.6084 110.772 96.5124 110.952 96.5124 111.176C96.5124 111.352 96.5764 111.5 96.7044 111.62C96.8324 111.74 96.9884 111.836 97.1724 111.908C97.3564 111.972 97.6284 112.056 97.9884 112.16C98.4684 112.288 98.8604 112.42 99.1644 112.556C99.4764 112.684 99.7444 112.876 99.9684 113.132C100.192 113.388 100.308 113.728 100.316 114.152C100.316 114.528 100.212 114.864 100.004 115.16C99.7964 115.456 99.5004 115.688 99.1164 115.856C98.7404 116.024 98.2964 116.108 97.7844 116.108Z" fill="#2F2F2F"/>
<circle cx="78" cy="64" r="29" fill="#BD28A7" fill-opacity="0.14"/>
<path d="M82.0004 66.1559L79.6602 65.7861C79.7381 66.0995 79.8428 66.4056 79.973 66.7011L81.4554 66.9355C81.3882 67.6589 81.4166 68.388 81.54 69.1039C81.722 69.3619 81.9019 69.6226 82.0799 69.8861C82.2431 69.8425 82.409 69.8053 82.5763 69.7718C82.2789 68.7561 82.2046 67.6882 82.3586 66.6412C82.3749 66.5295 82.3465 66.4157 82.2794 66.3249C82.2123 66.234 82.112 66.1731 82.0004 66.1559ZM84.6073 76.8723C84.7021 77.268 84.7697 77.6697 84.8097 78.0747L81.1615 77.4979L80.8452 77.7137C80.5654 77.9062 80.2205 77.9798 79.8865 77.9182L79.7258 77.9965C79.7586 78.0458 79.8014 78.0877 79.8512 78.1197C79.9011 78.1517 79.9571 78.1731 80.0156 78.1824L85.2046 79.0028C85.2671 79.0126 85.3309 79.0086 85.3916 78.9911C85.4523 78.9737 85.5085 78.9432 85.5562 78.9018C85.6037 78.8605 85.6414 78.8093 85.6667 78.7517C85.692 78.6941 85.7043 78.6317 85.7026 78.5688C85.6795 77.8806 85.5818 77.197 85.4113 76.5299C85.1915 76.7345 84.9071 76.8557 84.6073 76.8723Z" fill="#BD28A7"/>
<path d="M84.7114 75.0744L83.4249 75.9528C83.7726 75.9474 84.1203 75.9697 84.4646 76.0195C84.5764 76.0362 84.6904 76.0083 84.7818 75.9418C84.8733 75.8753 84.9349 75.7754 84.9534 75.6638L85.1216 74.6149C85.0245 74.7993 84.8837 74.9571 84.7114 75.0744ZM85.6971 71.0279C85.706 70.972 85.7037 70.915 85.6903 70.86C85.6769 70.8051 85.6527 70.7534 85.6191 70.7079C85.5853 70.6623 85.5428 70.6238 85.4941 70.5946C85.4454 70.5654 85.3914 70.5461 85.3353 70.5378C84.3008 70.3888 83.2468 70.4547 82.2389 70.7312C82.589 70.9258 82.9239 71.1465 83.2408 71.3914C83.7487 71.3142 84.2636 71.2952 84.7758 71.3346L84.5629 72.662C84.7364 72.867 84.8995 73.0807 85.0517 73.302C85.1538 73.4529 85.222 73.6241 85.2517 73.8038L85.6971 71.0279ZM78.1948 64.0479H73.4316C73.3748 64.0478 73.3186 64.059 73.2661 64.0807C73.2136 64.1025 73.1659 64.1344 73.1258 64.1746C73.0858 64.2145 73.0541 64.2621 73.0327 64.3144C73.0113 64.3667 73.0005 64.4228 73.001 64.4794C73.0143 65.4121 73.2019 66.3341 73.5541 67.1978L73.7685 67.0519C73.9375 66.9371 74.1313 66.864 74.3339 66.8386C74.0868 66.2196 73.9342 65.5671 73.8811 64.9027H77.781C77.8658 66.1665 78.2772 67.3866 78.975 68.4436C79.2346 68.8226 79.4982 69.1989 79.7658 69.5722L79.8784 69.7306C79.9901 69.7741 80.1017 69.8172 80.2131 69.8601C80.5833 70.0033 80.9541 70.1478 81.3197 70.2961C81.0411 69.8871 80.7575 69.4814 80.4691 69.0792C80.2093 68.7137 79.9404 68.3357 79.6891 67.9657C79.0063 66.9273 78.637 65.7142 78.6254 64.4714C78.624 64.3583 78.5779 64.2503 78.4973 64.171C78.4166 64.0917 78.3079 64.0474 78.1948 64.0479Z" fill="#BD28A7"/>
<path d="M76.9683 74.5855C78.0991 75.0733 79.0665 75.875 79.7556 76.8958C79.7874 76.9427 79.8283 76.9829 79.8757 77.014C79.9232 77.0451 79.9764 77.0665 80.0321 77.077C80.1449 77.0983 80.2616 77.074 80.3565 77.0095L84.2238 74.3701C84.27 74.3387 84.3096 74.2986 84.3403 74.2519C84.371 74.2053 84.3922 74.153 84.4027 74.0982C84.4133 74.0433 84.4129 73.9869 84.4016 73.9322C84.3903 73.8775 84.3684 73.8256 84.337 73.7794C83.5523 72.6197 82.4515 71.7094 81.1653 71.1562C80.7456 70.9854 80.3241 70.8191 79.9009 70.6574C78.07 69.95 76.1769 69.2186 74.8099 67.8117C74.7389 67.7388 74.6445 67.6932 74.5432 67.6831C74.4419 67.6729 74.3403 67.6988 74.2562 67.7562L70.389 70.3956C70.3375 70.4305 70.2942 70.4762 70.2623 70.5296C70.2304 70.583 70.2106 70.6428 70.2043 70.7047C70.198 70.7666 70.2054 70.8291 70.2259 70.8878C70.2464 70.9466 70.2795 71.0001 70.3229 71.0446C71.8211 72.5866 73.8038 73.3526 75.721 74.0931C76.1337 74.2527 76.5603 74.4173 76.9683 74.5853V74.5855ZM74.4505 68.661C75.9138 70.0344 77.7802 70.7555 79.5887 71.4539C80.0009 71.6131 80.4275 71.7779 80.8355 71.9459C81.8348 72.3754 82.7081 73.0525 83.373 73.9134L80.2164 76.0676C79.4552 75.0718 78.4501 74.2893 77.298 73.7956C76.8784 73.6246 76.4568 73.4583 76.0335 73.2966C74.362 72.6509 72.6386 71.985 71.3112 70.8036L74.4505 68.661Z" fill="#BD28A7"/>
<path d="M60.4274 79.0079C60.6635 79.0079 60.8549 78.8166 60.8549 78.5805C60.8549 78.3444 60.6635 78.1531 60.4274 78.1531C60.1914 78.1531 60 78.3444 60 78.5805C60 78.8166 60.1914 79.0079 60.4274 79.0079Z" fill="#BD28A7"/>
<path d="M62.3508 78.1531H61.7097C61.5963 78.1531 61.4876 78.1981 61.4074 78.2783C61.3273 78.3584 61.2822 78.4671 61.2822 78.5805C61.2822 78.6939 61.3273 78.8026 61.4074 78.8828C61.4876 78.9629 61.5963 79.0079 61.7097 79.0079H62.3508C62.4642 79.0079 62.5729 78.9629 62.6531 78.8828C62.7332 78.8026 62.7782 78.6939 62.7782 78.5805C62.7782 78.4671 62.7332 78.3584 62.6531 78.2783C62.5729 78.1981 62.4642 78.1531 62.3508 78.1531ZM94.1947 78.1531H93.5536C93.4402 78.1531 93.3315 78.1981 93.2513 78.2783C93.1712 78.3584 93.1261 78.4671 93.1261 78.5805C93.1261 78.6939 93.1712 78.8026 93.2513 78.8828C93.3315 78.9629 93.4402 79.0079 93.5536 79.0079H94.1947C94.3081 79.0079 94.4168 78.9629 94.497 78.8828C94.5771 78.8026 94.6222 78.6939 94.6222 78.5805C94.6222 78.4671 94.5771 78.3584 94.497 78.2783C94.4168 78.1981 94.3081 78.1531 94.1947 78.1531Z" fill="#BD28A7"/>
<path d="M95.4772 79.0079C95.7133 79.0079 95.9047 78.8166 95.9047 78.5805C95.9047 78.3444 95.7133 78.1531 95.4772 78.1531C95.2412 78.1531 95.0498 78.3444 95.0498 78.5805C95.0498 78.8166 95.2412 79.0079 95.4772 79.0079Z" fill="#BD28A7"/>
<path d="M85.252 79.8628H83.4764C83.3688 79.8711 83.2683 79.9198 83.1949 79.999C83.1216 80.0783 83.0809 80.1823 83.0809 80.2902C83.0809 80.3982 83.1216 80.5022 83.1949 80.5814C83.2683 80.6607 83.3688 80.7093 83.4764 80.7177H85.252C85.3597 80.7093 85.4602 80.6607 85.5335 80.5814C85.6069 80.5022 85.6476 80.3982 85.6476 80.2902C85.6476 80.1823 85.6069 80.0783 85.5335 79.999C85.4602 79.9198 85.3597 79.8711 85.252 79.8628ZM72.429 79.8628H70.6534C70.5458 79.8711 70.4452 79.9198 70.3719 79.999C70.2985 80.0783 70.2578 80.1823 70.2578 80.2902C70.2578 80.3982 70.2985 80.5022 70.3719 80.5814C70.4452 80.6607 70.5458 80.7093 70.6534 80.7177H72.429C72.5366 80.7093 72.6371 80.6607 72.7105 80.5814C72.7838 80.5022 72.8245 80.3982 72.8245 80.2902C72.8245 80.1823 72.7838 80.0783 72.7105 79.999C72.6371 79.9198 72.5366 79.8711 72.429 79.8628ZM82.2271 79.8628H73.6784C73.565 79.8628 73.4563 79.9078 73.3761 79.988C73.296 80.0681 73.2509 80.1769 73.2509 80.2902C73.2509 80.4036 73.296 80.5123 73.3761 80.5925C73.4563 80.6726 73.565 80.7177 73.6784 80.7177H77.085V81.1451H75.3881C75.2747 81.1451 75.166 81.1901 75.0859 81.2703C75.0057 81.3505 74.9607 81.4592 74.9607 81.5725C74.9607 81.6859 75.0057 81.7946 75.0859 81.8748C75.166 81.9549 75.2747 82 75.3881 82H80.731C80.8444 82 80.9531 81.9549 81.0333 81.8748C81.1134 81.7946 81.1585 81.6859 81.1585 81.5725C81.1585 81.4592 81.1134 81.3505 81.0333 81.2703C80.9531 81.1901 80.8444 81.1451 80.731 81.1451H78.8204V80.7177H82.2271C82.3404 80.7177 82.4491 80.6726 82.5293 80.5925C82.6095 80.5123 82.6545 80.4036 82.6545 80.2902C82.6545 80.1769 82.6095 80.0681 82.5293 79.988C82.4491 79.9078 82.3404 79.8628 82.2271 79.8628Z" fill="#BD28A7"/>
<path d="M92.2119 78.1534H87.7834V70.195C87.7849 69.4988 87.6476 68.8093 87.3795 68.1668C87.1114 67.5243 86.7179 66.9417 86.222 66.453C85.8063 66.0433 85.4765 65.5548 85.2517 65.0161C85.0269 64.4774 84.9118 63.8994 84.913 63.3157C84.9116 62.9756 84.7985 62.6454 84.5911 62.376C84.3836 62.1065 84.0933 61.9128 83.7649 61.8246V61.2697C83.7633 60.9285 83.6263 60.6019 83.3842 60.3615C83.142 60.1211 82.8144 59.9866 82.4732 59.9874H77.4382C77.3096 59.8218 76.993 59.2847 77.3581 58.3525C77.5296 57.9191 77.6723 57.4749 77.7855 57.0228C78.5254 57.5507 79.4092 57.8396 80.3181 57.8505C81.8534 57.8505 83.3099 57.0255 84.6473 55.3989C84.7796 55.2384 84.8484 55.035 84.8407 54.8272C84.8331 54.6193 84.7495 54.4215 84.6059 54.2711C84.4616 54.1201 84.2675 54.0263 84.0595 54.0072C83.8514 53.988 83.6435 54.0447 83.474 54.1668C83.3665 54.2442 83.1043 54.3742 82.5567 54.3742C82.1957 54.3686 81.8362 54.3266 81.4837 54.2487C81.0436 54.1532 80.595 54.1032 80.1447 54.0993C78.9693 54.0993 78.1832 54.5045 77.7019 54.9606C77.3055 54.1256 76.3769 53.2284 74.4812 52.9228C73.1555 52.7074 72.7766 52.2678 72.6753 52.0889C72.5718 51.9073 72.4061 51.7694 72.2088 51.7006C72.0115 51.6319 71.7959 51.6369 71.602 51.7149C71.4084 51.7918 71.2496 51.9369 71.1556 52.1229C71.0616 52.3088 71.0388 52.5227 71.0917 52.7243C72.122 56.6267 74.4013 57.2093 75.6682 57.2093C76.0815 57.2081 76.4928 57.1511 76.8909 57.0398C76.7967 57.3798 76.6847 57.7146 76.5553 58.0428C76.28 58.6565 76.2493 59.3521 76.4696 59.9877H73.4317C73.0904 59.9868 72.7628 60.1213 72.5207 60.3617C72.2785 60.6021 72.1416 60.9287 72.1399 61.27V61.8246C71.8115 61.9128 71.5212 62.1065 71.3138 62.376C71.1063 62.6454 70.9932 62.9756 70.9919 63.3157C70.993 63.8994 70.8779 64.4774 70.6531 65.0161C70.4284 65.5548 70.0985 66.0433 69.6828 66.453C69.187 66.9417 68.7935 67.5243 68.5254 68.1668C68.2573 68.8093 68.1199 69.4988 68.1214 70.195V78.1534H63.693C63.6322 78.1455 63.5704 78.1506 63.5117 78.1684C63.453 78.1863 63.3988 78.2165 63.3527 78.2569C63.3067 78.2974 63.2697 78.3472 63.2444 78.4031C63.2191 78.4589 63.2061 78.5195 63.2061 78.5809C63.2061 78.6422 63.2191 78.7028 63.2444 78.7587C63.2697 78.8145 63.3067 78.8644 63.3527 78.9048C63.3988 78.9453 63.453 78.9754 63.5117 78.9933C63.5704 79.0111 63.6322 79.0162 63.693 79.0083H92.2117C92.2725 79.0162 92.3343 79.0111 92.3929 78.9933C92.4516 78.9754 92.5058 78.9453 92.5519 78.9048C92.598 78.8644 92.6349 78.8145 92.6602 78.7587C92.6855 78.7028 92.6986 78.6422 92.6986 78.5809C92.6986 78.5195 92.6855 78.4589 92.6602 78.4031C92.6349 78.3472 92.598 78.2974 92.5519 78.2569C92.5058 78.2165 92.4516 78.1863 92.3929 78.1684C92.3343 78.1506 92.2727 78.1455 92.2119 78.1534ZM77.9603 56.0422C78.0208 55.9005 78.485 54.9542 80.1447 54.9542C80.5356 54.9578 80.9251 55.0018 81.3069 55.0854C81.7175 55.1758 82.1363 55.224 82.5567 55.2292C83.0585 55.2594 83.5569 55.1296 83.9801 54.8584C82.6194 56.5137 81.3428 56.9956 80.3181 56.9956C79.4449 56.9816 78.6064 56.6517 77.9578 56.067L77.9603 56.0422ZM75.6682 56.3542C74.4526 56.3542 72.7706 55.711 71.9247 52.5075C72.1853 52.9679 72.8194 53.5189 74.3432 53.7666C77.2123 54.229 77.0905 56.064 77.0905 56.064C76.641 56.2561 76.1571 56.3547 75.6682 56.3542ZM73.001 61.2697C73.0016 61.156 73.0472 61.0471 73.128 60.967C73.2087 60.8869 73.3179 60.842 73.4317 60.8423H82.4732C82.5869 60.842 82.6961 60.8869 82.7769 60.967C82.8576 61.0471 82.9033 61.156 82.9038 61.2697V61.6972H73.001V61.2697ZM86.9224 78.1534H77.3145C77.9011 77.9162 78.4762 77.6491 79.0434 77.3757L79.0413 77.3729C78.8766 77.1315 78.6934 76.9031 78.4936 76.6899C77.1008 77.3558 75.6661 77.9671 74.157 78.1197L74.718 74.6213C74.4439 74.514 74.171 74.4036 73.8993 74.2903L73.2795 78.1534H71.3874C71.7259 77.0154 72.243 75.9383 72.9194 74.9624L73.0848 73.931C72.9571 73.8716 72.83 73.8105 72.7035 73.7479C71.7636 75.1 70.8861 76.5187 70.4997 78.1534H68.9825V70.195C68.9813 69.6113 69.0965 69.0332 69.3213 68.4945C69.5461 67.9559 69.876 67.4674 70.2917 67.0576C70.7876 66.5689 71.181 65.9863 71.4491 65.3437C71.7172 64.7012 71.8545 64.0117 71.8529 63.3154C71.8538 63.1313 71.9277 62.955 72.0584 62.8252C72.1891 62.6955 72.3659 62.6228 72.5501 62.6232H83.3548C83.539 62.6228 83.7158 62.6955 83.8465 62.8253C83.9772 62.9551 84.0511 63.1315 84.0519 63.3157C84.0504 64.0118 84.1877 64.7013 84.4558 65.3437C84.7239 65.9862 85.1173 66.5688 85.6131 67.0574C86.0289 67.4672 86.3588 67.9556 86.5835 68.4943C86.8083 69.033 86.9235 69.6111 86.9224 70.1948V78.1534ZM83.2003 52.4005C83.3271 52.4005 83.451 52.3629 83.5565 52.2924C83.6619 52.222 83.7441 52.1218 83.7926 52.0047C83.8411 51.8875 83.8538 51.7586 83.8291 51.6342C83.8043 51.5099 83.7433 51.3956 83.6536 51.306C83.5639 51.2163 83.4497 51.1552 83.3253 51.1305C83.201 51.1057 83.0721 51.1184 82.9549 51.167C82.8377 51.2155 82.7376 51.2977 82.6672 51.4031C82.5967 51.5085 82.5591 51.6325 82.5591 51.7593C82.5593 51.9293 82.6269 52.0923 82.7471 52.2125C82.8673 52.3327 83.0303 52.4003 83.2003 52.4005ZM83.2003 51.4387C83.2637 51.4387 83.3256 51.4575 83.3784 51.4928C83.4311 51.528 83.4722 51.5781 83.4964 51.6366C83.5207 51.6952 83.527 51.7597 83.5147 51.8219C83.5023 51.884 83.4718 51.9412 83.4269 51.986C83.3821 52.0308 83.325 52.0614 83.2628 52.0737C83.2006 52.0861 83.1362 52.0798 83.0776 52.0555C83.019 52.0312 82.9689 51.9901 82.9337 51.9374C82.8985 51.8847 82.8797 51.8227 82.8797 51.7593C82.8797 51.6743 82.9135 51.5928 82.9736 51.5327C83.0337 51.4726 83.1152 51.4388 83.2003 51.4387ZM94.5273 58.2243C94.4427 58.2243 94.3601 58.2493 94.2898 58.2963C94.2195 58.3433 94.1647 58.41 94.1324 58.4881C94.1 58.5662 94.0916 58.6522 94.1081 58.7351C94.1246 58.818 94.1653 58.8942 94.225 58.9539C94.2848 59.0137 94.361 59.0544 94.4439 59.0709C94.5268 59.0874 94.6128 59.079 94.6909 59.0466C94.769 59.0143 94.8357 58.9595 94.8827 58.8892C94.9296 58.8189 94.9547 58.7362 94.9547 58.6517C94.9546 58.5384 94.9095 58.4297 94.8294 58.3496C94.7493 58.2695 94.6406 58.2244 94.5273 58.2243ZM94.5273 58.8654C94.485 58.8654 94.4437 58.8529 94.4085 58.8294C94.3734 58.8059 94.346 58.7725 94.3298 58.7335C94.3137 58.6944 94.3094 58.6515 94.3177 58.61C94.3259 58.5686 94.3463 58.5305 94.3762 58.5006C94.4061 58.4707 94.4441 58.4503 94.4856 58.4421C94.527 58.4338 94.57 58.4381 94.6091 58.4543C94.6481 58.4704 94.6815 58.4978 94.705 58.533C94.7285 58.5681 94.741 58.6094 94.741 58.6517C94.7409 58.7084 94.7184 58.7627 94.6783 58.8028C94.6383 58.8428 94.5839 58.8654 94.5273 58.8654Z" fill="#BD28A7"/>
<path d="M86.7795 59.5062C86.6949 59.5062 86.6123 59.5313 86.542 59.5782C86.4717 59.6252 86.4169 59.692 86.3846 59.7701C86.3522 59.8482 86.3437 59.9341 86.3602 60.017C86.3767 60.0999 86.4174 60.1761 86.4772 60.2359C86.537 60.2957 86.6132 60.3364 86.6961 60.3529C86.779 60.3694 86.8649 60.3609 86.943 60.3285C87.0211 60.2962 87.0879 60.2414 87.1349 60.1711C87.1818 60.1008 87.2069 60.0182 87.2069 59.9336C87.2068 59.8203 87.1617 59.7117 87.0816 59.6315C87.0014 59.5514 86.8928 59.5063 86.7795 59.5062ZM86.7795 60.1474C86.7372 60.1474 86.6959 60.1348 86.6607 60.1113C86.6256 60.0879 86.5982 60.0545 86.582 60.0154C86.5658 59.9764 86.5616 59.9334 86.5698 59.892C86.5781 59.8505 86.5984 59.8124 86.6283 59.7825C86.6582 59.7526 86.6963 59.7323 86.7378 59.724C86.7792 59.7158 86.8222 59.72 86.8612 59.7362C86.9003 59.7524 86.9337 59.7798 86.9572 59.8149C86.9806 59.8501 86.9932 59.8914 86.9932 59.9336C86.9931 59.9903 86.9706 60.0446 86.9305 60.0847C86.8904 60.1248 86.8361 60.1473 86.7795 60.1474ZM90.2524 47.1106C90.1678 47.1106 90.0852 47.1357 90.0149 47.1826C89.9446 47.2296 89.8898 47.2964 89.8575 47.3745C89.8251 47.4526 89.8167 47.5385 89.8331 47.6214C89.8496 47.7043 89.8903 47.7805 89.9501 47.8403C90.0099 47.9001 90.0861 47.9408 90.169 47.9573C90.2519 47.9737 90.3378 47.9653 90.4159 47.9329C90.494 47.9006 90.5608 47.8458 90.6078 47.7755C90.6547 47.7052 90.6798 47.6226 90.6798 47.538C90.6797 47.4247 90.6346 47.316 90.5545 47.2359C90.4743 47.1558 90.3657 47.1107 90.2524 47.1106ZM90.2524 47.7517C90.2101 47.7517 90.1688 47.7392 90.1336 47.7157C90.0985 47.6922 90.0711 47.6589 90.0549 47.6198C90.0387 47.5808 90.0345 47.5378 90.0428 47.4963C90.051 47.4549 90.0714 47.4168 90.1012 47.3869C90.1311 47.357 90.1692 47.3367 90.2107 47.3284C90.2521 47.3202 90.2951 47.3244 90.3342 47.3406C90.3732 47.3568 90.4066 47.3841 90.4301 47.4193C90.4536 47.4544 90.4661 47.4958 90.4661 47.538C90.466 47.5947 90.4435 47.649 90.4034 47.6891C90.3634 47.7292 90.309 47.7517 90.2524 47.7517ZM69.6703 55.8196C69.6703 55.735 69.6452 55.6524 69.5983 55.5821C69.5513 55.5118 69.4845 55.457 69.4064 55.4247C69.3283 55.3923 69.2424 55.3839 69.1595 55.4004C69.0766 55.4169 69.0004 55.4576 68.9406 55.5173C68.8808 55.5771 68.8401 55.6533 68.8236 55.7362C68.8072 55.8191 68.8156 55.9051 68.848 55.9832C68.8803 56.0613 68.9351 56.128 69.0054 56.175C69.0757 56.222 69.1583 56.247 69.2429 56.247C69.3562 56.2469 69.4648 56.2018 69.545 56.1217C69.6251 56.0416 69.6702 55.9329 69.6703 55.8196ZM69.0291 55.8196C69.0291 55.7773 69.0417 55.736 69.0652 55.7008C69.0886 55.6657 69.122 55.6383 69.1611 55.6221C69.2001 55.606 69.2431 55.6017 69.2846 55.61C69.326 55.6182 69.3641 55.6386 69.394 55.6685C69.4239 55.6984 69.4442 55.7364 69.4525 55.7779C69.4607 55.8193 69.4565 55.8623 69.4403 55.9014C69.4241 55.9404 69.3967 55.9738 69.3616 55.9973C69.3265 56.0208 69.2851 56.0333 69.2429 56.0333C69.1862 56.0332 69.1319 56.0107 69.0918 55.9706C69.0517 55.9306 69.0292 55.8762 69.0291 55.8196Z" fill="#BD28A7"/>
<path d="M62.3271 61.2721L62.6449 60.854L62.4443 60.7403L62.2402 61.2084H62.2335L62.0262 60.7437L61.8221 60.8606L62.1365 61.2686V61.2755L61.6447 61.2118V61.4392L62.1397 61.3757V61.3823L61.8221 61.7903L62.0125 61.9106L62.2301 61.4392H62.2367L62.4374 61.9072L62.6481 61.7869L62.3271 61.3858V61.3789L62.8319 61.4392V61.2118L62.3271 61.2787V61.2721ZM61.247 49.2928L61.0641 49.5276L61.1737 49.5971L61.2989 49.3255H61.3028L61.4184 49.5952L61.5398 49.5257L61.3549 49.2947V49.2908L61.6456 49.3255V49.1945L61.3549 49.2331V49.2293L61.5379 48.9884L61.4223 48.923L61.3047 49.1925H61.3009L61.1816 48.925L61.0641 48.9923L61.2451 49.2274V49.2312L60.9619 49.1945V49.3255L61.247 49.2889V49.2928ZM95.3288 52.2322V52.0091L94.8336 52.0747V52.0683L95.1452 51.6582L94.9483 51.5468L94.7483 52.0059H94.7417L94.5384 51.55L94.3382 51.6648L94.6466 52.0651V52.0715L94.1642 52.0091V52.2322L94.6498 52.17V52.1765L94.3382 52.5765L94.5252 52.6947L94.7385 52.2322H94.7449L94.9417 52.6915L95.1484 52.5733L94.8336 52.1797V52.1732L95.3288 52.2322ZM74.5325 47.4497L74.8014 47.0962L74.6315 47L74.459 47.396H74.4533L74.278 47.0028L74.1051 47.1017L74.3712 47.4469V47.4527L73.9553 47.3988V47.5911L74.374 47.5375V47.5431L74.1051 47.8882L74.2665 47.9902L74.4505 47.5911H74.456L74.6259 47.9874L74.8042 47.8854L74.5325 47.5458V47.5403L74.9596 47.5911V47.3988L74.5325 47.4554V47.4497Z" fill="#BD28A7"/>
<defs>
<filter id="filter0_d_3643_2203" x="0.9" y="0.9" width="154.2" height="154.2" filterUnits="userSpaceOnUse" color-interpolation-filters="sRGB">
<feFlood flood-opacity="0" result="BackgroundImageFix"/>
<feColorMatrix in="SourceAlpha" type="matrix" values="0 0 0 0 0 0 0 0 0 0 0 0 0 0 0 0 0 0 127 0" result="hardAlpha"/>
<feMorphology radius="0.1" operator="dilate" in="SourceAlpha" result="effect1_dropShadow_3643_2203"/>
<feOffset/>
<feGaussianBlur stdDeviation="8.5"/>
<feComposite in2="hardAlpha" operator="out"/>
<feColorMatrix type="matrix" values="0 0 0 0 0.768627 0 0 0 0 0.768627 0 0 0 0 0.768627 0 0 0 0.63 0"/>
<feBlend mode="normal" in2="BackgroundImageFix" result="effect1_dropShadow_3643_2203"/>
<feBlend mode="normal" in="SourceGraphic" in2="effect1_dropShadow_3643_2203" result="shape"/>
</filter>
</defs>
</svg>
