<svg width="76" height="76" viewBox="0 0 76 76" fill="none" xmlns="http://www.w3.org/2000/svg">
<circle cx="38" cy="38" r="38" fill="#D1EEFF"/>
<path d="M28.6992 30.1049C28.7574 29.1772 28.6992 28.2959 28.769 27.4261C29.0945 23.2166 32.478 19.6565 36.687 19.0882C41.8727 18.3925 46.5003 21.883 47.2212 27.0203C47.3607 28.0292 47.291 29.0381 47.3142 30.1049C47.8723 30.1049 48.4188 30.1049 48.9653 30.1049C50.2791 30.1049 51 30.8355 51 32.1459C51 36.8193 51 41.4927 51 46.1661C51 48.5666 49.8954 50.306 47.756 51.3845C44.8493 52.8457 41.9309 54.272 39.0357 55.7332C38.3497 56.0811 37.6986 56.0927 37.001 55.7448C34.0593 54.2604 31.0944 52.8225 28.1527 51.3265C26.1064 50.2944 25.0251 48.613 25.0134 46.3168C24.9902 41.5623 25.0018 36.7961 25.0134 32.0415C25.0134 30.8703 25.7692 30.1281 26.9435 30.1165C27.5133 30.0933 28.083 30.1049 28.6992 30.1049ZM32.4431 30.0701C36.1871 30.0701 39.8729 30.0701 43.5819 30.0701C43.5819 29.4207 43.5819 28.8061 43.5819 28.1799C43.5587 25.5591 41.7216 23.3558 39.1055 22.7991C36.6173 22.2657 34.0361 23.5993 32.9431 25.9302C32.3152 27.2638 32.4548 28.6554 32.4431 30.0701ZM39.8612 41.1912C39.8612 40.5882 39.8729 39.9736 39.8612 39.3705C39.838 38.2921 39.0357 37.4919 38.0009 37.5035C36.9777 37.5151 36.1871 38.3037 36.1754 39.3705C36.1638 40.5998 36.1638 41.829 36.1754 43.0582C36.1871 44.1251 36.9777 44.9021 38.0125 44.9021C39.0473 44.9021 39.838 44.1251 39.8612 43.0698C39.8729 42.432 39.8612 41.8174 39.8612 41.1912Z" fill="#00A2FF"/>
</svg>
