<svg width="13" height="13" viewBox="0 0 13 13" fill="none" xmlns="http://www.w3.org/2000/svg">
<path d="M7.71952 13H5.2809C5.1281 13 4.97989 12.9494 4.86084 12.8564C4.74179 12.7635 4.65905 12.6339 4.62636 12.4891L4.35368 11.2645C3.98994 11.1099 3.64503 10.9165 3.32531 10.688L2.09461 11.0682C1.94894 11.1133 1.79176 11.1086 1.64918 11.0551C1.50659 11.0015 1.38718 10.9022 1.31077 10.7738L0.0887826 8.7256C0.0131755 8.59699 -0.0152055 8.44729 0.00828288 8.30099C0.0317712 8.15469 0.105738 8.02046 0.218083 7.92025L1.17276 7.07525C1.12935 6.69247 1.12935 6.30623 1.17276 5.92345L0.218083 5.0804C0.105579 4.98015 0.0315115 4.8458 0.00801933 4.69936C-0.0154729 4.55292 0.013004 4.40308 0.0887826 4.2744L1.30809 2.22495C1.3845 2.09646 1.50391 1.99718 1.6465 1.94362C1.78908 1.89006 1.94626 1.88543 2.09193 1.9305L3.32263 2.31075C3.4861 2.19375 3.65627 2.08455 3.83179 1.98575C4.00129 1.89345 4.17548 1.8096 4.35368 1.73485L4.62703 0.51155C4.65957 0.366728 4.74214 0.237047 4.86107 0.144007C4.98 0.0509664 5.12812 0.000155978 5.2809 0H7.71952C7.87229 0.000155978 8.02042 0.0509664 8.13934 0.144007C8.25827 0.237047 8.34085 0.366728 8.37339 0.51155L8.64941 1.7355C9.01268 1.89102 9.35749 2.08434 9.67778 2.31205L10.9091 1.9318C11.0547 1.8869 11.2118 1.89161 11.3542 1.94516C11.4966 1.99872 11.6159 2.09789 11.6923 2.22625L12.9116 4.2757C13.0671 4.54025 13.0135 4.875 12.7823 5.08105L11.8276 5.92605C11.8711 6.30883 11.8711 6.69507 11.8276 7.07785L12.7823 7.92285C13.0135 8.12955 13.0671 8.46365 12.9116 8.7282L11.6923 10.7776C11.6159 10.9061 11.4965 11.0054 11.3539 11.059C11.2113 11.1125 11.0541 11.1172 10.9085 11.0721L9.67778 10.6918C9.3583 10.9202 9.01361 11.1134 8.65008 11.2677L8.37339 12.4891C8.34071 12.6338 8.25808 12.7633 8.13916 12.8562C8.02025 12.9492 7.87219 12.9999 7.71952 13ZM6.49753 3.9C5.7868 3.9 5.10518 4.17393 4.60262 4.66152C4.10006 5.14912 3.81772 5.81044 3.81772 6.5C3.81772 7.18956 4.10006 7.85088 4.60262 8.33848C5.10518 8.82607 5.7868 9.1 6.49753 9.1C7.20825 9.1 7.88987 8.82607 8.39243 8.33848C8.89499 7.85088 9.17733 7.18956 9.17733 6.5C9.17733 5.81044 8.89499 5.14912 8.39243 4.66152C7.88987 4.17393 7.20825 3.9 6.49753 3.9Z" fill="#00A2FF"/>
</svg>
