<svg width="25" height="28" viewBox="0 0 25 28" fill="none" xmlns="http://www.w3.org/2000/svg">
<path d="M12.2202 28C11.7215 27.889 11.2423 27.7362 10.857 27.3821C10.1171 26.7018 9.83471 25.8722 10.1018 24.9069C10.3807 23.8985 11.0713 23.2833 12.1214 23.1244C13.2808 22.949 14.2586 23.4895 14.7607 24.5425C14.8275 24.6829 14.904 24.722 15.0521 24.7206C15.8568 24.7137 16.6621 24.7254 17.4668 24.7151C18.6046 24.7007 19.6046 23.9711 19.8439 22.9689C19.3501 23.1134 18.8695 23.0963 18.3938 22.9476C17.3764 22.6298 16.6788 21.7248 16.6698 20.615C16.6517 18.3913 16.6378 16.1675 16.6726 13.9445C16.7032 11.9804 18.7576 10.8617 20.4663 11.8592C21.2599 12.3223 21.6514 13.056 21.6556 13.9548C21.6681 16.7615 21.6834 19.5689 21.65 22.3749C21.6243 24.5384 19.8147 26.2969 17.6184 26.351C16.7678 26.3723 15.9159 26.3524 15.0653 26.3641C14.9694 26.3654 14.8233 26.4278 14.7885 26.5018C14.4123 27.2923 13.8024 27.7801 12.9337 27.9562C12.8982 27.963 12.8663 27.9842 12.8322 27.9986C12.6277 28 12.4239 28 12.2202 28Z" fill="#C4C4C4"/>
<path d="M0.0146809 12.2154C-0.0187016 5.78058 5.36074 0.000685127 12.4976 6.09716e-08C19.6283 -0.000685005 25.0133 5.77168 24.9813 12.2914C24.7893 12.1805 24.6197 12.0606 24.4333 11.9784C24.1224 11.842 23.8053 11.7153 23.4812 11.6132C23.333 11.5666 23.2767 11.5098 23.2628 11.3563C23.1174 9.78274 22.6501 8.30779 21.8378 6.94451C20.7369 5.09552 19.211 3.68771 17.2616 2.73615C15.427 1.84077 13.4803 1.50166 11.4461 1.6928C9.68586 1.8579 8.05707 2.42171 6.58129 3.38491C4.64233 4.65023 3.25 6.35809 2.40222 8.49139C2.03641 9.41212 1.82777 10.3712 1.72484 11.3543C1.71649 11.4358 1.65877 11.5529 1.592 11.581C1.07179 11.8023 0.543932 12.0058 0.0146809 12.2154Z" fill="#C4C4C4"/>
<path d="M3.33554 17.2513C3.33554 16.1758 3.32998 15.1009 3.33693 14.0253C3.34389 12.9073 4.00875 11.9537 4.98658 11.6379C6.66614 11.096 8.29562 12.1887 8.32274 13.9301C8.35821 16.1621 8.36169 18.3961 8.32205 20.628C8.28728 22.5791 6.24399 23.6875 4.54009 22.7037C3.71388 22.2263 3.34389 21.4638 3.33693 20.5321C3.32928 19.4387 3.33554 18.3447 3.33554 17.2513Z" fill="#C4C4C4"/>
<path d="M1.69564 21.2583C0.779009 21.0603 0.0299899 20.0711 0.00773492 18.9893C-0.00686991 18.27 0.00356211 17.55 0.00425758 16.8307C0.00425758 16.4025 -0.00478351 15.9744 0.00843039 15.5462C0.0397265 14.5302 0.670516 13.6486 1.59549 13.3122C1.62887 13.2999 1.66504 13.2958 1.69633 13.2889C1.69564 15.9511 1.69564 18.6057 1.69564 21.2583Z" fill="#C4C4C4"/>
<path d="M23.3003 21.2631C23.3003 18.5995 23.3003 15.9524 23.3003 13.2786C23.9603 13.4985 24.461 13.913 24.733 14.5371C24.8818 14.8789 24.9701 15.2708 24.9805 15.6428C25.0125 16.7348 24.9979 17.8288 24.9903 18.9215C24.9819 20.0375 24.2781 21.0034 23.3003 21.2631Z" fill="#C4C4C4"/>
</svg>
