<svg width="141" height="171" viewBox="0 0 141 171" fill="none" xmlns="http://www.w3.org/2000/svg">
<circle cx="70.5" cy="100.04" r="68.5" fill="white" stroke="#203ECD" stroke-width="4"/>
<path d="M90.3129 34.3584C90.3129 34.3584 86.6377 21.1206 68.8474 20.7687C51.057 20.4167 42.6756 34.2973 40.7069 39.1277C38.3933 44.7877 38.7489 61.5127 38.7489 61.5127L39.5788 143.202L54.7286 129.382C54.7286 129.382 95.0048 168.022 107.331 152.881C107.331 152.881 100.455 110.797 100.455 89.2237C100.455 84.3466 102.499 59.7565 102.499 59.7565C102.499 59.7565 103.429 28.1597 90.3129 34.3584Z" fill="#845931"/>
<path d="M32.4908 155.16C46.764 163.711 59.8337 166.757 70.9994 166.958L71.064 167.076L71.1323 166.958C94.4875 167.331 109.461 155.254 109.576 155.16C112.292 152.046 114.099 148.322 114.685 143.959C115.838 135.379 114.286 122.734 102.197 115.397C97.2035 112.365 90.41 110.243 81.2669 109.686C81.2202 109.683 81.1771 109.683 81.1304 109.679C81.1017 109.676 81.0729 109.676 81.0442 109.676C80.8717 109.665 80.7029 109.658 80.5304 109.647C80.1568 109.629 79.7796 109.611 79.3952 109.597C78.5473 109.564 77.6779 109.546 76.7906 109.543C72.5657 109.521 68.7073 109.611 65.1866 109.808C64.9387 109.823 64.6909 109.837 64.4466 109.852H64.443C63.1963 109.927 61.9964 110.017 60.8324 110.117C60.8109 110.121 60.7893 110.121 60.7678 110.124C60.6744 110.132 60.5774 110.142 60.484 110.15C50.8308 111.026 44.0624 112.825 39.2843 115.386C28.4922 121.175 27.8995 130.865 27.2959 142.63C27.0552 147.435 29.0132 151.637 32.4908 155.16Z" fill="#203ECD"/>
<path d="M47.9174 124.157L52.0776 131.796L56.6221 140.135L60.2434 134.346L62.0182 131.508L61.2242 135.186L59.1621 144.789L70.9996 166.513L71.0642 166.632L71.1325 166.517L80.8503 149.623L84.1663 143.859L81.1306 129.752L86.9397 139.039L95.7559 123.715L81.2707 109.242L81.1521 109.127H81.0551L79.3954 109.152L65.1904 109.364L60.8111 109.432H60.7284L60.4877 109.705L47.9174 124.157Z" fill="#627DFF"/>
<path d="M79.636 109.31L81.1521 109.127L71.0642 166.632L60.7284 109.432L79.636 109.31Z" fill="white"/>
<path d="M80.7279 102.074L61.2275 101.664C61.2275 101.664 60.0779 109.317 61.3066 111.425C62.7292 113.868 71.1753 121.553 71.1753 121.553C71.1753 121.553 79.2873 113.447 80.6489 110.962C81.6476 109.138 80.6489 102.641 80.6489 102.641L80.7279 102.074Z" fill="#FCCEAE"/>
<path d="M45.4419 77.0022L48.0825 62.389C48.0825 62.389 75.8385 62.371 88.1646 47.2298C88.1646 47.2298 93.3415 62.7409 95.8095 62.5649L97.2861 74.6822L98.0657 72.4448L95.9856 80.4643C95.9856 80.4643 91.3117 106.15 71.3478 106.15C51.3589 106.15 47.1556 91.7232 45.7078 82.7771C45.4383 81.1072 45.3198 79.0349 45.3126 76.697L45.4419 77.0022Z" fill="#FFE6CA"/>
<path d="M95.2632 61.6959H102.369C102.984 61.6959 103.483 62.1987 103.483 62.8092V66.8459C103.54 66.8351 103.602 66.8315 103.659 66.8315H106.738C107.352 66.8315 107.852 67.3343 107.852 67.9448V78.5286C107.852 79.1427 107.349 79.6419 106.738 79.6419H103.659C103.598 79.6419 103.54 79.6347 103.483 79.6275V83.1184C103.483 83.7325 102.98 84.2317 102.369 84.2317H95.2632C94.6489 84.2317 94.1496 83.7289 94.1496 83.1184V62.8092C94.1496 62.1987 94.6489 61.6959 95.2632 61.6959Z" fill="#443935"/>
<path d="M35.3251 67.6467H38.4039C38.4757 67.6467 38.5476 67.6539 38.6158 67.6683V63.6962C38.6158 63.0821 39.1188 62.5829 39.7295 62.5829H46.8356C47.4499 62.5829 47.9493 63.0857 47.9493 63.6962V84.0054C47.9493 84.6195 47.4463 85.1187 46.8356 85.1187H42.7437C43.6526 87.8338 45.1184 89.9276 47.2236 91.8202C49.2247 93.6159 51.7466 94.995 54.7285 95.9144C58.4683 97.0708 62.007 97.2073 63.6667 97.1965V96.6686C63.6667 96.0544 64.1697 95.5552 64.7804 95.5552H72.8924C73.5067 95.5552 74.0061 96.058 74.0061 96.6686V99.2364C74.0061 99.8505 73.5031 100.35 72.8924 100.35H64.7768C64.1625 100.35 63.6631 99.8469 63.6631 99.2364V98.4463C63.5877 98.4463 63.5122 98.4463 63.4296 98.4463C61.6154 98.4463 58.1414 98.2667 54.3943 97.1139C51.2329 96.1442 48.5457 94.6789 46.4081 92.7611C43.6562 90.2939 42.2695 87.3525 41.5402 85.1187H39.7259C39.1116 85.1187 38.6123 84.6159 38.6123 84.0054V80.4392C38.544 80.4535 38.4721 80.4607 38.4003 80.4607H35.3215C34.7071 80.4607 34.2078 79.9579 34.2078 79.3474V68.7636C34.2114 68.1495 34.7107 67.6467 35.3251 67.6467Z" fill="#443935"/>
<path d="M71.0638 166.632L71.1321 166.513C71.1177 166.513 71.0997 166.513 71.0854 166.513C71.071 166.513 71.0566 166.513 71.0423 166.513C71.0279 166.513 71.0135 166.513 70.9991 166.513L71.0638 166.632Z" fill="#FF8E61"/>
</svg>
