<svg width="39" height="46" viewBox="0 0 39 46" fill="none" xmlns="http://www.w3.org/2000/svg">
<path d="M32.0384 5.6811C31.8634 5.68155 31.6915 5.63389 31.5406 5.5431C27.3885 3.26611 23.7986 2.30011 19.4948 2.30011C15.2126 2.30011 11.1465 3.38111 7.44803 5.5431C6.92503 5.84593 6.2804 5.6351 5.97727 5.07927C5.84196 4.81099 5.81144 4.50002 5.8919 4.20952C5.97236 3.91903 6.15776 3.6708 6.41045 3.51527C10.3993 1.19801 14.9091 -0.0135881 19.4948 0.000114957C24.1008 0.000114957 28.1238 1.08111 32.5361 3.49611C32.7935 3.64109 32.9852 3.88365 33.0701 4.17174C33.1549 4.45983 33.1261 4.7705 32.9899 5.0371C32.908 5.22638 32.7748 5.38765 32.6062 5.50179C32.4375 5.61593 32.2405 5.67816 32.0384 5.6811ZM1.0897 17.7561C0.864987 17.7544 0.646181 17.6822 0.462849 17.5491C0.224325 17.3675 0.0639099 17.0982 0.0153933 16.7979C-0.0331233 16.4976 0.0340458 16.1897 0.202752 15.9391C2.34434 12.7191 5.06787 10.1891 8.31346 8.41809C15.104 4.69594 23.7986 4.6691 30.6107 8.39509C33.8553 10.1661 36.5798 12.6731 38.7214 15.8701C38.8894 16.1209 38.9561 16.4286 38.9076 16.7287C38.8592 17.0288 38.6992 17.2981 38.4613 17.4801C38.3458 17.5684 38.2139 17.6316 38.0737 17.6657C37.9334 17.6997 37.7879 17.704 37.646 17.6781C37.5041 17.6522 37.3689 17.5968 37.2487 17.5153C37.1286 17.4337 37.0261 17.3278 36.9475 17.2041C35.0014 14.3061 32.5361 12.0291 29.6161 10.4421C23.4093 7.0611 15.4717 7.0611 9.28648 10.4651C6.34496 12.0751 3.87966 14.3751 1.93361 17.2692C1.8497 17.4215 1.7267 17.5474 1.57794 17.6332C1.42919 17.719 1.26034 17.7615 1.0897 17.7561ZM14.6063 45.5208C14.4634 45.5222 14.3218 45.4922 14.1912 45.4326C14.0606 45.3731 13.9441 45.2855 13.8494 45.1758C11.9679 43.171 10.9481 41.8792 9.50261 39.1C8.00565 36.271 7.23191 32.821 7.23191 29.118C7.23191 22.2871 12.7248 16.7211 19.4733 16.7211C26.2218 16.7211 31.7184 22.2871 31.7184 29.118C31.7227 29.2662 31.6978 29.4137 31.6454 29.5519C31.593 29.69 31.5141 29.816 31.4133 29.9224C31.3124 30.0287 31.1918 30.1132 31.0585 30.171C30.9253 30.2287 30.782 30.2585 30.6373 30.2585C30.4926 30.2585 30.3494 30.2287 30.2161 30.171C30.0828 30.1132 29.9622 30.0287 29.8614 29.9224C29.7606 29.816 29.6816 29.69 29.6292 29.5519C29.5768 29.4137 29.552 29.2662 29.5562 29.118C29.5562 23.5521 25.0354 19.0211 19.478 19.0211C13.9205 19.0211 9.39501 23.5521 9.39501 29.118C9.39501 32.43 10.0864 35.489 11.4056 37.973C12.7903 40.618 13.7446 41.745 15.4072 43.539C15.6043 43.7622 15.7135 44.0526 15.7135 44.3536C15.7135 44.6546 15.6043 44.9449 15.4072 45.1682C15.1949 45.3876 14.9078 45.514 14.6063 45.5208ZM30.1139 41.2658C27.54 41.2658 25.2693 40.5758 23.4093 39.2188C21.8247 38.0812 20.5301 36.5701 19.6346 34.813C18.7391 33.0558 18.2689 31.104 18.2636 29.1219C18.2575 28.9725 18.281 28.8234 18.3326 28.6836C18.3842 28.5438 18.4629 28.4161 18.5639 28.3082C18.665 28.2003 18.7862 28.1145 18.9205 28.0559C19.0547 27.9972 19.1992 27.967 19.3451 27.967C19.4911 27.967 19.6355 27.9972 19.7697 28.0559C19.904 28.1145 20.0253 28.2003 20.1263 28.3082C20.2273 28.4161 20.306 28.5438 20.3576 28.6836C20.4092 28.8234 20.4327 28.9725 20.4267 29.1219C20.4303 30.7319 20.8136 32.3172 21.5441 33.7428C22.2745 35.1684 23.3304 36.3921 24.6219 37.3099C26.1572 38.4139 27.9526 38.939 30.1157 38.939C30.8691 38.9253 31.6201 38.8484 32.3612 38.709C32.945 38.594 33.5073 39.008 33.6149 39.652C33.6697 39.9492 33.6072 40.2566 33.4411 40.5066C33.275 40.7567 33.0189 40.9291 32.7289 40.986C31.8674 41.1604 30.992 41.2528 30.1139 41.262V41.2658ZM25.7661 46C25.6711 45.996 25.5769 45.9805 25.4854 45.954C22.0462 44.942 19.797 43.585 17.4393 41.124C14.4108 37.927 12.7463 33.672 12.7463 29.118C12.7463 25.392 15.7309 22.3561 19.4069 22.3561C23.0828 22.3561 26.0683 25.392 26.0683 29.118C26.0683 31.579 28.0799 33.58 30.5667 33.58C33.0535 33.58 35.065 31.579 35.065 29.118C35.065 20.4471 28.0359 13.4091 19.3853 13.4091C13.2431 13.4091 7.62018 17.0431 5.09032 22.6781C4.24828 24.5411 3.81416 26.726 3.81416 29.118C3.81416 30.912 3.9648 33.741 5.26247 37.421C5.47953 38.019 5.19792 38.686 4.63562 38.893C4.50199 38.9451 4.35945 38.9691 4.21656 38.9633C4.07368 38.9576 3.9334 38.9224 3.80415 38.8597C3.6749 38.797 3.55936 38.7083 3.46445 38.5987C3.36954 38.4892 3.29723 38.3611 3.25187 38.2222C2.20836 35.3058 1.67379 32.2241 1.67258 29.118C1.67258 26.358 2.17032 23.8472 3.14334 21.6661C6.02031 15.2452 12.4002 11.0861 19.3853 11.0861C29.226 11.0861 37.2281 19.1591 37.2281 29.095C37.2281 32.821 34.2436 35.857 30.5667 35.857C26.8898 35.857 23.9052 32.821 23.9052 29.095C23.9062 26.634 21.8946 24.6292 19.4078 24.6292C16.921 24.6292 14.9094 26.6302 14.9094 29.0912C14.9094 33.0204 16.3372 36.7042 18.954 39.4642C21.0123 41.6262 22.9771 42.8183 26.0262 43.7192C26.61 43.8802 26.9347 44.5242 26.7831 45.1222C26.7359 45.3649 26.6095 45.584 26.4247 45.7435C26.2399 45.903 26.0077 45.9935 25.7661 46Z" fill="#4CA1D6"/>
</svg>
