<svg width="17" height="17" viewBox="0 0 17 17" fill="none" xmlns="http://www.w3.org/2000/svg">
<path d="M11.468 1.41675H5.53217C2.95383 1.41675 1.41675 2.95383 1.41675 5.53217V11.468C1.41675 14.0463 2.95383 15.5834 5.53217 15.5834H11.468C14.0463 15.5834 15.5834 14.0463 15.5834 11.468V5.53217C15.5834 2.95383 14.0463 1.41675 11.468 1.41675ZM7.06217 10.5542L5.46841 12.148C5.36216 12.2542 5.22758 12.3038 5.093 12.3038C4.95842 12.3038 4.81675 12.2542 4.71758 12.148L4.18633 11.6167C3.97383 11.4113 3.97383 11.0713 4.18633 10.8659C4.39175 10.6605 4.72466 10.6605 4.93716 10.8659L5.093 11.0217L6.31133 9.80342C6.51675 9.598 6.84967 9.598 7.06217 9.80342C7.26758 10.0088 7.26758 10.3488 7.06217 10.5542ZM7.06217 5.59591L5.46841 7.18966C5.36216 7.29591 5.22758 7.3455 5.093 7.3455C4.95842 7.3455 4.81675 7.29591 4.71758 7.18966L4.18633 6.65841C3.97383 6.453 3.97383 6.113 4.18633 5.90758C4.39175 5.70217 4.72466 5.70217 4.93716 5.90758L5.093 6.06342L6.31133 4.84508C6.51675 4.63967 6.84967 4.63967 7.06217 4.84508C7.26758 5.0505 7.26758 5.3905 7.06217 5.59591ZM12.4384 11.7726H8.71967C8.42925 11.7726 8.18842 11.5317 8.18842 11.2413C8.18842 10.9509 8.42925 10.7101 8.71967 10.7101H12.4384C12.5793 10.7101 12.7144 10.7661 12.8141 10.8657C12.9137 10.9653 12.9697 11.1004 12.9697 11.2413C12.9697 11.3822 12.9137 11.5174 12.8141 11.617C12.7144 11.7166 12.5793 11.7726 12.4384 11.7726ZM12.4384 6.81425H8.71967C8.42925 6.81425 8.18842 6.57341 8.18842 6.283C8.18842 5.99258 8.42925 5.75175 8.71967 5.75175H12.4384C12.5793 5.75175 12.7144 5.80772 12.8141 5.90735C12.9137 6.00698 12.9697 6.1421 12.9697 6.283C12.9697 6.42389 12.9137 6.55902 12.8141 6.65865C12.7144 6.75828 12.5793 6.81425 12.4384 6.81425Z" fill="#00A2FF"/>
</svg>
