<svg width="13" height="13" viewBox="0 0 13 13" fill="none" xmlns="http://www.w3.org/2000/svg">
<path d="M0 6.5C0 2.90977 2.90977 0 6.5 0C10.0902 0 13 2.90977 13 6.5C13 10.0902 10.0902 13 6.5 13C2.90977 13 0 10.0902 0 6.5ZM4.44336 5.28379L5.63926 6.47715L4.44336 7.69336C4.20723 7.93203 4.20723 8.31797 4.44336 8.53379C4.68203 8.79277 5.06797 8.79277 5.28379 8.53379L6.47715 7.36074L7.69336 8.53379C7.93203 8.79277 8.31797 8.79277 8.53379 8.53379C8.79277 8.31797 8.79277 7.93203 8.53379 7.69336L7.36074 6.47715L8.53379 5.28379C8.79277 5.06797 8.79277 4.68203 8.53379 4.44336C8.31797 4.20723 7.93203 4.20723 7.69336 4.44336L6.47715 5.63926L5.28379 4.44336C5.06797 4.20723 4.68203 4.20723 4.44336 4.44336C4.20723 4.68203 4.20723 5.06797 4.44336 5.28379Z" fill="#E74A3B"/>
</svg>
