<svg width="24" height="24" viewBox="0 0 24 24" fill="none" xmlns="http://www.w3.org/2000/svg">
<circle cx="12" cy="12" r="12" fill="white"/>
<path d="M13.875 12.375C13.875 12.8723 13.6775 13.3492 13.3258 13.7008C12.9742 14.0525 12.4973 14.25 12 14.25C11.5027 14.25 11.0258 14.0525 10.6742 13.7008C10.3225 13.3492 10.125 12.8723 10.125 12.375C10.125 11.8777 10.3225 11.4008 10.6742 11.0492C11.0258 10.6975 11.5027 10.5 12 10.5C12.4973 10.5 12.9742 10.6975 13.3258 11.0492C13.6775 11.4008 13.875 11.8777 13.875 12.375V12.375Z" fill="#0383D3"/>
<path d="M7.5 9C7.10218 9 6.72064 9.15804 6.43934 9.43934C6.15804 9.72064 6 10.1022 6 10.5V15C6 15.3978 6.15804 15.7794 6.43934 16.0607C6.72064 16.342 7.10218 16.5 7.5 16.5H16.5C16.8978 16.5 17.2794 16.342 17.5607 16.0607C17.842 15.7794 18 15.3978 18 15V10.5C18 10.1022 17.842 9.72064 17.5607 9.43934C17.2794 9.15804 16.8978 9 16.5 9H15.621C15.2232 8.99992 14.8417 8.84182 14.5605 8.5605L13.9395 7.9395C13.6583 7.65818 13.2768 7.50008 12.879 7.5H11.121C10.7232 7.50008 10.3417 7.65818 10.0605 7.9395L9.4395 8.5605C9.15826 8.84182 8.77679 8.99992 8.379 9H7.5ZM7.875 10.5C7.77554 10.5 7.68016 10.4605 7.60984 10.3902C7.53951 10.3198 7.5 10.2245 7.5 10.125C7.5 10.0255 7.53951 9.93016 7.60984 9.85984C7.68016 9.78951 7.77554 9.75 7.875 9.75C7.97446 9.75 8.06984 9.78951 8.14016 9.85984C8.21049 9.93016 8.25 10.0255 8.25 10.125C8.25 10.2245 8.21049 10.3198 8.14016 10.3902C8.06984 10.4605 7.97446 10.5 7.875 10.5ZM14.625 12.375C14.625 13.0712 14.3484 13.7389 13.8562 14.2312C13.3639 14.7234 12.6962 15 12 15C11.3038 15 10.6361 14.7234 10.1438 14.2312C9.65156 13.7389 9.375 13.0712 9.375 12.375C9.375 11.6788 9.65156 11.0111 10.1438 10.5188C10.6361 10.0266 11.3038 9.75 12 9.75C12.6962 9.75 13.3639 10.0266 13.8562 10.5188C14.3484 11.0111 14.625 11.6788 14.625 12.375V12.375Z" fill="#0383D3"/>
</svg>
