<svg width="13" height="15" viewBox="0 0 13 15" fill="none" xmlns="http://www.w3.org/2000/svg">
<g opacity="0.5">
<path opacity="0.5" d="M11.8954 13.8596V12.498C11.8954 11.7757 11.6085 11.0829 11.0978 10.5721C10.5871 10.0612 9.89445 9.77415 9.17214 9.77393H3.72405C3.00158 9.77393 2.30871 10.0609 1.79785 10.5718C1.287 11.0826 1 11.7755 1 12.498V13.8596" stroke="#393F45" stroke-width="2" stroke-linecap="round" stroke-linejoin="round"/>
<path opacity="0.5" d="M9.17209 4.32671C9.17209 4.86547 9.01233 5.39214 8.71301 5.84011C8.41369 6.28807 7.98825 6.63722 7.49049 6.8434C6.99274 7.04957 6.44502 7.10352 5.91661 6.99841C5.3882 6.8933 4.90282 6.63386 4.52186 6.2529C4.14089 5.87193 3.88145 5.38656 3.77634 4.85814C3.67123 4.32973 3.72518 3.78201 3.93136 3.28426C4.13753 2.78651 4.48668 2.36107 4.93465 2.06175C5.38261 1.76242 5.90928 1.60266 6.44805 1.60266C7.17051 1.60266 7.86338 1.88966 8.37424 2.40052C8.8851 2.91137 9.17209 3.60425 9.17209 4.32671V4.32671Z" stroke="#393F45" stroke-width="2" stroke-linecap="round" stroke-linejoin="round"/>
</g>
</svg>
