<svg width="21" height="25" viewBox="0 0 21 25" fill="none" xmlns="http://www.w3.org/2000/svg">
<path d="M17.2929 24.2061C16.5013 24.1347 15.7646 23.7708 15.2268 23.1856C14.689 22.6003 14.3886 21.8356 14.3842 21.0407V18.3058H2.86035L2.97055 2.17794C2.97196 1.88999 3.03017 1.60515 3.14186 1.33973C3.25355 1.07432 3.41652 0.833559 3.62142 0.631242C3.82633 0.428924 4.06914 0.26903 4.33595 0.160721C4.60276 0.0524129 4.88832 -0.00218064 5.17627 6.92166e-05L20.7253 1.56309e-08L19 0.499846C19.2835 0.384595 18.694 0.497588 19 0.499846C18.7165 0.615096 18 0.999826 18 0.499826C17.7823 0.714972 20 -0.00012207 20.7253 1.56309e-08C20.7253 0.267708 20.7266 2.06503 20.7253 2.37109V21.0407C20.7222 21.876 20.3911 22.6766 19.8032 23.27C19.5103 23.5695 19.1606 23.8076 18.7746 23.9702C18.3886 24.1328 17.974 24.2167 17.5551 24.217C17.4667 24.217 17.3795 24.2134 17.2929 24.2061Z" fill="url(#paint0_linear_1096_3916)"/>
<path d="M3.03461 24.206V24.2175C2.22239 24.1973 1.45026 23.8603 0.88321 23.2784C0.316164 22.6966 -0.000817186 21.916 1.58222e-06 21.1035V18.3057H15.3838V21.0406C15.3881 21.8354 15.6885 22.6001 16.2263 23.1854C16.7641 23.7707 17.5008 24.1346 18.2924 24.206H3.03461Z" fill="url(#paint1_linear_1096_3916)"/>
<path d="M11.9025 5.95386H6.16797C6.00739 5.95386 5.85339 5.89007 5.73984 5.77652C5.62629 5.66297 5.5625 5.50897 5.5625 5.34839C5.5625 5.18781 5.62629 5.03381 5.73984 4.92026C5.85339 4.80671 6.00739 4.74292 6.16797 4.74292H11.9025C12.0631 4.74292 12.2171 4.80671 12.3306 4.92026C12.4442 5.03381 12.508 5.18781 12.508 5.34839C12.508 5.50897 12.4442 5.66297 12.3306 5.77652C12.2171 5.89007 12.0631 5.95386 11.9025 5.95386ZM16.865 10.2828H6.16797C6.00739 10.2828 5.85339 10.219 5.73984 10.1055C5.62629 9.99195 5.5625 9.83795 5.5625 9.67737C5.5625 9.51679 5.62629 9.36279 5.73984 9.24924C5.85339 9.13569 6.00739 9.0719 6.16797 9.0719H11.5165H16.865C17.0255 9.0719 17.1796 9.13569 17.2931 9.24924C17.4066 9.36279 17.4704 9.51679 17.4704 9.67737C17.4704 9.83795 17.4066 9.99195 17.2931 10.1055C17.1796 10.219 17.0255 10.2828 16.865 10.2828ZM16.865 14.6119H6.16797C6.00739 14.6119 5.85339 14.5481 5.73984 14.4345C5.62629 14.321 5.5625 14.167 5.5625 14.0064C5.5625 13.8458 5.62629 13.6918 5.73984 13.5783C5.85339 13.4647 6.00739 13.4009 6.16797 13.4009H16.865C17.0255 13.4009 17.1796 13.4647 17.2931 13.5783C17.4066 13.6918 17.4704 13.8458 17.4704 14.0064C17.4704 14.167 17.4066 14.321 17.2931 14.4345C17.1796 14.5481 17.0255 14.6119 16.865 14.6119Z" fill="white"/>
<defs>
<linearGradient id="paint0_linear_1096_3916" x1="12.9644" y1="-0.000122065" x2="12.9644" y2="24.2169" gradientUnits="userSpaceOnUse">
<stop stop-color="#41A1DC"/>
<stop offset="1" stop-color="#5B59B9"/>
</linearGradient>
<linearGradient id="paint1_linear_1096_3916" x1="9.14621" y1="18.3057" x2="9.14621" y2="24.2175" gradientUnits="userSpaceOnUse">
<stop stop-color="#3CACE1"/>
<stop offset="1" stop-color="#5B59B9"/>
</linearGradient>
</defs>
</svg>
