<svg width="29" height="21" viewBox="0 0 29 21" fill="none" xmlns="http://www.w3.org/2000/svg">
<path d="M0 12.6586C0 11.5431 0 10.4335 0 9.31809C0.0737969 9.20067 0.0965037 9.08326 0 8.96584C0 8.7721 0 8.5725 0 8.37876C0.10218 8.30831 0.0510902 8.20263 0.0567669 8.11457C0.130564 6.72319 0.221391 5.3318 0.454135 3.95216C0.635789 2.85431 1.07857 1.92085 1.95278 1.23397C2.63966 0.68798 3.44575 0.517726 4.28022 0.417922C6.21597 0.18896 8.1574 0.130252 10.0988 0.0656731C13.5616 -0.0400017 17.0244 -0.0165185 20.4872 0.124381C22.0993 0.18896 23.7115 0.271152 25.3067 0.523597C26.9132 0.776043 28.0655 1.85627 28.4459 3.47662C28.7013 4.57447 28.8035 5.68992 28.8773 6.80538C29.0136 8.87191 29.0419 10.9384 28.9341 13.0108C28.8603 14.4609 28.7808 15.9169 28.4856 17.3435C28.1337 19.0695 27.1346 20.138 25.4486 20.4668C24.0805 20.7368 22.6954 20.7897 21.3103 20.8484C18.6139 20.9717 15.9118 21.0245 13.2153 20.9893C10.0932 20.9423 6.9653 20.9188 3.86015 20.5079C2.12876 20.2789 0.9253 19.2046 0.527932 17.4492C0.261128 16.275 0.181654 15.0774 0.0965037 13.8797C0.0851503 13.4746 0.11921 13.0578 0 12.6586ZM19.1645 10.504C16.6327 8.99519 14.1406 7.50988 11.6315 6.01869C11.6315 9.01868 11.6315 11.9834 11.6315 14.9893C14.152 13.4922 16.6384 12.0128 19.1645 10.504Z" fill="#C4C4C4"/>
</svg>
