<svg width="67" height="67" viewBox="0 0 67 67" fill="none" xmlns="http://www.w3.org/2000/svg">
<g filter="url(#filter0_d_267_2107)">
<path d="M40.4258 29.4958L61.5471 8.42068C62.472 7.49561 62.9916 6.24096 62.9916 4.93272C62.9916 3.62448 62.472 2.36982 61.5471 1.44476C60.6221 0.519696 59.3677 0 58.0596 0C56.7515 0 55.4971 0.519696 54.5721 1.44476L33.5 22.569L12.4279 1.44476C11.5029 0.519696 10.2485 -9.74713e-09 8.9404 0C7.63235 9.74714e-09 6.37787 0.519696 5.45294 1.44476C4.528 2.36982 4.00838 3.62448 4.00838 4.93272C4.00838 6.24096 4.528 7.49561 5.45294 8.42068L26.5742 29.4958L5.45294 50.5709C4.99255 51.0276 4.62713 51.571 4.37776 52.1696C4.12839 52.7683 4 53.4104 4 54.0589C4 54.7074 4.12839 55.3495 4.37776 55.9482C4.62713 56.5468 4.99255 57.0902 5.45294 57.5469C5.90956 58.0073 6.45283 58.3728 7.05139 58.6222C7.64995 58.8716 8.29197 59 8.9404 59C9.58883 59 10.2308 58.8716 10.8294 58.6222C11.428 58.3728 11.9712 58.0073 12.4279 57.5469L33.5 36.4226L54.5721 57.5469C55.0288 58.0073 55.572 58.3728 56.1706 58.6222C56.7692 58.8716 57.4112 59 58.0596 59C58.708 59 59.35 58.8716 59.9486 58.6222C60.5472 58.3728 61.0904 58.0073 61.5471 57.5469C62.0074 57.0902 62.3729 56.5468 62.6222 55.9482C62.8716 55.3495 63 54.7074 63 54.0589C63 53.4104 62.8716 52.7683 62.6222 52.1696C62.3729 51.571 62.0074 51.0276 61.5471 50.5709L40.4258 29.4958Z" fill="#F44336"/>
</g>
<defs>
<filter id="filter0_d_267_2107" x="0" y="0" width="67" height="67" filterUnits="userSpaceOnUse" color-interpolation-filters="sRGB">
<feFlood flood-opacity="0" result="BackgroundImageFix"/>
<feColorMatrix in="SourceAlpha" type="matrix" values="0 0 0 0 0 0 0 0 0 0 0 0 0 0 0 0 0 0 127 0" result="hardAlpha"/>
<feOffset dy="4"/>
<feGaussianBlur stdDeviation="2"/>
<feComposite in2="hardAlpha" operator="out"/>
<feColorMatrix type="matrix" values="0 0 0 0 0 0 0 0 0 0 0 0 0 0 0 0 0 0 0.25 0"/>
<feBlend mode="normal" in2="BackgroundImageFix" result="effect1_dropShadow_267_2107"/>
<feBlend mode="normal" in="SourceGraphic" in2="effect1_dropShadow_267_2107" result="shape"/>
</filter>
</defs>
</svg>
