<svg width="66" height="64" viewBox="0 0 66 64" fill="none" xmlns="http://www.w3.org/2000/svg">
<g filter="url(#filter0_d_4094_2122)">
<path d="M57.0549 30.4403L61.2919 19.1317L57.8478 20.1872L56.8494 20.4933L56.7 20.5394C55.2969 17.3497 53.5113 14.702 51.2545 12.4591C45.6034 6.84675 39.1199 4 31.9809 4C29.4761 4 26.8663 4.35769 24.2242 5.062C17.5111 6.85228 11.8112 11.0376 8.17529 16.8454C4.56154 22.6182 3.23127 29.5912 4.42879 36.4795C5.52398 42.7731 8.88237 48.5302 13.8854 52.6907C18.846 56.8161 25.065 59.0876 31.3973 59.0866C32.522 59.0866 33.6587 59.0147 34.7751 58.8718C41.8376 57.9721 47.7883 54.7658 52.4622 49.3424C54.3741 47.1244 55.8399 44.7164 56.8208 42.1868C57.1573 41.3193 57.0393 39.9209 56.2612 39.176C55.6519 38.5924 54.7475 38.3841 54.104 38.3841C53.8441 38.3841 53.5961 38.4154 53.3674 38.4763C52.3313 38.7528 51.7366 39.7881 51.4748 40.3809C47.9763 48.2942 40.1081 53.407 31.4305 53.407C30.0274 53.407 28.6179 53.2678 27.2415 52.994C21.4743 51.8462 16.5136 48.5054 13.2733 43.5853C10.0218 38.6487 8.90818 32.7431 10.1389 26.9575C12.1191 17.6447 20.2915 10.4236 29.5692 9.79122C30.1832 9.74916 30.7985 9.72794 31.4139 9.72761C38.2883 9.72761 44.0731 12.5246 48.6078 18.0411C49.6821 19.3441 50.5781 20.7845 51.272 22.3241L46.9199 23.8378L57.0549 30.4403Z" fill="#C5982D"/>
<path d="M42.2369 39.3515L36.9536 33.3639C36.9932 33.1031 37.0117 32.8431 37.0117 32.5877C37.0083 31.7296 36.7992 30.8847 36.4019 30.1241C36.0046 29.3634 35.4306 28.7092 34.7282 28.2162L34.0571 17.2016C34.0498 16.5729 33.7951 15.9724 33.3482 15.5302C32.9013 15.0879 32.2982 14.8396 31.6694 14.8389C31.0409 14.8398 30.4381 15.0883 29.9915 15.5306C29.545 15.9728 29.2906 16.5732 29.2836 17.2016L28.6106 28.2162C27.908 28.709 27.3339 29.3632 26.9365 30.1239C26.5392 30.8846 26.3302 31.7295 26.3271 32.5877C26.3281 33.3898 26.5094 34.1814 26.8578 34.9039C27.2061 35.6264 27.7125 36.2613 28.3395 36.7616C28.9664 37.2619 29.6979 37.6147 30.4797 37.794C31.2615 37.9732 32.0736 37.9744 32.8559 37.7972L38.9974 42.8602C39.4346 43.2522 40.0014 43.4685 40.5886 43.4677H40.5904C40.9118 43.4671 41.2297 43.4017 41.5252 43.2754C41.8207 43.1491 42.0877 42.9645 42.3103 42.7326C42.5328 42.5008 42.7063 42.2265 42.8204 41.926C42.9345 41.6256 42.9869 41.3053 42.9744 40.9842C42.9509 40.3646 42.6863 39.7787 42.2369 39.3515ZM34.0036 32.5877C34.0026 33.2061 33.7564 33.7988 33.319 34.2359C32.8816 34.6729 32.2887 34.9187 31.6703 34.9191C31.0523 34.9182 30.4599 34.6722 30.0228 34.2352C29.5858 33.7982 29.3399 33.2058 29.3389 32.5877C29.3399 31.9697 29.5858 31.3773 30.0228 30.9402C30.4599 30.5032 31.0523 30.2573 31.6703 30.2563C32.2888 30.2565 32.8818 30.5022 33.3193 30.9393C33.7568 31.3764 34.0029 31.9693 34.0036 32.5877Z" fill="#2F2F2F" fill-opacity="0.9"/>
</g>
<defs>
<filter id="filter0_d_4094_2122" x="0" y="0" width="65.2919" height="63.0864" filterUnits="userSpaceOnUse" color-interpolation-filters="sRGB">
<feFlood flood-opacity="0" result="BackgroundImageFix"/>
<feColorMatrix in="SourceAlpha" type="matrix" values="0 0 0 0 0 0 0 0 0 0 0 0 0 0 0 0 0 0 127 0" result="hardAlpha"/>
<feOffset/>
<feGaussianBlur stdDeviation="2"/>
<feComposite in2="hardAlpha" operator="out"/>
<feColorMatrix type="matrix" values="0 0 0 0 0 0 0 0 0 0 0 0 0 0 0 0 0 0 0.1 0"/>
<feBlend mode="normal" in2="BackgroundImageFix" result="effect1_dropShadow_4094_2122"/>
<feBlend mode="normal" in="SourceGraphic" in2="effect1_dropShadow_4094_2122" result="shape"/>
</filter>
</defs>
</svg>
