<svg xmlns="http://www.w3.org/2000/svg" xmlns:xlink="http://www.w3.org/1999/xlink" width="238.997" height="173.839" viewBox="0 0 238.997 173.839">
  <defs>
    <linearGradient id="linear-gradient" x1="0.943" y1="0.496" x2="-0.027" y2="0.549" gradientUnits="objectBoundingBox">
      <stop offset="0" stop-color="#0d7044"/>
      <stop offset="1" stop-color="#12ac67"/>
    </linearGradient>
    <filter id="Path_1" x="0" y="42.986" width="114.453" height="123.395" filterUnits="userSpaceOnUse">
      <feOffset dy="3" input="SourceAlpha"/>
      <feGaussianBlur stdDeviation="3" result="blur"/>
      <feFlood flood-opacity="0.247"/>
      <feComposite operator="in" in2="blur"/>
      <feComposite in="SourceGraphic"/>
    </filter>
    <filter id="Rectangle_1" x="42.097" y="0" width="196.9" height="173.839" filterUnits="userSpaceOnUse">
      <feOffset dx="-2" dy="3" input="SourceAlpha"/>
      <feGaussianBlur stdDeviation="3" result="blur-2"/>
      <feFlood flood-opacity="0.251"/>
      <feComposite operator="in" in2="blur-2"/>
      <feComposite in="SourceGraphic"/>
    </filter>
  </defs>
  <g id="Group_1" data-name="Group 1" transform="translate(-762.891 -325.961)">
    <g transform="matrix(1, 0, 0, 1, 762.89, 325.96)" filter="url(#Path_1)">
      <path id="Path_1-2" data-name="Path 1" d="M8,0H94c4.418,0,8,4.13,8,9.225V32.289c0,5.1-3.582,9.225-8,9.225H8c-4.418,0-8-4.13-8-9.225V9.225C0,4.13,3.582,0,8,0Z" transform="matrix(-0.63, -0.78, 0.78, -0.63, 73.19, 154.38)" fill="url(#linear-gradient)"/>
    </g>
    <g transform="matrix(1, 0, 0, 1, 762.89, 325.96)" filter="url(#Rectangle_1)">
      <rect id="Rectangle_1-2" data-name="Rectangle 1" width="197" height="41" rx="8" transform="matrix(0.78, -0.63, 0.63, 0.78, 53.1, 129.98)" fill="#2ac782"/>
    </g>
  </g>
</svg>
