<svg width="85" height="82" viewBox="0 0 85 82" fill="none" xmlns="http://www.w3.org/2000/svg">
<g filter="url(#filter0_d_2118_284)">
<rect x="4" y="1" width="76.1143" height="74" rx="12" fill="#F4F4F4"/>
</g>
<path d="M56.5589 16.1743C56.3845 16.112 56.2101 16.0498 56.0232 16C55.7491 16.0996 55.45 16.1618 55.1884 16.2863C42.7663 22.435 30.3441 28.5838 17.9095 34.745C17.6479 34.8695 17.4236 35.0686 17.1744 35.2304C17.1121 35.4047 17.0498 35.5789 17 35.7656C17.1744 36.1764 17.3364 36.5871 17.5358 36.9979C20.6506 43.296 23.778 49.5817 26.8928 55.8673C27.0548 56.2034 27.2542 56.5021 27.4411 56.8257C27.6155 56.888 27.7899 56.9502 27.9768 57C28.2509 56.9004 28.55 56.8382 28.8116 56.7137C41.2587 50.565 53.6932 44.4038 66.1403 38.2301C66.3895 38.1056 66.6013 37.9189 66.8256 37.7696C66.8879 37.5953 66.9502 37.4211 67 37.2344C66.8629 36.8983 66.7384 36.5498 66.5764 36.2137C63.3867 29.7662 60.1847 23.3188 56.9826 16.8837C56.858 16.6348 56.696 16.4107 56.5589 16.1743ZM29.0733 36.1515C27.466 36.9481 25.8712 37.7447 24.2639 38.5288C24.0147 38.6533 23.7157 38.6533 23.5662 38.6907C23.0055 38.5039 22.7688 38.2177 22.7314 37.782C22.6815 37.3215 22.9058 36.9979 23.3045 36.7987C24.1642 36.3631 25.0364 35.9399 25.8961 35.5167C26.6686 35.1308 27.4286 34.7574 28.2011 34.3716C28.8241 34.0729 29.3723 34.2098 29.6464 34.7325C29.9205 35.2678 29.7087 35.8403 29.0733 36.1515ZM45.0464 42.3127C41.8318 43.9806 37.8697 42.7359 36.2001 39.537C34.5181 36.3257 35.764 32.3676 38.9786 30.6873C42.1931 29.007 46.1552 30.2517 47.8373 33.463C49.5069 36.6743 48.2484 40.6324 45.0464 42.3127ZM61.2686 35.1806C61.3309 35.6287 61.144 35.9772 60.7453 36.1888C60.0102 36.5622 59.2751 36.9232 58.5275 37.2966C57.6305 37.7447 56.7458 38.1803 55.8487 38.616C55.1759 38.952 54.6028 38.7902 54.3287 38.2301C54.0795 37.6825 54.3038 37.1597 54.9517 36.8361C56.5216 36.0519 58.1039 35.2678 59.6863 34.5085C59.9479 34.384 60.2594 34.3591 60.5584 34.2845C60.9821 34.4961 61.2063 34.7823 61.2686 35.1806Z" fill="#00A2FF"/>
<path d="M61.7174 52.8925C61.3935 53.2286 60.9947 53.3033 60.5337 53.3157C53.544 53.5024 46.5542 53.7016 39.5644 53.8883C39.4398 53.8883 39.3277 53.8883 39.2778 53.8883C42.6544 52.2204 46.0932 50.5276 49.5445 48.8224C49.694 49.5443 50.2796 49.6937 51.0271 49.6563C52.5223 49.5817 54.005 49.5692 55.5001 49.5194C55.6496 49.5194 55.8116 49.5194 55.9611 49.4945C56.5093 49.4074 56.8582 48.9842 56.8208 48.449C56.7834 47.9138 56.3847 47.5279 55.8365 47.5279C54.6529 47.5404 53.4692 47.5902 52.298 47.6151C52.161 47.6151 52.0239 47.6151 51.9865 47.6151C55.1637 46.0467 58.3907 44.4411 61.6426 42.8354C61.6551 43.1466 61.6676 43.5449 61.68 43.9432C61.7423 46.6069 61.8046 49.2829 61.8669 51.9466C61.8669 52.0835 61.9043 52.2204 61.9168 52.3573C61.8295 52.544 61.7797 52.7183 61.7174 52.8925Z" fill="#00A2FF"/>
<path d="M19.9154 54.2866C19.579 53.9629 19.5043 53.5646 19.4918 53.1041C19.442 50.6272 19.3797 48.1378 19.3174 45.6609C19.3174 45.524 19.3298 45.3871 19.3298 45.2875C20.8125 48.2747 22.3077 51.2869 23.8153 54.3115C22.7188 54.3612 21.585 54.411 20.4512 54.4608C20.2768 54.3986 20.1023 54.3488 19.9154 54.2866Z" fill="#00A2FF"/>
<path d="M19.0931 29.5671C19.3922 29.231 19.766 29.119 20.2145 29.119C21.747 29.0941 23.2795 29.0443 24.7373 28.9945C22.8684 29.928 20.9496 30.874 19.0184 31.8324C18.981 31.3096 18.9436 30.6997 18.9062 30.1023C18.9685 29.928 19.0308 29.7413 19.0931 29.5671Z" fill="#00A2FF"/>
<defs>
<filter id="filter0_d_2118_284" x="0" y="0" width="84.1143" height="82" filterUnits="userSpaceOnUse" color-interpolation-filters="sRGB">
<feFlood flood-opacity="0" result="BackgroundImageFix"/>
<feColorMatrix in="SourceAlpha" type="matrix" values="0 0 0 0 0 0 0 0 0 0 0 0 0 0 0 0 0 0 127 0" result="hardAlpha"/>
<feMorphology radius="1" operator="erode" in="SourceAlpha" result="effect1_dropShadow_2118_284"/>
<feOffset dy="3"/>
<feGaussianBlur stdDeviation="2.5"/>
<feComposite in2="hardAlpha" operator="out"/>
<feColorMatrix type="matrix" values="0 0 0 0 0 0 0 0 0 0 0 0 0 0 0 0 0 0 0.25 0"/>
<feBlend mode="normal" in2="BackgroundImageFix" result="effect1_dropShadow_2118_284"/>
<feBlend mode="normal" in="SourceGraphic" in2="effect1_dropShadow_2118_284" result="shape"/>
</filter>
</defs>
</svg>
